<?xml version="1.0" standalone="no"?>
<!DOCTYPE svg PUBLIC "-//W3C//DTD SVG 1.1//EN" "http://www.w3.org/Graphics/SVG/1.1/DTD/svg11.dtd" >
<svg xmlns="http://www.w3.org/2000/svg" xmlns:xlink="http://www.w3.org/1999/xlink" version="1.1">
<metadata>
Created by FontForge 20161013 at Fri Jan  1 02:30:17 1904
 By ,,,
</metadata>
<defs>
<font id="Serpentine-Bold-BoldWd" horiz-adv-x="486" >
  <font-face 
    font-family="Serpentine-Bold-Bold Wd"
    font-weight="400"
    font-stretch="normal"
    units-per-em="1000"
    panose-1="0 0 6 0 0 0 0 2 0 0"
    ascent="800"
    descent="-200"
    x-height="470"
    cap-height="642"
    bbox="-215 -231 1433 900"
    underline-thickness="50"
    underline-position="-155"
    unicode-range="U+0020-F002"
  />
<missing-glyph 
 />
    <glyph glyph-name=".notdef" 
 />
    <glyph glyph-name="glyph1" horiz-adv-x="0" 
 />
    <glyph glyph-name="glyph2" horiz-adv-x="389" 
 />
    <glyph glyph-name="space" unicode=" " 
 />
    <glyph glyph-name="space" unicode="&#xa0;" 
 />
    <glyph glyph-name="exclam" unicode="!" horiz-adv-x="440" 
d="M72 0v168h295v-168h-295v0v0zM72 642h295v-258l-29 -178h-237l-29 178v258v0v0z" />
    <glyph glyph-name="quotedbl" unicode="&#x22;" horiz-adv-x="416" 
d="M30 368v274h140v-274h-140v0v0zM246 368v274h140v-274h-140v0v0z" />
    <glyph glyph-name="numbersign" unicode="#" horiz-adv-x="975" 
d="M737 265v-82h-105l-35 -183h-107l31 183h-110l-33 -183h-107l31 183h-97v82h112l20 110h-100v82h114l31 185h108l-32 -185h110l33 185h110l-31 -185h90v-82h-104l-20 -110h91v0v0zM555 375h-110l-19 -110h110l19 110v0v0z" />
    <glyph glyph-name="dollar" unicode="$" horiz-adv-x="905" 
d="M405 160v71h-172q-49 0 -84.5 7.5t-56.5 23.5q-22 15 -32 38t-10 54v112q0 30 9 52.5t28 38.5q19 15 50 23t75 8h193v92h97v-92h323l20 -110q-17 5 -32 8t-28 4q-14 2 -25.5 3t-19.5 1h-238v-63h175q46 0 79.5 -7.5t55.5 -21.5q21 -14 32 -34.5t11 -46.5v-128
q0 -29 -9.5 -52t-28.5 -40q-19 -16 -49.5 -24.5t-74.5 -8.5h-191v-99h-97v99h-330l-25 118q1 -1 2.5 -1.5t2.5 -0.5q2 -1 3.5 -1.5t2.5 -1.5q2 -1 4.5 -2t5.5 -2q9 -4 19.5 -7.5t21.5 -5.5t25.5 -3t33.5 -1h234v0v0zM502 231v-71h78q5 0 9.5 1t8.5 3q3 2 5 5.5t2 7.5v37
q0 4 -2 7t-5 5q-4 2 -8.5 3.5t-9.5 1.5h-78v0v0zM405 431v63h-83q-7 0 -11.5 -1.5t-7.5 -3.5q-4 -2 -5 -5t-1 -7v-29q0 -4 1 -7.5t5 -5.5q3 -2 7.5 -3t11.5 -1h83v0v0z" />
    <glyph glyph-name="percent" unicode="%" horiz-adv-x="1252" 
d="M485 0h-174l91 129l363 512l1 1h175l-93 -129l-362 -512l-1 -1v0v0zM747 86v156q1 24 8 40.5t20 26.5q12 9 35.5 14t59.5 5h215q35 0 58.5 -5t36.5 -14q13 -10 19.5 -26.5t7.5 -40.5v-156q-1 -24 -7.5 -41t-19.5 -26q-13 -10 -36.5 -14.5t-58.5 -4.5h-215
q-36 0 -59.5 4.5t-35.5 14.5q-13 9 -20 26t-8 41v0v0zM1030 90v147q0 6 -2 10.5t-5 7.5q-2 2 -6 3.5t-10 1.5h-60q-5 0 -10 -1.5t-7 -3.5q-3 -3 -4 -7.5t-1 -10.5v-147q0 -6 1 -10.5t4 -6.5q2 -3 7 -4t10 -1h60q6 0 10 1t6 4q3 2 5 6.5t2 10.5v0v0zM45 398v158
q1 24 7.5 40.5t19.5 26.5q12 9 36 14t59 5h215q35 0 58.5 -5t36.5 -14q14 -10 20.5 -26.5t7.5 -40.5v-158q-1 -24 -7.5 -41t-20.5 -26q-13 -10 -36.5 -14.5t-58.5 -4.5h-215q-35 0 -59 4.5t-36 14.5q-13 9 -19.5 26t-7.5 41v0v0zM327 402v149q0 6 -1.5 10.5t-3.5 7.5
q-3 2 -7.5 3.5t-9.5 1.5h-60q-6 0 -10.5 -1.5t-7.5 -3.5q-3 -3 -4 -7.5t-1 -10.5v-149q0 -6 1 -10.5t4 -6.5q3 -3 7.5 -4t10.5 -1h60q5 0 9.5 1t7.5 4q2 2 3.5 6.5t1.5 10.5v0v0z" />
    <glyph glyph-name="ampersand" unicode="&#x26;" horiz-adv-x="1067" 
d="M725 536h-163q-14 0 -23 -1.5t-13 -3.5q-4 -3 -6.5 -6.5t-2.5 -8.5q0 -3 2 -8t6 -11t10 -12.5t13 -13.5l190 -178l57 47q0 1 0.5 1.5l1.5 1.5l1 1l2 2q3 3 4.5 7t3.5 9q0 1 0.5 2.5t1.5 3.5q1 6 1.5 18t0.5 29h133v-52q0 -13 -2.5 -24t-7.5 -20t-11 -17t-14 -14l-89 -74
l77 -72q7 -6 13.5 -10.5t11.5 -7.5q3 -2 6 -3.5t6 -2.5q2 -1 5 -2l6 -2q5 -3 12 -4.5t14 -2.5q8 -1 15.5 -1h17.5h19.5t13.5 1q3 0 5.5 1t5.5 1q3 1 5.5 2t5.5 2q1 1 2.5 1.5t3.5 1.5q1 0 2 0.5t2 1.5l1 0.5t2 1.5l-21 -120h-315q-16 0 -31.5 3t-29.5 10q-15 7 -28.5 18
t-25.5 27l-1.5 -1.5l-0.5 -0.5v0v0v-1v0q-13 -11 -26.5 -21t-28.5 -18q-16 -8 -42.5 -12t-64.5 -4h-198q-54 0 -93 9t-64 28q-24 18 -36 45t-12 63v88q0 36 8.5 63.5t24.5 45.5q17 18 44.5 27t65.5 9h78l-84 79q-8 8 -15 16.5t-12 18.5q-6 9 -9 20t-3 24q0 29 10.5 49.5
t31.5 32.5q20 12 49.5 18t67.5 6h523l25 -126q-3 1 -5.5 1.5t-4.5 1.5q-3 1 -5 1.5t-4 1.5q-10 3 -21.5 6t-23.5 4q-12 2 -30 3t-41 1v0v0zM350 310v-162q0 -12 2 -20t6 -13q5 -4 17.5 -6.5t31.5 -2.5h59q15 0 27 2t19 6q8 5 15 9.5t14 9.5l-191 177v0v0z" />
    <glyph glyph-name="quotesingle" unicode="'" horiz-adv-x="440" 
d="M183 472h-111v170h295v-155l-164 -149h-106l86 134v0v0z" />
    <glyph glyph-name="parenleft" unicode="(" horiz-adv-x="532" 
d="M387 478v-420q0 -17 3.5 -29t10.5 -20q7 -7 19 -10t30 -3l45 -2v-98h-167q-58 2 -102.5 12.5t-74.5 30.5t-44.5 51.5t-14.5 75.5v404q0 45 14.5 77.5t44.5 53.5q30 20 74.5 30.5t102.5 10.5h167v-98h-45q-18 0 -30 -4t-19 -12q-7 -7 -10.5 -20t-3.5 -30v0v0z" />
    <glyph glyph-name="parenright" unicode=")" horiz-adv-x="532" 
d="M145 58v420q0 17 -3.5 30t-10.5 20q-7 8 -19 12t-30 4h-45v98h166q59 0 103 -10.5t74 -30.5q30 -21 45 -53.5t15 -77.5v-404q0 -44 -15 -75.5t-45 -51.5t-74 -30.5t-103 -10.5l-166 -2v98h45q18 2 30 5t19 10q7 8 10.5 20t3.5 29v0v0z" />
    <glyph glyph-name="asterisk" unicode="*" horiz-adv-x="836" 
d="M480 246h-123v59v12t1 12q2 5 3.5 10.5t3.5 11.5q1 2 2 4.5t2 4.5q0 2 1 4.5t2 4.5q2 5 4.5 9.5t5.5 10.5l-2 2l-7.5 -7.5t-7.5 -6.5t-7 -6l-6 -6q-1 -1 -2.5 -2t-2.5 -1q-2 -1 -3 -2l-2 -2l-2.5 -2.5t-3.5 -2.5q-1 0 -1.5 -0.5l-1.5 -1.5q-2 -1 -4.5 -3t-4.5 -3
q-3 -2 -5.5 -3.5t-5.5 -3.5q-5 -4 -12 -7.5l-15 -7.5l-51 -28l-67 90l74 35l4 2l4 2q3 0 5.5 1t5.5 2t5.5 2t5.5 2q2 0 4.5 1t5.5 2q5 1 9.5 2t8.5 2q5 0 9 1l8 2q8 2 14.5 2.5t10.5 0.5v2q-4 0 -9 1.5t-13 2.5q-5 1 -10.5 2t-11.5 2q-3 1 -5.5 1.5t-5.5 1.5q-4 1 -8.5 2
t-8.5 2q-5 2 -9 3.5t-8 2.5q-3 1 -5.5 2t-4.5 2t-4.5 2t-5.5 2t-5.5 2t-4.5 3q-2 1 -4.5 2.5t-5.5 2.5l-38 23l66 85l40 -18q14 -7 27 -15t24 -17t21 -19t19 -21l3 3q-5 12 -8.5 23.5t-5.5 21.5q-3 10 -4 19.5t-1 18.5v53h124v-58q0 -4 -0.5 -9t-1.5 -9q-1 -5 -2 -9.5
t-3 -9.5q-2 -10 -5.5 -20t-7.5 -21l2 -3q12 11 22 20t17 15q3 3 6.5 5.5t6.5 5.5q3 2 6.5 4t6.5 4q2 1 2.5 1.5l1.5 1.5q1 0 1.5 0.5l0.5 0.5q1 0 2 0.5t2 1.5q1 0 2 0.5t2 1.5t2 1.5t2 1.5q1 0 2.5 0.5t2.5 1.5q2 2 5 3.5t7 2.5l36 17l68 -95l-75 -33q-4 -1 -7.5 -2.5
t-6.5 -3.5q-4 -1 -7.5 -2t-7.5 -2q-7 -1 -14 -2.5t-13 -2.5t-10.5 -2t-9.5 -1h-5.5h-4.5q-2 -1 -4.5 -1h-4.5v-2q4 -1 7.5 -1.5t7.5 -1.5t7.5 -1.5t7.5 -1.5q11 -2 20 -4.5t17 -4.5q9 -2 16.5 -5t13.5 -6l72 -35l-70 -87l-34 16q-25 11 -41.5 21.5t-26.5 20.5q-4 5 -8.5 9.5
t-8.5 9.5q-4 4 -7.5 9t-6.5 9l-2 -2q5 -13 8.5 -24t6.5 -20q0 -2 0.5 -4.5t1.5 -5.5q1 -7 2 -13.5t1 -12.5v-63v0v0z" />
    <glyph glyph-name="plus" unicode="+" horiz-adv-x="752" 
d="M308 288v182h133v-182h230v-106h-230v-182h-133v182h-227v106h227v0v0z" />
    <glyph glyph-name="comma" unicode="," 
d="M206 0h-111v168h295v-153l-164 -149h-106l86 134v0v0z" />
    <glyph glyph-name="hyphen" unicode="-" horiz-adv-x="532" 
d="M46 151v168h440v-168h-440v0v0z" />
    <glyph glyph-name="period" unicode="." 
d="M95 0v168h295v-168h-295v0v0z" />
    <glyph glyph-name="slash" unicode="/" horiz-adv-x="347" 
d="M263 642h132l-64 -129l-246 -512l-2 -1h-130l63 129l246 512l1 1v0v0z" />
    <glyph glyph-name="zero" unicode="0" horiz-adv-x="975" 
d="M257 642h460q49 0 86.5 -11t63.5 -32t39.5 -57.5t13.5 -89.5v-264q0 -52 -13.5 -88.5t-39.5 -57.5t-63.5 -31.5t-86.5 -10.5h-460q-49 0 -86.5 10.5t-63.5 31.5t-39 57.5t-13 88.5v264q0 53 13 89.5t39 57.5t63.5 32t86.5 11v0v0zM552 536h-132q-15 0 -26 -2t-19 -7
q-7 -4 -11 -13t-4 -21v-346q0 -12 4 -19.5t11 -12.5q8 -4 19 -6.5t26 -2.5h132q15 0 26.5 2.5t18.5 6.5q8 5 11.5 12.5t3.5 19.5v346q0 12 -3.5 21t-11.5 13q-7 5 -18.5 7t-26.5 2v0v0z" />
    <glyph glyph-name="one" unicode="1" horiz-adv-x="601" 
d="M460 642v-41v-512v-1q0 -18 1.5 -32t5.5 -23q4 -10 9.5 -18t11.5 -15h-361q7 7 11.5 15t8.5 18q4 9 6 23t2 32v357h-114v115l337 82h82v0v0z" />
    <glyph glyph-name="two" unicode="2" horiz-adv-x="928" 
d="M355 106h363q17 0 30.5 0.5t24.5 1.5t21.5 2.5t20.5 3.5q8 2 15.5 3.5t15.5 4.5q8 2 18 5t21 7l-29 -134h-165h-640h-1v285q0 41 9 67.5t28 38.5t48.5 19.5t69.5 9.5l325 14q14 0 23.5 2t13.5 6q5 4 7.5 10.5t2.5 16.5v37q0 7 -3.5 12.5t-8.5 9.5q-7 4 -18.5 6t-28.5 2
h-350h-8h-9q-12 -1 -24.5 -2.5t-23.5 -3.5q-16 -3 -31 -7t-29 -10l27 129h592q68 0 111.5 -10t62.5 -30q19 -19 29 -46t10 -62v-128q0 -36 -10 -60.5t-30 -37.5t-54.5 -20t-84.5 -9l-305 -12q-12 -1 -19.5 -4.5t-10.5 -9.5q-4 -6 -5 -13t-1 -15v-79v0v0z" />
    <glyph glyph-name="three" unicode="3" horiz-adv-x="858" 
d="M35 642h552q59 0 101.5 -7.5t67.5 -21.5q26 -14 38.5 -38t12.5 -59v-106q0 -20 -11 -35t-31 -26q-22 -10 -58.5 -15.5t-88.5 -5.5v-2q62 -1 101.5 -8t55.5 -18q16 -12 24 -32t8 -49v-106q0 -25 -9 -45.5t-27 -36.5q-19 -16 -50 -23.5t-75 -7.5h-610l-29 137q1 -1 2 -1.5
t2 -0.5q1 -1 2 -1.5t2 -0.5q2 -1 4 -1.5t4 -0.5q11 -5 24 -9.5t28 -8.5t32.5 -5.5t38.5 -1.5h299q17 0 27.5 1.5t15.5 5.5q6 3 9 11t3 21v88q0 12 -3 20t-9 12q-5 3 -15.5 5t-27.5 2h-145q-25 0 -44 -1.5t-33 -3.5q-15 -2 -27.5 -4.5t-23.5 -5.5h-1.5h-1.5q-1 -1 -1.5 -1
h-0.5h-1.5h-1.5q-1 -1 -1.5 -1h-0.5v140q1 -1 2.5 -1.5t2.5 -0.5h2.5h2.5q11 -3 23.5 -6t27.5 -5q14 -2 33 -3t44 -1h145q17 0 27.5 1.5t15.5 5.5q6 3 9 11t3 21v78q0 13 -3 21t-9 12q-5 4 -15.5 6t-27.5 2h-325q-20 0 -36 -2t-27 -5q-12 -4 -23.5 -7.5t-22.5 -7.5v-0.5
v-0.5l-1 -1v0h-2h-1l28 130v0v0z" />
    <glyph glyph-name="four" unicode="4" horiz-adv-x="997" 
d="M848 312h137v-168h-137v-56q0 -18 2 -32t6 -23q4 -10 9 -18t12 -15h-359q7 7 11.5 15t8.5 18q4 9 6 23t2 32v56h-533v157l479 340h356v-329v0v0zM546 312v213l-311 -213h311v0v0z" />
    <glyph glyph-name="five" unicode="5" horiz-adv-x="928" 
d="M355 536l-8 -128h329q56 0 94.5 -9.5t60.5 -28.5q20 -19 31 -46t11 -62v-116q0 -36 -11 -63t-31 -46q-22 -19 -60.5 -28t-94.5 -9h-608l-27 138q1 -1 2 -1.5t2 -1.5l1 -0.5l1 -0.5q1 -1 2 -1.5t2 -0.5q1 -1 2 -1.5t2 -0.5q8 -4 19.5 -8.5t26.5 -8.5t38 -5.5t53 -1.5h319
q17 0 28 2t17 6q5 4 7.5 12.5t2.5 21.5v112q0 13 -2.5 21t-7.5 12q-6 4 -17 6t-28 3h-323q-20 0 -39 -1.5t-36 -3.5q-16 -3 -32 -9t-30 -15l10 369h161h640h1l24 -127q-1 0 -2.5 0.5t-3.5 1.5q-1 0 -2 0.5t-2 0.5t-1 0.5t-1 0.5q-13 4 -26.5 7t-30.5 5q-16 2 -40 3.5
t-57 1.5h-366v0v0z" />
    <glyph glyph-name="six" unicode="6" horiz-adv-x="951" 
d="M718 536h-286q-22 0 -36.5 -2.5t-22.5 -7.5q-7 -5 -10 -14t-3 -23v-122h2q3 5 6 8.5t5 7.5l6 6l6 6q5 5 11 9t12 6q7 2 15.5 3t19.5 1h257q41 0 76 -9.5t64 -27.5q28 -18 42.5 -42.5t14.5 -56.5v-142q0 -31 -14.5 -56.5t-42.5 -43.5q-29 -18 -64 -27t-76 -9h-448
q-41 0 -76 9t-64 27t-43 43.5t-14 56.5v370q0 32 14 56.5t43 42.5t64 27.5t76 9.5h604l27 -129q-11 5 -24.5 9t-30.5 7q-16 3 -43.5 5t-66.5 2v0v0zM540 308h-130q-15 0 -25 -2t-15 -6q-6 -4 -8 -11t-2 -17v-130q0 -10 2 -17t8 -11q5 -4 15 -6t25 -2h130q14 0 23.5 2t14.5 6
q6 4 9 11t3 17v130q0 10 -3 17t-9 11q-5 4 -14.5 6t-23.5 2v0v0z" />
    <glyph glyph-name="seven" unicode="7" horiz-adv-x="858" 
d="M526 533h-378q-16 0 -28 -0.5t-22 -1.5q-9 -1 -17 -2t-16 -3q-3 -1 -5.5 -2t-5.5 -1q-3 -1 -5.5 -2t-5.5 -2q-5 -1 -11 -3.5t-14 -4.5l25 131h147h640h1l7 -108q-54 -47 -103 -97.5t-93 -103.5t-78.5 -107t-58.5 -108q-4 -7 -7.5 -14.5t-6.5 -14.5q-3 -8 -5.5 -15
t-5.5 -15q-6 -15 -10 -30t-8 -29h-345q6 18 14.5 37.5t18.5 39.5t22 40t25 40q7 11 14 21t14 21q8 10 15.5 20.5t15.5 20.5q15 21 31 41t33 39q32 38 63.5 72t61.5 63q29 29 49.5 48.5t31.5 29.5v0v0z" />
    <glyph glyph-name="eight" unicode="8" horiz-adv-x="951" 
d="M227 642h496q45 0 78.5 -9t55.5 -26q22 -18 33 -42t11 -55v-62q-2 -37 -16 -59.5t-42 -31.5q-27 -9 -60.5 -14.5t-72.5 -8.5v-2q46 -1 81 -7.5t60 -18.5q24 -13 37 -34.5t13 -53.5v-86q0 -31 -11 -55t-33 -42t-55.5 -26.5t-78.5 -8.5h-497q-45 0 -78.5 8.5t-55.5 26.5
t-32 42t-10 55v86q0 32 12 53.5t36 34.5q25 12 60.5 18.5t81.5 7.5v2q-40 3 -73.5 8.5t-60.5 14.5t-41 31.5t-15 59.5v62q0 31 10.5 55t32.5 42q22 17 55.5 26t78.5 9v0v0zM545 280h-143q-11 0 -20 -2t-15 -6q-7 -4 -9.5 -12.5t-2.5 -21.5v-90q0 -13 2.5 -21t9.5 -13
q6 -4 15 -6t20 -2h144q11 0 19.5 2t15.5 6q5 4 8.5 12t3.5 20v92q0 13 -3.5 21.5t-8.5 12.5q-6 4 -15 6t-21 2v0v0zM402 386h144q11 0 19.5 2t15.5 6q5 4 8.5 12t3.5 20v66q0 14 -3.5 22.5t-8.5 12.5q-7 5 -15.5 7t-19.5 2h-144q-11 0 -20 -2t-15 -7q-7 -4 -9.5 -12.5
t-2.5 -22.5v-64q0 -13 2.5 -21t9.5 -13q6 -4 15 -6t20 -2v0v0z" />
    <glyph glyph-name="nine" unicode="9" horiz-adv-x="951" 
d="M232 106h284q22 0 36 2.5t21 7.5q8 5 11.5 13.5t3.5 21.5v122h-2q-4 -4 -7 -8.5t-6 -7.5q-1 -2 -2.5 -3.5t-2.5 -3.5l-2.5 -2.5l-2.5 -2.5q-5 -6 -11.5 -9.5t-13.5 -5.5q-6 -2 -14.5 -3t-18.5 -1h-254q-41 0 -76.5 9t-63.5 27q-29 18 -43.5 43.5t-14.5 56.5v144
q0 32 14.5 56.5t43.5 42.5q28 18 63.5 27.5t76.5 9.5h447q41 0 76.5 -9.5t63.5 -27.5q29 -18 43.5 -42.5t14.5 -56.5v-370q0 -31 -14.5 -56.5t-43.5 -43.5q-28 -18 -63.5 -27t-76.5 -9h-603l-28 129q11 -5 25 -9.5t30 -7.5t43.5 -4.5t66.5 -1.5v0v0zM408 332h130q14 0 24 2
t15 6q6 4 8.5 11t2.5 17v130q0 11 -2.5 18.5t-8.5 11.5q-5 4 -15 6t-24 2h-130q-15 0 -24.5 -2t-15.5 -6q-5 -4 -7.5 -11.5t-2.5 -18.5v-130q0 -10 2.5 -17t7.5 -11q6 -4 15.5 -6t24.5 -2v0v0z" />
    <glyph glyph-name="colon" unicode=":" 
d="M95 0v168h295v-168h-295v0v0zM95 286v168h295v-168h-295v0v0z" />
    <glyph glyph-name="semicolon" unicode=";" 
d="M206 0h-111v168h295v-153l-164 -149h-106l86 134v0v0zM95 286v168h295v-168h-295v0v0z" />
    <glyph glyph-name="less" unicode="&#x3c;" horiz-adv-x="752" 
d="M672 93v-100l-592 200v84l592 200v-100l-425 -142l425 -142v0v0z" />
    <glyph glyph-name="equal" unicode="=" horiz-adv-x="752" 
d="M671 185v-106h-590v106h590v0v0zM671 391v-106h-590v106h590v0v0z" />
    <glyph glyph-name="greater" unicode="&#x3e;" horiz-adv-x="752" 
d="M80 93l421 142l-421 142v100l592 -200v-84l-592 -200v100v0v0z" />
    <glyph glyph-name="question" unicode="?" horiz-adv-x="882" 
d="M202 0v168h295v-168h-295v0v0zM507 206h-305v72q0 38 9.5 63.5t28.5 38.5t49 19.5t71 6.5h101q17 0 29 3t18 9q7 6 10.5 13.5t3.5 16.5v56q0 10 -4 18t-12 15q-7 6 -21 9.5t-34 3.5h-271q-24 0 -43.5 -1.5t-35.5 -4.5t-31 -6.5t-29 -8.5q-1 -1 -2 -1.5t-2 -0.5
q-1 -1 -2 -1h-2t-2 -0.5l-1 -0.5q-1 -1 -2 -1.5t-2 -0.5l26 119h564q56 0 97.5 -9.5t66.5 -27.5q24 -19 37 -44.5t13 -57.5v-76q0 -34 -12.5 -58.5t-36.5 -40.5q-25 -16 -52 -24t-56 -8h-110q-19 0 -30 -2t-16 -7q-5 -4 -7.5 -12.5t-2.5 -20.5v-48v0v0z" />
    <glyph glyph-name="at" unicode="@" horiz-adv-x="1002" 
d="M630 434l12 43h98l-55 -211l-0.5 -0.5l-0.5 -0.5q0 -1 -0.5 -1.5l-0.5 -0.5v-1.5v-0.5q-1 -1 -1 -1.5v-0.5v-1.5v-1.5q-1 -1 -1 -1.5v-1.5v-1.5v-1.5q-1 -1 -1 -1.5v-1.5t-0.5 -1.5t-0.5 -1.5t-0.5 -1.5t-0.5 -1.5v-2.5v-3.5q0 -4 0.5 -7.5t2.5 -6.5t5 -4t7 -1h2.5h2.5
h2.5h2.5h2.5t2.5 1q1 0 2.5 0.5t2.5 0.5q17 4 32 14.5t28 28.5q14 17 21.5 41t7.5 54q0 52 -20 91.5t-61 67.5q-41 27 -92.5 41t-113.5 14q-67 0 -121.5 -18t-95.5 -54q-40 -36 -60 -80.5t-20 -97.5q0 -57 22 -102.5t66 -78.5t100.5 -49.5t125.5 -16.5q31 0 61 4t58 12
t52 19.5t44 24.5h99q-28 -32 -63 -57t-76 -42t-87 -25.5t-97 -8.5q-85 0 -158 22.5t-134 67.5q-62 45 -92.5 102.5t-30.5 127.5q0 69 30 126.5t90 103.5t132.5 69t157.5 23q73 0 137.5 -18t122.5 -53t86.5 -83t28.5 -108q0 -43 -11.5 -77t-34.5 -60t-48.5 -45.5t-53.5 -32.5
q-19 -9 -37 -15.5t-35 -10.5q-16 -4 -30 -5.5t-25 -1.5q-12 0 -22.5 2.5t-18.5 8.5q-8 5 -12.5 13.5t-4.5 19.5l-3 1q-10 -9 -22.5 -17t-27.5 -15t-31 -10t-34 -3h-10.5t-10.5 1q-6 1 -10.5 2.5t-9.5 2.5q-25 6 -46 19t-40 32q-20 20 -29.5 45.5t-9.5 57.5v3.5v2.5v4v4
q3 34 19.5 65t46.5 59q30 29 68.5 43t87.5 14q20 0 38 -3.5t35 -9.5t31.5 -16t27.5 -24v0v0zM480 224q25 0 46 8t37 24q17 16 25 34t8 37q0 16 -6.5 28.5t-17.5 22.5t-26.5 15t-34.5 5q-22 0 -41.5 -7t-36.5 -21q-16 -13 -25 -28.5t-11 -32.5q-1 -1 -1 -2.5v-3.5v-2.5v-3.5
q0 -16 5.5 -28.5t16.5 -23.5q11 -10 26.5 -15.5t35.5 -5.5v0v0z" />
    <glyph glyph-name="A" unicode="A" horiz-adv-x="1021" 
d="M602 172h-351l-54 -88q-1 -2 -2.5 -4.5t-2.5 -4.5q0 -1 -0.5 -2t-0.5 -2q-1 -1 -1.5 -2.5t-1.5 -3.5t-1.5 -4.5t-0.5 -4.5v-5.5v-4.5v-7.5v-5.5q0 -3 0.5 -5.5t1.5 -4.5q1 -1 1.5 -2l1.5 -3q0 -1 0.5 -2l1.5 -3l1.5 -1.5t0.5 -1.5q2 -2 3.5 -4.5t4.5 -5.5h-225
q10 9 17 16.5t12 14.5q3 3 6 6.5t6 7.5q2 3 5 6.5t6 6.5l2 2t2 3q0 1 1 2.5t2 2.5t2 2.5t2 2.5q1 2 2 3.5t2 2.5q2 4 5 8.5t6 8.5q1 2 2 3.5t2 2.5q2 3 4 6.5t4 7.5l292 490l-35 36h363l22 -41l262 -512l1 -1q7 -13 14.5 -25t17.5 -23q9 -11 18.5 -21t19.5 -19h-401l7 10.5
t4 7.5q2 3 3 6l2 6q0 1 0.5 1.5t0.5 1.5t0.5 1.5t0.5 1.5v3.5v2.5t-0.5 2t-0.5 3q0 1 -0.5 2.5t-0.5 2.5v3.5v2.5q-1 2 -1 3.5v2.5q0 2 -0.5 3.5t-1.5 3.5q0 1 -0.5 3t-1.5 3q0 2 -0.5 3.5t-1.5 3.5q0 1 -1 3t-2 3l-46 82v0v0zM313 278h237l-114 216l-123 -216v0v0z" />
    <glyph glyph-name="B" unicode="B" horiz-adv-x="951" 
d="M67 110v422q0 23 -1.5 39.5t-4.5 27.5q-4 11 -8 21.5t-10 19.5v0v1h-1v0v0v1v0v0h16h640h2q62 0 103.5 -9.5t62.5 -27.5q20 -18 30.5 -42t10.5 -53v-75q0 -31 -11 -50.5t-34 -28.5q-22 -9 -55 -15t-74 -8v-2h0.5h0.5q0 -1 0.5 -1h0.5h0.5h0.5h2h3q47 -4 79.5 -11
t50.5 -15t27 -24.5t9 -41.5v-106q0 -29 -10.5 -53t-30.5 -42q-21 -19 -62.5 -28t-103.5 -9h-17h-640h-1v0v0v0l1 1v0.5v0.5q6 9 10 19t8 21q3 11 4.5 28.5t1.5 39.5v0v0zM372 278v-172h178q14 0 23.5 1.5t14.5 4.5q6 3 9 10.5t3 19.5v100q0 11 -3 18.5t-9 10.5q-5 3 -14.5 5
t-23.5 2h-178v0v0zM372 536v-152h178q14 0 23.5 1.5t14.5 4.5q6 3 9 10.5t3 19.5v78q0 12 -3 20t-9 11q-5 3 -14.5 5t-23.5 2h-178v0v0z" />
    <glyph glyph-name="C" unicode="C" horiz-adv-x="790" 
d="M740 642l23 -123h-0.5h-1.5l-1.5 1.5t-2.5 0.5h-1.5t-1.5 1h-1.5h-0.5q-11 3 -23 5.5t-24 4.5q-13 2 -29 3t-35 1h-221q-15 0 -26 -2t-19 -7q-7 -4 -11 -13t-4 -21v-346q0 -12 4 -19.5t11 -12.5q8 -4 19 -6.5t26 -2.5h172q38 0 66 1t44 3q17 2 31 5t25 7q1 0 2.5 0.5
t2.5 1.5q1 0 2.5 0.5t2.5 1.5q1 0 2.5 0.5t2.5 1.5q1 0 2.5 0.5t2.5 1.5l-26 -130h-495q-49 0 -86.5 10.5t-63.5 31.5t-39 57.5t-13 88.5v264q0 53 13 89.5t39 57.5t63.5 32t86.5 11h483v0v0z" />
    <glyph glyph-name="D" unicode="D" horiz-adv-x="951" 
d="M67 110v422q0 23 -1.5 39.5t-4.5 27.5q-4 11 -8 21.5t-10 19.5v0v1h-1v0v0v1v0v0h624q64 0 108.5 -11t70.5 -32q25 -21 38 -56t13 -85v-276q0 -49 -13 -84t-38 -56q-26 -21 -70.5 -31.5t-108.5 -10.5h-624v0v0v0l1 1v0.5v0.5q6 9 10 19t8 21q3 11 4.5 28.5t1.5 39.5v0v0z
M372 536v-430h159q19 0 30.5 2.5t16.5 7.5t7.5 15.5t2.5 26.5v324q0 17 -2.5 28t-7.5 16t-16.5 7.5t-30.5 2.5h-159v0v0z" />
    <glyph glyph-name="E" unicode="E" horiz-adv-x="790" 
d="M372 106h268q23 0 42 1t34 3t27.5 5t23.5 6h2.5h2.5t2.5 0.5t2.5 1.5l-27 -123h-67h-640h-1v0v0v0l1 1v0.5v0.5q6 9 10 19t8 21q3 11 4.5 28.5t1.5 39.5v422q0 23 -1.5 39.5t-4.5 27.5q-4 11 -8 21.5t-10 19.5v0v1h-1v0v0v1v0v0h54h640h1l25 -123h-1.5t-1.5 1h-1.5h-0.5
h-1.5t-1.5 1h-1.5h-0.5q-11 3 -24 5.5t-28 4.5t-35 3.5t-44 1.5h-249v-152h218q24 0 43 1t34 3t28.5 5t24.5 6h2h3q1 0 2 0.5l3 1.5v-140h-2t-1 1h-1.5h-0.5h-2t-1 1h-1.5h-0.5q-11 3 -24.5 5.5t-28.5 4.5t-34 3.5t-43 1.5h-218v-172v0v0z" />
    <glyph glyph-name="F" unicode="F" horiz-adv-x="766" 
d="M372 278v-168q0 -22 1 -39.5t5 -28.5q3 -11 7.5 -21t10.5 -19v-1.5v-0.5v0h1v0v0h-355v0v0v0l1 1v0.5v0.5q6 9 10 19t8 21q3 11 4.5 28.5t1.5 39.5v422q0 23 -1.5 39.5t-4.5 27.5q-4 11 -8 21.5t-10 19.5v0v1h-1v0v0v1v0v0h54h640h1l24 -123h-2t-1 1h-1.5h-0.5h-2t-1 1
h-1.5h-0.5q-11 3 -23.5 5.5t-27.5 4.5t-35 3.5t-44 1.5h-249v-152h218q24 0 43 1t34 3t28.5 5t24.5 6h2h3q1 0 2 0.5l3 1.5v-140h-2t-1 1h-1.5h-0.5h-2t-1 1h-1.5h-0.5q-11 3 -24.5 5.5t-28.5 4.5t-34 3.5t-43 1.5h-218v0v0z" />
    <glyph glyph-name="G" unicode="G" horiz-adv-x="951" 
d="M417 384h510q-7 -8 -11.5 -15t-8.5 -13t-6.5 -11t-4.5 -10l-2 -6t-2 -5q0 -3 -0.5 -6t-0.5 -6q-1 -6 -1 -13v-15v-158q0 -22 0.5 -38.5t1.5 -27.5q2 -10 5 -20t9 -18q1 -1 2 -2.5t2 -2.5q0 -2 1 -3t2 -3q1 -1 1.5 -2t1.5 -2l0.5 -0.5l0.5 -0.5q1 -2 2.5 -3t2.5 -3h-269
l-10 59h-2q-6 -14 -13.5 -25t-16.5 -19q-10 -7 -31 -11t-53 -4h-270q-49 0 -86.5 10.5t-63.5 31.5t-39 57.5t-13 88.5v264q0 53 13 89.5t39 57.5t63.5 32t86.5 11h588l23 -123h-0.5h-1.5l-1.5 1.5t-2.5 0.5h-1.5t-1.5 1h-1.5h-0.5q-11 3 -23 5.5t-24 4.5q-13 2 -29 3t-35 1
h-326q-15 0 -26 -2t-19 -7q-7 -4 -11 -13t-4 -21v-346q0 -12 4 -19.5t11 -12.5q8 -4 19 -6.5t26 -2.5h102q15 0 26.5 2.5t18.5 6.5q8 5 11.5 12.5t3.5 19.5v131h-114q-7 0 -13.5 -0.5t-12.5 -2.5q-3 -1 -5.5 -2t-4.5 -1q-3 -1 -5.5 -2t-4.5 -2h-0.5h-0.5l-1 -1v0h-1.5h-0.5
l-1 -1v0v118v0v0z" />
    <glyph glyph-name="H" unicode="H" horiz-adv-x="975" 
d="M372 384h228v148q0 23 -2 39.5t-5 27.5q-4 11 -8 21.5t-9 19.5v0v1h-1v0v0v1v0v0h357v0v0l-1 -1v0v0v0v-1v0q-6 -9 -10.5 -19.5t-7.5 -21.5q-4 -11 -5 -27.5t-1 -39.5v-422q0 -22 1 -39.5t5 -28.5q3 -11 7.5 -21t10.5 -19v-1.5v-0.5v0h1v0v0h-357v0v0v0l1 1v0.5v0.5
q5 9 9 19t8 21q3 11 5 28.5t2 39.5v168h-228v-168q0 -22 1 -39.5t5 -28.5q3 -11 7.5 -21t10.5 -19v-1.5v-0.5v0h1v0v0h-355v0v0v0l1 1v0.5v0.5q6 9 10 19t8 21q3 11 4.5 28.5t1.5 39.5v422q0 23 -1.5 39.5t-4.5 27.5q-4 11 -8 21.5t-10 19.5v0v1h-1v0v0v1v0v0h355v0v0l-1 -1
v0v0v0v-1v0q-6 -9 -10.5 -19.5t-7.5 -21.5q-4 -11 -5 -27.5t-1 -39.5v-148v0v0z" />
    <glyph glyph-name="I" unicode="I" 
d="M420 0h-355v0v0v0l1 1v0.5v0.5q5 9 9 19t8 21q3 11 5 28.5t2 39.5v422q0 23 -2 39.5t-5 27.5q-4 11 -8 21.5t-9 19.5v0v1h-1v0v0v1v0v0h355h-0.5h-0.5q0 -1 -0.5 -1h-0.5v0v0v-1v0q-5 -9 -9.5 -19.5t-7.5 -21.5q-4 -11 -5 -27.5t-1 -39.5v-422q0 -22 1 -39.5t5 -28.5
q3 -11 7.5 -21t9.5 -19v-1.5v-0.5h0.5h0.5h0.5h0.5v0v0z" />
    <glyph glyph-name="J" unicode="J" horiz-adv-x="743" 
d="M98 106h179q23 0 40.5 3.5t27.5 10.5q9 7 14.5 23.5t5.5 42.5v346q0 23 -2 39.5t-5 27.5q-4 11 -8 21.5t-9 19.5v0v1h-1v0v0v1v0v0h357v0v0l-1 -1v0v0v0v-1v0q-6 -9 -10.5 -19.5t-7.5 -21.5q-4 -11 -5 -27.5t-1 -39.5v-346q0 -63 -18.5 -102t-56.5 -54q-37 -15 -83 -22.5
t-102 -7.5h-396l-24 123q8 -3 17.5 -5.5t19.5 -4.5q3 0 6.5 -0.5t6.5 -1.5q14 -3 27.5 -4t28.5 -1v0v0z" />
    <glyph glyph-name="K" unicode="K" horiz-adv-x="975" 
d="M650 451l235 -320q5 -7 10.5 -15t12.5 -17q3 -4 7 -8.5t7 -8.5q4 -5 8 -9t8 -9q7 -9 14.5 -17.5t15.5 -16.5l10.5 -10.5t11.5 -10.5q3 -2 5.5 -4.5t5.5 -4.5h-378l-178 271l-73 -65v-96q0 -22 1 -39.5t5 -28.5q3 -11 7.5 -21t10.5 -19v-1.5v-0.5v0h1v0v0h-355v0v0v0l1 1
v0.5v0.5q6 9 10 19t8 21q3 11 4.5 28.5t1.5 39.5v422q0 23 -1.5 39.5t-4.5 27.5q-4 11 -8 21.5t-10 19.5v0v1h-1v0v0v1v0v0h355v0v0l-1 -1v0v0v0v-1v0q-6 -9 -10.5 -19.5t-7.5 -21.5q-4 -11 -5 -27.5t-1 -39.5v-179l209 196l16.5 16.5t12.5 13.5l4 6t4 7l2 6l2 6v3.5v2.5v2
t1 2v2v2v3.5v2.5q-1 2 -1 3.5v2.5v3.5v2.5q-1 2 -1 3.5v2.5h281q-3 -1 -5.5 -2t-4.5 -2q-1 -1 -2 -1.5l-1 -0.5q-1 -1 -2 -1.5t-2 -0.5q-1 -1 -2.5 -1.5t-3.5 -0.5q-1 -1 -2.5 -1.5t-3.5 -1.5q-1 -1 -2.5 -1.5t-2.5 -0.5q-1 -1 -2.5 -1.5t-2.5 -1.5l-8 -4t-7 -4
q-4 -2 -8 -4.5t-8 -5.5q-7 -5 -16 -12t-19 -15l-147 -128v0v0z" />
    <glyph glyph-name="L" unicode="L" horiz-adv-x="766" 
d="M385 106h257h13.5t15.5 1q6 0 12 0.5t12 0.5q3 1 6 1.5t6 0.5q8 1 17 2.5t18 3.5q10 2 17.5 4.5t13.5 6.5l-26 -127h-51h-640h-1v0v0v0l1 1v0.5v0.5q5 9 9 19t8 21q3 11 5 28.5t2 39.5v422q0 23 -2 39.5t-5 27.5q-4 11 -8 21.5t-9 19.5v0v1h-1v0v0v1v0v0h355h-0.5h-0.5
q0 -1 -0.5 -1h-0.5v0v0v-1v0q-5 -9 -9.5 -19.5t-7.5 -21.5q-4 -11 -5 -27.5t-1 -39.5v-426v0v0z" />
    <glyph glyph-name="M" unicode="M" horiz-adv-x="1228" 
d="M615 277l165 365h408v0v0l-1 -1v0v0v0v-1v0q-5 -9 -10 -19.5t-9 -21.5t-5 -27.5t-1 -39.5v-422q0 -22 1 -39.5t5 -28.5t9 -21t10 -19v-1.5v-0.5v0h1v0v0h-356v0v0v0l1 1v0.5v0.5q6 9 10 19t8 21q3 11 4.5 28.5t1.5 39.5v396h-2l-222 -506h-213l-215 506h-3v-391
q0 -21 0.5 -36.5t2.5 -25.5q1 -10 4 -18.5t8 -16.5q2 -1 2.5 -2.5t1.5 -3.5l1.5 -1.5t0.5 -1.5l1.5 -1.5l1.5 -1.5l2.5 -2.5l3.5 -3.5h-192l2 2t2 3q0 1 1 2l2 2l2 2t2 3l2 2l2 2q5 8 8 16.5t4 18.5q0 3 0.5 7t0.5 9q1 9 1.5 20.5t0.5 25.5v412q0 14 -0.5 25.5t-1.5 20.5
q0 4 -0.5 8t-0.5 7q-1 10 -4 19t-8 17l-2 2l-2 2l-2 2l-2 2l-2 2t-1 3q-1 1 -2 2.5t-2 2.5h420l152 -365h3v0v0z" />
    <glyph glyph-name="N" unicode="N" horiz-adv-x="997" 
d="M532 0l-12 19l-317 512l-1 1h-2v-417q0 -21 0.5 -36.5t1.5 -25.5t4 -18.5t9 -16.5q1 -1 1 -1.5t1 -1.5t2 -2.5t2 -3.5q2 -2 4 -4.5t5 -4.5h-193l2 2t2 3l2 2l2 2l2 2t2 3q0 1 1 2l2 2q5 8 8 16.5t5 18.5q1 10 1.5 25.5t0.5 36.5v412q0 21 -0.5 36t-1.5 25q-2 10 -5 19
t-8 17l-2 2t-1 2l-2 2l-2 2l-2 2t-2 3q-1 1 -2 2.5t-2 2.5h429l7 -11l319 -512l1 -1h4v409q0 21 -0.5 36t-1.5 25q-2 10 -5 19t-8 17l-2 2t-1 2l-2 2l-2 2l-2 2t-2 3q-1 1 -2 2.5t-2 2.5h193q-3 -3 -5 -5.5t-4 -4.5q-1 -1 -2 -2.5t-2 -3.5q-1 0 -1 -0.5t-1 -1.5
q-6 -8 -9 -17t-4 -19t-1.5 -25t-0.5 -36v-14v-512v-1h-398v0v0z" />
    <glyph glyph-name="O" unicode="O" horiz-adv-x="975" 
d="M55 188v264q0 53 13 89.5t39 57.5t63.5 32t86.5 11h460q49 0 86.5 -11t63.5 -32t39.5 -57.5t13.5 -89.5v-264q0 -52 -13.5 -88.5t-39.5 -57.5t-63.5 -31.5t-86.5 -10.5h-460q-49 0 -86.5 10.5t-63.5 31.5t-39 57.5t-13 88.5v0v0zM360 493v-346q0 -12 4 -19.5t11 -12.5
q8 -4 19 -6.5t26 -2.5h132q15 0 26.5 2.5t18.5 6.5q8 5 11.5 12.5t3.5 19.5v346q0 12 -3.5 21t-11.5 13q-7 5 -18.5 7t-26.5 2h-132q-15 0 -26 -2t-19 -7q-7 -4 -11 -13t-4 -21v0v0z" />
    <glyph glyph-name="P" unicode="P" horiz-adv-x="928" 
d="M372 228v-118q0 -22 1 -39.5t5 -28.5q3 -11 7.5 -21t10.5 -19v-1.5v-0.5v0h1v0v0h-355v0v0v0l1 1v0.5v0.5q6 9 10 19t8 21q3 11 4.5 28.5t1.5 39.5v422q0 23 -1.5 39.5t-5.5 27.5t-10 21.5t-14 19.5v0v1h-1v0v0v1v0v0h16h640h1q44 0 80.5 -7.5t64.5 -22.5
q29 -15 43.5 -46.5t14.5 -81.5v-100q0 -49 -14.5 -80.5t-43.5 -46.5q-28 -15 -64.5 -22t-80.5 -7h-320v0v0zM372 536v-202h160v0v0h1h2v0h1v0v0v0h1v0v0q15 0 25 2.5t15 8.5t7.5 17t2.5 27v90q0 17 -2.5 28t-7.5 17t-15 9t-24 3h-1.5h-0.5v0v0h-0.5h-0.5h-1.5h-0.5v0v0h-1v0
h-160v0v0z" />
    <glyph glyph-name="Q" unicode="Q" horiz-adv-x="975" 
d="M737 -82h-124l-58 82h-298q-49 0 -86.5 10.5t-63.5 31.5t-39 57.5t-13 88.5v264q0 53 13 89.5t39 57.5t63.5 32t86.5 11h460q49 0 86.5 -11t63.5 -32t39.5 -57.5t13.5 -89.5v-264q0 -52 -13.5 -88.5t-39.5 -57.5t-63.5 -31.5t-86.5 -10.5h-39l59 -82v0v0zM413 200h119
l63 -86q4 2 7.5 5t4.5 7q2 4 3.5 9t1.5 12v346q0 12 -3.5 21t-11.5 13q-7 5 -18.5 7t-26.5 2h-132q-15 0 -26 -2t-19 -7q-7 -4 -11 -13t-4 -21v-346q0 -12 4 -19.5t11 -12.5q8 -4 19 -6.5t26 -2.5h60l-67 94v0v0z" />
    <glyph glyph-name="R" unicode="R" horiz-adv-x="975" 
d="M466 278h-94v-168q0 -22 1 -39.5t5 -28.5q3 -11 7.5 -21t10.5 -19v-1.5v-0.5v0h1v0v0h-355v0v0v0l1 1v0.5v0.5q6 9 10 19t8 21q3 11 4.5 28.5t1.5 39.5v422q0 23 -1.5 39.5t-5.5 27.5t-10 21.5t-14 19.5v0v1h-1v0v0v1v0v0h18h640h2q53 0 91.5 -8t64.5 -23t38.5 -43
t12.5 -69v-118q0 -35 -9 -56t-28 -29q-19 -7 -40 -11.5t-45 -6.5l108 -180q2 -4 4 -7.5t5 -6.5q2 -4 4 -7.5t4 -6.5q4 -7 7.5 -13t7.5 -11q4 -7 8 -13.5t8 -11.5q4 -6 8.5 -11t10.5 -10h-344l-145 278v0v0zM372 536v-152h173q14 0 23.5 1.5t14.5 4.5q6 3 9 10.5t3 19.5v78
q0 12 -3 20t-9 11q-5 3 -14.5 5t-23.5 2h-173v0v0z" />
    <glyph glyph-name="S" unicode="S" horiz-adv-x="882" 
d="M792 642l26 -127q-2 0 -3.5 0.5t-2.5 1.5q-2 0 -3.5 0.5t-3.5 1.5t-3.5 1.5t-3.5 1.5q-1 0 -2.5 0.5t-3.5 1.5q-3 1 -6.5 1.5t-7.5 1.5q-7 1 -13.5 2.5t-14.5 2.5q-11 2 -24.5 3t-30.5 1h-287q-17 0 -29.5 -1.5t-17.5 -4.5q-6 -3 -8.5 -8.5t-2.5 -13.5v-38q0 -9 2.5 -15
t8.5 -8q5 -3 17.5 -4t29.5 -1h219q49 0 86 -7.5t63 -22.5t38.5 -39.5t12.5 -59.5v-156q0 -38 -10.5 -67.5t-30.5 -49.5q-21 -20 -58.5 -30t-91.5 -10h-553l-26 130q11 -4 23.5 -8.5t25.5 -8.5t31 -5.5t40 -1.5h295q18 0 29.5 1t16.5 4q6 2 9 8t3 15v44q0 8 -3 13.5t-9 8.5
q-5 3 -16.5 4.5t-29.5 1.5h-249q-46 0 -78.5 7t-51.5 22t-28.5 42.5t-9.5 67.5v143q0 38 10.5 67t32.5 48q23 20 54 29.5t71 9.5h569v0v0z" />
    <glyph glyph-name="T" unicode="T" horiz-adv-x="812" 
d="M25 642h121h640h1l25 -132q-2 1 -3.5 1.5t-3.5 1.5q-1 0 -2.5 0.5t-2.5 1.5q-3 2 -5.5 3.5t-4.5 2.5q-3 1 -6.5 2t-6.5 2q-7 2 -13.5 4t-12.5 3q-10 2 -23 3t-30 1h-141v-426q0 -22 1 -39.5t5 -28.5q3 -11 7.5 -21t10.5 -19v-1.5v-0.5v0h1v0v0h-355v0v0v0l1 1v0.5v0.5
q6 9 10 19t8 21q3 11 4.5 28.5t1.5 39.5v426h-139q-16 0 -29.5 -1t-22.5 -3q-7 -1 -13.5 -3t-12.5 -4q-3 -1 -6.5 -2t-6.5 -2q-1 -1 -2.5 -1.5t-2.5 -1.5l-3 -1.5l-3 -1.5q-1 -1 -2.5 -1.5t-3.5 -0.5q-1 -1 -2.5 -1.5t-2.5 -1.5l25 132v0v0z" />
    <glyph glyph-name="U" unicode="U" horiz-adv-x="975" 
d="M442 106h248q32 0 51 2.5t26 7.5t10.5 18.5t3.5 35.5v357q0 21 -0.5 36t-2.5 25q-1 10 -4 19t-8 17l-2 2l-2 2l-2 2l-2 2l-2 2t-1 3q-1 1 -2 2.5t-2 2.5h192q-2 -3 -4 -5.5t-4 -4.5l-2 -2t-1 -2l-2 -2l-2 -2q-5 -8 -8 -17t-4 -19q-2 -10 -2.5 -25t-0.5 -36v-329
q0 -55 -12 -93t-35 -61q-23 -22 -67 -33t-109 -11h-408q-59 0 -101.5 12t-68.5 37q-26 24 -38.5 61.5t-12.5 87.5v334q0 23 -2 39.5t-4 27.5q-4 11 -8 21.5t-10 19.5v0v1h-1v0v0v1v0v0h355v0v0l-1 -1v0v0v0v-1v0q-6 -9 -10.5 -19.5t-7.5 -21.5q-4 -11 -5 -27.5t-1 -39.5
v-366q0 -16 4 -27t13 -19q10 -7 24.5 -10.5t34.5 -3.5v0v0z" />
    <glyph glyph-name="V" unicode="V" horiz-adv-x="951" 
d="M637 0h-344l-32 70l-230 512l-1 1q-5 10 -10.5 18.5t-11.5 15.5q-5 7 -11 13t-13 12h377q0 -1 -0.5 -2t-0.5 -2q-1 -2 -1.5 -3.5t-0.5 -3.5q-1 -3 -1.5 -5.5t-0.5 -4.5q-1 -2 -1 -3.5v-3.5v-2v-1v-2v-2v-7.5v-7.5t1 -7.5t2 -6.5q2 -6 3.5 -12.5t4.5 -13.5t6.5 -13.5
t7.5 -14.5l175 -388l190 388q3 5 4.5 9.5t3.5 9.5q1 2 2 4.5t2 4.5q2 5 3.5 9t2.5 9q1 2 1.5 4t1.5 4q1 3 1.5 6.5t0.5 7.5q0 2 0.5 4t0.5 4q0 1 0.5 3t0.5 4v2v2v1v2t-0.5 1.5t-0.5 1.5t-0.5 2t-0.5 2q-1 2 -1.5 4.5t-0.5 5.5q0 1 -0.5 1.5t-0.5 1.5q-1 2 -1.5 4t-0.5 4
h207q-3 -3 -6.5 -6t-6.5 -6q-7 -7 -13.5 -14.5t-12.5 -16.5q-10 -13 -20 -31.5t-21 -41.5l-8 -13l-244 -512l-1 -1v0v0z" />
    <glyph glyph-name="W" unicode="W" horiz-adv-x="1252" 
d="M763 0l-136 424h-5l-129 -424h-291l-15 46l-162 512l-2 1q-5 15 -11 27.5t-12 21.5q-4 9 -11 18t-14 16h360l-2 -2t-1 -2v-1.5v-0.5q-1 -1 -1 -1.5v-0.5q-2 -3 -3 -6.5t-2 -7.5t-1 -9v-11v-4v-4v-2v-1v-2v-2q0 -5 1 -10.5t2 -11.5q2 -6 3.5 -12l3.5 -14l92 -310h3
l125 415h307l131 -416h3l91 311q3 8 5 16.5t3 16.5t1.5 15.5t0.5 14.5v6t-1 6q0 2 -0.5 5t-0.5 6q-1 2 -1.5 3.5t-1.5 3.5q-1 3 -2.5 6t-3.5 6h194q-4 -3 -8 -7.5t-10 -10.5q-3 -3 -5.5 -6.5t-5.5 -7.5t-5.5 -9t-5.5 -10q-1 -2 -1.5 -3.5t-1.5 -3.5l-3.5 -7t-2.5 -7
q-2 -4 -3.5 -8t-2.5 -8q-1 -2 -1.5 -4.5t-1.5 -4.5l-10 -32l-152 -512l-2 -1h-295v0v0z" />
    <glyph glyph-name="X" unicode="X" horiz-adv-x="951" 
d="M443 566l99 -112l128 104q11 9 19.5 18t15.5 16q3 4 6 7.5t6 7.5q2 3 4.5 6.5t4.5 7.5q1 2 2 4.5t2 5.5v3t1 3q0 1 0.5 2.5t0.5 2.5h249q-19 -10 -38 -22t-36 -24q-18 -12 -34.5 -24.5t-32.5 -26.5l-213 -177l259 -280q5 -6 9.5 -11t9.5 -10l8.5 -8.5l8.5 -8.5
q8 -7 15.5 -14t14.5 -13q8 -6 16.5 -12t18.5 -11h-440v2v2v1.5v1.5v0.5v1.5q0 8 -0.5 14.5t-1.5 11.5t-3 10.5t-5 9.5q-3 5 -6.5 10t-7.5 10t-9.5 11.5t-12.5 13.5l-88 94l-136 -112q-11 -9 -19.5 -16.5t-15.5 -14.5t-12 -14t-9 -13q-2 -3 -3 -6l-2 -6q-2 -3 -3 -6t-1 -6
h-235q3 1 5 2t3 2q2 0 3.5 1t2.5 2q4 2 6.5 4t3.5 4l0.5 0.5l1.5 1.5q1 0 1.5 0.5l1.5 1.5l0.5 0.5t1.5 0.5q10 6 20.5 13t21.5 15t25 20t33 27l225 185l-257 274q-11 12 -20.5 21t-17.5 16q-7 7 -14.5 13t-13.5 11q-1 1 -2 1.5t-2 1.5q-1 0 -2 0.5t-2 1.5q-1 2 -2.5 3.5
t-3.5 2.5q-2 2 -5 4t-7 4l-8 4l-8 4h447q0 -13 1.5 -24t5.5 -20t9.5 -17t11.5 -15v0v0z" />
    <glyph glyph-name="Y" unicode="Y" horiz-adv-x="928" 
d="M301 110v140l-253 314q-10 12 -18.5 21.5t-13.5 16.5q-6 6 -10.5 11.5t-6.5 9.5l-0.5 0.5l-1.5 1.5q-1 0 -1.5 0.5l-0.5 0.5l-2 2l-2 2t-2 1.5t-2 1.5q0 1 -1 1.5t-2 1.5t-1.5 1t-1.5 1t-2.5 2t-3.5 2h408q-1 -1 -1.5 -2.5t-0.5 -3.5v-1.5v-0.5q-1 -1 -1 -1.5v-0.5
q0 -1 -0.5 -1.5l-0.5 -0.5q0 -1 -0.5 -1.5t-0.5 -1.5v-1.5v-0.5v-1.5v-1.5q0 -4 0.5 -7.5t2.5 -8.5l4 -8t5 -8q1 -1 2 -2.5t2 -3.5q0 -1 1 -2.5t2 -3.5q1 -1 1.5 -2t1.5 -2q1 -2 2.5 -3.5l3.5 -3.5q2 -3 3.5 -5.5t2.5 -4.5l2 -2l2 -2l2 -2l2 -2l138 -175l140 179
q11 13 17.5 25t7.5 23q2 11 3 21l2 20h228q-11 -7 -19.5 -12.5t-15.5 -10.5q-7 -4 -13 -8.5t-11 -8.5l-2.5 -2.5l-3.5 -3.5l-1.5 -1.5l-1.5 -1.5l-2 -2l-2 -2l-2 -2l-2 -2q-2 -2 -3.5 -4t-3.5 -4t-3.5 -4t-3.5 -4t-4 -4.5t-4 -5.5q-2 -2 -4 -5l-4 -6l-244 -311v-127
q0 -22 1 -39.5t5 -28.5t8.5 -21t11.5 -19v-1.5v-0.5v0h1v0v0h-357v0v0v0l1 1v0.5v0.5q6 9 10 19t8 21q2 11 4 28.5t2 39.5v0v0z" />
    <glyph glyph-name="Z" unicode="Z" horiz-adv-x="858" 
d="M782 0h-135h-640h-1l19 23l391 512l1 1h-241q-21 0 -37.5 -1.5t-27.5 -3.5t-22 -5t-21 -7l-1.5 -1.5t-1.5 -0.5h-1.5h-0.5q-1 -1 -1.5 -1h-0.5l22 126h128h640h1l-19 -23l-395 -512l-1 -1h245h38t26 1q2 0 4.5 0.5t4.5 0.5q7 1 13.5 2t12.5 3q2 0 4.5 0.5t5.5 1.5
q2 1 4.5 2t5.5 2l-19 -119v0v0z" />
    <glyph glyph-name="bracketleft" unicode="[" horiz-adv-x="532" 
d="M385 536v-21v-512v-1h112v-106h-397v233v512v1h395v-106h-110v0v0z" />
    <glyph glyph-name="backslash" unicode="\" horiz-adv-x="347" 
d="M-47 642h130l64 -129l246 -512l2 -1h-132l-63 129l-246 512l-1 1v0v0z" />
    <glyph glyph-name="bracketright" unicode="]" horiz-adv-x="532" 
d="M147 2v21v512v1h-110v106h395v-235v-511h-397v106h112v0v0z" />
    <glyph glyph-name="asciicircum" unicode="^" horiz-adv-x="752" 
d="M233 292h-126l209 350h116l213 -350h-130l-140 247l-142 -247v0v0z" />
    <glyph glyph-name="underscore" unicode="_" horiz-adv-x="627" 
d="M627 -125h-627v50h627v-50v0v0z" />
    <glyph glyph-name="grave" unicode="`" horiz-adv-x="416" 
d="M337 532h-171l-213 148h259l125 -148v0v0z" />
    <glyph glyph-name="a" unicode="a" horiz-adv-x="882" 
d="M88 470h540q53 0 91.5 -10t60.5 -30q23 -20 34.5 -54.5t11.5 -82.5v-205q0 -18 1.5 -32t5.5 -23q4 -10 9.5 -18t12.5 -15h-298l-15 52h-2q-6 -16 -15 -26.5t-22 -15.5q-12 -5 -32.5 -7.5t-50.5 -2.5h-210q-50 0 -84 8.5t-51 25.5q-18 17 -26.5 44t-8.5 64v34q0 37 8.5 64
t26.5 44q17 17 51 25.5t84 8.5h268q15 0 25.5 1.5t14.5 5.5q5 3 7.5 9t2.5 14t-2.5 13.5t-7.5 9.5q-4 3 -14.5 5t-25.5 2h-293q-17 0 -30.5 -0.5t-24.5 -2.5q-11 -1 -21.5 -3.5t-20.5 -5.5q-1 -1 -2.5 -1.5t-2.5 -0.5q-1 -1 -2.5 -1.5t-2.5 -0.5q-2 -1 -5 -2l-6 -2l21 112v0
v0zM528 226h-131q-16 -1 -28.5 -3t-20.5 -5q-7 -3 -10 -11t-3 -21v-54q0 -13 3 -21t10 -11q8 -4 20.5 -6t28.5 -2h69q20 0 33.5 2.5t18.5 8.5q5 5 7.5 19.5t2.5 36.5v67v0v0z" />
    <glyph glyph-name="b" unicode="b" horiz-adv-x="882" 
d="M320 0h-295q5 7 9 15t8 18q4 9 6 23t2 32v466q0 18 -2 31.5t-6 23.5q-4 9 -8 17.5t-9 15.5h320v-218h2q0 2 1 3.5t2 2.5q1 2 1.5 4t1.5 4q4 6 10 11.5t13 10.5q8 5 19.5 7.5t27.5 2.5h234q51 0 86.5 -10.5t56.5 -30.5q20 -20 31 -46.5t11 -58.5v-178q0 -32 -11 -58.5
t-31 -46.5q-21 -21 -56.5 -31t-86.5 -10h-251q-10 0 -16.5 1.5t-12.5 4.5q-3 2 -5.5 4t-5.5 4q-3 3 -5.5 6t-5.5 6q-1 1 -2 2.5t-2 2.5q-1 2 -2 3.5t-2 2.5q-1 2 -2.5 4t-3.5 4q-1 1 -1.5 2.5t-1.5 2.5l-18 -50v0v0zM345 342v-214q0 -10 2 -16.5t8 -11.5q5 -4 12.5 -6
t18.5 -2h117q11 0 18.5 2t13.5 6q5 5 7.5 11.5t2.5 16.5v214q0 10 -2.5 17t-7.5 11q-6 4 -13.5 6t-18.5 2h-117q-11 0 -18.5 -2t-12.5 -6q-6 -4 -8 -11t-2 -17v0v0z" />
    <glyph glyph-name="c" unicode="c" horiz-adv-x="743" 
d="M335 330v-190q0 -13 4.5 -22t11.5 -15q8 -6 20.5 -8.5t30.5 -2.5h144q34 0 57.5 1t38.5 4t28.5 6.5t24.5 7.5q1 0 2 0.5l3 1.5q1 0 2 0.5l3 1.5l-22 -115h-458q-51 0 -87.5 10t-56.5 31q-21 20 -31 46.5t-10 58.5v178q0 32 10 58.5t31 46.5q20 20 56.5 30.5t87.5 10.5
h461l26 -117q-8 6 -21 11t-30 8q-18 3 -40.5 4.5t-49.5 1.5h-169q-18 0 -30.5 -3t-20.5 -8q-7 -6 -11.5 -15t-4.5 -22v0v0z" />
    <glyph glyph-name="d" unicode="d" horiz-adv-x="882" 
d="M857 0h-297l-17 50q-1 -1 -2 -2.5t-1 -3.5q-1 -1 -2 -2.5t-2 -3.5q-1 -1 -2 -2.5t-2 -2.5q-1 -2 -2 -3l-2 -2q-3 -4 -5.5 -7t-5.5 -6l-6 -4l-6 -4q-7 -4 -14.5 -5.5t-17.5 -1.5h-248q-51 0 -87.5 10t-56.5 31q-21 20 -31 46.5t-10 58.5v178q0 32 10 58.5t31 46.5
q20 20 56.5 30.5t87.5 10.5h231q15 0 27 -2.5t19 -7.5q8 -5 14 -10.5t10 -11.5q0 -2 0.5 -4t1.5 -4q2 -1 2.5 -2.5t1.5 -3.5h3v130q0 18 -2 31.5t-6 23.5q-4 9 -8 17.5t-9 15.5h322v-41v-512v-1q0 -18 2 -32t6 -23q4 -10 8 -18t9 -15v0v0zM535 128v214q0 10 -2.5 17t-7.5 11
q-6 4 -13.5 6t-18.5 2h-117q-11 0 -18.5 -2t-12.5 -6q-6 -4 -8 -11t-2 -17v-214q0 -10 2 -16.5t8 -11.5q5 -4 12.5 -6t18.5 -2h117q11 0 18.5 2t13.5 6q5 5 7.5 11.5t2.5 16.5v0v0z" />
    <glyph glyph-name="e" unicode="e" horiz-adv-x="882" 
d="M831 184h-496v-44q0 -13 4.5 -22t11.5 -15q8 -6 20.5 -8.5t30.5 -2.5h286h24t20 1q10 0 19.5 1.5t19.5 3.5q5 1 11.5 2.5t13.5 2.5q5 2 12 4t14 5l-22 -112h-590q-50 0 -84 8.5t-51 25.5q-18 17 -26.5 44t-8.5 64v186q0 37 8.5 64t26.5 44q17 17 51 25.5t84 8.5h451
q50 0 83.5 -8.5t51.5 -25.5q17 -17 26 -44t9 -64v-144v0v0zM335 276h206v64q0 10 -2.5 17.5t-6.5 11.5q-4 5 -12.5 7t-21.5 2h-121q-12 0 -20.5 -2t-13.5 -7q-4 -4 -6 -11.5t-2 -17.5v-64v0v0z" />
    <glyph glyph-name="f" unicode="f" horiz-adv-x="627" 
d="M413 378v-270q0 -22 2 -38t6 -27q4 -10 9 -19t11 -17q0 -1 0.5 -2t1.5 -2l0.5 -0.5l1.5 -1.5l0.5 -0.5l0.5 -0.5h-360q0 1 0.5 1.5l1.5 1.5q0 1 0.5 1.5t1.5 0.5q0 1 0.5 1.5l0.5 0.5q5 8 10 17t9 19q4 11 6 27t2 38v270h-123v92h123v46q0 25 9.5 47t28.5 41t51 28.5
t78 9.5h377l19 -109q-7 2 -13.5 4.5t-11.5 3.5q-3 1 -6 1.5t-5 1.5q-3 0 -5.5 0.5t-4.5 1.5q-4 1 -7.5 1.5t-6.5 0.5q-4 1 -7.5 1h-7.5h-8t-8 1h-8.5h-9.5h-110q-14 0 -23.5 -2t-15.5 -7q-5 -4 -7.5 -9.5t-2.5 -13.5v-48h238v-92h-238v0v0z" />
    <glyph glyph-name="g" unicode="g" horiz-adv-x="882" 
d="M535 -16v63h-3q0 -1 -0.5 -2l-0.5 -1q-1 -1 -1 -2v-2q-1 -1 -2 -2.5t-2 -3.5q-4 -7 -9.5 -13t-13.5 -11q-7 -5 -19 -7.5t-28 -2.5h-231q-51 0 -87.5 10t-56.5 31q-21 20 -31 46.5t-10 58.5v178q0 32 10 58.5t31 46.5q20 20 56.5 30.5t87.5 10.5h232q22 0 38 -3t26 -9
q9 -6 16.5 -15t12.5 -23h2l15 50h298q-1 -1 -2 -2.5t-1 -2.5q-1 -2 -2 -3t-2 -3q-1 -1 -2 -3t-1 -4q-1 -1 -2 -3l-2 -4q-4 -7 -7.5 -16.5t-6.5 -21.5t-4 -27t-1 -35v-345q0 -49 -11.5 -83.5t-34.5 -53.5q-23 -20 -60.5 -29.5t-90.5 -9.5l-545 -2l-20 118q3 0 6 -1t7 -2l6 -2
l6 -2l6 -2l6 -2q3 0 6.5 -1t6.5 -2q9 -2 18.5 -4t19.5 -3q11 -2 23 -2.5t25 -0.5l254 -2q23 2 38.5 5.5t22.5 10.5t10.5 21t3.5 35v-2v0zM535 130v210q0 10 -2.5 17.5t-6.5 11.5q-4 5 -13 7t-21 2h-115q-12 0 -20.5 -2t-13.5 -7q-4 -4 -6 -11.5t-2 -17.5v-210q0 -10 2 -17
t6 -12q5 -4 13.5 -6.5t20.5 -2.5h115q12 0 21 2.5t13 6.5q4 5 6.5 12t2.5 17v0v0z" />
    <glyph glyph-name="h" unicode="h" horiz-adv-x="905" 
d="M21 642h327v-218h3q1 2 2.5 3.5t2.5 3.5q4 4 8 8.5t7 7.5l4 4l4 4q2 1 4 3t4 3q3 2 6.5 4t7.5 3t9 1.5t12 0.5h233q51 0 88.5 -11.5t61.5 -34.5q23 -23 34.5 -54.5t11.5 -70.5v-191q0 -22 1.5 -38t5.5 -27q3 -8 7 -15t8 -13q1 -2 2.5 -4t2.5 -4q0 -1 0.5 -1.5l1.5 -1.5
l0.5 -0.5l0.5 -0.5q0 -1 0.5 -1.5l1.5 -1.5h-362q0 1 0.5 1.5l1.5 1.5q0 1 0.5 1.5t1.5 0.5q0 1 0.5 1.5l0.5 0.5q5 8 10 17t9 19q4 11 6 27t2 38v231q0 11 -2.5 18.5t-8.5 11.5q-5 5 -14.5 7t-22.5 2h-108q-14 0 -23.5 -2t-15.5 -7q-5 -4 -7.5 -11.5t-2.5 -18.5v-231
q0 -22 2 -38t6 -27q4 -10 9 -19t11 -17q0 -1 0.5 -2t1.5 -2l0.5 -0.5l1.5 -1.5l0.5 -0.5l0.5 -0.5h-360q0 1 0.5 1.5l1.5 1.5q0 1 0.5 1.5t1.5 0.5q0 1 0.5 1.5l0.5 0.5q5 8 10 17t9 19q4 11 6 27t2 38v426q0 22 -2 38t-6 26q-4 11 -9 20t-10 17l-0.5 0.5l-0.5 0.5l-1.5 1.5
l-0.5 0.5q-1 1 -1.5 2t-0.5 2v0v0z" />
    <glyph glyph-name="i" unicode="i" horiz-adv-x="440" 
d="M72 108v254q0 22 -2.5 38t-6.5 26q-4 11 -8.5 20t-9.5 17q-1 1 -2 1.5t-1 1.5q-1 1 -1.5 2t-0.5 2h327v-362q0 -22 2 -38t6 -27q4 -10 9 -19t11 -17q0 -1 0.5 -2t1.5 -2q0 -1 1 -1.5t2 -1.5h-360q0 1 0.5 1.5l1.5 1.5q0 1 1 2l2 2q5 8 9.5 17t8.5 19q4 11 6.5 27t2.5 38
v0v0zM75 642h290v-124h-290v124v0v0z" />
    <glyph glyph-name="j" unicode="j" horiz-adv-x="440" 
d="M52 470h328v-491q0 -45 -10 -76t-29 -47t-53 -24t-83 -8l-398 -2l-22 120q12 -3 21 -6.5t14 -6.5q3 -2 6 -3t5 -2l6 -2l6 -2q4 -1 8.5 -1.5t8.5 -1.5h4.5t5.5 -1h4.5h5.5l146 -2q18 2 30 5.5t17 9.5q6 7 9 17.5t3 24.5v391q0 22 -2.5 38t-6.5 26q-4 11 -8.5 20t-10.5 17
l-1.5 1.5t-0.5 1.5l-2 2t-1 2v0v0zM87 642h290v-124h-290v124v0v0z" />
    <glyph glyph-name="k" unicode="k" horiz-adv-x="882" 
d="M398 219l-50 -32v-79q0 -22 2 -38t6 -27q4 -10 9 -19t11 -17q0 -1 0.5 -2t1.5 -2l0.5 -0.5l1.5 -1.5l0.5 -0.5l0.5 -0.5h-360q0 1 0.5 1.5l1.5 1.5q0 1 0.5 1.5t1.5 0.5q0 1 0.5 1.5l0.5 0.5q5 8 10 17t9 19q4 11 6 27t2 38v426q0 22 -2 38t-6 26q-4 11 -9 20t-10 17
l-0.5 0.5l-0.5 0.5l-1.5 1.5l-0.5 0.5q-1 1 -1.5 2t-0.5 2h327v-337l142 91q14 9 24 17t16 15q3 3 5 6t5 7l4 6t3 6q0 2 1 4l2 4q0 2 0.5 4.5t1.5 4.5h269v-2q-1 0 -2 -0.5t-2 -0.5q-1 -1 -2 -1h-2l-0.5 -0.5t-1.5 -0.5t-1.5 -0.5t-2.5 -0.5q-8 -2 -16 -4.5t-16 -5.5
q-7 -3 -14.5 -6.5t-14.5 -7.5l-131 -80l195 -264q1 -2 2.5 -4t2.5 -4l8 -10t7 -9q2 -3 4 -5.5t4 -5.5q2 -2 4 -4.5t4 -4.5q0 -1 0.5 -2t1.5 -2q2 -1 2.5 -2t1.5 -2q4 -4 8 -8.5t8 -9.5q5 -4 11.5 -10t13.5 -13h-358l-137 219v0v0z" />
    <glyph glyph-name="l" unicode="l" horiz-adv-x="440" 
d="M72 108v426q0 22 -2.5 38t-6.5 26q-4 11 -8.5 20t-9.5 17q-1 1 -2 1.5t-1 1.5q-1 1 -1.5 2t-0.5 2h327v-21v-512v-1q0 -22 2 -38t6 -27q4 -10 9 -19t11 -17q0 -1 0.5 -2t1.5 -2q0 -1 1 -1.5t2 -1.5h-360q0 1 0.5 1.5l1.5 1.5q0 1 1 2l2 2q5 8 9.5 17t8.5 19q4 11 6.5 27
t2.5 38v0v0z" />
    <glyph glyph-name="m" unicode="m" horiz-adv-x="1252" 
d="M17 470h280l8 -57h2q5 11 11 21t13 19q8 8 20.5 12.5t31.5 4.5h267q24 0 41 -2.5t26 -7.5q10 -4 17.5 -12.5t13.5 -20.5q0 -1 0.5 -1.5l0.5 -0.5q0 -1 0.5 -1.5l0.5 -0.5q0 -1 0.5 -2t1.5 -2h3q0 2 0.5 4t1.5 5q0 2 1 4.5t3 5.5q3 6 8 11.5t12 10.5t17 7.5t23 2.5h202
q37 0 69 -8t58 -23q26 -16 39 -54t13 -99v-178q0 -22 2 -38t6 -27q4 -10 9 -19t11 -17q0 -1 0.5 -2t1.5 -2q0 -1 1 -1.5t2 -1.5h-335q0 1 0.5 1.5l1.5 1.5q0 1 1 2l2 2q5 8 9.5 17t8.5 19q4 11 6.5 27t2.5 38v236q0 9 -2.5 15.5t-7.5 10.5q-4 4 -11 6t-15 2h-98
q-8 0 -14.5 -2t-11.5 -6t-7.5 -10.5t-2.5 -15.5v-236q0 -22 2 -38t6 -27q4 -10 9 -19t11 -17q0 -1 0.5 -2t1.5 -2q0 -1 1 -1.5t2 -1.5h-338q0 1 1 1.5t2 1.5q0 1 0.5 2t1.5 2q6 8 10.5 17t8.5 19q4 11 6.5 27t2.5 38v236q0 9 -2.5 15.5t-7.5 10.5t-11.5 6t-15.5 2h-97
q-8 0 -14.5 -2t-11.5 -6q-6 -4 -8 -10.5t-2 -15.5v-236q0 -22 1.5 -38t5.5 -27q3 -8 7 -15t8 -13q1 -2 2.5 -4t2.5 -4q0 -1 1 -2l2 -2q0 -1 0.5 -1.5l1.5 -1.5h-335q0 1 1 1.5t2 1.5q0 1 0.5 2t1.5 2q6 8 10.5 17t8.5 19q4 11 6.5 27t2.5 38v254q0 22 -2.5 38t-6.5 26
q-4 11 -8.5 20t-10.5 17l-1.5 1.5t-0.5 1.5l-2 2t-1 2v0v0z" />
    <glyph glyph-name="n" unicode="n" horiz-adv-x="905" 
d="M21 470h305l9 -49h2v0v1v0v0v0l1 1v0.5v0.5q5 8 11.5 16t15.5 15q8 8 20 11.5t28 3.5h242q51 0 88.5 -11.5t61.5 -34.5q23 -23 34.5 -54.5t11.5 -70.5v-191q0 -22 1.5 -38t5.5 -27q3 -8 7 -15t8 -13q1 -2 2.5 -4t2.5 -4q0 -1 0.5 -1.5l1.5 -1.5l0.5 -0.5l0.5 -0.5
q0 -1 0.5 -1.5l1.5 -1.5h-362q0 1 0.5 1.5l1.5 1.5q0 1 0.5 1.5t1.5 0.5q0 1 0.5 1.5l0.5 0.5q5 8 10 17t9 19q4 11 6 27t2 38v231q0 11 -2.5 18.5t-8.5 11.5q-5 5 -14.5 7t-22.5 2h-108q-14 0 -23.5 -2t-15.5 -7q-5 -4 -7.5 -11.5t-2.5 -18.5v-231q0 -22 2 -38t6 -27
q4 -10 9 -19t11 -17q0 -1 0.5 -2t1.5 -2l0.5 -0.5l1.5 -1.5l0.5 -0.5l0.5 -0.5h-360q0 1 0.5 1.5l1.5 1.5q0 1 0.5 1.5t1.5 0.5q0 1 0.5 1.5l0.5 0.5q5 8 10 17t9 19q4 11 6 27t2 38v254q0 22 -2 38t-6 26q-4 11 -9 20t-10 17l-0.5 0.5l-0.5 0.5q-1 0 -1.5 1l-0.5 1
q-1 1 -1.5 2t-0.5 2v0v0z" />
    <glyph glyph-name="o" unicode="o" horiz-adv-x="882" 
d="M842 328v-186q0 -37 -9 -64t-26 -44q-18 -17 -51.5 -25.5t-83.5 -8.5h-462q-50 0 -84 8.5t-51 25.5q-18 17 -26.5 44t-8.5 64v186q0 37 8.5 64t26.5 44q17 17 51 25.5t84 8.5h462q50 0 83.5 -8.5t51.5 -25.5q17 -17 26 -44t9 -64v0v0zM335 340v-210q0 -10 2 -17t6 -12
q5 -4 13.5 -6.5t20.5 -2.5h123q13 0 21.5 2.5t13.5 6.5q5 5 7.5 12t2.5 17v210q0 10 -2.5 17.5t-7.5 11.5q-5 5 -13.5 7t-21.5 2h-123q-12 0 -20.5 -2t-13.5 -7q-4 -4 -6 -11.5t-2 -17.5v0v0z" />
    <glyph glyph-name="p" unicode="p" horiz-adv-x="882" 
d="M25 470h287l16 -50q1 1 1.5 2l1.5 3q0 1 0.5 2t1.5 2l2 2t2 3q0 1 1 2l2 2q5 8 12 14t14 10q8 4 17.5 6t22.5 2h251q51 0 86.5 -10.5t56.5 -30.5q20 -20 31 -46.5t11 -58.5v-178q0 -32 -11 -58.5t-31 -46.5q-21 -21 -56.5 -31t-86.5 -10h-234q-16 0 -27.5 2.5t-19.5 7.5
q-7 5 -13 10.5t-10 11.5q0 1 -0.5 2t-0.5 2q-1 0 -1.5 1t-0.5 2q-1 1 -1.5 2t-0.5 2q-1 0 -1 1v2h-2v-136q0 -16 1.5 -29.5t5.5 -23.5q4 -9 8 -17.5t10 -15.5l-320 -2v49v511q0 18 -2 31.5t-6 23.5q-4 9 -8 17.5t-9 15.5v0v0zM345 342v-214q0 -10 2 -16.5t8 -11.5
q5 -4 12.5 -6t18.5 -2h117q11 0 18.5 2t13.5 6q5 5 7.5 11.5t2.5 16.5v214q0 10 -2.5 17t-7.5 11q-6 4 -13.5 6t-18.5 2h-117q-11 0 -18.5 -2t-12.5 -6q-6 -4 -8 -11t-2 -17v0v0z" />
    <glyph glyph-name="q" unicode="q" horiz-adv-x="882" 
d="M567 470h290q-5 -7 -9 -15.5t-8 -17.5q-4 -10 -6 -23.5t-2 -31.5v-49v-511h-322q5 8 9 17l8 18q4 10 6 23.5t2 31.5v134h-3q0 -1 -0.5 -2t-1.5 -1q0 -1 -0.5 -2t-1.5 -2q0 -1 -0.5 -2l-0.5 -1q-1 -1 -1 -2v-2q-4 -6 -10 -11.5t-14 -10.5q-7 -5 -19 -7.5t-27 -2.5h-231
q-51 0 -87.5 10t-56.5 31q-21 20 -31 46.5t-10 58.5v178q0 32 10 58.5t31 46.5q20 20 56.5 30.5t87.5 10.5h248q13 0 22.5 -2t16.5 -6q8 -4 14.5 -10t13.5 -14q1 -2 2 -4.5t3 -4.5q1 -1 1 -1.5t1 -1.5t2 -2.5t2 -3.5l16 50v0v0zM535 128v214q0 10 -2.5 17t-7.5 11
q-6 4 -13.5 6t-18.5 2h-117q-11 0 -18.5 -2t-12.5 -6q-6 -4 -8 -11t-2 -17v-214q0 -10 2 -16.5t8 -11.5q5 -4 12.5 -6t18.5 -2h117q11 0 18.5 2t13.5 6q5 5 7.5 11.5t2.5 16.5v0v0z" />
    <glyph glyph-name="r" unicode="r" horiz-adv-x="651" 
d="M35 470h295l10 -76h2q11 21 23.5 35.5t27.5 23.5q15 8 40.5 12.5t59.5 4.5h147v-154q-4 2 -7.5 3.5t-6.5 2.5q-2 1 -3.5 1.5t-3.5 1.5q-1 0 -2.5 0.5t-3.5 1.5q-9 3 -19.5 5.5t-21.5 3.5q-11 2 -29 2.5t-42 0.5q-44 0 -72 -4t-42 -12q-13 -8 -19 -24t-6 -40v-151
q0 -22 2 -38t6 -27q4 -10 9 -19t11 -17q0 -1 0.5 -2t1.5 -2q0 -1 1 -1.5t2 -1.5h-360q0 1 0.5 1.5l1.5 1.5q0 1 1 2l2 2q5 8 9.5 17t8.5 19q4 11 6.5 27t2.5 38v254q0 22 -2.5 38t-6.5 26q-4 11 -8.5 20t-9.5 17q-1 1 -2 1.5t-1 1.5q-1 1 -1.5 2t-0.5 2v0v0z" />
    <glyph glyph-name="s" unicode="s" horiz-adv-x="836" 
d="M367 330h255q52 0 85 -9t46 -26q14 -17 22 -36.5t10 -40.5v-94v-2.5v-3.5v-1.5v-0.5v-1.5v-1.5q-2 -21 -13 -40.5t-31 -37.5q-21 -18 -54.5 -26.5t-80.5 -8.5h-548l-22 113q5 -2 9.5 -3.5t9.5 -3.5q5 -1 9.5 -2.5l10.5 -3.5q12 -4 26 -6.5t30 -4.5q15 -1 37.5 -2t51.5 -1
h248q11 0 18.5 1t11.5 4t6.5 8t2.5 12v10q0 7 -2.5 11.5t-6.5 7.5t-11.5 4.5t-18.5 1.5h-256q-50 0 -83 8.5t-47 26.5q-14 17 -21.5 36.5t-8.5 41.5v91q0 27 12.5 49t38.5 38q26 17 59.5 25t75.5 8h510l25 -117q-7 7 -21 12t-35 9q-20 4 -41.5 6t-44.5 3h-3h-3h-2t-1 1h-5
h-4h-8.5h-8.5h-229q-11 0 -18.5 -1.5t-12.5 -3.5q-4 -2 -6.5 -5t-2.5 -7v-20q0 -4 2.5 -7.5t6.5 -5.5q5 -2 12.5 -3t18.5 -1v0v0z" />
    <glyph glyph-name="t" unicode="t" horiz-adv-x="697" 
d="M118 470v98l295 6v-104h238v-92h-238v-248q0 -11 2.5 -18.5t7.5 -11.5t17.5 -6t31.5 -2h104q13 0 25.5 1t23.5 2q10 2 19 3.5t16 3.5q4 1 7.5 2t7.5 2q1 1 2.5 1.5t2.5 0.5q1 1 2.5 1.5t2.5 0.5l-19 -110h-373q-35 0 -65.5 7t-56.5 22t-39.5 44.5t-13.5 73.5v231h-125v92
h125v0v0z" />
    <glyph glyph-name="u" unicode="u" horiz-adv-x="905" 
d="M883 0h-307l-9 49h-2l-0.5 -0.5l-0.5 -0.5q0 -1 -0.5 -1h-0.5v0v0v-1v0q-5 -9 -12 -16.5t-15 -15.5q-8 -7 -20.5 -10.5t-27.5 -3.5h-238q-52 0 -89.5 11.5t-60.5 34.5q-24 23 -35.5 54t-11.5 71v191q0 22 -2 38t-6 26q-4 11 -9 20t-10 17l-0.5 0.5l-0.5 0.5q-1 0 -1.5 1
l-0.5 1q-1 1 -1.5 2t-0.5 2h327v-339q0 -11 2.5 -18.5t7.5 -12.5q6 -4 15.5 -6t23.5 -2h108q13 0 22.5 2t14.5 6q6 5 8.5 12.5t2.5 18.5v231q0 22 -2 38t-6 26q-4 11 -9 20t-10 17l-0.5 0.5l-0.5 0.5q-1 0 -1.5 1l-0.5 1q-1 1 -1.5 2t-0.5 2h330v-362q0 -22 1.5 -38t5.5 -27
q3 -8 7 -15t8 -13q1 -2 2.5 -4t2.5 -4q0 -1 0.5 -1.5l1.5 -1.5l0.5 -0.5l0.5 -0.5q0 -1 0.5 -1.5l1.5 -1.5v0v0z" />
    <glyph glyph-name="v" unicode="v" horiz-adv-x="790" 
d="M492 122l150 291q2 3 3 6.5t2 7.5q0 1 0.5 2.5t0.5 2.5q1 3 1.5 5.5t0.5 4.5t-0.5 4.5t-1.5 4.5q0 1 -0.5 2.5t-0.5 2.5q-1 3 -2 6.5t-3 7.5h174q-8 -9 -14.5 -16.5t-11.5 -13.5t-9 -12t-6 -11q-2 -1 -3 -2.5t-2 -3.5q-1 -1 -2 -2.5t-1 -3.5q-2 -2 -3.5 -4.5t-2.5 -5.5
q-1 -1 -1.5 -2.5t-1.5 -2.5l-2 -4l-2 -4t-2 -4.5t-2 -4.5l-193 -373h-314l-230 419l-2 4l-2 4l-2 4l-2 4t-2 3.5t-2 2.5q-1 3 -3 6l-4 6l-2 2l-2 2l-2 2l-2 2l-4.5 4.5t-5.5 4.5h354l-2 -6t-1 -5q-1 -3 -1 -5v-4q0 -4 1 -9t3 -11t5.5 -12.5t7.5 -14.5l149 -281v0v0z" />
    <glyph glyph-name="w" unicode="w" horiz-adv-x="1160" 
d="M947 170l65 200q0 2 0.5 3.5t1.5 2.5q1 2 1.5 3.5t0.5 2.5q1 3 2 6.5t2 7.5q0 2 0.5 4.5t1.5 5.5q0 2 0.5 4.5t0.5 4.5t0.5 4.5t0.5 4.5t0.5 4t0.5 4t-0.5 4.5t-0.5 5.5q0 2 -0.5 4.5t-0.5 4.5t-0.5 4.5t-1.5 5.5q-1 2 -2 4.5t-2 4.5h163q-6 -6 -10.5 -12t-8.5 -12
q-4 -7 -8 -13.5t-8 -12.5q-5 -9 -9 -17t-6 -16q-4 -8 -6 -15t-4 -13l-110 -359h-305l-122 358h-2l-111 -358h-309l-119 352q-4 11 -7.5 21t-6.5 17q-4 8 -6.5 14.5t-4.5 12.5q-1 3 -2.5 5.5t-3.5 5.5q-1 1 -1.5 2t-1.5 2q-1 2 -2 3.5t-2 3.5q-1 1 -2 3l-2 4q0 1 -1 2.5
t-2 2.5q0 2 -1 3.5t-2 2.5q-2 3 -4.5 6t-6.5 7h344q-1 -2 -1.5 -4t-0.5 -4q-1 -1 -1.5 -2.5t-0.5 -3.5q-1 -1 -1.5 -2.5t-0.5 -2.5q-1 -2 -1 -3v-3v-6v-6q0 -7 1 -14.5t2 -13.5l2 -6l2 -6l2 -6l2 -6v-1.5v-1.5t0.5 -2t1.5 -2l73 -204h2l94 300h341l102 -300h2v0v0z" />
    <glyph glyph-name="x" unicode="x" horiz-adv-x="882" 
d="M591 277l214 -209q3 -3 5.5 -6t4.5 -5q2 -3 4.5 -5t5.5 -4l4 -4l4 -4q2 -1 4 -2.5t4 -3.5l2 -2l2 -2q0 -1 1 -1.5t2 -1.5q1 0 1.5 -0.5l1.5 -1.5h0.5h0.5q1 -1 2.5 -1.5t2.5 -1.5q4 -3 8 -5.5t8 -4.5q4 -3 9.5 -6t12.5 -6h-422q0 4 -0.5 7t-1.5 6q0 2 -0.5 3l-1.5 3
q-1 1 -1.5 2.5t-1.5 2.5l-2 2l-2 2l-2 2l-2 2l-2 2t-2 3q-1 1 -2 2.5t-2 2.5l-84 85l-124 -83q-13 -9 -20.5 -16t-10.5 -12q-4 -6 -6 -10t-2 -6h-215q26 14 46 25t32 18q12 8 22.5 14.5t18.5 12.5v0h1v0.5v0.5h0.5t0.5 1h0.5h0.5h0.5h0.5l2 2t3 2t3.5 2t2.5 2l173 120
l-235 234q-3 3 -6 5.5t-5 4.5q-3 2 -6 4.5t-6 4.5t-6.5 4t-6.5 5q-3 2 -6.5 4t-6.5 4h406v-1.5v-0.5v0v0v-1v0v-4v-4q0 -1 1 -2.5t2 -2.5q1 -2 2 -4.5t3 -4.5t4 -4.5t6 -5.5l81 -83l116 82q1 1 2 1.5t2 1.5t2 1.5t2 1.5t1 1.5t1 0.5l2 2l2 2q3 3 5.5 6t4.5 6q1 2 2 3.5
t2 2.5q0 2 1 3.5t2 2.5h208q-4 -2 -7 -4l-6 -4q-2 -1 -4 -2.5t-4 -3.5q-1 0 -2 -0.5t-2 -1.5q-7 -4 -13.5 -8t-11.5 -8q-7 -4 -13.5 -7.5t-11.5 -8.5l-205 -145v0v0z" />
    <glyph glyph-name="y" unicode="y" horiz-adv-x="905" 
d="M443 0h-193q-52 0 -89.5 11.5t-60.5 34.5q-24 23 -35.5 54t-11.5 71v191q0 22 -2 38t-6 26q-4 11 -9 20t-10 17l-0.5 0.5l-0.5 0.5q-1 0 -1.5 1l-0.5 1q-1 1 -1.5 2t-0.5 2h327v-339q0 -11 2.5 -18.5t7.5 -12.5q6 -4 15.5 -6t23.5 -2h109q11 0 17 1.5t10 4.5t6 11.5
t2 22.5v249q0 18 -1 31t-3 20q-1 8 -4 14.5t-7 12.5q-2 1 -3 2.5t-2 2.5q0 1 -0.5 1.5l-1.5 1.5l-1.5 1.5t-0.5 1.5h321v-3v-511q0 -32 -10 -57t-31 -41q-20 -17 -51 -25.5t-71 -8.5l-582 -2l-22 115q0 1 0.5 1h1.5q2 0 2.5 -0.5l1.5 -1.5q5 -2 10.5 -3.5t11.5 -3.5
q5 -1 11.5 -3t12.5 -3q14 -3 32.5 -5t42.5 -2l283 -2q19 2 31 4t18 7q5 4 8 10.5t3 14.5v96h-3v-0.5v-0.5l-1 -1v0v-1.5v-0.5q-5 -10 -12 -18t-15 -13q-9 -6 -25.5 -8.5t-41.5 -2.5v0v0z" />
    <glyph glyph-name="z" unicode="z" horiz-adv-x="836" 
d="M48 470h113h640h1l-341 -378h210q28 0 50 1.5t37 4.5t28 7t22 8h2t2 1q1 0 2 0.5t2 1.5q2 1 3.5 1.5t2.5 1.5l-20 -119h-141h-640h-1l350 378h-184h-13h-12q-5 -1 -10 -1h-10q-10 0 -18.5 -0.5t-16.5 -2.5q-8 -1 -17 -3.5t-18 -4.5q-10 -2 -20 -5t-23 -8l20 117v0v0z" />
    <glyph glyph-name="braceleft" unicode="{" horiz-adv-x="532" 
d="M12 234v74h9.5t11.5 1q7 1 14.5 2.5t14.5 2.5q11 2 22.5 6.5t21.5 10.5q9 6 14.5 14.5t5.5 19.5v169v1.5v1.5v0.5v1.5v1.5v1.5l0.5 0.5t0.5 1.5q3 18 15.5 35t34.5 32q23 15 49 23t56 8h245v-66h-47q-17 0 -30 -3t-22 -9t-13 -17t-4 -27v-165q0 -16 -6 -28t-17 -20
q-11 -9 -23.5 -15t-26.5 -10q-7 -3 -14.5 -4.5t-15.5 -2.5q-7 -1 -12.5 -2t-10.5 -1v-2q5 -1 10.5 -1.5t12.5 -1.5q8 -1 15.5 -2t14.5 -3q14 -4 26.5 -10t23.5 -15t17 -23t6 -32v-164q0 -15 4 -25.5t13 -16.5t22 -9t30 -3l47 -2v-66h-245q-30 2 -56 10t-49 23
q-22 15 -34.5 32t-15.5 35q-1 1 -1 2v2v1.5v2.5v168q0 12 -5.5 21t-14.5 16q-10 6 -21.5 11t-22.5 8q-7 2 -14.5 2.5t-14.5 1.5q-6 1 -11.5 1.5t-9.5 0.5v0v0z" />
    <glyph glyph-name="bar" unicode="|" horiz-adv-x="277" 
d="M72 0v129v512v1h133v-129v-512v-1h-133v0v0z" />
    <glyph glyph-name="braceright" unicode="}" horiz-adv-x="532" 
d="M520 308v-74q-5 0 -10.5 -0.5t-12.5 -1.5q-2 0 -4.5 -0.5t-4.5 -0.5q-4 -1 -8.5 -1.5t-9.5 -1.5q-13 -3 -24 -8t-20 -11q-10 -7 -15 -16t-5 -21v-168v-2.5v-1.5v-0.5v-1.5q-1 0 -1 -0.5v-1.5q-4 -18 -16.5 -35t-35.5 -32q-22 -15 -47.5 -23t-55.5 -8l-245 -2v66h47
q17 2 29.5 5t21.5 9t13.5 16.5t4.5 25.5v164q0 18 5.5 32t16.5 23t24 15t26 10q4 1 7.5 1.5t7.5 1.5q3 1 6.5 1.5t7.5 0.5q8 1 14 1.5t11 1.5v2q-5 0 -11 1t-14 2q-4 0 -7.5 1t-6.5 1q-4 1 -7.5 2.5t-7.5 2.5q-13 4 -26 10t-24 15q-11 8 -16.5 20t-5.5 28v165q0 16 -4.5 27
t-13.5 17t-21.5 9t-29.5 3h-47v66h245q30 0 55.5 -8t47.5 -23q23 -15 35.5 -32t16.5 -35v-1.5t1 -0.5v-1.5v-1.5v-1.5v-0.5v-1.5v-1.5v-169q0 -11 5 -19.5t15 -14.5q9 -6 20 -10.5t24 -6.5q5 -1 9.5 -2t8.5 -2q2 0 4.5 -0.5t4.5 -0.5q7 -1 12.5 -1h10.5v0v0z" />
    <glyph glyph-name="asciitilde" unicode="~" horiz-adv-x="752" 
d="M601 319l44 -84q-1 -1 -2 -1.5t-1 -1.5l-1.5 -1.5l-0.5 -0.5q-14 -14 -29 -27t-31 -25t-36.5 -17.5t-46.5 -5.5q-13 0 -25.5 1.5t-23.5 4.5q-12 3 -23.5 7t-22.5 8q-2 1 -3.5 1.5t-3.5 1.5q-1 0 -2.5 0.5t-2.5 1.5q-3 1 -6 2.5t-6 2.5q-13 6 -28 11.5t-32 10.5
q-16 5 -34 7.5t-38 2.5q-19 0 -34 -5t-26 -15t-20.5 -21t-15.5 -23l-0.5 -0.5l-0.5 -0.5q0 -1 -0.5 -1h-0.5v0v0v-1v0l-41 84v0l1 1v0.5v0.5q0 1 0.5 1t1.5 1l0.5 0.5l0.5 0.5q9 14 22 26.5t29 24.5q17 12 39 18t50 6q11 0 24 -1.5t26 -4.5q6 -1 12.5 -3t13.5 -4t13.5 -4
t12.5 -4q2 -1 3.5 -1.5t2.5 -0.5q2 -1 3.5 -1.5t3.5 -1.5t3.5 -1.5t3.5 -0.5q2 -1 3.5 -1.5t3.5 -0.5q1 -1 2 -1.5t2 -0.5q1 -1 2 -1.5t2 -0.5t2.5 -0.5t2.5 -0.5q1 -1 2.5 -1.5t2.5 -0.5q5 -1 9.5 -2.5t8.5 -3.5q9 -3 18.5 -6t17.5 -6q14 -4 25 -6t21 -2q17 0 31.5 5
t25.5 15t22 21t21 23h0.5t0.5 1h0.5h0.5v0l1 1v0.5v0.5v0v0z" />
    <glyph glyph-name="exclamdown" unicode="&#xa1;" horiz-adv-x="440" 
d="M367 -170h-295v256l29 178h237l29 -178v-256v0v0zM367 470v-168h-295v168h295v0v0z" />
    <glyph glyph-name="cent" unicode="&#xa2;" horiz-adv-x="673" 
d="M300 620h107v-97h198l18 -99l-6 2l-6 2q-3 0 -5.5 1t-5.5 2l-10.5 3.5t-9.5 2.5q-4 1 -8 1.5t-8 1.5t-8 1.5t-8 1.5q-7 1 -16.5 1.5t-20.5 0.5h-125q-12 0 -20.5 -2t-12.5 -6t-6 -9.5t-2 -11.5v-188q0 -7 2 -12t6 -9t12.5 -6t20.5 -2h119q17 0 31 1t25 4t21.5 6t19.5 6
q1 0 2 0.5t2 1.5q1 0 2 0.5t2 0.5t2 0.5t2 1.5l1 0.5t2 0.5l-17 -99h-193v-102h-107v102h-80q-37 0 -65 6.5t-47 19.5t-27.5 33t-8.5 48v184q0 28 7 48.5t21 33.5q14 14 37.5 20.5t55.5 6.5h107v97v0v0z" />
    <glyph glyph-name="sterling" unicode="&#xa3;" horiz-adv-x="975" 
d="M925 459h-295v52q0 6 -3.5 10.5t-11.5 7.5q-7 3 -18 5t-25 2h-105q-22 0 -37 -2t-20 -6q-7 -4 -10 -10.5t-3 -14.5v-7t1 -6q0 -1 0.5 -2.5t0.5 -2.5l1.5 -3l1.5 -3q3 -7 8.5 -13.5t12.5 -14.5q8 -7 18.5 -18t24.5 -25q5 -5 9 -9.5t8 -8.5q2 -2 3.5 -4t3.5 -4l3.5 -3.5
l3.5 -3.5q1 -2 2.5 -4t2.5 -4l2 -2l1 -1l1 -1v-1q1 0 1.5 -0.5t0.5 -1.5h323v-82h-296l-2 -14l-2 -14q-1 -6 -2 -12.5t-2 -12.5q-3 -13 -8.5 -25.5t-13.5 -24.5q-7 -8 -15 -16.5t-18 -16.5q-9 -9 -21.5 -17.5t-27.5 -16.5v-2h140q15 0 27.5 2t20.5 6q8 5 12 12.5t4 18.5v38
h305v-53q0 -32 -12.5 -56t-38.5 -41q-26 -16 -63 -24.5t-85 -8.5h-20h-640h-1v111h2t3 1h2h2q2 0 4.5 0.5t5.5 1.5q28 5 53.5 14t48.5 23t35 34t12 46q0 4 -0.5 7.5t-1.5 7.5q0 1 -0.5 3t-0.5 3q0 2 -0.5 4t-1.5 5q0 2 -0.5 4t-1.5 4q-1 1 -1.5 2t-0.5 2v1.5v1.5
q-1 0 -1 0.5v1.5h-182v82h99q-2 2 -4 3.5t-3 3.5q-2 1 -4 3t-4 3q-4 3 -6.5 6t-4.5 7q-8 9 -14 19t-9 20q-4 11 -5 25t-1 32q0 46 11 77.5t33 48.5t63 25.5t102 8.5h429q45 0 80.5 -9t61.5 -27t39.5 -41.5t13.5 -52.5v-53v0v0z" />
    <glyph glyph-name="currency" unicode="&#xa4;" horiz-adv-x="975" 
d="M732 585l80 -64l-71 -59q13 -16 23.5 -32.5t17.5 -34.5q8 -18 11.5 -36.5t3.5 -38.5q0 -19 -3.5 -38t-11.5 -37q-7 -18 -17.5 -34.5t-23.5 -31.5l70 -57l-73 -58l-68 57q-20 -12 -41.5 -21t-45.5 -15q-24 -7 -48.5 -10t-49.5 -3t-49.5 3t-47.5 9t-43.5 15t-39.5 20
l-70 -56l-74 59l70 56q-13 15 -23 31.5t-18 34.5q-7 18 -11 37t-4 39t4 39t11 37q8 18 18 34.5t23 31.5l-70 60l76 61l70 -57q18 10 38.5 18t42.5 14q23 6 47.5 9t49.5 3q24 0 47 -3t45 -8q23 -6 44 -13.5t40 -17.5l71 57v0v0zM315 320q0 -28 12.5 -52t37.5 -44
q24 -20 54 -30t66 -10q35 0 65 10t56 30t38.5 44t12.5 52t-12.5 52t-38.5 44t-56 30t-65 10q-36 0 -66 -10t-54 -30q-25 -20 -37.5 -44t-12.5 -52v0v0z" />
    <glyph glyph-name="yen" unicode="&#xa5;" horiz-adv-x="975" 
d="M710 338l-62 -78h208v-82h-225v-68q0 -22 1 -39.5t5 -28.5q3 -11 7.5 -21t10.5 -19v-1.5v-0.5v0h1v0v0h-358v0v0h0.5t0.5 1l0.5 0.5l0.5 0.5q5 9 9 19t8 21q3 11 4.5 28.5t1.5 39.5v68h-225v82h218l-64 78h-154v82h88l-115 144q-10 12 -18.5 21.5t-14.5 16.5q-1 2 -2.5 3
t-2.5 3l-8 8l-7 7q-1 0 -1.5 0.5t-0.5 1.5q-1 0 -1.5 0.5t-1.5 0.5q-1 1 -1.5 2t-0.5 2q-1 1 -2 1.5t-2 1.5t-2 1.5t-2 1.5q-1 2 -2.5 3.5l-2.5 2.5h408l-0.5 -0.5t-0.5 -1.5q-1 -1 -1.5 -2t-0.5 -2v-1.5v-0.5q-1 -1 -1 -1.5v-0.5v-1.5v-0.5q-1 -1 -1 -1.5v-1.5v-1.5v-0.5
v-1.5v-1.5q0 -4 0.5 -7.5t1.5 -8.5q1 -1 1.5 -2.5t1.5 -3.5t2.5 -4.5t3.5 -5.5q1 -1 2 -2.5t2 -3.5q1 -1 2 -2.5t2 -3.5l4 -6t4 -5q1 -1 2 -2.5t2 -2.5q0 -2 1 -3l2 -2l2 -2l2 -2q0 -1 1 -2l2 -2l139 -175l146 188q4 5 7 10t4 10q1 2 2 4.5t2 5.5q1 2 2 4.5t2 5.5l2 10l2 10
v4.5t1 5.5v4.5v5.5h227q-11 -7 -19.5 -12.5t-15.5 -10.5q-7 -4 -12.5 -8.5t-10.5 -8.5l-1.5 -1.5l-1.5 -1.5q-2 -1 -3.5 -2.5t-2.5 -3.5q-2 -2 -4.5 -4t-4.5 -4t-3.5 -4t-3.5 -4t-3.5 -4t-3.5 -4t-4 -4.5t-4 -5.5q-2 -2 -4 -5l-4 -6l-99 -128h83v-82h-146v0v0z" />
    <glyph glyph-name="brokenbar" unicode="&#xa6;" horiz-adv-x="625" 
 />
    <glyph glyph-name="section" unicode="&#xa7;" horiz-adv-x="836" 
d="M597 550h-265q-16 0 -26.5 -2t-15.5 -5q-6 -4 -8 -10t-2 -15v-22q0 -9 2 -15.5t8 -9.5q5 -4 15.5 -5.5t26.5 -1.5h249q48 0 82 -7.5t54 -21.5q20 -15 30 -37t10 -52v-84q0 -32 -4.5 -54t-12.5 -33q-9 -12 -25.5 -21t-41.5 -16v-2q25 -6 41.5 -15.5t25.5 -23.5
q8 -13 12.5 -30.5t4.5 -39.5v-78q0 -34 -11 -58t-31 -38q-21 -14 -51 -21.5t-69 -7.5l-478 -2l-47 139q0 1 0.5 1t1.5 -1q1 0 2.5 -1t2.5 -2q14 -8 27.5 -15.5t28.5 -13.5t35.5 -9.5t46.5 -3.5l293 -2q13 2 21.5 3.5t13.5 4.5q6 3 9 7.5t3 11.5v48q0 8 -3 12t-9 7
q-5 3 -13.5 4.5t-21.5 1.5h-261q-43 0 -75 7.5t-52 23.5q-21 16 -30.5 41.5t-9.5 59.5v90q0 24 5 43t15 33q9 14 26 22.5t40 11.5v2q-4 0 -7 0.5t-6 1.5q-2 1 -4 1.5t-4 0.5q-1 1 -2 1.5t-2 0.5q-11 4 -22 10t-21 15q-9 9 -13.5 23.5t-4.5 33.5v96q0 27 10 47.5t31 34.5
q20 14 50.5 21t70.5 7h484l35 -131q-4 2 -7 4l-6 4q-2 1 -3.5 2t-2.5 2h-1.5t-0.5 1q-1 0 -2 1t-2 1q-11 6 -24 10.5t-27 7.5q-15 3 -37 4.5t-51 1.5v0v0zM280 253v-28q0 -10 2 -17t6 -12t11.5 -7.5t17.5 -2.5h200q11 0 18 2.5t11 7.5t6.5 12t2.5 17v28q0 10 -2.5 17.5
t-6.5 11.5q-4 5 -11 7.5t-18 2.5h-200q-10 0 -17.5 -2.5t-11.5 -7.5q-4 -4 -6 -11.5t-2 -17.5v0v0z" />
    <glyph glyph-name="dieresis" unicode="&#xa8;" horiz-adv-x="416" 
d="M171 538h-211v130h211v-130v0v0zM456 538h-213v130h213v-130v0v0z" />
    <glyph glyph-name="copyright" unicode="&#xa9;" horiz-adv-x="1002" 
d="M500 0q-81 0 -153 21t-136 63t-95 101t-31 135t31 135t95 102q64 42 136 63.5t153 21.5t153.5 -21.5t136.5 -63.5q64 -43 95.5 -102t31.5 -135t-31.5 -135t-95.5 -101t-136.5 -63t-153.5 -21v0v0zM792 320q0 54 -21.5 98.5t-64.5 78.5q-43 35 -94.5 52t-111.5 17
q-61 0 -112.5 -17t-94.5 -52q-42 -34 -62.5 -78.5t-20.5 -98.5q0 -55 20.5 -99t62.5 -78q43 -34 94.5 -50.5t112.5 -16.5q60 0 111.5 16.5t94.5 50.5t64.5 78t21.5 99v0v0zM611 271h100q-7 -33 -23.5 -58t-45.5 -42q-28 -18 -59.5 -26.5t-66.5 -8.5q-51 0 -92 13.5t-71 40.5
q-31 27 -46 60t-15 73t14.5 73.5t44.5 60.5t70.5 40.5t91.5 13.5q36 0 67.5 -9t59.5 -26q27 -17 43.5 -42t23.5 -57h-96q-4 15 -12 25.5t-22 17.5q-14 6 -30 9.5t-34 3.5q-26 0 -46.5 -7.5t-34.5 -22.5t-20.5 -34.5t-6.5 -44.5q0 -24 7.5 -43.5t22.5 -36.5q15 -16 35.5 -24
t45.5 -8q20 0 36.5 3.5t29.5 10.5q14 8 20.5 19t8.5 26v0v0z" />
    <glyph glyph-name="ordfeminine" unicode="&#xaa;" horiz-adv-x="527" 
d="M41 642h350q34 0 59 -6t40 -18t22.5 -32.5t7.5 -49.5v-125q0 -11 1 -19.5t2 -14.5q2 -6 6 -10.5t8 -8.5h-191l-10 31h-3q-4 -10 -9 -16t-13 -9q-7 -3 -21 -4.5t-34 -1.5h-158q-21 0 -38 4.5t-28 13.5t-16.5 23.5t-5.5 34.5v39q0 20 5.5 35t16.5 25q11 9 28 14t38 5h197
q9 0 15.5 1t10.5 2q3 2 4.5 5.5t1.5 8.5t-1.5 8t-4.5 5q-4 2 -10.5 3t-15.5 1h-192q-11 0 -19.5 -0.5t-16.5 -1.5l-14 -2t-13 -3q-2 -1 -3.5 -1.5t-3.5 -0.5l-0.5 -0.5t-1.5 -0.5t-1.5 -0.5t-2.5 -0.5l14 67v0v0zM327 494h-85q-11 -1 -19 -2t-12 -3t-6.5 -6.5t-2.5 -12.5
v-33q0 -7 2.5 -12t6.5 -7q4 -1 12 -2.5t19 -1.5h44q14 0 22.5 1.5t12.5 4.5q3 3 4.5 11.5t1.5 21.5v41v0v0z" />
    <glyph glyph-name="guillemotleft" unicode="&#xab;" horiz-adv-x="697" 
d="M165 416h206l-121 -186l121 -176h-206l-122 176l122 186v0v0zM445 416h208l-123 -186l123 -176h-208l-122 176l122 186v0v0z" />
    <glyph glyph-name="logicalnot" unicode="&#xac;" horiz-adv-x="752" 
d="M536 100v185h-455v106h590v-291h-135v0v0z" />
    <glyph glyph-name="sfthyphen" unicode="&#xad;" horiz-adv-x="625" 
 />
    <glyph glyph-name="registered" unicode="&#xae;" horiz-adv-x="1002" 
d="M500 0q-81 0 -153 21t-136 63t-95 101t-31 135t31 135t95 102q64 42 136 63.5t153 21.5t153.5 -21.5t136.5 -63.5q64 -43 95.5 -102t31.5 -135t-31.5 -135t-95.5 -101t-136.5 -63t-153.5 -21v0v0zM792 320q0 54 -21.5 98.5t-64.5 78.5q-43 35 -94.5 52t-111.5 17
q-61 0 -112.5 -17t-94.5 -52q-42 -34 -62.5 -78.5t-20.5 -98.5q0 -55 20.5 -99t62.5 -78q43 -34 94.5 -50.5t112.5 -16.5q60 0 111.5 16.5t94.5 50.5t64.5 78t21.5 99v0v0zM432 292v-147h-95v351h165q42 0 75.5 -6t58.5 -17q24 -12 36.5 -32.5t12.5 -50.5q0 -25 -8.5 -42
t-25.5 -28q-17 -10 -39.5 -15.5t-50.5 -7.5l116 -152h-99l-102 147h-44v0v0zM432 352h83q16 0 28.5 2t22.5 6q9 5 14 14t5 24q0 11 -5 17.5t-14 10.5q-10 4 -19.5 6t-20.5 3h-4t-3 1h-4h-4h-7h-6h-66v-84v0v0z" />
    <glyph glyph-name="overstore" unicode="&#xaf;" 
 />
    <glyph glyph-name="glyph113" unicode="&#xb0;" horiz-adv-x="625" 
 />
    <glyph glyph-name="plusminus" unicode="&#xb1;" horiz-adv-x="752" 
d="M81 0v106h590v-106h-590v0v0zM308 355v115h133v-115h230v-106h-230v-116h-133v116h-227v106h227v0v0z" />
    <glyph glyph-name="twosuperior" unicode="&#xb2;" horiz-adv-x="602" 
d="M230 320h235h19t16 1q6 0 12.5 1t13.5 2q3 1 6.5 1.5t7.5 1.5q2 1 3.5 1.5t3.5 0.5q6 2 12.5 3.5t13.5 3.5l-18 -80h-523v171q0 24 6 40.5t17 24.5t30 13t47 6l211 9q10 0 15.5 1t9.5 3q3 2 5 5.5t2 9.5v21q0 4 -2.5 7t-6.5 6q-4 2 -11.5 3.5t-18.5 1.5h-205
q-19 0 -35.5 -0.5t-27.5 -2.5q-11 -1 -21 -4l-20 -6l18 77h383q44 0 72 -6t41 -18q12 -12 18.5 -28t6.5 -36v-78q0 -22 -6.5 -37t-19.5 -23t-35.5 -12.5t-54.5 -5.5l-197 -7q-7 -1 -12.5 -3t-7.5 -5q-1 -3 -2 -7t-1 -9v-47v0v0z" />
    <glyph glyph-name="threesuperior" unicode="&#xb3;" horiz-adv-x="582" 
d="M85 642h358q38 0 65.5 -4.5t43.5 -12.5q16 -9 24.5 -23.5t8.5 -35.5v-62q0 -13 -7 -22.5t-21 -15.5q-14 -7 -37.5 -10t-57.5 -3v-2q41 -1 66 -4.5t35 -10.5q11 -7 16.5 -19.5t5.5 -29.5v-63q0 -15 -6.5 -27.5t-17.5 -21.5q-11 -10 -31.5 -14.5t-48.5 -4.5h-395l-19 82
q1 -1 2.5 -1.5t2.5 -0.5q2 0 2.5 -0.5l1.5 -1.5h1.5h0.5q7 -3 15 -5.5t18 -4.5q9 -2 21 -3t25 -1h194q11 0 18 1t11 3t5.5 7t1.5 12v53q0 8 -1.5 12.5t-5.5 6.5t-11 3t-18 1h-94q-18 0 -31.5 -0.5t-23.5 -2.5q-2 0 -4.5 -0.5t-4.5 -1.5q-2 0 -4.5 -0.5t-4.5 -0.5
q-5 -1 -9 -2l-8 -2v84q6 -2 12.5 -3t13.5 -2q2 -1 4.5 -1.5t4.5 -0.5q10 -1 23.5 -2t31.5 -1h94q11 0 18 1t11 3t5.5 7.5t1.5 13.5v47q0 8 -1.5 12.5t-5.5 6.5t-11 3t-18 1h-211q-13 0 -24 -1.5t-19 -3.5t-15.5 -4.5t-14.5 -4.5l18 78v0v0z" />
    <glyph glyph-name="acute" unicode="&#xb4;" horiz-adv-x="416" 
d="M250 532h-170l123 148h263l-216 -148v0v0z" />
    <glyph glyph-name="mu" unicode="&#xb5;" horiz-adv-x="905" 
d="M553 131v231q0 22 -2 38t-6 26q-4 11 -9 20t-10 17l-0.5 0.5l-0.5 0.5q-1 0 -1.5 1l-0.5 1q-1 1 -1.5 2t-0.5 2h330v-362q0 -22 1.5 -38t5.5 -27q3 -8 7 -15t8 -13q1 -2 2.5 -4t2.5 -4q0 -1 0.5 -1.5l1.5 -1.5l0.5 -0.5l0.5 -0.5q0 -1 0.5 -1.5l1.5 -1.5h-307l-9 49h-2
l-0.5 -0.5l-0.5 -0.5q0 -1 -0.5 -1h-0.5v0v0v-1v0q-5 -9 -12 -16.5t-15 -15.5q-8 -7 -20.5 -10.5t-27.5 -3.5h-140v-90q0 -16 2 -29.5t6 -23.5q4 -9 8 -17.5t9 -15.5l-320 -2v29v511q0 22 -2 38t-6 26q-4 11 -9 20t-10 17l-0.5 0.5l-0.5 0.5q-1 0 -1.5 1l-0.5 1q-1 1 -1.5 2
t-0.5 2h327v-339q0 -11 2.5 -18.5t7.5 -12.5q6 -4 15.5 -6t23.5 -2h108q13 0 22.5 2t14.5 6q6 5 8.5 12.5t2.5 18.5v0v0z" />
    <glyph glyph-name="paragraph" unicode="&#xb6;" horiz-adv-x="777" 
d="M533 557h-126v-224v-511h-140v465q-67 0 -118 11.5t-87 34.5q-35 23 -52 55t-17 72q0 54 20.5 90t63.5 55q44 18 98 27.5t120 9.5h381v-309v-511h-143v222v512v1v0v0z" />
    <glyph glyph-name="middot" unicode="&#xb7;" 
 />
    <glyph glyph-name="cedilla" unicode="&#xb8;" horiz-adv-x="416" 
d="M183 0h73l-49 -64q1 2 2.5 3t2.5 1h2.5h2.5l6 2t7 1h8h8q26 0 46 -3.5t34 -10.5q13 -8 23 -16t16 -17q1 -1 1.5 -2.5t0.5 -2.5q1 -3 2.5 -5.5t1.5 -5.5q1 -4 1.5 -7.5t0.5 -6.5q0 -4 -0.5 -8.5t-2.5 -9.5q-1 -1 -1.5 -2t-0.5 -3q-2 -3 -3.5 -7t-4.5 -8q-7 -11 -20.5 -21
t-31.5 -19q-19 -9 -44 -14t-58 -5h-8t-7 1q-4 0 -8 0.5t-8 0.5t-8 0.5t-8 1.5q-4 0 -8 0.5t-8 1.5q-3 0 -6 1t-6 1q-6 2 -11.5 3t-12.5 3q-9 2 -17.5 4.5t-16.5 4.5q-2 0 -4 0.5t-4 1.5q-1 0 -2 0.5t-2 0.5q-3 1 -5.5 1.5t-4.5 1.5l25 44q19 -4 32 -7t23 -5q8 -2 16.5 -3
t15.5 -2h1.5h1.5h0.5t0.5 -1h2.5h2.5h4.5h6.5q15 0 26.5 2.5t18.5 7.5q8 4 13 9.5t6 10.5v1.5t1 0.5v1.5v0.5v2v2q0 7 -3.5 12.5t-8.5 9.5q-6 4 -12 6t-14 3q-3 1 -6 1.5t-6 0.5h-2.5h-2.5h-2.5h-2.5h-8t-8 -1t-7.5 -2t-7.5 -2q-1 0 -2.5 -0.5t-3.5 -1.5q-2 0 -3 -0.5
t-2 -1.5l-33 22l70 92v0v0z" />
    <glyph glyph-name="onesuperior" unicode="&#xb9;" horiz-adv-x="390" 
d="M305 642v-333q0 -11 1 -19.5t4 -14.5q2 -6 5.5 -10.5t7.5 -8.5h-235q4 4 7.5 8.5t6.5 10.5q2 6 3.5 14.5t1.5 19.5v216h-75v68l220 49h53v0v0z" />
    <glyph glyph-name="ordmasculine" unicode="&#xba;" horiz-adv-x="527" 
d="M523 557v-114q0 -22 -6 -38t-17 -27q-11 -10 -33.5 -15t-54.5 -5h-300q-33 0 -54.5 5t-32.5 15q-11 11 -17 27t-6 38v114q0 22 6 38t17 26q11 11 32.5 16t54.5 5h300q32 0 54.5 -5t33.5 -16q11 -10 17 -26t6 -38v0v0zM195 564v-128q0 -6 1 -10.5t4 -6.5q2 -3 7.5 -4
t13.5 -1h80q8 0 14 1t10 4q2 2 4 6.5t2 10.5v128q0 6 -2 10t-4 7q-3 2 -9 3.5t-14 1.5h-80q-8 0 -14 -1.5t-8 -3.5q-3 -3 -4 -7t-1 -10v0v0z" />
    <glyph glyph-name="guillemotright" unicode="&#xbb;" horiz-adv-x="697" 
d="M43 416h207l121 -186l-121 -176h-207l122 176l-122 186v0v0zM323 416h207l123 -186l-123 -176h-207l122 176l-122 186v0v0z" />
    <glyph glyph-name="onequarter" unicode="&#xbc;" horiz-adv-x="1461" 
d="M781 642h176l-91 -129l-360 -512l-1 -1h-177l92 129l360 512l1 1v0v0zM1347 187h86v-101h-86v-30q0 -7 1 -14t3 -12q2 -6 4.5 -10.5t6.5 -9.5q0 -1 1 -2.5t3 -3.5l2 -2l2 -2h-243q0 1 1 2t3 2q1 2 2 3.5t2 2.5q1 2 2.5 4.5t2.5 4.5q1 3 2.5 5.5t2.5 5.5q0 1 0.5 2.5
t1.5 3.5q1 4 2 9t1 11v30h-347v95l312 202h232v-196v0v0zM1150 187v127l-203 -125v-2h203v0v0zM305 642v-333q0 -11 1 -19.5t4 -14.5q2 -6 5.5 -10.5t7.5 -8.5h-235q4 4 7.5 8.5t6.5 10.5q2 6 3.5 14.5t1.5 19.5v216h-75v68l220 49h53v0v0z" />
    <glyph glyph-name="onehalf" unicode="&#xbd;" horiz-adv-x="1461" 
d="M768 642h177l-92 -129l-360 -512l-1 -1h-176l91 129l360 512l1 1v0v0zM1088 64h235h19.5t15.5 1q7 0 13.5 1t13.5 2q5 1 10 2.5t11 2.5q5 2 12 3.5t14 3.5l-19 -80h-522v171q0 24 5.5 40.5t16.5 23.5q11 8 30.5 12.5t47.5 5.5l211 9q10 0 15.5 1t9.5 3q3 2 4.5 5.5
t1.5 9.5v21q0 4 -2 7t-6 6q-4 2 -11.5 3.5t-18.5 1.5h-205q-20 0 -36 -0.5t-27 -2.5q-11 -1 -21.5 -4t-19.5 -6l17 77h384q44 0 72 -6t41 -18q12 -12 18.5 -28t6.5 -36v-76q0 -22 -6.5 -37t-20.5 -23q-13 -8 -35.5 -12.5t-54.5 -5.5l-196 -7q-7 -1 -12.5 -3t-7.5 -5
q-1 -3 -2.5 -7t-1.5 -9v-47v0v0zM305 642v-333q0 -11 1 -19.5t4 -14.5q2 -6 5.5 -10.5t7.5 -8.5h-235q4 4 7.5 8.5t6.5 10.5q2 6 3.5 14.5t1.5 19.5v216h-75v68l220 49h53v0v0z" />
    <glyph glyph-name="threequarters" unicode="&#xbe;" horiz-adv-x="1461" 
d="M887 642h176l-91 -129l-360 -512l-1 -1h-176l91 129l360 512l1 1v0v0zM1347 187h86v-101h-86v-30q0 -7 1 -14t3 -12q2 -6 4.5 -10.5t6.5 -9.5q0 -1 1 -2.5t3 -3.5l2 -2l2 -2h-243q0 1 1 2t3 2q1 2 2 3.5t2 2.5q1 2 2.5 4.5t2.5 4.5q1 3 2.5 5.5t2.5 5.5q0 1 0.5 2.5
t1.5 3.5q1 4 2 9t1 11v30h-347v95l312 202h232v-196v0v0zM1150 187v127l-203 -125v-2h203v0v0zM85 642h358q38 0 65.5 -4.5t43.5 -12.5q16 -9 24.5 -23.5t8.5 -35.5v-62q0 -13 -7 -22.5t-21 -15.5q-14 -7 -37.5 -10t-57.5 -3v-2q41 -1 66 -4.5t35 -10.5q11 -7 16.5 -19.5
t5.5 -29.5v-63q0 -15 -6.5 -27.5t-17.5 -21.5q-11 -10 -31.5 -14.5t-48.5 -4.5h-395l-19 82q1 -1 2.5 -1.5t2.5 -0.5q2 0 2.5 -0.5l1.5 -1.5h1.5h0.5q7 -3 15 -5.5t18 -4.5q9 -2 21 -3t25 -1h194q11 0 18 1t11 3t5.5 7t1.5 12v53q0 8 -1.5 12.5t-5.5 6.5t-11 3t-18 1h-94
q-18 0 -31.5 -0.5t-23.5 -2.5q-2 0 -4.5 -0.5t-4.5 -1.5q-2 0 -4.5 -0.5t-4.5 -0.5q-5 -1 -9 -2l-8 -2v84q6 -2 12.5 -3t13.5 -2q2 -1 4.5 -1.5t4.5 -0.5q10 -1 23.5 -2t31.5 -1h94q11 0 18 1t11 3t5.5 7.5t1.5 13.5v47q0 8 -1.5 12.5t-5.5 6.5t-11 3t-18 1h-211
q-13 0 -24 -1.5t-19 -3.5t-15.5 -4.5t-14.5 -4.5l18 78v0v0z" />
    <glyph glyph-name="questiondown" unicode="&#xbf;" horiz-adv-x="882" 
d="M372 264h308v-72q0 -38 -9.5 -63.5t-28.5 -38.5t-49.5 -19.5t-72.5 -6.5h-102q-17 0 -29.5 -3t-18.5 -9q-7 -6 -10 -13.5t-3 -16.5v-54q0 -8 4 -16t11 -15q8 -6 22 -9.5t34 -3.5l274 -2q23 2 42.5 3.5t35.5 4.5t31 6.5t30 8.5q1 1 2 1.5t2 0.5q0 1 1 1h2t2 0.5t2 0.5
q1 1 2 1.5t2 0.5l-26 -121h-567q-56 2 -96 11.5t-65 27.5q-25 19 -37.5 44.5t-12.5 57.5v72q0 33 12 58t37 41q24 16 50.5 24t56.5 8h108q18 0 29.5 2.5t16.5 6.5q5 5 7.5 13t2.5 20v48v0v0zM680 470v-168h-298v168h298v0v0z" />
    <glyph glyph-name="Agrave" unicode="&#xc0;" horiz-adv-x="1021" 
d="M602 172h-351l-54 -88q-1 -2 -2.5 -4.5t-2.5 -4.5q0 -1 -0.5 -2t-0.5 -2q-1 -1 -1.5 -2.5t-1.5 -3.5t-1.5 -4.5t-0.5 -4.5v-5.5v-4.5v-7.5v-5.5q0 -3 0.5 -5.5t1.5 -4.5q1 -1 1.5 -2l1.5 -3q0 -1 0.5 -2l1.5 -3l1.5 -1.5t0.5 -1.5q2 -2 3.5 -4.5t4.5 -5.5h-225
q10 9 17 16.5t12 14.5q3 3 6 6.5t6 7.5q2 3 5 6.5t6 6.5l2 2t2 3q0 1 1 2.5t2 2.5t2 2.5t2 2.5q1 2 2 3.5t2 2.5q2 4 5 8.5t6 8.5q1 2 2 3.5t2 2.5q2 3 4 6.5t4 7.5l292 490l-35 36h363l22 -41l262 -512l1 -1q7 -13 14.5 -25t17.5 -23q9 -11 18.5 -21t19.5 -19h-401l7 10.5
t4 7.5q2 3 3 6l2 6q0 1 0.5 1.5t0.5 1.5t0.5 1.5t0.5 1.5v3.5v2.5t-0.5 2t-0.5 3q0 1 -0.5 2.5t-0.5 2.5v3.5v2.5q-1 2 -1 3.5v2.5q0 2 -0.5 3.5t-1.5 3.5q0 1 -0.5 3t-1.5 3q0 2 -0.5 3.5t-1.5 3.5q0 1 -1 3t-2 3l-46 82v0v0zM313 278h237l-114 216l-123 -216v0v0zM641 678
h-174l-214 148h260l128 -148v0v0z" />
    <glyph glyph-name="Aacute" unicode="&#xc1;" horiz-adv-x="1021" 
d="M602 172h-351l-54 -88q-1 -2 -2.5 -4.5t-2.5 -4.5q0 -1 -0.5 -2t-0.5 -2q-1 -1 -1.5 -2.5t-1.5 -3.5t-1.5 -4.5t-0.5 -4.5v-5.5v-4.5v-7.5v-5.5q0 -3 0.5 -5.5t1.5 -4.5q1 -1 1.5 -2l1.5 -3q0 -1 0.5 -2l1.5 -3l1.5 -1.5t0.5 -1.5q2 -2 3.5 -4.5t4.5 -5.5h-225
q10 9 17 16.5t12 14.5q3 3 6 6.5t6 7.5q2 3 5 6.5t6 6.5l2 2t2 3q0 1 1 2.5t2 2.5t2 2.5t2 2.5q1 2 2 3.5t2 2.5q2 4 5 8.5t6 8.5q1 2 2 3.5t2 2.5q2 3 4 6.5t4 7.5l292 490l-35 36h363l22 -41l262 -512l1 -1q7 -13 14.5 -25t17.5 -23q9 -11 18.5 -21t19.5 -19h-401l7 10.5
t4 7.5q2 3 3 6l2 6q0 1 0.5 1.5t0.5 1.5t0.5 1.5t0.5 1.5v3.5v2.5t-0.5 2t-0.5 3q0 1 -0.5 2.5t-0.5 2.5v3.5v2.5q-1 2 -1 3.5v2.5q0 2 -0.5 3.5t-1.5 3.5q0 1 -0.5 3t-1.5 3q0 2 -0.5 3.5t-1.5 3.5q0 1 -1 3t-2 3l-46 82v0v0zM313 278h237l-114 216l-123 -216v0v0zM551 678
h-170l124 148h265l-219 -148v0v0z" />
    <glyph glyph-name="Acircumflex" unicode="&#xc2;" horiz-adv-x="1021" 
d="M602 172h-351l-54 -88q-1 -2 -2.5 -4.5t-2.5 -4.5q0 -1 -0.5 -2t-0.5 -2q-1 -1 -1.5 -2.5t-1.5 -3.5t-1.5 -4.5t-0.5 -4.5v-5.5v-4.5v-7.5v-5.5q0 -3 0.5 -5.5t1.5 -4.5q1 -1 1.5 -2l1.5 -3q0 -1 0.5 -2l1.5 -3l1.5 -1.5t0.5 -1.5q2 -2 3.5 -4.5t4.5 -5.5h-225
q10 9 17 16.5t12 14.5q3 3 6 6.5t6 7.5q2 3 5 6.5t6 6.5l2 2t2 3q0 1 1 2.5t2 2.5t2 2.5t2 2.5q1 2 2 3.5t2 2.5q2 4 5 8.5t6 8.5q1 2 2 3.5t2 2.5q2 3 4 6.5t4 7.5l292 490l-35 36h363l22 -41l262 -512l1 -1q7 -13 14.5 -25t17.5 -23q9 -11 18.5 -21t19.5 -19h-401l7 10.5
t4 7.5q2 3 3 6l2 6q0 1 0.5 1.5t0.5 1.5t0.5 1.5t0.5 1.5v3.5v2.5t-0.5 2t-0.5 3q0 1 -0.5 2.5t-0.5 2.5v3.5v2.5q-1 2 -1 3.5v2.5q0 2 -0.5 3.5t-1.5 3.5q0 1 -0.5 3t-1.5 3q0 2 -0.5 3.5t-1.5 3.5q0 1 -1 3t-2 3l-46 82v0v0zM313 278h237l-114 216l-123 -216v0v0zM440 678
h-184l150 148h206l154 -148h-188l-68 75l-70 -75v0v0z" />
    <glyph glyph-name="Atilde" unicode="&#xc3;" horiz-adv-x="1021" 
d="M602 172h-351l-54 -88q-1 -2 -2.5 -4.5t-2.5 -4.5q0 -1 -0.5 -2t-0.5 -2q-1 -1 -1.5 -2.5t-1.5 -3.5t-1.5 -4.5t-0.5 -4.5v-5.5v-4.5v-7.5v-5.5q0 -3 0.5 -5.5t1.5 -4.5q1 -1 1.5 -2l1.5 -3q0 -1 0.5 -2l1.5 -3l1.5 -1.5t0.5 -1.5q2 -2 3.5 -4.5t4.5 -5.5h-225
q10 9 17 16.5t12 14.5q3 3 6 6.5t6 7.5q2 3 5 6.5t6 6.5l2 2t2 3q0 1 1 2.5t2 2.5t2 2.5t2 2.5q1 2 2 3.5t2 2.5q2 4 5 8.5t6 8.5q1 2 2 3.5t2 2.5q2 3 4 6.5t4 7.5l292 490l-35 36h363l22 -41l262 -512l1 -1q7 -13 14.5 -25t17.5 -23q9 -11 18.5 -21t19.5 -19h-401l7 10.5
t4 7.5q2 3 3 6l2 6q0 1 0.5 1.5t0.5 1.5t0.5 1.5t0.5 1.5v3.5v2.5t-0.5 2t-0.5 3q0 1 -0.5 2.5t-0.5 2.5v3.5v2.5q-1 2 -1 3.5v2.5q0 2 -0.5 3.5t-1.5 3.5q0 1 -0.5 3t-1.5 3q0 2 -0.5 3.5t-1.5 3.5q0 1 -1 3t-2 3l-46 82v0v0zM313 278h237l-114 216l-123 -216v0v0zM656 817
h100q-6 -34 -17.5 -58t-30.5 -38q-19 -15 -39 -23.5t-41 -11.5q-4 -1 -8 -1.5t-8 -0.5h-7.5h-7.5q-15 0 -29 1.5t-27 4.5t-25 6t-23 7q-11 3 -21 6l-20 6q-9 3 -17.5 4.5t-16.5 1.5q-11 0 -19.5 -3.5t-16.5 -9.5q-7 -7 -12 -14.5t-7 -15.5h-98q5 30 17 55t31 45
q20 20 47.5 30.5t61.5 10.5q15 0 28.5 -1.5t26.5 -4.5q6 -1 12 -3t11 -3q6 -2 11.5 -3.5t11.5 -3.5q11 -4 21 -7.5t19 -6.5q5 -1 9.5 -2.5t9.5 -1.5q4 -1 8.5 -1.5t9.5 -0.5h4t7 1q4 0 8.5 1.5t8.5 3.5l4 2t5 2q2 2 4 3.5t4 3.5q4 3 6.5 8t4.5 12v0v0z" />
    <glyph glyph-name="Adieresis" unicode="&#xc4;" horiz-adv-x="1021" 
d="M602 172h-351l-54 -88q-1 -2 -2.5 -4.5t-2.5 -4.5q0 -1 -0.5 -2t-0.5 -2q-1 -1 -1.5 -2.5t-1.5 -3.5t-1.5 -4.5t-0.5 -4.5v-5.5v-4.5v-7.5v-5.5q0 -3 0.5 -5.5t1.5 -4.5q1 -1 1.5 -2l1.5 -3q0 -1 0.5 -2l1.5 -3l1.5 -1.5t0.5 -1.5q2 -2 3.5 -4.5t4.5 -5.5h-225
q10 9 17 16.5t12 14.5q3 3 6 6.5t6 7.5q2 3 5 6.5t6 6.5l2 2t2 3q0 1 1 2.5t2 2.5t2 2.5t2 2.5q1 2 2 3.5t2 2.5q2 4 5 8.5t6 8.5q1 2 2 3.5t2 2.5q2 3 4 6.5t4 7.5l292 490l-35 36h363l22 -41l262 -512l1 -1q7 -13 14.5 -25t17.5 -23q9 -11 18.5 -21t19.5 -19h-401l7 10.5
t4 7.5q2 3 3 6l2 6q0 1 0.5 1.5t0.5 1.5t0.5 1.5t0.5 1.5v3.5v2.5t-0.5 2t-0.5 3q0 1 -0.5 2.5t-0.5 2.5v3.5v2.5q-1 2 -1 3.5v2.5q0 2 -0.5 3.5t-1.5 3.5q0 1 -0.5 3t-1.5 3q0 2 -0.5 3.5t-1.5 3.5q0 1 -1 3t-2 3l-46 82v0v0zM313 278h237l-114 216l-123 -216v0v0zM472 684
h-211v130h211v-130v0v0zM760 684h-215v130h215v-130v0v0z" />
    <glyph glyph-name="Aring" unicode="&#xc5;" horiz-adv-x="1021" 
d="M602 172h-351l-54 -88q-1 -2 -2.5 -4.5t-2.5 -4.5q0 -1 -0.5 -2t-0.5 -2q-1 -1 -1.5 -2.5t-1.5 -3.5t-1.5 -4.5t-0.5 -4.5v-5.5v-4.5v-7.5v-5.5q0 -3 0.5 -5.5t1.5 -4.5q1 -1 1.5 -2l1.5 -3q0 -1 0.5 -2l1.5 -3l1.5 -1.5t0.5 -1.5q2 -2 3.5 -4.5t4.5 -5.5h-225
q10 9 17 16.5t12 14.5q3 3 6 6.5t6 7.5q2 3 5 6.5t6 6.5l2 2t2 3q0 1 1 2.5t2 2.5t2 2.5t2 2.5q1 2 2 3.5t2 2.5q2 4 5 8.5t6 8.5q1 2 2 3.5t2 2.5q2 3 4 6.5t4 7.5l292 490l-35 36h363l22 -41l262 -512l1 -1q7 -13 14.5 -25t17.5 -23q9 -11 18.5 -21t19.5 -19h-401l7 10.5
t4 7.5q2 3 3 6l2 6q0 1 0.5 1.5t0.5 1.5t0.5 1.5t0.5 1.5v3.5v2.5t-0.5 2t-0.5 3q0 1 -0.5 2.5t-0.5 2.5v3.5v2.5q-1 2 -1 3.5v2.5q0 2 -0.5 3.5t-1.5 3.5q0 1 -0.5 3t-1.5 3q0 2 -0.5 3.5t-1.5 3.5q0 1 -1 3t-2 3l-46 82v0v0zM313 278h237l-114 216l-123 -216v0v0zM368 788
q0 23 10.5 43t31.5 36q20 17 45 25t53 8q29 0 54 -8t46 -25q21 -16 32 -36t11 -43t-11 -42.5t-32 -36.5q-21 -16 -46 -24.5t-54 -8.5q-28 0 -53 8t-45 24q-21 17 -31.5 36.5t-10.5 43.5v0v0zM447 788v-4t1 -4q0 -1 0.5 -2.5t1.5 -3.5q0 -1 0.5 -1.5t0.5 -1.5q2 -6 7 -11.5
t12 -10.5q6 -5 15.5 -7.5t20.5 -2.5q13 0 23.5 3.5t20.5 10.5q9 7 13.5 16t4.5 19t-4.5 18.5t-12.5 15.5q-10 8 -20 11.5t-24 3.5q-12 0 -21.5 -2.5t-15.5 -7.5q-7 -5 -12 -10.5t-7 -11.5q0 -1 -0.5 -2t-0.5 -2q-1 -1 -1.5 -2.5t-0.5 -2.5q-1 -2 -1 -4v-4v0v0z" />
    <glyph glyph-name="AE" unicode="&#xc6;" horiz-adv-x="1228" 
d="M841 384h190q23 0 42 1t34 3q14 2 27 5t24 6h1.5h1.5h0.5h1.5h1.5t1.5 1l0.5 0.5t1.5 0.5v-140h-1.5t-0.5 1h-1.5h-1.5h-1.5t-0.5 1h-1.5h-1.5q-11 3 -24 5.5t-27 4.5q-15 2 -34 3.5t-42 1.5h-190v-172h237q24 0 43 1t34 3t27.5 5t23.5 6h2h3q1 0 2 0.5l3 1.5l-28 -123
h-38h-640h-2v0v0h0.5t0.5 1l0.5 0.5l0.5 0.5q5 9 9 19t8 21q3 11 4.5 28.5t1.5 39.5v62h-292l-65 -98l-2 -2l-1 -1q-1 -1 -1 -2v-2q-1 -1 -1.5 -2.5t-2.5 -3.5q-2 -6 -4 -11l-4 -10t-3 -9t-1 -7v-2.5v-3.5q0 -1 0.5 -2.5t1.5 -3.5q0 -1 0.5 -2t1.5 -2l0.5 -0.5t0.5 -1.5
q1 -1 2 -2.5t2 -3.5h-225q14 12 29 26.5t31 31.5q13 17 30 37t35 44l342 463l-74 40h202h640h1l25 -123h-2t-1 1h-1.5h-0.5h-2t-1 1h-1.5h-0.5q-11 3 -24.5 5.5t-28.5 4.5t-34 3.5t-42 1.5h-221v-152v0v0zM315 278h218v242v1.5v1.5v0.5v1.5q0 5 -0.5 9t-2.5 7l-1.5 1.5
l-1.5 1.5t-2.5 1.5t-3.5 0.5q-3 0 -6 -1.5t-5 -3.5q-4 -3 -7 -6t-6 -7l-182 -250v0v0z" />
    <glyph glyph-name="Ccedilla" unicode="&#xc7;" horiz-adv-x="790" 
d="M406 0h72l-48 -64q1 2 2 3t3 1h2h3q2 1 5 2t7 1h8h8q26 0 46.5 -3.5t33.5 -10.5q14 -8 24 -16t15 -17q2 -4 3.5 -8t2.5 -8q2 -4 2.5 -7.5t0.5 -6.5q0 -4 -1 -8.5t-3 -9.5q-1 -5 -3.5 -10t-6.5 -10q-7 -11 -20 -21t-31 -19q-19 -9 -44.5 -14t-58.5 -5h-8t-7 1q-4 0 -8 0.5
t-8 0.5t-8 0.5t-7 1.5q-4 0 -8 0.5t-8 1.5q-6 1 -12 2.5t-12 2.5q-3 1 -6 1.5t-6 1.5q-10 2 -18 4.5t-16 4.5q-4 1 -7 1.5t-6 1.5q-1 0 -2.5 0.5t-2.5 0.5q-1 1 -2.5 1.5t-2.5 0.5l25 44q19 -4 32.5 -7l22.5 -5t17.5 -3t15.5 -2h2t2 -1h2.5h2.5h4.5h6.5q15 0 26.5 2.5
t18.5 7.5q8 4 12.5 9.5t6.5 10.5v1.5t1 0.5v1.5v0.5v2v2q0 7 -3.5 12.5t-9.5 9.5q-5 4 -11.5 6t-14.5 3q-1 0 -2.5 0.5t-2.5 0.5q-2 1 -3 1h-3h-5.5h-4.5h-8t-8 -1t-7.5 -2t-7.5 -2h-2t-1 -1q-1 0 -2 -0.5t-2 -0.5h-1.5t-0.5 -1q-1 0 -1.5 -0.5t-1.5 -0.5l-32 22l70 92v0v0z
M740 642l23 -123h-0.5h-1.5l-1.5 1.5t-2.5 0.5h-1.5t-1.5 1h-1.5h-0.5q-11 3 -23 5.5t-24 4.5q-13 2 -29 3t-35 1h-221q-15 0 -26 -2t-19 -7q-7 -4 -11 -13t-4 -21v-346q0 -12 4 -19.5t11 -12.5q8 -4 19 -6.5t26 -2.5h172q38 0 66 1t44 3q17 2 31 5t25 7q1 0 2.5 0.5
t2.5 1.5q1 0 2.5 0.5t2.5 1.5q1 0 2.5 0.5t2.5 1.5q1 0 2.5 0.5t2.5 1.5l-26 -130h-495q-49 0 -86.5 10.5t-63.5 31.5t-39 57.5t-13 88.5v264q0 53 13 89.5t39 57.5t63.5 32t86.5 11h483v0v0z" />
    <glyph glyph-name="Egrave" unicode="&#xc8;" horiz-adv-x="790" 
d="M372 106h268q23 0 42 1t34 3t27.5 5t23.5 6h2.5h2.5t2.5 0.5t2.5 1.5l-27 -123h-67h-640h-1v0v0v0l1 1v0.5v0.5q6 9 10 19t8 21q3 11 4.5 28.5t1.5 39.5v422q0 23 -1.5 39.5t-4.5 27.5q-4 11 -8 21.5t-10 19.5v0v1h-1v0v0v1v0v0h54h640h1l25 -123h-1.5t-1.5 1h-1.5h-0.5
h-1.5t-1.5 1h-1.5h-0.5q-11 3 -24 5.5t-28 4.5t-35 3.5t-44 1.5h-249v-152h218q24 0 43 1t34 3t28.5 5t24.5 6h2h3q1 0 2 0.5l3 1.5v-140h-2t-1 1h-1.5h-0.5h-2t-1 1h-1.5h-0.5q-11 3 -24.5 5.5t-28.5 4.5t-34 3.5t-43 1.5h-218v-172v0v0zM538 678h-171l-214 148h260
l125 -148v0v0z" />
    <glyph glyph-name="Eacute" unicode="&#xc9;" horiz-adv-x="790" 
d="M372 106h268q23 0 42 1t34 3t27.5 5t23.5 6h2.5h2.5t2.5 0.5t2.5 1.5l-27 -123h-67h-640h-1v0v0v0l1 1v0.5v0.5q6 9 10 19t8 21q3 11 4.5 28.5t1.5 39.5v422q0 23 -1.5 39.5t-4.5 27.5q-4 11 -8 21.5t-10 19.5v0v1h-1v0v0v1v0v0h54h640h1l25 -123h-1.5t-1.5 1h-1.5h-0.5
h-1.5t-1.5 1h-1.5h-0.5q-11 3 -24 5.5t-28 4.5t-35 3.5t-44 1.5h-249v-152h218q24 0 43 1t34 3t28.5 5t24.5 6h2h3q1 0 2 0.5l3 1.5v-140h-2t-1 1h-1.5h-0.5h-2t-1 1h-1.5h-0.5q-11 3 -24.5 5.5t-28.5 4.5t-34 3.5t-43 1.5h-218v-172v0v0zM451 678h-170l124 148h265
l-219 -148v0v0z" />
    <glyph glyph-name="Ecircumflex" unicode="&#xca;" horiz-adv-x="790" 
d="M372 106h268q23 0 42 1t34 3t27.5 5t23.5 6h2.5h2.5t2.5 0.5t2.5 1.5l-27 -123h-67h-640h-1v0v0v0l1 1v0.5v0.5q6 9 10 19t8 21q3 11 4.5 28.5t1.5 39.5v422q0 23 -1.5 39.5t-4.5 27.5q-4 11 -8 21.5t-10 19.5v0v1h-1v0v0v1v0v0h54h640h1l25 -123h-1.5t-1.5 1h-1.5h-0.5
h-1.5t-1.5 1h-1.5h-0.5q-11 3 -24 5.5t-28 4.5t-35 3.5t-44 1.5h-249v-152h218q24 0 43 1t34 3t28.5 5t24.5 6h2h3q1 0 2 0.5l3 1.5v-140h-2t-1 1h-1.5h-0.5h-2t-1 1h-1.5h-0.5q-11 3 -24.5 5.5t-28.5 4.5t-34 3.5t-43 1.5h-218v-172v0v0zM340 678h-184l150 148h206
l154 -148h-188l-68 75l-70 -75v0v0z" />
    <glyph glyph-name="Edieresis" unicode="&#xcb;" horiz-adv-x="790" 
d="M372 106h268q23 0 42 1t34 3t27.5 5t23.5 6h2.5h2.5t2.5 0.5t2.5 1.5l-27 -123h-67h-640h-1v0v0v0l1 1v0.5v0.5q6 9 10 19t8 21q3 11 4.5 28.5t1.5 39.5v422q0 23 -1.5 39.5t-4.5 27.5q-4 11 -8 21.5t-10 19.5v0v1h-1v0v0v1v0v0h54h640h1l25 -123h-1.5t-1.5 1h-1.5h-0.5
h-1.5t-1.5 1h-1.5h-0.5q-11 3 -24 5.5t-28 4.5t-35 3.5t-44 1.5h-249v-152h218q24 0 43 1t34 3t28.5 5t24.5 6h2h3q1 0 2 0.5l3 1.5v-140h-2t-1 1h-1.5h-0.5h-2t-1 1h-1.5h-0.5q-11 3 -24.5 5.5t-28.5 4.5t-34 3.5t-43 1.5h-218v-172v0v0zM372 684h-211v130h211v-130v0v0z
M660 684h-215v130h215v-130v0v0z" />
    <glyph glyph-name="Igrave" unicode="&#xcc;" 
d="M420 0h-355v0v0v0l1 1v0.5v0.5q5 9 9 19t8 21q3 11 5 28.5t2 39.5v422q0 23 -2 39.5t-5 27.5q-4 11 -8 21.5t-9 19.5v0v1h-1v0v0v1v0v0h355h-0.5h-0.5q0 -1 -0.5 -1h-0.5v0v0v-1v0q-5 -9 -9.5 -19.5t-7.5 -21.5q-4 -11 -5 -27.5t-1 -39.5v-422q0 -22 1 -39.5t5 -28.5
q3 -11 7.5 -21t9.5 -19v-1.5v-0.5h0.5h0.5h0.5h0.5v0v0zM372 678h-171l-213 148h259l125 -148v0v0z" />
    <glyph glyph-name="Iacute" unicode="&#xcd;" 
d="M420 0h-355v0v0v0l1 1v0.5v0.5q5 9 9 19t8 21q3 11 5 28.5t2 39.5v422q0 23 -2 39.5t-5 27.5q-4 11 -8 21.5t-9 19.5v0v1h-1v0v0v1v0v0h355h-0.5h-0.5q0 -1 -0.5 -1h-0.5v0v0v-1v0q-5 -9 -9.5 -19.5t-7.5 -21.5q-4 -11 -5 -27.5t-1 -39.5v-422q0 -22 1 -39.5t5 -28.5
q3 -11 7.5 -21t9.5 -19v-1.5v-0.5h0.5h0.5h0.5h0.5v0v0zM285 678h-170l123 148h263l-216 -148v0v0z" />
    <glyph glyph-name="Icircumflex" unicode="&#xce;" 
d="M420 0h-355v0v0v0l1 1v0.5v0.5q5 9 9 19t8 21q3 11 5 28.5t2 39.5v422q0 23 -2 39.5t-5 27.5q-4 11 -8 21.5t-9 19.5v0v1h-1v0v0v1v0v0h355h-0.5h-0.5q0 -1 -0.5 -1h-0.5v0v0v-1v0q-5 -9 -9.5 -19.5t-7.5 -21.5q-4 -11 -5 -27.5t-1 -39.5v-422q0 -22 1 -39.5t5 -28.5
q3 -11 7.5 -21t9.5 -19v-1.5v-0.5h0.5h0.5h0.5h0.5v0v0zM173 678h-183l150 148h206l151 -148h-185l-69 75l-70 -75v0v0z" />
    <glyph glyph-name="Idieresis" unicode="&#xcf;" 
d="M420 0h-355v0v0v0l1 1v0.5v0.5q5 9 9 19t8 21q3 11 5 28.5t2 39.5v422q0 23 -2 39.5t-5 27.5q-4 11 -8 21.5t-9 19.5v0v1h-1v0v0v1v0v0h355h-0.5h-0.5q0 -1 -0.5 -1h-0.5v0v0v-1v0q-5 -9 -9.5 -19.5t-7.5 -21.5q-4 -11 -5 -27.5t-1 -39.5v-422q0 -22 1 -39.5t5 -28.5
q3 -11 7.5 -21t9.5 -19v-1.5v-0.5h0.5h0.5h0.5h0.5v0v0zM206 684h-211v130h211v-130v0v0zM491 684h-213v130h213v-130v0v0z" />
    <glyph glyph-name="Eth" unicode="&#xd0;" horiz-adv-x="951" 
d="M67 384v148q0 23 -1.5 39.5t-4.5 27.5q-4 11 -8 21.5t-10 19.5v0v1h-1v0v0v1v0v0h624q64 0 108.5 -11t70.5 -32q25 -21 38 -56t13 -85v-276q0 -49 -13 -84t-38 -56q-26 -21 -70.5 -31.5t-108.5 -10.5h-624v0v0v0l1 1v0.5v0.5q6 9 10 19t8 21q3 11 4.5 28.5t1.5 39.5v168
h-79v106h79v0v0zM372 536v-152h115v-106h-115v-172h159q19 0 30.5 2.5t16.5 7.5t7.5 15.5t2.5 26.5v324q0 17 -2.5 28t-7.5 16t-16.5 7.5t-30.5 2.5h-159v0v0z" />
    <glyph glyph-name="Ntilde" unicode="&#xd1;" horiz-adv-x="997" 
d="M532 0l-12 19l-317 512l-1 1h-2v-417q0 -21 0.5 -36.5t1.5 -25.5t4 -18.5t9 -16.5q1 -1 1 -1.5t1 -1.5t2 -2.5t2 -3.5q2 -2 4 -4.5t5 -4.5h-193l2 2t2 3l2 2l2 2l2 2t2 3q0 1 1 2l2 2q5 8 8 16.5t5 18.5q1 10 1.5 25.5t0.5 36.5v412q0 21 -0.5 36t-1.5 25q-2 10 -5 19
t-8 17l-2 2t-1 2l-2 2l-2 2l-2 2t-2 3q-1 1 -2 2.5t-2 2.5h429l7 -11l319 -512l1 -1h4v409q0 21 -0.5 36t-1.5 25q-2 10 -5 19t-8 17l-2 2t-1 2l-2 2l-2 2l-2 2t-2 3q-1 1 -2 2.5t-2 2.5h193q-3 -3 -5 -5.5t-4 -4.5q-1 -1 -2 -2.5t-2 -3.5q-1 0 -1 -0.5t-1 -1.5
q-6 -8 -9 -17t-4 -19t-1.5 -25t-0.5 -36v-14v-512v-1h-398v0v0zM660 817h100q-6 -34 -17.5 -58t-30.5 -38q-19 -15 -39 -23.5t-41 -11.5q-4 -1 -8 -1.5t-8 -0.5h-7.5h-7.5q-15 0 -29 1.5t-27 4.5t-25 6t-23 7q-11 3 -21.5 6t-19.5 6q-10 3 -18 4.5t-16 1.5q-11 0 -19.5 -3.5
t-16.5 -9.5q-7 -7 -12 -14.5t-7 -15.5h-99q5 30 17.5 55t31.5 45q20 20 47.5 30.5t61.5 10.5q11 0 21.5 -1t20.5 -2q3 -1 6.5 -1.5t6.5 -1.5q6 -1 12 -3t11 -3q6 -2 11.5 -3.5t11.5 -3.5q11 -4 21 -7.5t19 -6.5q7 -2 12.5 -3.5t11.5 -1.5q3 -1 6 -1h6h4.5t7.5 1q4 0 8.5 1.5
t8.5 3.5l4 2l4 2q2 2 4 3.5t4 3.5q4 3 7 8t5 12v0v0z" />
    <glyph glyph-name="Ograve" unicode="&#xd2;" 
 />
    <glyph glyph-name="Oacute" unicode="&#xd3;" horiz-adv-x="975" 
d="M55 188v264q0 53 13 89.5t39 57.5t63.5 32t86.5 11h460q49 0 86.5 -11t63.5 -32t39.5 -57.5t13.5 -89.5v-264q0 -52 -13.5 -88.5t-39.5 -57.5t-63.5 -31.5t-86.5 -10.5h-460q-49 0 -86.5 10.5t-63.5 31.5t-39 57.5t-13 88.5v0v0zM360 493v-346q0 -12 4 -19.5t11 -12.5
q8 -4 19 -6.5t26 -2.5h132q15 0 26.5 2.5t18.5 6.5q8 5 11.5 12.5t3.5 19.5v346q0 12 -3.5 21t-11.5 13q-7 5 -18.5 7t-26.5 2h-132q-15 0 -26 -2t-19 -7q-7 -4 -11 -13t-4 -21v0v0zM528 678h-170l124 148h265l-219 -148v0v0z" />
    <glyph glyph-name="Ocircumflex" unicode="&#xd4;" horiz-adv-x="975" 
d="M55 188v264q0 53 13 89.5t39 57.5t63.5 32t86.5 11h460q49 0 86.5 -11t63.5 -32t39.5 -57.5t13.5 -89.5v-264q0 -52 -13.5 -88.5t-39.5 -57.5t-63.5 -31.5t-86.5 -10.5h-460q-49 0 -86.5 10.5t-63.5 31.5t-39 57.5t-13 88.5v0v0zM360 493v-346q0 -12 4 -19.5t11 -12.5
q8 -4 19 -6.5t26 -2.5h132q15 0 26.5 2.5t18.5 6.5q8 5 11.5 12.5t3.5 19.5v346q0 12 -3.5 21t-11.5 13q-7 5 -18.5 7t-26.5 2h-132q-15 0 -26 -2t-19 -7q-7 -4 -11 -13t-4 -21v0v0zM417 678h-184l150 148h207l153 -148h-187l-69 75l-70 -75v0v0z" />
    <glyph glyph-name="Otilde" unicode="&#xd5;" horiz-adv-x="975" 
d="M55 188v264q0 53 13 89.5t39 57.5t63.5 32t86.5 11h460q49 0 86.5 -11t63.5 -32t39.5 -57.5t13.5 -89.5v-264q0 -52 -13.5 -88.5t-39.5 -57.5t-63.5 -31.5t-86.5 -10.5h-460q-49 0 -86.5 10.5t-63.5 31.5t-39 57.5t-13 88.5v0v0zM360 493v-346q0 -12 4 -19.5t11 -12.5
q8 -4 19 -6.5t26 -2.5h132q15 0 26.5 2.5t18.5 6.5q8 5 11.5 12.5t3.5 19.5v346q0 12 -3.5 21t-11.5 13q-7 5 -18.5 7t-26.5 2h-132q-15 0 -26 -2t-19 -7q-7 -4 -11 -13t-4 -21v0v0zM633 817h100q-5 -34 -16.5 -58t-30.5 -38q-14 -11 -29 -18.5t-31 -12.5l-10 -2l-10 -2
q-4 -1 -8 -1.5t-8 -0.5h-7.5h-7.5q-15 0 -29 1.5t-28 4.5q-13 3 -24.5 6t-22.5 7q-11 3 -21.5 6t-19.5 6q-10 3 -18 4.5t-16 1.5q-11 0 -19.5 -3.5t-16.5 -9.5q-7 -7 -12 -14.5t-7 -15.5h-99q5 30 17.5 55t31.5 45q20 20 47 30.5t62 10.5q11 0 21.5 -1t20.5 -2
q3 -1 6.5 -1.5t6.5 -1.5q6 -1 12 -3t11 -3q6 -2 11.5 -3.5t11.5 -3.5q11 -4 20.5 -7.5t19.5 -6.5q9 -3 18 -4.5t18 -1.5h4t7 1q4 0 9 1.5t10 4.5q4 2 7.5 4.5t7.5 6.5q4 3 7 8t4 11v0v0z" />
    <glyph glyph-name="Odieresis" unicode="&#xd6;" horiz-adv-x="975" 
d="M55 188v264q0 53 13 89.5t39 57.5t63.5 32t86.5 11h460q49 0 86.5 -11t63.5 -32t39.5 -57.5t13.5 -89.5v-264q0 -52 -13.5 -88.5t-39.5 -57.5t-63.5 -31.5t-86.5 -10.5h-460q-49 0 -86.5 10.5t-63.5 31.5t-39 57.5t-13 88.5v0v0zM360 493v-346q0 -12 4 -19.5t11 -12.5
q8 -4 19 -6.5t26 -2.5h132q15 0 26.5 2.5t18.5 6.5q8 5 11.5 12.5t3.5 19.5v346q0 12 -3.5 21t-11.5 13q-7 5 -18.5 7t-26.5 2h-132q-15 0 -26 -2t-19 -7q-7 -4 -11 -13t-4 -21v0v0zM450 684h-212v130h212v-130v0v0zM737 684h-215v130h215v-130v0v0z" />
    <glyph glyph-name="multiply" unicode="&#xd7;" horiz-adv-x="625" 
 />
    <glyph glyph-name="Oslash" unicode="&#xd8;" horiz-adv-x="975" 
d="M55 188v264q0 53 13 89.5t39 57.5t63.5 32t86.5 11h460h7.5h7.5h3.5h3.5q2 -1 3.5 -1h3.5l100 99h139l-132 -131q17 -10 29 -25t20 -34t13 -43.5t5 -54.5v-264q0 -52 -13.5 -88.5t-39.5 -57.5t-63.5 -31.5t-86.5 -10.5h-460h-1.5h-2.5h-1.5h-0.5h-2h-2h-2h-2h-1.5t-0.5 1
h-1.5h-1.5l-110 -109h-138l137 137q-18 11 -31 26t-23 34q-9 20 -13.5 44.5t-4.5 54.5v0v0zM610 371l-245 -245q2 -6 7.5 -10t12.5 -6q6 -2 15 -3t20 -1h132q15 0 26.5 2.5t18.5 6.5q8 5 11.5 12.5t3.5 19.5v224h-2v0v0zM362 259l248 250q-3 8 -7.5 13t-11.5 8t-17 4.5
t-22 1.5h-132q-15 0 -26 -2t-19 -7q-7 -4 -11 -13t-4 -21v-234h2v0v0z" />
    <glyph glyph-name="Ugrave" unicode="&#xd9;" horiz-adv-x="975" 
d="M442 106h248q32 0 51 2.5t26 7.5t10.5 18.5t3.5 35.5v357q0 21 -0.5 36t-2.5 25q-1 10 -4 19t-8 17l-2 2l-2 2l-2 2l-2 2l-2 2t-1 3q-1 1 -2 2.5t-2 2.5h192q-2 -3 -4 -5.5t-4 -4.5l-2 -2t-1 -2l-2 -2l-2 -2q-5 -8 -8 -17t-4 -19q-2 -10 -2.5 -25t-0.5 -36v-329
q0 -55 -12 -93t-35 -61q-23 -22 -67 -33t-109 -11h-408q-59 0 -101.5 12t-68.5 37q-26 24 -38.5 61.5t-12.5 87.5v334q0 23 -2 39.5t-4 27.5q-4 11 -8 21.5t-10 19.5v0v1h-1v0v0v1v0v0h355v0v0l-1 -1v0v0v0v-1v0q-6 -9 -10.5 -19.5t-7.5 -21.5q-4 -11 -5 -27.5t-1 -39.5
v-366q0 -16 4 -27t13 -19q10 -7 24.5 -10.5t34.5 -3.5v0v0zM623 678h-171l-214 148h260l125 -148v0v0z" />
    <glyph glyph-name="Uacute" unicode="&#xda;" horiz-adv-x="975" 
d="M442 106h248q32 0 51 2.5t26 7.5t10.5 18.5t3.5 35.5v357q0 21 -0.5 36t-2.5 25q-1 10 -4 19t-8 17l-2 2l-2 2l-2 2l-2 2l-2 2t-1 3q-1 1 -2 2.5t-2 2.5h192q-2 -3 -4 -5.5t-4 -4.5l-2 -2t-1 -2l-2 -2l-2 -2q-5 -8 -8 -17t-4 -19q-2 -10 -2.5 -25t-0.5 -36v-329
q0 -55 -12 -93t-35 -61q-23 -22 -67 -33t-109 -11h-408q-59 0 -101.5 12t-68.5 37q-26 24 -38.5 61.5t-12.5 87.5v334q0 23 -2 39.5t-4 27.5q-4 11 -8 21.5t-10 19.5v0v1h-1v0v0v1v0v0h355v0v0l-1 -1v0v0v0v-1v0q-6 -9 -10.5 -19.5t-7.5 -21.5q-4 -11 -5 -27.5t-1 -39.5
v-366q0 -16 4 -27t13 -19q10 -7 24.5 -10.5t34.5 -3.5v0v0zM536 678h-170l124 148h265l-219 -148v0v0z" />
    <glyph glyph-name="Ucircumflex" unicode="&#xdb;" horiz-adv-x="975" 
d="M442 106h248q32 0 51 2.5t26 7.5t10.5 18.5t3.5 35.5v357q0 21 -0.5 36t-2.5 25q-1 10 -4 19t-8 17l-2 2l-2 2l-2 2l-2 2l-2 2t-1 3q-1 1 -2 2.5t-2 2.5h192q-2 -3 -4 -5.5t-4 -4.5l-2 -2t-1 -2l-2 -2l-2 -2q-5 -8 -8 -17t-4 -19q-2 -10 -2.5 -25t-0.5 -36v-329
q0 -55 -12 -93t-35 -61q-23 -22 -67 -33t-109 -11h-408q-59 0 -101.5 12t-68.5 37q-26 24 -38.5 61.5t-12.5 87.5v334q0 23 -2 39.5t-4 27.5q-4 11 -8 21.5t-10 19.5v0v1h-1v0v0v1v0v0h355v0v0l-1 -1v0v0v0v-1v0q-6 -9 -10.5 -19.5t-7.5 -21.5q-4 -11 -5 -27.5t-1 -39.5
v-366q0 -16 4 -27t13 -19q10 -7 24.5 -10.5t34.5 -3.5v0v0zM425 678h-184l150 148h206l154 -148h-188l-68 75l-70 -75v0v0z" />
    <glyph glyph-name="Udieresis" unicode="&#xdc;" horiz-adv-x="975" 
d="M442 106h248q32 0 51 2.5t26 7.5t10.5 18.5t3.5 35.5v357q0 21 -0.5 36t-2.5 25q-1 10 -4 19t-8 17l-2 2l-2 2l-2 2l-2 2l-2 2t-1 3q-1 1 -2 2.5t-2 2.5h192q-2 -3 -4 -5.5t-4 -4.5l-2 -2t-1 -2l-2 -2l-2 -2q-5 -8 -8 -17t-4 -19q-2 -10 -2.5 -25t-0.5 -36v-329
q0 -55 -12 -93t-35 -61q-23 -22 -67 -33t-109 -11h-408q-59 0 -101.5 12t-68.5 37q-26 24 -38.5 61.5t-12.5 87.5v334q0 23 -2 39.5t-4 27.5q-4 11 -8 21.5t-10 19.5v0v1h-1v0v0v1v0v0h355v0v0l-1 -1v0v0v0v-1v0q-6 -9 -10.5 -19.5t-7.5 -21.5q-4 -11 -5 -27.5t-1 -39.5
v-366q0 -16 4 -27t13 -19q10 -7 24.5 -10.5t34.5 -3.5v0v0zM457 684h-211v130h211v-130v0v0zM745 684h-215v130h215v-130v0v0z" />
    <glyph glyph-name="Yacute" unicode="&#xdd;" 
 />
    <glyph glyph-name="Thorn" unicode="&#xde;" horiz-adv-x="928" 
d="M67 110v422q0 23 -1.5 39.5t-4.5 27.5q-4 11 -8 21.5t-10 19.5v0v1h-1v0v0v1v0v0h355q-5 -9 -9 -18t-8 -20q-4 -10 -6 -26t-2 -36h320q44 0 80.5 -7.5t64.5 -22.5q29 -15 43.5 -46.5t14.5 -81.5v-100q0 -49 -14.5 -80.5t-43.5 -46.5q-28 -15 -64.5 -22t-80.5 -7h-320v-18
q0 -22 1 -39.5t5 -28.5q3 -11 7.5 -21t10.5 -19v-1.5v-0.5v0h1v0v0h-355v0v0v0l1 1v0.5v0.5q6 9 10 19t8 21q3 11 4.5 28.5t1.5 39.5v0v0zM372 434v-200h160v0v0h1h2v0h1v0v0v0h1v0v0q15 0 25 2.5t15 8.5t7.5 17t2.5 27v90q0 16 -2.5 26.5t-7.5 16.5t-15 9t-24 3h-1.5h-0.5
v0v0h-0.5h-0.5h-1.5h-0.5v0v0h-1v0h-160v0v0z" />
    <glyph glyph-name="germandbls" unicode="&#xdf;" horiz-adv-x="928" 
d="M385 518v-5v-512v-1h-319q1 4 2.5 8t3.5 8q1 2 1.5 3.5t1.5 3.5q1 3 2 5.5t2 5.5q0 2 1 4.5t2 5.5q2 9 3.5 18.5t2.5 19.5q0 5 0.5 11t0.5 13t0.5 15t0.5 17v240h-88v92h88v42q0 32 13 56t40 40q28 17 65.5 25.5t84.5 8.5h365q39 0 68 -4.5t49 -12.5q20 -9 30 -27t10 -45
v-45q0 -19 -3 -31.5t-9 -19.5q-5 -7 -18 -12.5t-32 -10.5q-3 -1 -5.5 -1.5t-5.5 -1.5t-5.5 -1.5t-5.5 -1.5t-6.5 -1.5t-7.5 -0.5q-3 -1 -6.5 -1.5t-7.5 -1.5v-2q51 -1 85 -8.5t53 -21.5q18 -13 27 -42t9 -74v-136q0 -34 -9 -59.5t-27 -43.5q-19 -18 -58.5 -27t-100.5 -9
h-245v111q2 -1 2.5 -1.5l1.5 -1.5q1 0 1.5 -0.5l0.5 -0.5q1 0 2 -0.5t2 -0.5q1 -1 2 -1h2q8 -3 15.5 -5.5t16.5 -4.5q10 -1 23 -2t30 -1q11 0 19.5 2t14.5 6q5 4 7.5 12t2.5 21v184q0 15 -3.5 25t-10.5 14q-7 5 -16 7.5t-23 2.5h-99v92h75q13 0 21.5 2.5t12.5 6.5
q5 5 7.5 15.5t2.5 26.5q0 13 -1.5 21t-5.5 12t-10 6t-15 2h-85q-14 0 -23.5 -2t-13.5 -6t-6 -10t-2 -14v0v0z" />
    <glyph glyph-name="agrave" unicode="&#xe0;" horiz-adv-x="882" 
d="M88 470h540q53 0 91.5 -10t60.5 -30q23 -20 34.5 -54.5t11.5 -82.5v-205q0 -18 1.5 -32t5.5 -23q4 -10 9.5 -18t12.5 -15h-298l-15 52h-2q-6 -16 -15 -26.5t-22 -15.5q-12 -5 -32.5 -7.5t-50.5 -2.5h-210q-50 0 -84 8.5t-51 25.5q-18 17 -26.5 44t-8.5 64v34q0 37 8.5 64
t26.5 44q17 17 51 25.5t84 8.5h268q15 0 25.5 1.5t14.5 5.5q5 3 7.5 9t2.5 14t-2.5 13.5t-7.5 9.5q-4 3 -14.5 5t-25.5 2h-293q-17 0 -30.5 -0.5t-24.5 -2.5q-11 -1 -21.5 -3.5t-20.5 -5.5q-1 -1 -2.5 -1.5t-2.5 -0.5q-1 -1 -2.5 -1.5t-2.5 -0.5q-2 -1 -5 -2l-6 -2l21 112v0
v0zM528 226h-131q-16 -1 -28.5 -3t-20.5 -5q-7 -3 -10 -11t-3 -21v-54q0 -13 3 -21t10 -11q8 -4 20.5 -6t28.5 -2h69q20 0 33.5 2.5t18.5 8.5q5 5 7.5 19.5t2.5 36.5v67v0v0zM570 532h-172l-213 148h260l125 -148v0v0z" />
    <glyph glyph-name="aacute" unicode="&#xe1;" horiz-adv-x="882" 
d="M88 470h540q53 0 91.5 -10t60.5 -30q23 -20 34.5 -54.5t11.5 -82.5v-205q0 -18 1.5 -32t5.5 -23q4 -10 9.5 -18t12.5 -15h-298l-15 52h-2q-6 -16 -15 -26.5t-22 -15.5q-12 -5 -32.5 -7.5t-50.5 -2.5h-210q-50 0 -84 8.5t-51 25.5q-18 17 -26.5 44t-8.5 64v34q0 37 8.5 64
t26.5 44q17 17 51 25.5t84 8.5h268q15 0 25.5 1.5t14.5 5.5q5 3 7.5 9t2.5 14t-2.5 13.5t-7.5 9.5q-4 3 -14.5 5t-25.5 2h-293q-17 0 -30.5 -0.5t-24.5 -2.5q-11 -1 -21.5 -3.5t-20.5 -5.5q-1 -1 -2.5 -1.5t-2.5 -0.5q-1 -1 -2.5 -1.5t-2.5 -0.5q-2 -1 -5 -2l-6 -2l21 112v0
v0zM528 226h-131q-16 -1 -28.5 -3t-20.5 -5q-7 -3 -10 -11t-3 -21v-54q0 -13 3 -21t10 -11q8 -4 20.5 -6t28.5 -2h69q20 0 33.5 2.5t18.5 8.5q5 5 7.5 19.5t2.5 36.5v67v0v0zM482 532h-170l124 148h265l-219 -148v0v0z" />
    <glyph glyph-name="acircumflex" unicode="&#xe2;" horiz-adv-x="882" 
d="M88 470h540q53 0 91.5 -10t60.5 -30q23 -20 34.5 -54.5t11.5 -82.5v-205q0 -18 1.5 -32t5.5 -23q4 -10 9.5 -18t12.5 -15h-298l-15 52h-2q-6 -16 -15 -26.5t-22 -15.5q-12 -5 -32.5 -7.5t-50.5 -2.5h-210q-50 0 -84 8.5t-51 25.5q-18 17 -26.5 44t-8.5 64v34q0 37 8.5 64
t26.5 44q17 17 51 25.5t84 8.5h268q15 0 25.5 1.5t14.5 5.5q5 3 7.5 9t2.5 14t-2.5 13.5t-7.5 9.5q-4 3 -14.5 5t-25.5 2h-293q-17 0 -30.5 -0.5t-24.5 -2.5q-11 -1 -21.5 -3.5t-20.5 -5.5q-1 -1 -2.5 -1.5t-2.5 -0.5q-1 -1 -2.5 -1.5t-2.5 -0.5q-2 -1 -5 -2l-6 -2l21 112v0
v0zM528 226h-131q-16 -1 -28.5 -3t-20.5 -5q-7 -3 -10 -11t-3 -21v-54q0 -13 3 -21t10 -11q8 -4 20.5 -6t28.5 -2h69q20 0 33.5 2.5t18.5 8.5q5 5 7.5 19.5t2.5 36.5v67v0v0zM371 532h-184l150 148h206l154 -148h-187l-69 75l-70 -75v0v0z" />
    <glyph glyph-name="atilde" unicode="&#xe3;" horiz-adv-x="882" 
d="M88 470h540q53 0 91.5 -10t60.5 -30q23 -20 34.5 -54.5t11.5 -82.5v-205q0 -18 1.5 -32t5.5 -23q4 -10 9.5 -18t12.5 -15h-298l-15 52h-2q-6 -16 -15 -26.5t-22 -15.5q-12 -5 -32.5 -7.5t-50.5 -2.5h-210q-50 0 -84 8.5t-51 25.5q-18 17 -26.5 44t-8.5 64v34q0 37 8.5 64
t26.5 44q17 17 51 25.5t84 8.5h268q15 0 25.5 1.5t14.5 5.5q5 3 7.5 9t2.5 14t-2.5 13.5t-7.5 9.5q-4 3 -14.5 5t-25.5 2h-293q-17 0 -30.5 -0.5t-24.5 -2.5q-11 -1 -21.5 -3.5t-20.5 -5.5q-1 -1 -2.5 -1.5t-2.5 -0.5q-1 -1 -2.5 -1.5t-2.5 -0.5q-2 -1 -5 -2l-6 -2l21 112v0
v0zM528 226h-131q-16 -1 -28.5 -3t-20.5 -5q-7 -3 -10 -11t-3 -21v-54q0 -13 3 -21t10 -11q8 -4 20.5 -6t28.5 -2h69q20 0 33.5 2.5t18.5 8.5q5 5 7.5 19.5t2.5 36.5v67v0v0zM585 671h102q-4 -31 -15.5 -54.5t-28.5 -37.5q-17 -15 -36 -24t-39 -13q-3 -1 -5.5 -1.5
t-4.5 -0.5q-2 -1 -4.5 -1h-5.5t-5.5 -0.5t-4.5 -0.5h-4.5h-5.5q-15 0 -28.5 1.5t-27.5 4.5q-13 3 -24.5 6t-22.5 7q-11 3 -21.5 6t-20.5 6q-9 3 -17 4.5t-16 1.5q-11 0 -20 -3.5t-17 -9.5q-7 -7 -11.5 -14.5t-6.5 -15.5h-99q5 30 17 55t32 45t47 30.5t61 10.5
q15 0 28.5 -1.5t26.5 -4.5q6 -1 12 -3t12 -3q6 -2 11.5 -3.5t11.5 -3.5l10 -4l10 -4q5 -1 10 -2.5t10 -3.5l6 -2t6 -1q6 -2 12 -2.5t12 -0.5h3.5t6.5 1q4 0 8.5 1.5t8.5 3.5t7.5 4.5t7.5 6.5q4 3 7 8t5 12v0v0z" />
    <glyph glyph-name="adieresis" unicode="&#xe4;" horiz-adv-x="882" 
d="M88 470h540q53 0 91.5 -10t60.5 -30q23 -20 34.5 -54.5t11.5 -82.5v-205q0 -18 1.5 -32t5.5 -23q4 -10 9.5 -18t12.5 -15h-298l-15 52h-2q-6 -16 -15 -26.5t-22 -15.5q-12 -5 -32.5 -7.5t-50.5 -2.5h-210q-50 0 -84 8.5t-51 25.5q-18 17 -26.5 44t-8.5 64v34q0 37 8.5 64
t26.5 44q17 17 51 25.5t84 8.5h268q15 0 25.5 1.5t14.5 5.5q5 3 7.5 9t2.5 14t-2.5 13.5t-7.5 9.5q-4 3 -14.5 5t-25.5 2h-293q-17 0 -30.5 -0.5t-24.5 -2.5q-11 -1 -21.5 -3.5t-20.5 -5.5q-1 -1 -2.5 -1.5t-2.5 -0.5q-1 -1 -2.5 -1.5t-2.5 -0.5q-2 -1 -5 -2l-6 -2l21 112v0
v0zM528 226h-131q-16 -1 -28.5 -3t-20.5 -5q-7 -3 -10 -11t-3 -21v-54q0 -13 3 -21t10 -11q8 -4 20.5 -6t28.5 -2h69q20 0 33.5 2.5t18.5 8.5q5 5 7.5 19.5t2.5 36.5v67v0v0zM403 538h-211v130h211v-130v0v0zM691 538h-215v130h215v-130v0v0z" />
    <glyph glyph-name="aring" unicode="&#xe5;" horiz-adv-x="882" 
d="M88 470h540q53 0 91.5 -10t60.5 -30q23 -20 34.5 -54.5t11.5 -82.5v-205q0 -18 1.5 -32t5.5 -23q4 -10 9.5 -18t12.5 -15h-298l-15 52h-2q-6 -16 -15 -26.5t-22 -15.5q-12 -5 -32.5 -7.5t-50.5 -2.5h-210q-50 0 -84 8.5t-51 25.5q-18 17 -26.5 44t-8.5 64v34q0 37 8.5 64
t26.5 44q17 17 51 25.5t84 8.5h268q15 0 25.5 1.5t14.5 5.5q5 3 7.5 9t2.5 14t-2.5 13.5t-7.5 9.5q-4 3 -14.5 5t-25.5 2h-293q-17 0 -30.5 -0.5t-24.5 -2.5q-11 -1 -21.5 -3.5t-20.5 -5.5q-1 -1 -2.5 -1.5t-2.5 -0.5q-1 -1 -2.5 -1.5t-2.5 -0.5q-2 -1 -5 -2l-6 -2l21 112v0
v0zM528 226h-131q-16 -1 -28.5 -3t-20.5 -5q-7 -3 -10 -11t-3 -21v-54q0 -13 3 -21t10 -11q8 -4 20.5 -6t28.5 -2h69q20 0 33.5 2.5t18.5 8.5q5 5 7.5 19.5t2.5 36.5v67v0v0zM300 642q0 23 10 43t31 36q20 17 45 25t54 8q28 0 53 -8t45 -25q21 -16 31.5 -36t10.5 -43
t-10.5 -42.5t-31.5 -36.5q-20 -16 -45 -24.5t-53 -8.5q-29 0 -54 8t-45 24q-21 17 -31 36.5t-10 43.5v0v0zM378 642q0 -2 0.5 -4t1.5 -4q0 -2 0.5 -4.5t1.5 -4.5q2 -6 7 -11.5t12 -10.5t16 -7.5t20 -2.5q14 0 24 3.5t20 10.5q9 7 14 16t5 19t-5 18.5t-13 15.5
q-9 8 -19.5 11.5t-24.5 3.5q-12 0 -21 -2.5t-16 -7.5t-12 -10.5t-7 -11.5q-1 -3 -1.5 -5t-0.5 -4q-1 -2 -1.5 -4t-0.5 -4v0v0z" />
    <glyph glyph-name="ae" unicode="&#xe6;" horiz-adv-x="1252" 
d="M1212 184h-436v-44q0 -13 4.5 -22t11.5 -15q8 -6 21 -8.5t30 -2.5h228h23t21 1q5 0 9.5 0.5t9.5 0.5l10 2t9 2q3 0 6 0.5t7 1.5q3 1 6 1.5t6 1.5q6 2 13 4t14 5l-23 -112h-540q-24 0 -43 3t-34 9t-27.5 15.5t-20.5 22.5q-1 -1 -1.5 -2t-0.5 -2l-2 -2t-1 -2
q-7 -13 -16 -21.5t-19 -12.5q-9 -4 -23.5 -6t-33.5 -2h-210q-50 0 -84 8.5t-51 25.5q-18 17 -26.5 44t-8.5 64v34q0 37 8.5 64t26.5 44q17 17 51 25.5t84 8.5h226q15 0 25.5 1.5t14.5 5.5q5 3 7.5 9t2.5 14t-2.5 13.5t-7.5 9.5q-4 3 -14.5 5t-25.5 2h-251q-17 0 -30.5 -0.5
t-24.5 -2.5q-11 -1 -21.5 -3.5t-20.5 -5.5q-1 -1 -2.5 -1.5t-2.5 -0.5q-1 -1 -2.5 -1.5t-2.5 -0.5q-2 -1 -5 -2l-6 -2l21 112h298h640h1q51 0 86.5 -10.5t56.5 -30.5q20 -20 31 -46.5t11 -58.5v-140v0v0zM486 226h-113q-15 -1 -25 -3t-16 -5q-7 -3 -9.5 -11t-2.5 -21v-54
q0 -13 2.5 -21t9.5 -11q6 -4 16 -6t25 -2h59q18 0 29.5 2.5t15.5 8.5q4 5 6.5 19.5t2.5 36.5v67v0v0zM776 276h156v64q0 10 -2.5 17.5t-6.5 11.5q-4 5 -12.5 7t-20.5 2h-72q-12 0 -20 -2t-13 -7q-5 -4 -7 -11.5t-2 -17.5v-64v0v0z" />
    <glyph glyph-name="ccedilla" unicode="&#xe7;" horiz-adv-x="743" 
d="M361 0h72l-48 -64q1 2 2 3t3 1h2h3q2 1 5 2t7 1h8h8q26 0 46.5 -3.5t33.5 -10.5q14 -8 24 -16t15 -17q2 -4 3.5 -8t2.5 -8q2 -4 2.5 -7.5t0.5 -6.5q0 -4 -1 -8.5t-3 -9.5q-1 -5 -3.5 -10t-6.5 -10q-7 -11 -20 -21t-31 -19q-19 -9 -44.5 -14t-58.5 -5h-8t-7 1q-4 0 -8 0.5
t-8 0.5t-8 0.5t-7 1.5q-4 0 -8 0.5t-8 1.5q-6 1 -12 2.5t-12 2.5q-3 1 -6 1.5t-6 1.5q-10 2 -18 4.5t-16 4.5q-4 1 -7 1.5t-6 1.5q-1 0 -2.5 0.5t-2.5 0.5q-1 1 -2.5 1.5t-2.5 0.5l25 44q19 -4 32.5 -7l22.5 -5t17.5 -3t15.5 -2h2t2 -1h2.5h2.5h4.5h6.5q15 0 26.5 2.5
t18.5 7.5q8 4 12.5 9.5t6.5 10.5v1.5t1 0.5v1.5v0.5v2v2q0 7 -3.5 12.5t-9.5 9.5q-5 4 -11.5 6t-14.5 3q-1 0 -2.5 0.5t-2.5 0.5q-2 1 -3 1h-3h-5.5h-4.5h-8t-8 -1t-7.5 -2t-7.5 -2h-2t-1 -1q-1 0 -2 -0.5t-2 -0.5h-1.5t-0.5 -1q-1 0 -1.5 -0.5t-1.5 -0.5l-32 22l70 92v0v0z
M335 330v-190q0 -13 4.5 -22t11.5 -15q8 -6 20.5 -8.5t30.5 -2.5h144q34 0 57.5 1t38.5 4t28.5 6.5t24.5 7.5q1 0 2 0.5l3 1.5q1 0 2 0.5l3 1.5l-22 -115h-458q-51 0 -87.5 10t-56.5 31q-21 20 -31 46.5t-10 58.5v178q0 32 10 58.5t31 46.5q20 20 56.5 30.5t87.5 10.5h461
l26 -117q-8 6 -21 11t-30 8q-18 3 -40.5 4.5t-49.5 1.5h-169q-18 0 -30.5 -3t-20.5 -8q-7 -6 -11.5 -15t-4.5 -22v0v0z" />
    <glyph glyph-name="egrave" unicode="&#xe8;" horiz-adv-x="882" 
d="M831 184h-496v-44q0 -13 4.5 -22t11.5 -15q8 -6 20.5 -8.5t30.5 -2.5h286h24t20 1q10 0 19.5 1.5t19.5 3.5q5 1 11.5 2.5t13.5 2.5q5 2 12 4t14 5l-22 -112h-590q-50 0 -84 8.5t-51 25.5q-18 17 -26.5 44t-8.5 64v186q0 37 8.5 64t26.5 44q17 17 51 25.5t84 8.5h451
q50 0 83.5 -8.5t51.5 -25.5q17 -17 26 -44t9 -64v-144v0v0zM335 276h206v64q0 10 -2.5 17.5t-6.5 11.5q-4 5 -12.5 7t-21.5 2h-121q-12 0 -20.5 -2t-13.5 -7q-4 -4 -6 -11.5t-2 -17.5v-64v0v0zM570 532h-172l-213 148h260l125 -148v0v0z" />
    <glyph glyph-name="eacute" unicode="&#xe9;" horiz-adv-x="882" 
d="M831 184h-496v-44q0 -13 4.5 -22t11.5 -15q8 -6 20.5 -8.5t30.5 -2.5h286h24t20 1q10 0 19.5 1.5t19.5 3.5q5 1 11.5 2.5t13.5 2.5q5 2 12 4t14 5l-22 -112h-590q-50 0 -84 8.5t-51 25.5q-18 17 -26.5 44t-8.5 64v186q0 37 8.5 64t26.5 44q17 17 51 25.5t84 8.5h451
q50 0 83.5 -8.5t51.5 -25.5q17 -17 26 -44t9 -64v-144v0v0zM335 276h206v64q0 10 -2.5 17.5t-6.5 11.5q-4 5 -12.5 7t-21.5 2h-121q-12 0 -20.5 -2t-13.5 -7q-4 -4 -6 -11.5t-2 -17.5v-64v0v0zM482 532h-170l124 148h265l-219 -148v0v0z" />
    <glyph glyph-name="ecircumflex" unicode="&#xea;" horiz-adv-x="882" 
d="M831 184h-496v-44q0 -13 4.5 -22t11.5 -15q8 -6 20.5 -8.5t30.5 -2.5h286h24t20 1q10 0 19.5 1.5t19.5 3.5q5 1 11.5 2.5t13.5 2.5q5 2 12 4t14 5l-22 -112h-590q-50 0 -84 8.5t-51 25.5q-18 17 -26.5 44t-8.5 64v186q0 37 8.5 64t26.5 44q17 17 51 25.5t84 8.5h451
q50 0 83.5 -8.5t51.5 -25.5q17 -17 26 -44t9 -64v-144v0v0zM335 276h206v64q0 10 -2.5 17.5t-6.5 11.5q-4 5 -12.5 7t-21.5 2h-121q-12 0 -20.5 -2t-13.5 -7q-4 -4 -6 -11.5t-2 -17.5v-64v0v0zM371 532h-184l150 148h206l154 -148h-187l-69 75l-70 -75v0v0z" />
    <glyph glyph-name="edieresis" unicode="&#xeb;" horiz-adv-x="882" 
d="M831 184h-496v-44q0 -13 4.5 -22t11.5 -15q8 -6 20.5 -8.5t30.5 -2.5h286h24t20 1q10 0 19.5 1.5t19.5 3.5q5 1 11.5 2.5t13.5 2.5q5 2 12 4t14 5l-22 -112h-590q-50 0 -84 8.5t-51 25.5q-18 17 -26.5 44t-8.5 64v186q0 37 8.5 64t26.5 44q17 17 51 25.5t84 8.5h451
q50 0 83.5 -8.5t51.5 -25.5q17 -17 26 -44t9 -64v-144v0v0zM335 276h206v64q0 10 -2.5 17.5t-6.5 11.5q-4 5 -12.5 7t-21.5 2h-121q-12 0 -20.5 -2t-13.5 -7q-4 -4 -6 -11.5t-2 -17.5v-64v0v0zM403 538h-211v130h211v-130v0v0zM691 538h-215v130h215v-130v0v0z" />
    <glyph glyph-name="igrave" unicode="&#xec;" horiz-adv-x="440" 
d="M72 108v254q0 22 -2.5 38t-6.5 26q-4 11 -8.5 20t-9.5 17q-1 1 -2 1.5t-1 1.5q-1 1 -1.5 2t-0.5 2h327v-362q0 -22 2 -38t6 -27q4 -10 9 -19t11 -17q0 -1 0.5 -2t1.5 -2q0 -1 1 -1.5t2 -1.5h-360q0 1 0.5 1.5l1.5 1.5q0 1 1 2l2 2q5 8 9.5 17t8.5 19q4 11 6.5 27t2.5 38
v0v0zM350 532h-172l-213 148h260l125 -148v0v0z" />
    <glyph glyph-name="iacute" unicode="&#xed;" horiz-adv-x="440" 
d="M72 108v254q0 22 -2.5 38t-6.5 26q-4 11 -8.5 20t-9.5 17q-1 1 -2 1.5t-1 1.5q-1 1 -1.5 2t-0.5 2h327v-362q0 -22 2 -38t6 -27q4 -10 9 -19t11 -17q0 -1 0.5 -2t1.5 -2q0 -1 1 -1.5t2 -1.5h-360q0 1 0.5 1.5l1.5 1.5q0 1 1 2l2 2q5 8 9.5 17t8.5 19q4 11 6.5 27t2.5 38
v0v0zM262 532h-170l124 148h262l-216 -148v0v0z" />
    <glyph glyph-name="icircumflex" unicode="&#xee;" horiz-adv-x="440" 
d="M72 108v254q0 22 -2.5 38t-6.5 26q-4 11 -8.5 20t-9.5 17q-1 1 -2 1.5t-1 1.5q-1 1 -1.5 2t-0.5 2h327v-362q0 -22 2 -38t6 -27q4 -10 9 -19t11 -17q0 -1 0.5 -2t1.5 -2q0 -1 1 -1.5t2 -1.5h-360q0 1 0.5 1.5l1.5 1.5q0 1 1 2l2 2q5 8 9.5 17t8.5 19q4 11 6.5 27t2.5 38
v0v0zM151 532h-183l149 148h206l152 -148h-185l-69 75l-70 -75v0v0z" />
    <glyph glyph-name="idieresis" unicode="&#xef;" horiz-adv-x="440" 
d="M72 108v254q0 22 -2.5 38t-6.5 26q-4 11 -8.5 20t-9.5 17q-1 1 -2 1.5t-1 1.5q-1 1 -1.5 2t-0.5 2h327v-362q0 -22 2 -38t6 -27q4 -10 9 -19t11 -17q0 -1 0.5 -2t1.5 -2q0 -1 1 -1.5t2 -1.5h-360q0 1 0.5 1.5l1.5 1.5q0 1 1 2l2 2q5 8 9.5 17t8.5 19q4 11 6.5 27t2.5 38
v0v0zM183 538h-210v130h210v-130v0v0zM468 538h-212v130h212v-130v0v0z" />
    <glyph glyph-name="eth" unicode="&#xf0;" horiz-adv-x="882" 
d="M493 481l-136 -60l-104 57l100 46l-151 44l160 74l153 -48l108 48l128 -46l-100 -44l137 -44q11 -4 19.5 -10t15.5 -15t11.5 -18.5t6.5 -19.5v-1.5t1 -1.5v-1.5v-1.5v-1.5v-0.5v-1.5v-1.5v-320q0 -30 -9 -51.5t-26 -35.5q-18 -13 -51.5 -20t-83.5 -7h-462q-50 0 -84 7
t-51 20q-18 14 -26.5 35.5t-8.5 51.5v150q0 29 8.5 51t26.5 35q17 14 51 21t84 7h286h4.5h4.5q3 -1 5.5 -1h5.5q5 -1 9 -1.5t8 -0.5q1 0 2 -0.5t2 -0.5q0 -1 1 -1h2h2h3v57q0 10 -3 17.5t-9 13.5q-5 5 -13 9.5t-19 8.5l-8 2v0v0zM335 273v-168q0 -8 2 -14t6 -10
q5 -4 13.5 -5.5t20.5 -1.5h123q13 0 21.5 1.5t13.5 5.5t7.5 10t2.5 14v168q0 8 -2.5 14t-7.5 10q-5 3 -13.5 5t-21.5 2h-123q-12 0 -20.5 -2t-13.5 -5q-4 -4 -6 -10t-2 -14v0v0z" />
    <glyph glyph-name="ntilde" unicode="&#xf1;" horiz-adv-x="905" 
d="M21 470h305l9 -49h2v0v1v0v0v0l1 1v0.5v0.5q5 8 11.5 16t15.5 15q8 8 20 11.5t28 3.5h242q51 0 88.5 -11.5t61.5 -34.5q23 -23 34.5 -54.5t11.5 -70.5v-191q0 -22 1.5 -38t5.5 -27q3 -8 7 -15t8 -13q1 -2 2.5 -4t2.5 -4q0 -1 0.5 -1.5l1.5 -1.5l0.5 -0.5l0.5 -0.5
q0 -1 0.5 -1.5l1.5 -1.5h-362q0 1 0.5 1.5l1.5 1.5q0 1 0.5 1.5t1.5 0.5q0 1 0.5 1.5l0.5 0.5q5 8 10 17t9 19q4 11 6 27t2 38v231q0 11 -2.5 18.5t-8.5 11.5q-5 5 -14.5 7t-22.5 2h-108q-14 0 -23.5 -2t-15.5 -7q-5 -4 -7.5 -11.5t-2.5 -18.5v-231q0 -22 2 -38t6 -27
q4 -10 9 -19t11 -17q0 -1 0.5 -2t1.5 -2l0.5 -0.5l1.5 -1.5l0.5 -0.5l0.5 -0.5h-360q0 1 0.5 1.5l1.5 1.5q0 1 0.5 1.5t1.5 0.5q0 1 0.5 1.5l0.5 0.5q5 8 10 17t9 19q4 11 6 27t2 38v254q0 22 -2 38t-6 26q-4 11 -9 20t-10 17l-0.5 0.5l-0.5 0.5q-1 0 -1.5 1l-0.5 1
q-1 1 -1.5 2t-0.5 2v0v0zM596 671h102q-4 -31 -15 -54.5t-28 -37.5q-18 -15 -36.5 -24t-38.5 -13q-6 -1 -10.5 -2t-9.5 -1q-6 -1 -10.5 -1h-9.5q-15 0 -29 1.5t-28 4.5q-13 3 -24.5 6t-22.5 7q-11 3 -21.5 6t-19.5 6q-10 3 -18 4.5t-16 1.5q-11 0 -19.5 -3.5t-16.5 -9.5
q-7 -7 -12 -14.5t-7 -15.5h-99q5 30 17.5 55t31.5 45q20 20 47 30.5t62 10.5q11 0 21.5 -1t20.5 -2q3 -1 6.5 -1.5t6.5 -1.5q6 -1 12 -3t11 -3q6 -2 11.5 -3.5t11.5 -3.5q11 -4 20.5 -7.5t19.5 -6.5q9 -3 18 -4.5t18 -1.5h3.5t6.5 1q4 0 8.5 1.5t9.5 3.5q4 2 7.5 4.5
t7.5 6.5q4 3 6.5 8t4.5 12v0v0z" />
    <glyph glyph-name="ograve" unicode="&#xf2;" horiz-adv-x="882" 
d="M842 328v-186q0 -37 -9 -64t-26 -44q-18 -17 -51.5 -25.5t-83.5 -8.5h-462q-50 0 -84 8.5t-51 25.5q-18 17 -26.5 44t-8.5 64v186q0 37 8.5 64t26.5 44q17 17 51 25.5t84 8.5h462q50 0 83.5 -8.5t51.5 -25.5q17 -17 26 -44t9 -64v0v0zM335 340v-210q0 -10 2 -17t6 -12
q5 -4 13.5 -6.5t20.5 -2.5h123q13 0 21.5 2.5t13.5 6.5q5 5 7.5 12t2.5 17v210q0 10 -2.5 17.5t-7.5 11.5q-5 5 -13.5 7t-21.5 2h-123q-12 0 -20.5 -2t-13.5 -7q-4 -4 -6 -11.5t-2 -17.5v0v0zM570 532h-172l-213 148h260l125 -148v0v0z" />
    <glyph glyph-name="oacute" unicode="&#xf3;" horiz-adv-x="882" 
d="M842 328v-186q0 -37 -9 -64t-26 -44q-18 -17 -51.5 -25.5t-83.5 -8.5h-462q-50 0 -84 8.5t-51 25.5q-18 17 -26.5 44t-8.5 64v186q0 37 8.5 64t26.5 44q17 17 51 25.5t84 8.5h462q50 0 83.5 -8.5t51.5 -25.5q17 -17 26 -44t9 -64v0v0zM335 340v-210q0 -10 2 -17t6 -12
q5 -4 13.5 -6.5t20.5 -2.5h123q13 0 21.5 2.5t13.5 6.5q5 5 7.5 12t2.5 17v210q0 10 -2.5 17.5t-7.5 11.5q-5 5 -13.5 7t-21.5 2h-123q-12 0 -20.5 -2t-13.5 -7q-4 -4 -6 -11.5t-2 -17.5v0v0zM482 532h-170l124 148h265l-219 -148v0v0z" />
    <glyph glyph-name="ocircumflex" unicode="&#xf4;" horiz-adv-x="882" 
d="M842 328v-186q0 -37 -9 -64t-26 -44q-18 -17 -51.5 -25.5t-83.5 -8.5h-462q-50 0 -84 8.5t-51 25.5q-18 17 -26.5 44t-8.5 64v186q0 37 8.5 64t26.5 44q17 17 51 25.5t84 8.5h462q50 0 83.5 -8.5t51.5 -25.5q17 -17 26 -44t9 -64v0v0zM335 340v-210q0 -10 2 -17t6 -12
q5 -4 13.5 -6.5t20.5 -2.5h123q13 0 21.5 2.5t13.5 6.5q5 5 7.5 12t2.5 17v210q0 10 -2.5 17.5t-7.5 11.5q-5 5 -13.5 7t-21.5 2h-123q-12 0 -20.5 -2t-13.5 -7q-4 -4 -6 -11.5t-2 -17.5v0v0zM371 532h-184l150 148h206l154 -148h-187l-69 75l-70 -75v0v0z" />
    <glyph glyph-name="otilde" unicode="&#xf5;" horiz-adv-x="882" 
d="M842 328v-186q0 -37 -9 -64t-26 -44q-18 -17 -51.5 -25.5t-83.5 -8.5h-462q-50 0 -84 8.5t-51 25.5q-18 17 -26.5 44t-8.5 64v186q0 37 8.5 64t26.5 44q17 17 51 25.5t84 8.5h462q50 0 83.5 -8.5t51.5 -25.5q17 -17 26 -44t9 -64v0v0zM335 340v-210q0 -10 2 -17t6 -12
q5 -4 13.5 -6.5t20.5 -2.5h123q13 0 21.5 2.5t13.5 6.5q5 5 7.5 12t2.5 17v210q0 10 -2.5 17.5t-7.5 11.5q-5 5 -13.5 7t-21.5 2h-123q-12 0 -20.5 -2t-13.5 -7q-4 -4 -6 -11.5t-2 -17.5v0v0zM585 671h102q-4 -31 -15.5 -54.5t-28.5 -37.5q-17 -15 -36 -24t-39 -13
q-3 -1 -5.5 -1.5t-4.5 -0.5q-2 -1 -4.5 -1h-5.5t-5.5 -0.5t-4.5 -0.5h-4.5h-5.5q-15 0 -28.5 1.5t-27.5 4.5q-13 3 -24.5 6t-22.5 7q-11 3 -21.5 6t-20.5 6q-9 3 -17 4.5t-16 1.5q-11 0 -20 -3.5t-17 -9.5q-7 -7 -11.5 -14.5t-6.5 -15.5h-99q5 30 17 55t32 45t47 30.5
t61 10.5q15 0 28.5 -1.5t26.5 -4.5q6 -1 12 -3t12 -3q6 -2 11.5 -3.5t11.5 -3.5l10 -4l10 -4q5 -1 10 -2.5t10 -3.5l6 -2t6 -1q6 -2 12 -2.5t12 -0.5h3.5t6.5 1q4 0 8.5 1.5t8.5 3.5t7.5 4.5t7.5 6.5q4 3 7 8t5 12v0v0z" />
    <glyph glyph-name="odieresis" unicode="&#xf6;" horiz-adv-x="882" 
d="M842 328v-186q0 -37 -9 -64t-26 -44q-18 -17 -51.5 -25.5t-83.5 -8.5h-462q-50 0 -84 8.5t-51 25.5q-18 17 -26.5 44t-8.5 64v186q0 37 8.5 64t26.5 44q17 17 51 25.5t84 8.5h462q50 0 83.5 -8.5t51.5 -25.5q17 -17 26 -44t9 -64v0v0zM335 340v-210q0 -10 2 -17t6 -12
q5 -4 13.5 -6.5t20.5 -2.5h123q13 0 21.5 2.5t13.5 6.5q5 5 7.5 12t2.5 17v210q0 10 -2.5 17.5t-7.5 11.5q-5 5 -13.5 7t-21.5 2h-123q-12 0 -20.5 -2t-13.5 -7q-4 -4 -6 -11.5t-2 -17.5v0v0zM403 538h-211v130h211v-130v0v0zM691 538h-215v130h215v-130v0v0z" />
    <glyph glyph-name="divide" unicode="&#xf7;" horiz-adv-x="752" 
d="M272 43q0 17 7.5 31t22.5 26t33.5 18t40.5 6q20 0 37.5 -6t32.5 -18t23 -26t8 -31v-1.5v-0.5v0v0v-1v0q-1 -15 -8.5 -28.5t-22.5 -24.5q-15 -12 -32.5 -18.5t-36.5 -6.5q-22 0 -40.5 6t-33.5 18q-16 12 -23.5 26t-7.5 31v0v0zM671 182h-590v106h590v-106v0v0zM272 427
q0 17 7.5 32t22.5 28q15 12 33.5 18.5t40.5 6.5q20 0 37.5 -6.5t32.5 -19.5t23 -27.5t8 -31.5q0 -16 -7.5 -30t-22.5 -26q-15 -13 -32.5 -19t-37.5 -6q-22 0 -40.5 6t-33.5 18q-16 12 -23.5 26.5t-7.5 30.5v0v0z" />
    <glyph glyph-name="oslash" unicode="&#xf8;" horiz-adv-x="882" 
d="M842 328v-186q0 -37 -9 -64t-26 -44q-18 -17 -51.5 -25.5t-83.5 -8.5h-402l-108 -105h-137l115 111q-29 5 -48.5 16.5t-30.5 27.5q-11 17 -16 40t-5 52v186q0 37 8.5 64t26.5 44q17 17 51 25.5t84 8.5h410l105 101h132l-109 -108q26 -6 45 -17t29 -28q10 -16 15 -38.5
t5 -51.5v0v0zM542 267l-176 -174q0 -1 1 -1h3h2h2h1h2h123q13 0 21.5 2.5t13.5 6.5q5 5 7.5 12t2.5 17v137h-3v0v0zM337 195l185 181h-2.5t-2.5 1h-3h-3h-2.5t-3.5 1h-2.5h-2.5h-123q-12 0 -20.5 -2t-13.5 -7q-4 -4 -6 -11.5t-2 -17.5v-145h2v0v0z" />
    <glyph glyph-name="ugrave" unicode="&#xf9;" horiz-adv-x="905" 
d="M883 0h-307l-9 49h-2l-0.5 -0.5l-0.5 -0.5q0 -1 -0.5 -1h-0.5v0v0v-1v0q-5 -9 -12 -16.5t-15 -15.5q-8 -7 -20.5 -10.5t-27.5 -3.5h-238q-52 0 -89.5 11.5t-60.5 34.5q-24 23 -35.5 54t-11.5 71v191q0 22 -2 38t-6 26q-4 11 -9 20t-10 17l-0.5 0.5l-0.5 0.5q-1 0 -1.5 1
l-0.5 1q-1 1 -1.5 2t-0.5 2h327v-339q0 -11 2.5 -18.5t7.5 -12.5q6 -4 15.5 -6t23.5 -2h108q13 0 22.5 2t14.5 6q6 5 8.5 12.5t2.5 18.5v231q0 22 -2 38t-6 26q-4 11 -9 20t-10 17l-0.5 0.5l-0.5 0.5q-1 0 -1.5 1l-0.5 1q-1 1 -1.5 2t-0.5 2h330v-362q0 -22 1.5 -38t5.5 -27
q3 -8 7 -15t8 -13q1 -2 2.5 -4t2.5 -4q0 -1 0.5 -1.5l1.5 -1.5l0.5 -0.5l0.5 -0.5q0 -1 0.5 -1.5l1.5 -1.5v0v0zM581 532h-171l-214 148h260l125 -148v0v0z" />
    <glyph glyph-name="uacute" unicode="&#xfa;" horiz-adv-x="905" 
d="M883 0h-307l-9 49h-2l-0.5 -0.5l-0.5 -0.5q0 -1 -0.5 -1h-0.5v0v0v-1v0q-5 -9 -12 -16.5t-15 -15.5q-8 -7 -20.5 -10.5t-27.5 -3.5h-238q-52 0 -89.5 11.5t-60.5 34.5q-24 23 -35.5 54t-11.5 71v191q0 22 -2 38t-6 26q-4 11 -9 20t-10 17l-0.5 0.5l-0.5 0.5q-1 0 -1.5 1
l-0.5 1q-1 1 -1.5 2t-0.5 2h327v-339q0 -11 2.5 -18.5t7.5 -12.5q6 -4 15.5 -6t23.5 -2h108q13 0 22.5 2t14.5 6q6 5 8.5 12.5t2.5 18.5v231q0 22 -2 38t-6 26q-4 11 -9 20t-10 17l-0.5 0.5l-0.5 0.5q-1 0 -1.5 1l-0.5 1q-1 1 -1.5 2t-0.5 2h330v-362q0 -22 1.5 -38t5.5 -27
q3 -8 7 -15t8 -13q1 -2 2.5 -4t2.5 -4q0 -1 0.5 -1.5l1.5 -1.5l0.5 -0.5l0.5 -0.5q0 -1 0.5 -1.5l1.5 -1.5v0v0zM493 532h-170l124 148h265l-219 -148v0v0z" />
    <glyph glyph-name="ucircumflex" unicode="&#xfb;" horiz-adv-x="905" 
d="M883 0h-307l-9 49h-2l-0.5 -0.5l-0.5 -0.5q0 -1 -0.5 -1h-0.5v0v0v-1v0q-5 -9 -12 -16.5t-15 -15.5q-8 -7 -20.5 -10.5t-27.5 -3.5h-238q-52 0 -89.5 11.5t-60.5 34.5q-24 23 -35.5 54t-11.5 71v191q0 22 -2 38t-6 26q-4 11 -9 20t-10 17l-0.5 0.5l-0.5 0.5q-1 0 -1.5 1
l-0.5 1q-1 1 -1.5 2t-0.5 2h327v-339q0 -11 2.5 -18.5t7.5 -12.5q6 -4 15.5 -6t23.5 -2h108q13 0 22.5 2t14.5 6q6 5 8.5 12.5t2.5 18.5v231q0 22 -2 38t-6 26q-4 11 -9 20t-10 17l-0.5 0.5l-0.5 0.5q-1 0 -1.5 1l-0.5 1q-1 1 -1.5 2t-0.5 2h330v-362q0 -22 1.5 -38t5.5 -27
q3 -8 7 -15t8 -13q1 -2 2.5 -4t2.5 -4q0 -1 0.5 -1.5l1.5 -1.5l0.5 -0.5l0.5 -0.5q0 -1 0.5 -1.5l1.5 -1.5v0v0zM382 532h-184l150 148h207l153 -148h-187l-69 75l-70 -75v0v0z" />
    <glyph glyph-name="udieresis" unicode="&#xfc;" horiz-adv-x="905" 
d="M883 0h-307l-9 49h-2l-0.5 -0.5l-0.5 -0.5q0 -1 -0.5 -1h-0.5v0v0v-1v0q-5 -9 -12 -16.5t-15 -15.5q-8 -7 -20.5 -10.5t-27.5 -3.5h-238q-52 0 -89.5 11.5t-60.5 34.5q-24 23 -35.5 54t-11.5 71v191q0 22 -2 38t-6 26q-4 11 -9 20t-10 17l-0.5 0.5l-0.5 0.5q-1 0 -1.5 1
l-0.5 1q-1 1 -1.5 2t-0.5 2h327v-339q0 -11 2.5 -18.5t7.5 -12.5q6 -4 15.5 -6t23.5 -2h108q13 0 22.5 2t14.5 6q6 5 8.5 12.5t2.5 18.5v231q0 22 -2 38t-6 26q-4 11 -9 20t-10 17l-0.5 0.5l-0.5 0.5q-1 0 -1.5 1l-0.5 1q-1 1 -1.5 2t-0.5 2h330v-362q0 -22 1.5 -38t5.5 -27
q3 -8 7 -15t8 -13q1 -2 2.5 -4t2.5 -4q0 -1 0.5 -1.5l1.5 -1.5l0.5 -0.5l0.5 -0.5q0 -1 0.5 -1.5l1.5 -1.5v0v0zM415 538h-212v130h212v-130v0v0zM702 538h-215v130h215v-130v0v0z" />
    <glyph glyph-name="yacute" unicode="&#xfd;" 
 />
    <glyph glyph-name="thorn" unicode="&#xfe;" horiz-adv-x="882" 
d="M345 642v-197h2l4 4l4 4l8 6t8 5q7 3 15.5 4.5t19.5 1.5h251q51 0 86.5 -10.5t56.5 -30.5q20 -20 31 -46.5t11 -58.5v-178q0 -32 -11 -58.5t-31 -46.5q-21 -21 -56.5 -31t-86.5 -10h-234q-16 0 -27.5 2.5t-19.5 7.5q-7 5 -13 10.5t-10 11.5q0 1 -0.5 2t-0.5 2
q-1 0 -1.5 1t-0.5 2q-1 1 -1.5 2t-0.5 2q-1 0 -1 1v2h-2v-136q0 -16 1.5 -29.5t5.5 -23.5q4 -9 8 -17.5t10 -15.5l-320 -2v219v512v1q0 18 -2 31.5t-6 23.5q-4 9 -8 17.5t-9 15.5h320v0v0zM345 342v-214q0 -10 2 -16.5t8 -11.5q5 -4 12.5 -6t18.5 -2h117q11 0 18.5 2t13.5 6
q5 5 7.5 11.5t2.5 16.5v214q0 10 -2.5 17t-7.5 11q-6 4 -13.5 6t-18.5 2h-117q-11 0 -18.5 -2t-12.5 -6q-6 -4 -8 -11t-2 -17v0v0z" />
    <glyph glyph-name="ydieresis" unicode="&#xff;" horiz-adv-x="905" 
d="M443 0h-193q-52 0 -89.5 11.5t-60.5 34.5q-24 23 -35.5 54t-11.5 71v191q0 22 -2 38t-6 26q-4 11 -9 20t-10 17l-0.5 0.5l-0.5 0.5q-1 0 -1.5 1l-0.5 1q-1 1 -1.5 2t-0.5 2h327v-339q0 -11 2.5 -18.5t7.5 -12.5q6 -4 15.5 -6t23.5 -2h109q11 0 17 1.5t10 4.5t6 11.5
t2 22.5v249q0 18 -1 31t-3 20q-1 8 -4 14.5t-7 12.5q-2 1 -3 2.5t-2 2.5q0 1 -0.5 1.5l-1.5 1.5l-1.5 1.5t-0.5 1.5h321v-3v-511q0 -32 -10 -57t-31 -41q-20 -17 -51 -25.5t-71 -8.5l-582 -2l-22 115q0 1 0.5 1h1.5q2 0 2.5 -0.5l1.5 -1.5q5 -2 10.5 -3.5t11.5 -3.5
q5 -1 11.5 -3t12.5 -3q14 -3 32.5 -5t42.5 -2l283 -2q19 2 31 4t18 7q5 4 8 10.5t3 14.5v96h-3v-0.5v-0.5l-1 -1v0v-1.5v-0.5q-5 -10 -12 -18t-15 -13q-9 -6 -25.5 -8.5t-41.5 -2.5v0v0zM415 538h-212v130h212v-130v0v0zM702 538h-215v130h215v-130v0v0z" />
    <glyph glyph-name="Abreve" unicode="&#x102;" 
 />
    <glyph glyph-name="abreve" unicode="&#x103;" 
 />
    <glyph glyph-name="Aogonek" unicode="&#x104;" 
 />
    <glyph glyph-name="aogonek" unicode="&#x105;" 
 />
    <glyph glyph-name="Cacute" unicode="&#x106;" 
 />
    <glyph glyph-name="cacute" unicode="&#x107;" 
 />
    <glyph glyph-name="Ccaron" unicode="&#x10c;" 
 />
    <glyph glyph-name="ccaron" unicode="&#x10d;" 
 />
    <glyph glyph-name="Dcaron" unicode="&#x10e;" 
 />
    <glyph glyph-name="dcaron" unicode="&#x10f;" 
 />
    <glyph glyph-name="Dslash" unicode="&#x110;" 
 />
    <glyph glyph-name="dslash" unicode="&#x111;" 
 />
    <glyph glyph-name="Eogonek" unicode="&#x118;" 
 />
    <glyph glyph-name="eogonek" unicode="&#x119;" 
 />
    <glyph glyph-name="Ecaron" unicode="&#x11a;" 
 />
    <glyph glyph-name="ecaron" unicode="&#x11b;" 
 />
    <glyph glyph-name="Gbreve" unicode="&#x11e;" 
 />
    <glyph glyph-name="gbreve" unicode="&#x11f;" 
 />
    <glyph glyph-name="Idot" unicode="&#x130;" 
 />
    <glyph glyph-name="dotlessi" unicode="&#x131;" horiz-adv-x="440" 
d="M72 108v254q0 22 -2.5 38t-6.5 26q-4 11 -8.5 20t-9.5 17q-1 1 -2 1.5t-1 1.5q-1 1 -1.5 2t-0.5 2h327v-362q0 -22 2 -38t6 -27q4 -10 9 -19t11 -17q0 -1 0.5 -2t1.5 -2q0 -1 1 -1.5t2 -1.5h-360q0 1 0.5 1.5l1.5 1.5q0 1 1 2l2 2q5 8 9.5 17t8.5 19q4 11 6.5 27t2.5 38
v0v0z" />
    <glyph glyph-name="Lacute" unicode="&#x139;" 
 />
    <glyph glyph-name="lacute" unicode="&#x13a;" 
 />
    <glyph glyph-name="Lcaron" unicode="&#x13d;" 
 />
    <glyph glyph-name="lcaron" unicode="&#x13e;" 
 />
    <glyph glyph-name="Ldot" unicode="&#x13f;" 
 />
    <glyph glyph-name="ldot" unicode="&#x140;" 
 />
    <glyph glyph-name="Lslash" unicode="&#x141;" horiz-adv-x="625" 
 />
    <glyph glyph-name="lslash" unicode="&#x142;" horiz-adv-x="625" 
 />
    <glyph glyph-name="Nacute" unicode="&#x143;" 
 />
    <glyph glyph-name="nacute" unicode="&#x144;" 
 />
    <glyph glyph-name="Ncaron" unicode="&#x147;" 
 />
    <glyph glyph-name="ncaron" unicode="&#x148;" 
 />
    <glyph glyph-name="Odblacute" unicode="&#x150;" 
 />
    <glyph glyph-name="odblacute" unicode="&#x151;" 
 />
    <glyph glyph-name="OE" unicode="&#x152;" horiz-adv-x="1252" 
d="M55 175v290q0 47 15.5 80.5t46.5 54.5t73.5 31.5t95.5 10.5h286h640h1l25 -123h-1.5t-0.5 1h-1.5h-1.5h-1.5t-0.5 1h-1.5h-1.5q-11 3 -24 5.5t-28 4.5t-34 3.5t-42 1.5h-208v-152h175q23 0 42 1t34 3q14 2 27.5 5t24.5 6h2h3q1 0 2 0.5l3 1.5v-140h-2t-1 1h-1.5h-0.5h-2
t-1 1h-1.5h-0.5q-11 3 -24.5 5.5t-27.5 4.5q-15 2 -34 3.5t-42 1.5h-175v-172h224q23 0 42 1t34 3t27.5 5t23.5 6h1.5h1.5h0.5h1.5h1.5t1.5 1l0.5 0.5t1.5 0.5l-27 -123h-299h-640h-1q-53 0 -95.5 10t-73.5 31t-46.5 54.5t-15.5 79.5v0v0zM585 106v430h-175q-14 0 -24 -3
t-15 -8q-6 -6 -8.5 -15.5t-2.5 -23.5v-332q0 -13 2.5 -22.5t8.5 -14.5q5 -6 15 -8.5t24 -2.5h175v0v0z" />
    <glyph glyph-name="oe" unicode="&#x153;" horiz-adv-x="1252" 
d="M848 92h227h23t20 1h6.5t6.5 1q7 0 13.5 1.5t12.5 2.5t12 2.5t13 2.5q6 2 12.5 4t13.5 5l-22 -112h-335h-640h-1q-50 0 -84 8.5t-51 25.5q-18 17 -26.5 44t-8.5 64v186q0 37 8.5 64t26.5 44q17 17 51 25.5t84 8.5h181h640h1q51 0 86.5 -10.5t56.5 -30.5q20 -20 31 -46.5
t11 -58.5v-140h-436v-44q0 -13 4.5 -22t11.5 -15q8 -6 21 -8.5t30 -2.5v0v0zM327 340v-210q0 -10 2.5 -17t6.5 -12q5 -4 13 -6.5t21 -2.5h78q13 0 21.5 2.5t12.5 6.5q4 5 6.5 12t2.5 17v210q0 10 -2.5 17.5t-6.5 11.5q-4 5 -12.5 7t-21.5 2h-78q-13 0 -21 -2t-13 -7
q-4 -4 -6.5 -11.5t-2.5 -17.5v0v0zM781 276h156v64q0 10 -2.5 17.5t-6.5 11.5q-4 5 -12.5 7t-20.5 2h-72q-12 0 -20 -2t-13 -7q-5 -4 -7 -11.5t-2 -17.5v-64v0v0z" />
    <glyph glyph-name="Racute" unicode="&#x154;" 
 />
    <glyph glyph-name="racute" unicode="&#x155;" 
 />
    <glyph glyph-name="Rcaron" unicode="&#x158;" 
 />
    <glyph glyph-name="rcaron" unicode="&#x159;" 
 />
    <glyph glyph-name="Sacute" unicode="&#x15a;" 
 />
    <glyph glyph-name="sacute" unicode="&#x15b;" 
 />
    <glyph glyph-name="Scedilla" unicode="&#x15e;" 
 />
    <glyph glyph-name="scedilla" unicode="&#x15f;" 
 />
    <glyph glyph-name="Scaron" unicode="&#x160;" horiz-adv-x="625" 
 />
    <glyph glyph-name="scaron" unicode="&#x161;" horiz-adv-x="625" 
 />
    <glyph glyph-name="Tcedilla" unicode="&#x162;" 
 />
    <glyph glyph-name="tcedilla" unicode="&#x163;" 
 />
    <glyph glyph-name="Tcaron" unicode="&#x164;" 
 />
    <glyph glyph-name="tcaron" unicode="&#x165;" 
 />
    <glyph glyph-name="Uring" unicode="&#x16e;" 
 />
    <glyph glyph-name="uring" unicode="&#x16f;" 
 />
    <glyph glyph-name="udblacute" unicode="&#x170;" 
 />
    <glyph glyph-name="Udblacute" unicode="&#x171;" 
 />
    <glyph glyph-name="Ydieresis" unicode="&#x178;" horiz-adv-x="625" 
 />
    <glyph glyph-name="Zacute" unicode="&#x179;" 
 />
    <glyph glyph-name="zacute" unicode="&#x17a;" 
 />
    <glyph glyph-name="Zdot" unicode="&#x17b;" 
 />
    <glyph glyph-name="zdot" unicode="&#x17c;" 
 />
    <glyph glyph-name="Zcaron" unicode="&#x17d;" horiz-adv-x="625" 
 />
    <glyph glyph-name="zcaron" unicode="&#x17e;" horiz-adv-x="625" 
 />
    <glyph glyph-name="florin" unicode="&#x192;" horiz-adv-x="625" 
 />
    <glyph glyph-name="hungarumlaut" unicode="&#x2ba;" horiz-adv-x="625" 
 />
    <glyph glyph-name="circumflex" unicode="&#x2c6;" horiz-adv-x="416" 
d="M352 671h100q-4 -33 -15.5 -56.5t-29.5 -37.5q-18 -15 -37 -24t-39 -12q-1 0 -3 -0.5t-3 -1.5q-3 0 -6 -0.5t-6 -0.5h-8.5h-8.5q-15 0 -29 1.5t-27 4.5t-25 6t-23 7q-11 3 -21.5 6t-19.5 6q-10 3 -18 4.5t-16 1.5q-11 0 -19.5 -3.5t-16.5 -9.5q-7 -7 -12 -14.5t-7 -15.5
h-98q7 30 19 55t29 45q20 20 47.5 30.5t61.5 10.5q11 0 21.5 -1t20.5 -2q3 -1 6.5 -1.5t6.5 -1.5q6 -1 12 -3t11 -3q6 -2 11.5 -3.5t11.5 -3.5q11 -4 21 -7.5t19 -6.5q7 -2 12.5 -3.5t11.5 -1.5q3 -1 6 -1h6h4t6 1q3 0 6 0.5t6 1.5q1 1 3 1.5t3 1.5q4 2 7.5 4.5t7.5 6.5
q4 3 7 8t4 12v0v0z" />
    <glyph glyph-name="caron" unicode="&#x2c7;" horiz-adv-x="625" 
 />
    <glyph glyph-name="macron" unicode="&#x2c9;" horiz-adv-x="625" 
 />
    <glyph glyph-name="breve" unicode="&#x2d8;" horiz-adv-x="416" 
d="M-17 685h98q3 -19 14 -32t30 -19t41 -9t47 -3q34 0 57.5 4.5t35.5 14.5q11 9 19.5 20t12.5 24h97q-4 -43 -23 -72.5t-54 -46.5t-75.5 -25.5t-86.5 -8.5q-48 0 -86 9.5t-67 28.5q-28 20 -42 48.5t-16 66.5h-2v0z" />
    <glyph glyph-name="dotaccent" unicode="&#x2d9;" horiz-adv-x="625" 
 />
    <glyph glyph-name="ring" unicode="&#x2da;" horiz-adv-x="416" 
d="M67 642q0 23 10.5 43t30.5 36q21 17 45.5 25t53.5 8t53.5 -8t45.5 -25q20 -16 30.5 -36t10.5 -43t-10.5 -42.5t-30.5 -36.5q-21 -16 -45.5 -24.5t-53.5 -8.5t-53.5 8t-45.5 24q-20 17 -30.5 36.5t-10.5 43.5v0v0zM146 642v-4t1 -4q0 -2 1 -4.5t2 -4.5q2 -6 6.5 -11.5
t11.5 -10.5t16.5 -7.5t20.5 -2.5q13 0 23.5 3.5t19.5 10.5q10 7 14.5 16t4.5 19t-4.5 18.5t-12.5 15.5q-10 8 -20.5 11.5t-23.5 3.5q-12 0 -21.5 -2.5t-16.5 -7.5t-11.5 -10.5t-6.5 -11.5q-1 -3 -2 -5t-1 -4q-1 -2 -1 -4v-4v0v0z" />
    <glyph glyph-name="ogonek" unicode="&#x2db;" horiz-adv-x="625" 
 />
    <glyph glyph-name="tilde" unicode="&#x2dc;" horiz-adv-x="416" 
d="M138 532h-183l150 148h206l151 -148h-185l-69 75l-70 -75v0v0z" />
    <glyph glyph-name="Gamma" unicode="&#x393;" horiz-adv-x="625" 
 />
    <glyph glyph-name="Theta" unicode="&#x398;" horiz-adv-x="625" 
 />
    <glyph glyph-name="summation" unicode="&#x3a3;" horiz-adv-x="625" 
 />
    <glyph glyph-name="Phi" unicode="&#x3a6;" horiz-adv-x="625" 
 />
    <glyph glyph-name="Omega" unicode="&#x3a9;" horiz-adv-x="625" 
 />
    <glyph glyph-name="alpha" unicode="&#x3b1;" horiz-adv-x="625" 
 />
    <glyph glyph-name="delta" unicode="&#x3b4;" horiz-adv-x="625" 
 />
    <glyph glyph-name="epsilon" unicode="&#x3b5;" horiz-adv-x="625" 
 />
    <glyph glyph-name="pi" unicode="&#x3c0;" horiz-adv-x="625" 
 />
    <glyph glyph-name="sigma" unicode="&#x3c3;" 
 />
    <glyph glyph-name="tau" unicode="&#x3c4;" horiz-adv-x="625" 
 />
    <glyph glyph-name="phi" unicode="&#x3c6;" 
 />
    <glyph glyph-name="glyph276" unicode="&#x2013;" horiz-adv-x="627" 
d="M0 168v135h627v-135h-627v0v0z" />
    <glyph glyph-name="emdash" unicode="&#x2014;" horiz-adv-x="1252" 
d="M0 168v135h611h640h1v-135h-611h-640h-1v0v0z" />
    <glyph glyph-name="underscoredbl" unicode="&#x2017;" horiz-adv-x="625" 
 />
    <glyph glyph-name="quoteleft" unicode="&#x2018;" horiz-adv-x="440" 
d="M256 516h111v-170h-295v153l164 150h106l-86 -133v0v0z" />
    <glyph glyph-name="quoteright" unicode="&#x2019;" horiz-adv-x="440" 
d="M183 472h-111v170h295v-155l-164 -149h-106l86 134v0v0z" />
    <glyph glyph-name="quotesinglbase" unicode="&#x201a;" horiz-adv-x="625" 
 />
    <glyph glyph-name="quotedblleft" unicode="&#x201c;" horiz-adv-x="812" 
d="M255 516h111v-170h-295v153l164 151h106l-86 -134v0v0zM628 516h112v-170h-298v153l164 151h109l-87 -134v0v0z" />
    <glyph glyph-name="quotedblright" unicode="&#x201d;" horiz-adv-x="812" 
d="M183 472h-111v170h295v-155l-164 -149h-106l86 134v0v0zM555 472h-112v170h298v-155l-166 -149h-107l87 134v0v0z" />
    <glyph glyph-name="quotedblbase" unicode="&#x201e;" horiz-adv-x="812" 
d="M183 0h-111v168h295v-153l-164 -149h-106l86 134v0v0zM555 0h-112v168h298v-153l-166 -149h-107l87 134v0v0z" />
    <glyph glyph-name="dagger" unicode="&#x2020;" horiz-adv-x="836" 
d="M552 -178h-272v480h-217v116h217v224h272v-224h219v-116h-219v-480v0v0z" />
    <glyph glyph-name="daggerdbl" unicode="&#x2021;" horiz-adv-x="836" 
d="M552 -178h-272v200h-217v116h217v216h-217v116h217v172h272v-172h219v-116h-219v-216h219v-116h-219v-200v0v0z" />
    <glyph glyph-name="glyph287" unicode="&#x2022;" horiz-adv-x="627" 
d="M512 320q0 -34 -15 -62.5t-44 -51.5q-30 -23 -65 -34.5t-76 -11.5q-42 0 -77.5 11.5t-64.5 34.5t-43.5 51.5t-14.5 62.5q-1 33 13.5 61.5t44.5 51.5q29 23 64.5 35t77.5 12q41 0 76 -12t65 -35q29 -23 44 -51.5t15 -61.5v0v0z" />
    <glyph glyph-name="ellipsis" unicode="&#x2026;" horiz-adv-x="1252" 
d="M61 0v168h295v-168h-295v0v0zM477 0v168h298v-168h-298v0v0zM896 0v168h295v-168h-295v0v0z" />
    <glyph glyph-name="perthousand" unicode="&#x2030;" horiz-adv-x="1461" 
d="M363 0h-160v2l92 127l366 512l1 1h161l-92 -129l-366 -512l-2 -1v0v0zM611 86v156q1 24 7 40.5t17 26.5q10 9 29.5 14t47.5 5h175q29 0 47.5 -5t28.5 -14q11 -10 16.5 -26.5t6.5 -40.5v-156q-1 -24 -6.5 -41t-16.5 -26q-10 -10 -28.5 -14.5t-47.5 -4.5h-175
q-28 0 -47.5 4.5t-29.5 14.5q-11 9 -17 26t-7 41v0v0zM833 90v147q0 6 -0.5 10.5t-2.5 7.5q-2 2 -5 3.5t-7 1.5h-37q-4 0 -6.5 -1.5t-4.5 -3.5q-2 -3 -3 -7.5t-1 -10.5v-147q0 -6 1 -10.5t3 -6.5q2 -3 4.5 -4t6.5 -1h37q4 0 7 1t5 4q2 2 2.5 6.5t0.5 10.5v0v0zM1051 86v156
q1 24 6.5 40.5t15.5 26.5q10 9 29.5 14t47.5 5h175q28 0 47 -5t29 -14q11 -10 16 -26.5t6 -40.5v-156q-1 -24 -6 -41t-16 -26q-10 -10 -29 -14.5t-47 -4.5h-175q-28 0 -47.5 4.5t-29.5 14.5q-10 9 -15.5 26t-6.5 41v0v0zM1271 90v147q0 6 -1 10.5t-3 7.5q-1 2 -4 3.5t-7 1.5
h-38q-4 0 -6.5 -1.5t-4.5 -3.5l-2.5 -7.5t-1.5 -10.5v-147q0 -6 1.5 -10.5t2.5 -6.5q2 -3 4.5 -4t6.5 -1h38q4 0 7 1t4 4q2 2 3 6.5t1 10.5v0v0zM37 396v158q1 24 7 40.5t16 26.5q9 9 28.5 14t47.5 5h175q28 0 47 -5t29 -14q11 -10 16.5 -26.5t6.5 -40.5v-158
q-1 -24 -6.5 -41t-16.5 -26q-10 -10 -29 -14.5t-47 -4.5h-175q-28 0 -47.5 4.5t-28.5 14.5q-10 9 -16 26t-7 41v0v0zM257 400v149q0 6 -1 10.5t-3 7.5q-1 2 -4 3.5t-7 1.5h-37q-4 0 -7 -1.5t-5 -3.5q-1 -3 -2 -7.5t-1 -10.5v-149q0 -6 1 -10.5t2 -6.5q2 -3 5 -4t7 -1h37
q4 0 7 1t4 4q2 2 3 6.5t1 10.5v0v0z" />
    <glyph glyph-name="guilsinglleft" unicode="&#x2039;" horiz-adv-x="440" 
d="M177 416h206l-121 -186l121 -176h-206l-121 176l121 186v0v0z" />
    <glyph glyph-name="guilsinglright" unicode="&#x203a;" horiz-adv-x="440" 
d="M56 416h206l121 -186l-121 -176h-206l121 176l-121 186v0v0z" />
    <glyph glyph-name="exclamdbl" unicode="&#x203c;" horiz-adv-x="625" 
 />
    <glyph glyph-name="nsuperior" unicode="&#x207f;" horiz-adv-x="625" 
 />
    <glyph glyph-name="franc" unicode="&#x20a3;" horiz-adv-x="625" 
 />
    <glyph glyph-name="peseta" unicode="&#x20a7;" horiz-adv-x="625" 
 />
    <glyph glyph-name="trademark" unicode="&#x2122;" horiz-adv-x="1252" 
d="M481 642v-86h-144v-328h-140v328h-142v86h426v0v0zM772 642l120 -252l114 252h191v-414h-132v283h-3l-122 -283h-102l-122 283h-3v-283h-135v414h194v0v0z" />
    <glyph glyph-name="arrowleft" unicode="&#x2190;" 
 />
    <glyph glyph-name="arrowup" unicode="&#x2191;" 
 />
    <glyph glyph-name="arrowright" unicode="&#x2192;" horiz-adv-x="625" 
 />
    <glyph glyph-name="arrowdown" unicode="&#x2193;" 
 />
    <glyph glyph-name="arrowboth" unicode="&#x2194;" 
 />
    <glyph glyph-name="arrowupdn" unicode="&#x2195;" 
 />
    <glyph glyph-name="arrowupdnbase" unicode="&#x21a8;" 
 />
    <glyph glyph-name="partialdiff" unicode="&#x2202;" horiz-adv-x="625" 
 />
    <glyph glyph-name="Delta" unicode="&#x2206;" horiz-adv-x="625" 
 />
    <glyph glyph-name="product" unicode="&#x220f;" 
 />
    <glyph glyph-name="minus" unicode="&#x2212;" horiz-adv-x="625" 
 />
    <glyph glyph-name="fraction" unicode="&#x2215;" horiz-adv-x="625" 
 />
    <glyph glyph-name="periodcentered" unicode="&#x2219;" 
d="M103 235q0 23 10 42.5t30 35.5q21 17 45.5 25t53.5 8t53 -8t45 -25q20 -16 30.5 -35.5t10.5 -42.5t-10.5 -42.5t-30.5 -36.5q-21 -16 -45 -24t-53 -8t-53.5 8t-45.5 24q-20 17 -30 36.5t-10 42.5v0v0z" />
    <glyph glyph-name="radical" unicode="&#x221a;" horiz-adv-x="625" 
 />
    <glyph glyph-name="infinity" unicode="&#x221e;" 
 />
    <glyph glyph-name="orthogonal" unicode="&#x221f;" 
 />
    <glyph glyph-name="intersection" unicode="&#x2229;" 
 />
    <glyph glyph-name="integral" unicode="&#x222b;" 
 />
    <glyph glyph-name="approxequal" unicode="&#x2248;" horiz-adv-x="625" 
 />
    <glyph glyph-name="notequal" unicode="&#x2260;" horiz-adv-x="625" 
 />
    <glyph glyph-name="equivalence" unicode="&#x2261;" 
 />
    <glyph glyph-name="lessequal" unicode="&#x2264;" horiz-adv-x="625" 
 />
    <glyph glyph-name="greaterequal" unicode="&#x2265;" horiz-adv-x="625" 
 />
    <glyph glyph-name="house" unicode="&#x2302;" 
 />
    <glyph glyph-name="revlogicalnot" unicode="&#x2310;" 
 />
    <glyph glyph-name="integraltp" unicode="&#x2320;" 
 />
    <glyph glyph-name="integralbt" unicode="&#x2321;" 
 />
    <glyph glyph-name="2500" unicode="&#x2500;" 
 />
    <glyph glyph-name="2502" unicode="&#x2502;" 
 />
    <glyph glyph-name="250c" unicode="&#x250c;" 
 />
    <glyph glyph-name="2510" unicode="&#x2510;" 
 />
    <glyph glyph-name="2514" unicode="&#x2514;" 
 />
    <glyph glyph-name="2518" unicode="&#x2518;" 
 />
    <glyph glyph-name="251c" unicode="&#x251c;" 
 />
    <glyph glyph-name="2524" unicode="&#x2524;" 
 />
    <glyph glyph-name="252c" unicode="&#x252c;" 
 />
    <glyph glyph-name="2534" unicode="&#x2534;" 
 />
    <glyph glyph-name="253c" unicode="&#x253c;" 
 />
    <glyph glyph-name="2550" unicode="&#x2550;" 
 />
    <glyph glyph-name="2551" unicode="&#x2551;" 
 />
    <glyph glyph-name="2552" unicode="&#x2552;" 
 />
    <glyph glyph-name="2553" unicode="&#x2553;" 
 />
    <glyph glyph-name="2554" unicode="&#x2554;" 
 />
    <glyph glyph-name="2555" unicode="&#x2555;" 
 />
    <glyph glyph-name="2556" unicode="&#x2556;" 
 />
    <glyph glyph-name="2557" unicode="&#x2557;" 
 />
    <glyph glyph-name="2558" unicode="&#x2558;" 
 />
    <glyph glyph-name="2559" unicode="&#x2559;" 
 />
    <glyph glyph-name="255a" unicode="&#x255a;" 
 />
    <glyph glyph-name="255b" unicode="&#x255b;" 
 />
    <glyph glyph-name="255c" unicode="&#x255c;" 
 />
    <glyph glyph-name="255d" unicode="&#x255d;" 
 />
    <glyph glyph-name="255e" unicode="&#x255e;" 
 />
    <glyph glyph-name="255f" unicode="&#x255f;" 
 />
    <glyph glyph-name="2560" unicode="&#x2560;" 
 />
    <glyph glyph-name="2561" unicode="&#x2561;" 
 />
    <glyph glyph-name="2562" unicode="&#x2562;" 
 />
    <glyph glyph-name="2563" unicode="&#x2563;" 
 />
    <glyph glyph-name="2564" unicode="&#x2564;" 
 />
    <glyph glyph-name="2565" unicode="&#x2565;" 
 />
    <glyph glyph-name="2566" unicode="&#x2566;" 
 />
    <glyph glyph-name="2567" unicode="&#x2567;" 
 />
    <glyph glyph-name="2568" unicode="&#x2568;" 
 />
    <glyph glyph-name="2569" unicode="&#x2569;" 
 />
    <glyph glyph-name="256a" unicode="&#x256a;" 
 />
    <glyph glyph-name="256b" unicode="&#x256b;" 
 />
    <glyph glyph-name="256c" unicode="&#x256c;" 
 />
    <glyph glyph-name="upblock" unicode="&#x2580;" 
 />
    <glyph glyph-name="dnblock" unicode="&#x2584;" 
 />
    <glyph glyph-name="block" unicode="&#x2588;" 
 />
    <glyph glyph-name="lfblock" unicode="&#x258c;" 
 />
    <glyph glyph-name="rtblock" unicode="&#x2590;" 
 />
    <glyph glyph-name="ltshade" unicode="&#x2591;" 
 />
    <glyph glyph-name="shade" unicode="&#x2592;" 
 />
    <glyph glyph-name="dkshade" unicode="&#x2593;" 
 />
    <glyph glyph-name="filledbox" unicode="&#x25a0;" horiz-adv-x="625" 
 />
    <glyph glyph-name="filledrect" unicode="&#x25ac;" 
 />
    <glyph glyph-name="triagup" unicode="&#x25b2;" 
 />
    <glyph glyph-name="triagrt" unicode="&#x25ba;" 
 />
    <glyph glyph-name="triagdn" unicode="&#x25bc;" 
 />
    <glyph glyph-name="triaglf" unicode="&#x25c4;" 
 />
    <glyph glyph-name="lozenge" unicode="&#x25ca;" horiz-adv-x="625" 
 />
    <glyph glyph-name="circle" unicode="&#x25cb;" 
 />
    <glyph glyph-name="invbullet" unicode="&#x25d8;" 
 />
    <glyph glyph-name="invcircle" unicode="&#x25d9;" 
 />
    <glyph glyph-name="smileface" unicode="&#x263a;" 
 />
    <glyph glyph-name="invsmileface" unicode="&#x263b;" 
 />
    <glyph glyph-name="sun" unicode="&#x263c;" 
 />
    <glyph glyph-name="female" unicode="&#x2640;" 
 />
    <glyph glyph-name="male" unicode="&#x2642;" 
 />
    <glyph glyph-name="spade" unicode="&#x2660;" 
 />
    <glyph glyph-name="club" unicode="&#x2663;" 
 />
    <glyph glyph-name="heart" unicode="&#x2665;" 
 />
    <glyph glyph-name="diamond" unicode="&#x2666;" 
 />
    <glyph glyph-name="musicalnote" unicode="&#x266a;" 
 />
    <glyph glyph-name="musicalnotedbl" unicode="&#x266b;" 
 />
    <glyph glyph-name="apple" unicode="&#xf000;" 
 />
    <glyph glyph-name="fi" unicode="&#xf001;" horiz-adv-x="1021" 
d="M413 378v-270q0 -22 2 -38t6 -27q4 -10 9 -19t11 -17q0 -1 0.5 -2t1.5 -2l0.5 -0.5l1.5 -1.5l0.5 -0.5l0.5 -0.5h-360q0 1 0.5 1.5l1.5 1.5q0 1 0.5 1.5t1.5 0.5q0 1 0.5 1.5l0.5 0.5q5 8 10 17t9 19q4 11 6 27t2 38v270h-123v92h123v46q0 25 9.5 47t28.5 41t51 28.5
t78 9.5h331l21 -109q-8 2 -15 4.5t-12 3.5q-3 1 -6 1.5t-5 1.5q-3 1 -6 1.5t-6 1.5q-3 0 -6.5 0.5t-6.5 0.5q-3 1 -6.5 1h-6.5h-7.5t-7.5 1h-8.5h-9.5h-66q-14 0 -23.5 -2t-15.5 -7q-5 -4 -7.5 -9.5t-2.5 -13.5v-48h182v-92h-182v0v0zM653 108v254q0 22 -2 38t-6 26
q-3 8 -7 15l-8 14q-1 2 -2.5 4t-2.5 4l-3 1.5t-1 1.5l-0.5 0.5l-0.5 0.5l-1.5 1.5t-0.5 1.5h330v-362q0 -22 2 -38t6 -27q4 -10 9 -19t11 -17q0 -1 0.5 -2t1.5 -2l0.5 -0.5l1.5 -1.5l0.5 -0.5l0.5 -0.5h-363q0 1 0.5 1.5t1.5 0.5l0.5 0.5l0.5 0.5q0 1 1 2t3 2q1 2 2.5 4
t2.5 4q4 6 8 13t7 15q4 11 6 27t2 38v0v0zM656 642h290v-124h-290v124v0v0z" />
    <glyph glyph-name="fl" unicode="&#xf002;" horiz-adv-x="1021" 
d="M413 378v-270q0 -22 2 -38t6 -27q4 -10 9 -19t11 -17q0 -1 0.5 -2t1.5 -2l0.5 -0.5l1.5 -1.5l0.5 -0.5l0.5 -0.5h-360q0 1 0.5 1.5l1.5 1.5q0 1 0.5 1.5t1.5 0.5q0 1 0.5 1.5l0.5 0.5q5 8 10 17t9 19q4 11 6 27t2 38v270h-123v92h123v46q0 25 9.5 47t28.5 41t51 28.5
t78 9.5h298l19 -109l-10.5 3.5t-8.5 2.5l-3 1.5t-3 0.5q-2 1 -3.5 1t-3.5 1h-2t-2 1q-3 0 -5.5 0.5t-4.5 1.5q-7 2 -13.5 2.5t-12.5 0.5h-8t-8 1h-9h-9h-34q-14 0 -23.5 -2t-15.5 -7q-5 -4 -7.5 -9.5t-2.5 -13.5v-48h182v-92h-182v0v0zM653 108v426q0 22 -2 38t-6 26
q-3 8 -7 15l-8 14q-1 2 -2.5 4t-2.5 4l-3 1.5t-1 1.5l-0.5 0.5l-0.5 0.5l-1.5 1.5t-0.5 1.5h330v-21v-512v-1q0 -22 2 -38t6 -27q4 -10 9 -19t11 -17q0 -1 0.5 -2t1.5 -2l0.5 -0.5l1.5 -1.5l0.5 -0.5l0.5 -0.5h-363q0 1 0.5 1.5t1.5 0.5l0.5 0.5l0.5 0.5q0 1 1 2t3 2
q1 2 2.5 4t2.5 4q4 6 8 13t7 15q4 11 6 27t2 38v0v0z" />
    <glyph glyph-name="degree" horiz-adv-x="416" 
d="M67 642q0 23 10.5 43t30.5 36q21 17 45.5 25t53.5 8t53.5 -8t45.5 -25q20 -16 30.5 -36t10.5 -43t-10.5 -42.5t-30.5 -36.5q-21 -16 -45.5 -24.5t-53.5 -8.5t-53.5 8t-45.5 24q-20 17 -30.5 36.5t-10.5 43.5v0v0zM146 642v-4t1 -4q0 -2 1 -4.5t2 -4.5q2 -6 6.5 -11.5
t11.5 -10.5t16.5 -7.5t20.5 -2.5q13 0 23.5 3.5t19.5 10.5q10 7 14.5 16t4.5 19t-4.5 18.5t-12.5 15.5q-10 8 -20.5 11.5t-23.5 3.5q-12 0 -21.5 -2.5t-16.5 -7.5t-11.5 -10.5t-6.5 -11.5q-1 -3 -2 -5t-1 -4q-1 -2 -1 -4v-4v0v0z" />
    <glyph glyph-name="bullet" horiz-adv-x="627" 
d="M512 320q0 -34 -15 -62.5t-44 -51.5q-30 -23 -65 -34.5t-76 -11.5q-42 0 -77.5 11.5t-64.5 34.5t-43.5 51.5t-14.5 62.5q-1 33 13.5 61.5t44.5 51.5q29 23 64.5 35t77.5 12q41 0 76 -12t65 -35q29 -23 44 -51.5t15 -61.5v0v0z" />
    <glyph glyph-name="endash" horiz-adv-x="627" 
d="M0 168v135h627v-135h-627v0v0z" />
    </font>
</defs>
</svg>
