<?xml version="1.0" standalone="no"?>
<!DOCTYPE svg PUBLIC "-//W3C//DTD SVG 1.1//EN" "http://www.w3.org/Graphics/SVG/1.1/DTD/svg11.dtd" >
<svg xmlns="http://www.w3.org/2000/svg" xmlns:xlink="http://www.w3.org/1999/xlink" version="1.1">
<metadata>
Created by FontForge 20161013 at Fri Jul 20 05:09:23 2012
 By ,,,
(c) 1999-2012 Typodermic Fonts Inc. See attached license agreement. If agreement is missing visit typodermicfonts.com for more info.
</metadata>
<defs>
<font id="VanillaWhale-Regular" horiz-adv-x="467" >
  <font-face 
    font-family="Vanilla Whale"
    font-weight="400"
    font-stretch="normal"
    units-per-em="1000"
    panose-1="1 0 4 0 0 0 0 0 0 0"
    ascent="799"
    descent="-201"
    x-height="756"
    cap-height="757"
    bbox="-56 -201 1110 999"
    underline-thickness="20"
    underline-position="-163"
    unicode-range="U+0020-2122"
  />
<missing-glyph horiz-adv-x="452" 
d="M129 0q-97 0 -97 84v488q0 85 97 85h193q98 0 98 -85v-488q0 -84 -98 -84h-193zM368 572q0 39 -46 39h-193q-46 0 -46 -39v-488q0 -39 46 -39h193q46 0 46 39v488z" />
    <glyph glyph-name=".notdef" horiz-adv-x="452" 
d="M129 0q-97 0 -97 84v488q0 85 97 85h193q98 0 98 -85v-488q0 -84 -98 -84h-193zM368 572q0 39 -46 39h-193q-46 0 -46 -39v-488q0 -39 46 -39h193q46 0 46 39v488z" />
    <glyph glyph-name=".null" horiz-adv-x="0" 
 />
    <glyph glyph-name="nonmarkingreturn" horiz-adv-x="316" 
 />
    <glyph glyph-name="space" unicode=" " horiz-adv-x="222" 
 />
    <glyph glyph-name="exclam" unicode="!" horiz-adv-x="269" 
d="M213 646q0 -54 -5 -110.5t-14 -106t-21 -88t-26 -58.5h-50q-14 21 -26 60t-21 88.5t-14 105t-5 109.5h-35q27 35 35 111h182q8 -76 34 -111h-34zM226 107q0 -22 -8.5 -41.5t-23 -34t-34 -23t-40.5 -8.5q-22 0 -41.5 8.5t-34 23t-23 34t-8.5 41.5q0 21 8.5 40.5t23 34
t34 23t41.5 8.5q21 0 40 -8.5t34 -23.5t23.5 -34t8.5 -40z" />
    <glyph glyph-name="quotedbl" unicode="&#x22;" horiz-adv-x="293" 
d="M260 686q0 -11 -5 -30.5t-12.5 -45t-17 -54.5t-18.5 -58q-8 33 -17 65t-17 57.5t-13.5 43t-5.5 22.5q0 71 53 71t53 -71zM128 686q0 -11 -5 -30.5t-12.5 -45t-17 -54.5t-18.5 -58q-8 34 -17.5 65.5t-17.5 57t-13.5 43t-5.5 22.5q0 71 54 71q53 0 53 -71z" />
    <glyph glyph-name="numbersign" unicode="#" horiz-adv-x="401" 
d="M413 696h-413v60h413v-60zM383 555h-362v23h362v-23zM413 272q0 -31 -30 -31t-30 31q0 30 30 30t30 -30zM333 282q-10 -13 -13 -41h-127q-1 26 -13 41h13v194h-13q12 13 13 40h127q3 -29 13 -40h-13v-194h13zM161 282q-10 -13 -13 -41h-45q-1 26 -13 41h13v8l-36 95v-103
h12q-9 -14 -12 -41h-46q-1 26 -13 41h13v194h-13q12 13 13 40h46q3 -28 12 -40h-10l34 -89v89h-13q12 13 13 40h45q3 -29 13 -40h-13v-194h13zM383 186h-362v22h362v-22zM413 -2h-413v60h413v-60zM275 282v194h-37v-194h37z" />
    <glyph glyph-name="dollar" unicode="$" horiz-adv-x="445" 
d="M445 244q-27 -34 -36 -113h-172q30 -56 30 -91q0 -45 -37 -45t-37 45q0 33 34 91h-168q-7 77 -34 113h34v45q35 -20 64 -20q27 0 62 20v-45h99v76q-30 0 -55 7.5t-50.5 16t-54 16t-65.5 7.5v147h-34q27 34 34 111h167q-33 58 -33 90q0 45 37 45t37 -45q0 -35 -30 -90h172
q9 -78 36 -111h-36v-44q-26 23 -60 23q-33 0 -65 -23v44h-99v-63q28 0 52.5 -7t50 -15.5t53 -15.5t60.5 -7h8v-162h36z" />
    <glyph glyph-name="percent" unicode="%" horiz-adv-x="575" 
d="M234 492q-16 -19 -21 -65h-202q-4 44 -22 65h22v200h-22q18 21 22 65h202q5 -46 21 -65h-21v-200h21zM507 646l-322 -535h34q-27 -36 -34 -112h-126q-7 76 -34 112h34l322 535h-34q27 34 34 111h126q7 -77 34 -111h-34zM575 64q-16 -20 -20 -65h-204q-5 47 -20 65h20v201
h-20q15 18 20 64h204q4 -44 20 -64h-20v-201h20zM141 492v200h-58v-200h58zM482 64v201h-58v-201h58z" />
    <glyph glyph-name="ampersand" unicode="&#x26;" horiz-adv-x="457" 
d="M453 436l-453 260v60h452v-60h-411l412 -238v-22zM436 201q-6 0 -12 -5t-11 -12.5t-8 -15.5t-3 -14h-84q-3 25 -11 38h11v181h-11q8 13 11 38h84q0 -16 9 -32t25 -16v-162zM296 286q-7 -10 -12 -37h-41q-5 27 -12 37h12v9l-35 88v-97h12q-7 -10 -12 -37h-41q-3 27 -12 37
h12v183h-12q9 10 12 38h41q5 -28 12 -38h-9l32 -84v84h-12q7 10 12 38h41q5 -28 12 -38h-12v-183h12zM149 396q-9 -11 -12 -37h-42q-3 26 -12 37h16l-4 28h-35l-3 -28h16q-10 -11 -11 -37h-42q-3 26 -12 37h13l29 183h-13q7 12 12 38h53q2 -26 12 -38h-13l34 -183h14z
M452 62v-64h-452v60h422l-423 244v21zM393 348q-17 0 -17 25h-16v-181h16q0 7 5.5 16t11.5 9v131zM89 454l-13 66l-10 -66h23z" />
    <glyph glyph-name="quotesingle" unicode="'" horiz-adv-x="161" 
d="M128 686q0 -11 -5 -30.5t-12.5 -45t-17 -54.5t-18.5 -58q-8 34 -17.5 65.5t-17.5 57t-13.5 43t-5.5 22.5q0 71 54 71q53 0 53 -71z" />
    <glyph glyph-name="parenleft" unicode="(" horiz-adv-x="195" 
d="M133 -123q-120 244 -120 477t120 445h62q-130 -223 -130 -440q0 -203 130 -482h-62z" />
    <glyph glyph-name="parenright" unicode=")" horiz-adv-x="205" 
d="M204 354q0 -231 -119 -477h-64q132 280 132 482q0 216 -132 440h64q119 -212 119 -445z" />
    <glyph glyph-name="asterisk" unicode="*" horiz-adv-x="224" 
d="M224 289q0 -20 -20 -20q-9 0 -17.5 8t-17.5 21.5t-20 31t-24 36.5q15 -35 15 -39q0 -11 -10 -11t-10 19q0 5 1 13t1 12q0 8 -5 15q-7 -6 -7 -16q0 -4 1 -12.5t1 -12.5q0 -19 -10 -19q-9 0 -9 10q0 3 14 39q-5 -8 -14 -24t-20.5 -32t-23.5 -28.5t-21 -12.5q-20 0 -20 21
q0 8 8 16.5t21.5 18t31 20.5t35.5 24q-36 -14 -39 -14q-9 0 -9 9q0 11 19 11q3 0 11.5 -1.5t12.5 -1.5q11 0 17 6q-6 6 -17 6q-4 0 -12.5 -1t-11.5 -1q-19 0 -19 11q0 9 9 9q6 0 39 -13q-7 4 -22.5 13t-32 20t-29 23t-12.5 22q0 20 20 20q11 0 23 -12l56 -85q-14 36 -14 40
q0 10 9 10q10 0 10 -19q0 -7 -1 -12v-13q0 -12 6 -16q5 5 5 15q0 5 -1 13t-1 12q0 19 10 19q8 0 8 -10q0 -7 -13 -40q4 7 13.5 23t21 32.5t23.5 29t21 12.5q20 0 20 -20q0 -10 -11 -23l-85 -55q33 13 39 13q9 0 9 -10q0 -9 -17 -9h-13q-5 1 -7.5 1h-4.5q-10 0 -17 -5
q5 -4 17 -4q3 0 11.5 1t13.5 1q17 0 17 -11q0 -9 -9 -9q-3 0 -39 14q6 -4 22 -13t32.5 -20.5t29 -23.5t12.5 -22z" />
    <glyph glyph-name="plus" unicode="+" horiz-adv-x="298" 
d="M193 348v-88q-26 12 -47 12q-22 0 -47 -12v88h-88q16 25 16 46q0 19 -16 47h88v93q26 -17 45 -17q20 0 49 17v-93h80q-10 -24 -10 -47q0 -22 10 -46h-80z" />
    <glyph glyph-name="comma" unicode="," horiz-adv-x="283" 
d="M245 107q0 -65 -9 -106.5t-28.5 -66.5t-51.5 -34.5t-77 -9.5v37q59 0 59 73q-22 0 -41.5 8.5t-33.5 23t-22.5 34t-8.5 41.5q0 21 8.5 40.5t23 34t34 23t40.5 8.5t40.5 -8.5t34 -23.5t23.5 -34t9 -40z" />
    <glyph glyph-name="hyphen" unicode="-" horiz-adv-x="263" 
d="M37 348q16 25 16 46q0 19 -16 47h215q-11 -27 -11 -47q0 -19 11 -46h-215z" />
    <glyph glyph-name="period" unicode="." horiz-adv-x="286" 
d="M245 107q0 -22 -8.5 -41.5t-23 -34t-34 -23t-41.5 -8.5t-41.5 8.5t-33.5 23t-22.5 34t-8.5 41.5q0 21 8.5 40.5t23 34t34 23t40.5 8.5t40.5 -8.5t34 -23.5t23.5 -34t9 -40z" />
    <glyph glyph-name="slash" unicode="/" horiz-adv-x="547" 
d="M507 646l-322 -535h34q-27 -36 -34 -112h-126q-7 76 -34 112h34l322 535h-34q27 34 34 111h126q7 -77 34 -111h-34z" />
    <glyph glyph-name="zero" unicode="0" 
d="M445 111q-27 -35 -36 -112h-350q-7 76 -34 112h34v535h-34q27 34 34 111h350q9 -78 36 -111h-36v-535h36zM378 382q0 45 -25.5 82t-68.5 52v130h-99v-130q-43 -15 -68.5 -52t-25.5 -82t25.5 -82t68.5 -53v-136h99v136q43 16 68.5 53t25.5 82zM316 382q0 -34 -23.5 -57.5
t-58.5 -23.5q-33 0 -57 23.5t-24 57.5q0 33 24 57t57 24q35 0 58.5 -24t23.5 -57z" />
    <glyph glyph-name="one" unicode="1" horiz-adv-x="241" 
d="M219 111q-27 -36 -34 -112h-126q-7 76 -34 112h34v535h-34q27 34 34 111h126v-646h34z" />
    <glyph glyph-name="two" unicode="2" horiz-adv-x="458" 
d="M441 111q-28 -35 -35 -112h-350q-9 77 -35 112h35v295q36 0 65 7t54.5 15.5t51 15.5t55.5 7v195h-101v-100q-32 23 -65 23q-34 0 -60 -23v100h-35q26 34 35 111h350q7 -76 35 -111h-35v-279q-37 0 -65.5 -7.5t-53.5 -16t-50 -16t-56 -7.5v-209h101v102q32 -20 61 -20
q28 0 63 20v-102h35z" />
    <glyph glyph-name="three" unicode="3" 
d="M446 111q-28 -35 -35 -112h-351q-7 76 -34 112h34v102q34 -20 62 -20q29 0 64 20v-102h99l1 197q0 12 -1.5 20t-7 12.5t-16.5 6t-31 1.5h-126q17 20 17 46q0 27 -17 47h126q19 0 30.5 1.5t17 5.5t7 11t1.5 18v84q0 23 -0.5 40.5t-0.5 31.5v13h-99v-103q-35 20 -64 20
q-28 0 -62 -20v103h-34q27 34 34 111h351q7 -77 35 -111h-35v-173q0 -3 -6 -16q-30 -60 -78 -63q15 -2 26.5 -7t21 -15t18 -25.5t18.5 -39.5v-196h35z" />
    <glyph glyph-name="four" unicode="4" horiz-adv-x="469" 
d="M445 111q-27 -35 -36 -112h-125q-7 76 -34 112h34v237h-155q0 17 -5.5 34t-15 30t-22 21t-27.5 8v205h-34q27 34 34 111h126q7 -77 34 -111h-34v-205h99v205h-34q27 34 34 111h125q9 -78 36 -111h-36v-205h36q-26 -24 -26 -49q0 -24 26 -44h-36v-237h36z" />
    <glyph glyph-name="five" unicode="5" horiz-adv-x="454" 
d="M445 111q-27 -35 -36 -112h-350q-7 76 -34 112h34v102q35 -20 64 -20q27 0 62 20v-102h99v209q-30 0 -55 7.5t-50.5 16t-54 16t-65.5 7.5v279h-34q27 34 34 111h350q-27 -23 -27 -58q0 -34 27 -53h-224v-195q28 0 52.5 -7t50 -15.5t53 -15.5t60.5 -7h8v-295h36z" />
    <glyph glyph-name="six" unicode="6" horiz-adv-x="459" 
d="M445 111q-27 -35 -36 -112h-350q-7 76 -34 112h34v535h-34q27 34 34 111h350q9 -78 36 -111h-36v-100q-29 23 -65 23q-34 0 -60 -23v100h-99v-205h99q0 -24 10.5 -47.5t28 -42.5t40 -30.5t46.5 -11.5v-198h36zM284 111v134q-12 1 -25.5 11.5t-24.5 25.5t-18 33t-7 33h-24
v-237h99z" />
    <glyph glyph-name="seven" unicode="7" horiz-adv-x="456" 
d="M408 646q0 -76 -51 -197q-18 -44 -39 -91t-39.5 -92t-31.5 -85t-15 -70h34q-27 -38 -34 -112h-125q-9 75 -35 112h33q0 94 89 281t89 254h-100v-100q-31 23 -65 23t-60 -23v100h-34q27 38 34 111h350q9 -75 36 -111h-36z" />
    <glyph glyph-name="eight" unicode="8" horiz-adv-x="465" 
d="M445 111q-27 -35 -36 -112h-349q-7 77 -35 112h35v218q34 0 63 19l52 40q-60 72 -115 72v186h-35q28 35 35 111h349q9 -77 36 -111h-36v-186q-30 0 -61 -27l-53 -45q26 -20 53.5 -39.5t60.5 -19.5v-218h36zM284 646h-98v-124q15 0 50 -45q31 45 48 45v124zM284 111v152
q-18 0 -48 46q-34 -46 -50 -46v-152h98z" />
    <glyph glyph-name="nine" unicode="9" horiz-adv-x="471" 
d="M449 111q-29 -35 -36 -112h-350q-9 77 -35 112h35v100q31 -23 65 -23t60 23v-100h100v205h-100q0 23 -10.5 46.5t-28 42t-40 30.5t-46.5 12v199h-35q26 34 35 111h350q7 -78 36 -111h-36v-535h36zM288 408v238h-100v-135q12 0 25.5 -10.5t24.5 -26t18 -33.5t8 -33h24z
" />
    <glyph glyph-name="colon" unicode=":" horiz-adv-x="269" 
d="M245 391q0 -22 -8.5 -41.5t-23 -34t-34 -23t-41.5 -8.5t-41.5 8.5t-33.5 23t-22.5 34t-8.5 41.5q0 21 8.5 40.5t23 34t34 23t40.5 8.5t40.5 -8.5t34 -23.5t23.5 -34t9 -40zM245 107q0 -22 -8.5 -41.5t-23 -34t-34 -23t-41.5 -8.5t-41.5 8.5t-33.5 23t-22.5 34t-8.5 41.5
q0 21 8.5 40.5t23 34t34 23t40.5 8.5t40.5 -8.5t34 -23.5t23.5 -34t9 -40z" />
    <glyph glyph-name="semicolon" unicode=";" horiz-adv-x="270" 
d="M245 391q0 -22 -8.5 -41.5t-23 -34t-34 -23t-41.5 -8.5t-41.5 8.5t-33.5 23t-22.5 34t-8.5 41.5q0 21 8.5 40.5t23 34t34 23t40.5 8.5t40.5 -8.5t34 -23.5t23.5 -34t9 -40zM245 107q0 -65 -9 -106.5t-28.5 -66.5t-51.5 -34.5t-77 -9.5v37q59 0 59 73q-22 0 -41.5 8.5
t-33.5 23t-22.5 34t-8.5 41.5q0 21 8.5 40.5t23 34t34 23t40.5 8.5t40.5 -8.5t34 -23.5t23.5 -34t9 -40z" />
    <glyph glyph-name="less" unicode="&#x3c;" horiz-adv-x="482" 
d="M25 393q32 0 74 76q41 77 70 77q25 0 25 -39q0 -30 -52 -67l-71 -45q13 3 39.5 10.5t58 17.5t65.5 21t63 20t50.5 15t27.5 6q89 0 89 -97t-89 -97q-6 0 -27.5 6t-50.5 15t-63 20t-65.5 21.5t-58 18t-39.5 10.5q54 -34 88.5 -60t34.5 -52q0 -39 -25 -39q-29 0 -70 77
q-42 78 -74 78v7z" />
    <glyph glyph-name="equal" unicode="=" horiz-adv-x="252" 
d="M37 414q16 25 16 46q0 20 -16 48h215q-11 -27 -11 -48q0 -19 11 -46h-215zM37 282q16 25 16 46q0 19 -16 47h215q-11 -27 -11 -47q0 -19 11 -46h-215z" />
    <glyph glyph-name="greater" unicode="&#x3e;" horiz-adv-x="482" 
d="M465 386q-33 0 -75 -78q-41 -77 -69 -77q-25 0 -25 39q0 26 34.5 52t88.5 60q-14 -3 -40 -10.5t-57.5 -18t-65.5 -21.5t-63.5 -20t-50.5 -15t-27 -6q-89 0 -89 97t89 97q6 0 27 -6t50 -15t63 -20t66 -21t58 -17.5t40 -10.5l-71 45q-52 37 -52 67q0 39 25 39q27 0 69 -77
q40 -76 75 -76v-7z" />
    <glyph glyph-name="question" unicode="?" horiz-adv-x="458" 
d="M406 646v-190q0 -66 -41.5 -99.5t-107.5 -33.5v-99q-28 26 -57 26q-26 0 -69 -26v182q151 0 151 83v157h-101v-100q-32 23 -65 23q-34 0 -60 -23v100h-35q26 34 35 111h350q7 -77 35 -111h-35zM302 107q0 -22 -8.5 -41.5t-23 -34t-34 -23t-41.5 -8.5t-41.5 8.5t-33.5 23
t-22.5 34t-8.5 41.5q0 21 8.5 40.5t23 34t34 23t40.5 8.5t40.5 -8.5t34 -23.5t23.5 -34t9 -40z" />
    <glyph glyph-name="at" unicode="@" horiz-adv-x="288" 
d="M295 696h-295v60h295v-60zM275 450l-275 154v20l275 -155v-19zM211 415v-164h10q-9 -12 -10 -34h-38q-3 23 -11 34h11v164h-46q8 11 11 35h108q3 -24 11 -35h-46zM127 340q-10 -11 -11 -33h-38q-1 22 -11 33h16l-5 23h-31l-3 -23h15q-9 -12 -10 -33h-38q-3 22 -11 33h12
l25 162h-11q8 11 11 33h47q1 -22 11 -33h-12l32 -162h12zM275 99l-292 165v19l292 -165v-19zM295 -2h-295v60h295v-60zM72 392l-10 58l-10 -58h20z" />
    <glyph glyph-name="A" unicode="A" horiz-adv-x="457" 
d="M445 111q-27 -35 -36 -112h-125q-7 76 -34 112h47l-14 77h-101l-12 -77h49q-27 -36 -34 -112h-126q-7 76 -34 112h39l84 535h-38q27 34 34 111h159q7 -76 35 -111h-39l105 -535h41zM264 282l-37 190l-31 -190h68z" />
    <glyph glyph-name="B" unicode="B" horiz-adv-x="465" 
d="M445 111q-27 -35 -36 -112h-350q-7 76 -34 112h34v535h-34q27 36 34 111h350q9 -77 36 -111h-36v-186q-94 0 -155 -64q57 -67 155 -67v-218h36zM284 646h-99v-186q50 62 99 62v124zM284 111v152q-50 0 -99 66v-218h99z" />
    <glyph glyph-name="C" unicode="C" horiz-adv-x="450" 
d="M445 111q-27 -35 -36 -112h-350q-7 76 -34 112h34v535h-34q27 34 34 111h350q9 -78 36 -111h-36v-103q-34 20 -61 20t-64 -20v103h-99v-535h99v102q37 -20 64 -20t61 20v-102h36z" />
    <glyph glyph-name="D" unicode="D" horiz-adv-x="409" 
d="M409 140q-16 -1 -33.5 -16t-32 -36.5t-24 -45.5t-10.5 -43h-250q-7 76 -34 112h34v535h-34q27 36 34 111h250q0 -24 7.5 -49t21 -45t31.5 -32.5t40 -12.5v-478zM284 570q-10 0 -19.5 8.5t-16.5 20.5t-11 25t-4 22h-48v-535h48q0 9 4 22t11 25t16.5 20.5t19.5 8.5v383z
" />
    <glyph glyph-name="E" unicode="E" horiz-adv-x="454" 
d="M445 111q-27 -35 -36 -112h-350q-7 76 -34 112h34v535h-34q27 34 34 111h350q9 -78 36 -111h-36v-103q-34 20 -61 20t-64 -20v103h-99v-205h181q-18 -24 -18 -47q0 -24 18 -46h-181v-237h99v102q37 -20 64 -20t61 20v-102h36z" />
    <glyph glyph-name="F" unicode="F" horiz-adv-x="446" 
d="M409 646v-103q-34 20 -61 20t-64 -20v103h-99v-205h181q-19 -20 -19 -46q0 -25 19 -47h-181v-237h34q-27 -36 -34 -112h-126q-7 76 -34 112h34v535h-34q27 34 34 111h350q9 -78 36 -111h-36z" />
    <glyph glyph-name="G" unicode="G" horiz-adv-x="462" 
d="M445 111q-27 -35 -36 -112h-350q-7 76 -34 112h34v535h-34q27 34 34 111h350q9 -78 36 -111h-36v-103q-34 20 -61 20t-64 -20v103h-99v-535h99v199q0 58 -38 94h199q-36 -30 -36 -94v-199h36z" />
    <glyph glyph-name="H" unicode="H" 
d="M445 111q-27 -35 -36 -112h-125q-7 76 -34 112h34v237h-99v-237h34q-27 -36 -34 -112h-126q-7 76 -34 112h34v535h-34q27 34 34 111h126q7 -77 34 -111h-34v-205h99v205h-34q27 34 34 111h125q9 -78 36 -111h-36v-535h36z" />
    <glyph glyph-name="I" unicode="I" horiz-adv-x="243" 
d="M219 111q-27 -36 -34 -112h-126q-7 76 -34 112h34v535h-34q27 34 34 111h126q7 -77 34 -111h-34v-535h34z" />
    <glyph glyph-name="J" unicode="J" horiz-adv-x="469" 
d="M446 111q-28 -35 -35 -112h-349q-10 77 -36 112h36v102q32 -20 61 -20q28 0 63 20v-102h100v535h-35q28 34 35 111h125q7 -77 35 -111h-35v-535h35z" />
    <glyph glyph-name="K" unicode="K" horiz-adv-x="465" 
d="M445 111q-27 -35 -36 -112h-125q-8 78 -34 112h34v152q-50 0 -99 66v-218h34q-27 -36 -34 -112h-126q-7 76 -34 112h34v535h-34q27 36 34 111h126q7 -75 34 -111h-34v-186q50 62 99 62v124h-34q27 36 34 111h125q9 -77 36 -111h-36v-186q-94 0 -155 -64q57 -67 155 -67
v-218h36z" />
    <glyph glyph-name="L" unicode="L" horiz-adv-x="445" 
d="M445 111q-27 -35 -36 -112h-350q-7 76 -34 112h34v535h-34q27 34 34 111h126q7 -77 34 -111h-34v-535h99v102q37 -20 64 -20t61 20v-102h36z" />
    <glyph glyph-name="M" unicode="M" horiz-adv-x="581" 
d="M559 111q-29 -35 -36 -112h-125q-9 77 -35 112h35v240l-47 -155q-27 24 -58 24t-62 -24l-46 155v-240h34q-27 -36 -34 -112h-126q-7 76 -34 112h34v535h-34q27 34 34 111h126q7 -77 34 -111h-25l97 -292l98 292h-26q26 34 35 111h125q7 -78 36 -111h-36v-535h36z" />
    <glyph glyph-name="N" unicode="N" 
d="M445 111q-27 -35 -36 -112h-125q-7 76 -34 112h34v24l-99 260v-284h34q-27 -36 -34 -112h-126q-7 76 -34 112h34v535h-34q27 34 34 111h126q7 -77 34 -111h-30l95 -246v246h-34q27 34 34 111h125q9 -78 36 -111h-36v-535h36z" />
    <glyph glyph-name="O" unicode="O" 
d="M445 111q-27 -35 -36 -112h-350q-7 76 -34 112h34v535h-34q27 34 34 111h350q9 -78 36 -111h-36v-535h36zM284 111v535h-99v-535h99z" />
    <glyph glyph-name="P" unicode="P" horiz-adv-x="449" 
d="M409 646v-195q-33 0 -66.5 -9t-63.5 -25.5t-54.5 -38.5t-39.5 -49v-218h34q-27 -36 -34 -112h-126q-7 76 -34 112h34v535h-34q27 36 34 111h350q9 -77 36 -111h-36zM284 646h-99v-186q50 62 99 62v124z" />
    <glyph glyph-name="Q" unicode="Q" horiz-adv-x="471" 
d="M471 -41q0 -23 -9.5 -41.5t-25 -31.5t-36.5 -20.5t-43 -7.5q-54 0 -88 38.5t-42 102.5h-168q-7 76 -34 112h34v535h-34q27 34 34 111h350q9 -78 36 -111h-36v-535h36q-27 -35 -36 -112h-63q13 -52 58 -52q36 0 63 39q4 -12 4 -27zM284 646h-99v-535h39q6 9 6 23
q0 38 -24 38q-6 0 -10 -3q16 37 43 37q34 0 45 -51v491z" />
    <glyph glyph-name="R" unicode="R" horiz-adv-x="465" 
d="M445 111q-27 -35 -36 -112h-125q-8 78 -34 112h34v152q-50 0 -99 66v-218h34q-27 -36 -34 -112h-126q-7 76 -34 112h34v535h-34q27 36 34 111h350q9 -77 36 -111h-36v-186q-94 0 -155 -64q57 -67 155 -67v-218h36zM284 646h-99v-186q50 62 99 62v124z" />
    <glyph glyph-name="S" unicode="S" horiz-adv-x="462" 
d="M445 111q-27 -35 -36 -112h-350q-7 76 -34 112h34v102q35 -20 64 -20q27 0 62 20v-102h99v209q-30 0 -55 7.5t-50.5 16t-54 16t-65.5 7.5v279h-34q27 34 34 111h350q9 -78 36 -111h-36v-100q-26 23 -60 23q-33 0 -65 -23v100h-99v-195q28 0 52.5 -7t50 -15.5t53 -15.5
t60.5 -7h8v-295h36z" />
    <glyph glyph-name="T" unicode="T" horiz-adv-x="459" 
d="M445 646q-17 -17 -27 -38.5t-15.5 -45t-8.5 -48.5t-6 -49l-15 114q-18 67 -76 67v-535h34q-27 -36 -34 -112h-125q-9 77 -35 112h35v535q-32 0 -48.5 -17t-25 -43t-12 -58.5t-7.5 -62.5l-14 95q-7 49 -40 86q27 36 34 111h350q9 -77 36 -111z" />
    <glyph glyph-name="U" unicode="U" 
d="M445 111q-27 -35 -36 -112h-350q-7 76 -34 112h34v535h-34q27 34 34 111h126q7 -77 34 -111h-34v-535h99v535h-34q27 34 34 111h125q9 -78 36 -111h-36v-535h36z" />
    <glyph glyph-name="V" unicode="V" horiz-adv-x="464" 
d="M405 646l-83 -535h37q-26 -35 -35 -111h-158q-9 76 -36 111h39l-104 535h-40q27 36 34 111h126q7 -75 34 -111h-47l71 -362l55 362h-48q27 36 34 111h125q9 -77 36 -111h-40z" />
    <glyph glyph-name="W" unicode="W" horiz-adv-x="690" 
d="M630 646l-83 -535h38q-29 -35 -36 -111h-158q-7 73 -34 109q-26 -35 -33 -109h-158q-9 76 -36 111h39l-104 535h-40q27 36 34 111h126q7 -75 34 -111h-47l71 -362l52 340l-4 22h-41q27 36 34 111h125q9 -77 36 -111h-40l-4 -22l66 -340l57 362h-49q28 35 35 111h124
q9 -77 36 -111h-40zM395 111l-41 210l-32 -210h73z" />
    <glyph glyph-name="X" unicode="X" horiz-adv-x="458" 
d="M445 111q-27 -35 -36 -112h-125q-7 76 -34 112h33l-49 140l-49 -140h34q-27 -36 -34 -112h-126q-7 76 -34 112h54l102 291l-85 244h-71q27 34 34 111h126q7 -77 34 -111h-18l33 -92l32 92h-16q27 34 34 111h125q9 -78 36 -111h-72l-87 -244l103 -291h56z" />
    <glyph glyph-name="Y" unicode="Y" horiz-adv-x="459" 
d="M399 646l-102 -330v-205h34q-26 -34 -34 -112h-125q-9 77 -36 112h36v205l-101 330h-46q27 34 34 111h126q7 -77 34 -111h-39l54 -203l55 203h-39q27 34 34 111h125q9 -78 36 -111h-46z" />
    <glyph glyph-name="Z" unicode="Z" horiz-adv-x="458" 
d="M444 111q-27 -34 -36 -112h-350q-7 76 -34 112h34q0 35 15 78.5t39 92t54 100t59 102.5q30 51 44 92t14 70h-100v-100q-31 23 -65 23t-60 -23v100h-34q27 38 34 111h350q9 -75 36 -111h-36q0 -75 -58 -182l-109 -184q-58 -103 -58 -169h100v102q34 -20 61 -20q29 0 64 20
v-102h36z" />
    <glyph glyph-name="underscore" unicode="_" horiz-adv-x="452" 
d="M452 696h-452v60h452v-60zM452 -2h-452v60h452v-60z" />
    <glyph glyph-name="grave" unicode="`" horiz-adv-x="602" 
d="M443 756h-97l-128 130h129z" />
    <glyph glyph-name="a" unicode="a" horiz-adv-x="366" 
d="M356 164q-22 -26 -28 -88h-101q-6 61 -27 88h38l-12 62h-80l-10 -62h39q-21 -27 -27 -88h-101q-6 62 -28 88h32l67 428h-30q20 26 28 90h127q8 -62 28 -90h-32l84 -428h33zM212 301l-31 153l-24 -153h55zM368 696h-368v60h368v-60zM368 -2h-368v60h368v-60z" />
    <glyph glyph-name="b" unicode="b" horiz-adv-x="372" 
d="M356 164q-22 -26 -28 -88h-281q-6 62 -28 88h28v428h-28q22 28 28 90h281q6 -62 28 -90h-28v-148q-76 0 -124 -51q45 -55 124 -55v-174h28zM227 592h-79v-148q39 49 79 49v99zM227 164v121q-41 2 -79 53v-174h79zM376 696h-376v60h376v-60zM376 -2h-376v60h376v-60z" />
    <glyph glyph-name="c" unicode="c" horiz-adv-x="360" 
d="M356 164q-22 -26 -28 -88h-281q-6 62 -28 88h28v428h-28q22 26 28 90h281q6 -64 28 -90h-28v-82q-26 17 -50 17q-22 0 -51 -17v82h-79v-428h79v82q28 -15 51 -15q24 0 50 15v-82h28zM367 696h-367v60h367v-60zM367 -2h-367v60h367v-60z" />
    <glyph glyph-name="d" unicode="d" horiz-adv-x="328" 
d="M328 187q-15 0 -29.5 -12.5t-26 -30t-18.5 -36.5t-7 -32h-200q-6 62 -28 88h28v428h-28q22 28 28 90h200q0 -21 6.5 -41.5t17.5 -36.5t25.5 -25.5t31.5 -9.5v-382zM227 531q-8 1 -15 7.5t-12.5 15.5t-9 19t-3.5 19h-39v-428h39q0 7 3.5 17.5t9.5 20.5t13 16.5t14 6.5v306
zM338 696h-338v60h338v-60zM338 -2h-338v60h338v-60z" />
    <glyph glyph-name="e" unicode="e" horiz-adv-x="363" 
d="M356 164q-22 -26 -28 -88h-281q-6 62 -28 88h28v428h-28q22 26 28 90h281q6 -64 28 -90h-28v-82q-26 17 -50 17q-22 0 -51 -17v82h-79v-164h145q-15 -20 -15 -37q0 -19 15 -37h-145v-190h79v82q28 -15 51 -15q24 0 50 15v-82h28zM367 696h-367v60h367v-60zM367 -2h-367
v60h367v-60z" />
    <glyph glyph-name="f" unicode="f" horiz-adv-x="357" 
d="M328 592v-82q-26 17 -50 17q-22 0 -51 -17v82h-79v-164h145q-16 -16 -16 -36q0 -21 16 -38h-145v-190h27q-21 -27 -27 -88h-101q-6 62 -28 88h28v428h-28q22 26 28 90h281q6 -64 28 -90h-28zM362 696h-362v60h362v-60zM362 -2h-362v60h362v-60z" />
    <glyph glyph-name="g" unicode="g" horiz-adv-x="369" 
d="M356 164q-22 -26 -28 -88h-281q-6 62 -28 88h28v428h-28q22 26 28 90h281q6 -64 28 -90h-28v-82q-26 17 -50 17q-22 0 -51 -17v82h-79v-428h79v160q0 47 -31 75h160q-28 -24 -28 -75v-160h28zM376 696h-376v60h376v-60zM376 -2h-376v60h376v-60z" />
    <glyph glyph-name="h" unicode="h" horiz-adv-x="374" 
d="M356 164q-22 -26 -28 -88h-101q-6 61 -27 88h27v190h-79v-190h27q-21 -27 -27 -88h-101q-6 62 -28 88h28v428h-28q22 26 28 90h101q6 -63 27 -90h-27v-164h79v164h-27q21 27 27 90h101q6 -64 28 -90h-28v-428h28zM376 696h-376v60h376v-60zM376 -2h-376v60h376v-60z" />
    <glyph glyph-name="i" unicode="i" horiz-adv-x="194" 
d="M175 164q-21 -27 -27 -88h-101q-6 62 -28 88h28v428h-28q22 26 28 90h101q6 -63 27 -90h-27v-428h27zM200 696h-200v60h200v-60zM200 -2h-200v60h200v-60z" />
    <glyph glyph-name="j" unicode="j" horiz-adv-x="375" 
d="M357 164q-20 -26 -28 -88h-280q-6 62 -28 88h28v82q25 -15 49 -15q22 0 51 15v-82h79v428h-27q21 27 27 90h101q6 -64 28 -90h-28v-428h28zM380 696h-380v60h380v-60zM380 -2h-380v60h380v-60z" />
    <glyph glyph-name="k" unicode="k" horiz-adv-x="372" 
d="M356 164q-22 -26 -28 -88h-101q-6 61 -27 88h27v121q-41 2 -79 53v-174h27q-21 -27 -27 -88h-101q-6 62 -28 88h28v428h-28q22 28 28 90h101q6 -62 27 -90h-27v-148q39 49 79 49v99h-27q21 28 27 90h101q6 -62 28 -90h-28v-148q-76 0 -124 -51q45 -55 124 -55v-174h28z
M376 696h-376v60h376v-60zM376 -2h-376v60h376v-60z" />
    <glyph glyph-name="l" unicode="l" horiz-adv-x="356" 
d="M356 164q-22 -26 -28 -88h-281q-6 62 -28 88h28v428h-28q22 26 28 90h101q6 -63 27 -90h-27v-428h79v82q28 -15 51 -15q24 0 50 15v-82h28zM367 696h-367v60h367v-60zM367 -2h-367v60h367v-60z" />
    <glyph glyph-name="m" unicode="m" horiz-adv-x="465" 
d="M446 164q-21 -27 -27 -88h-101q-6 62 -28 88h28v192l-36 -123q-22 19 -48 19q-24 0 -49 -19l-37 123v-192h27q-21 -27 -27 -88h-101q-6 62 -28 88h28v428h-28q22 26 28 90h101q6 -63 27 -90h-20l78 -233l78 233h-21q22 26 28 90h101q6 -63 27 -90h-27v-428h27zM471 696
h-471v60h471v-60zM471 -2h-471v60h471v-60z" />
    <glyph glyph-name="n" unicode="n" horiz-adv-x="374" 
d="M356 164q-22 -26 -28 -88h-101q-6 61 -27 88h27v19l-79 209v-228h27q-21 -27 -27 -88h-101q-6 62 -28 88h28v428h-28q22 26 28 90h101q6 -63 27 -90h-24l76 -196v196h-27q21 27 27 90h101q6 -64 28 -90h-28v-428h28zM376 696h-376v60h376v-60zM376 -2h-376v60h376v-60z
" />
    <glyph glyph-name="o" unicode="o" horiz-adv-x="374" 
d="M356 164q-22 -26 -28 -88h-281q-6 62 -28 88h28v428h-28q22 26 28 90h281q6 -64 28 -90h-28v-428h28zM227 164v428h-79v-428h79zM381 696h-381v60h381v-60zM381 -2h-381v60h381v-60z" />
    <glyph glyph-name="p" unicode="p" horiz-adv-x="359" 
d="M328 592v-155q-26 0 -52.5 -7t-50.5 -20t-44 -31.5t-33 -40.5v-174h27q-21 -27 -27 -88h-101q-6 62 -28 88h28v428h-28q22 28 28 90h281q6 -62 28 -90h-28zM227 592h-79v-148q39 49 79 49v99zM367 696h-367v60h367v-60zM367 -2h-367v60h367v-60z" />
    <glyph glyph-name="q" unicode="q" horiz-adv-x="378" 
d="M378 43q0 -36 -28 -58.5t-64 -22.5q-45 0 -72 31.5t-32 82.5h-135q-6 62 -28 88h28v428h-28q22 26 28 90h281q6 -64 28 -90h-28v-428h28q-22 -26 -28 -88h-51q10 -43 46 -43q30 0 51 32q4 -11 4 -22zM227 592h-79v-428h31q4 7 4 18q0 31 -19 31q-1 0 -7 -2q14 29 35 29
q26 0 35 -40v392zM386 696h-386v60h386v-60zM0 -2v60h167q0 -38 25 -60h-192z" />
    <glyph glyph-name="r" unicode="r" horiz-adv-x="372" 
d="M356 164q-22 -26 -28 -88h-101q-6 61 -27 88h27v121q-41 2 -79 53v-174h27q-21 -27 -27 -88h-101q-6 62 -28 88h28v428h-28q22 28 28 90h281q6 -62 28 -90h-28v-148q-76 0 -124 -51q45 -55 124 -55v-174h28zM227 592h-79v-148q39 49 79 49v99zM378 696h-378v60h378v-60z
M378 -2h-378v60h378v-60z" />
    <glyph glyph-name="s" unicode="s" horiz-adv-x="369" 
d="M356 164q-22 -26 -28 -88h-281q-6 62 -28 88h28v82q28 -15 51 -15t50 15v-82h79v167q-24 0 -43.5 6t-40 13t-43.5 13t-53 6v223h-28q22 28 28 90h281q6 -62 28 -90h-28v-80q-20 19 -49 19q-27 0 -52 -19v80h-79v-155q24 0 44 -6t40 -12.5t43 -12.5t53 -6v-236h28z
M375 696h-375v60h375v-60zM375 -2h-375v60h375v-60z" />
    <glyph glyph-name="t" unicode="t" horiz-adv-x="368" 
d="M356 592q-28 -25 -34 -66l-12 -79l-12 91q-14 54 -60 54v-428h27q-21 -27 -27 -88h-101q-6 62 -28 88h28v428q-25 0 -38 -13t-20 -34t-9.5 -47t-6.5 -51q-3 19 -5 38.5t-6 38.5t-12 36t-21 32q22 28 28 90h281q6 -62 28 -90zM372 696h-372v60h372v-60zM372 -2h-372v60
h372v-60z" />
    <glyph glyph-name="u" unicode="u" horiz-adv-x="374" 
d="M356 164q-22 -26 -28 -88h-281q-6 62 -28 88h28v428h-28q22 26 28 90h101q6 -63 27 -90h-27v-428h79v428h-27q21 27 27 90h101q6 -64 28 -90h-28v-428h28zM379 696h-379v60h379v-60zM379 -2h-379v60h379v-60z" />
    <glyph glyph-name="v" unicode="v" horiz-adv-x="372" 
d="M324 593l-67 -429h31q-21 -26 -29 -88h-126q-7 60 -29 88h32l-84 429h-33q22 26 28 89h101q6 -62 27 -89h-38l57 -290l45 290h-39q21 27 27 89h101q6 -63 28 -89h-32zM375 696h-375v60h375v-60zM375 -2h-375v60h375v-60z" />
    <glyph glyph-name="w" unicode="w" horiz-adv-x="551" 
d="M504 593l-67 -429h30q-20 -26 -28 -88h-127q-4 58 -26 87q-21 -29 -27 -87h-126q-7 60 -29 88h32l-84 429h-33q22 26 28 89h101q6 -62 27 -89h-38l57 -290l42 272l-3 18h-33q21 27 27 89h101q6 -63 28 -89h-32l-3 -18l53 -272l45 290h-39q20 26 28 89h100q8 -63 28 -89
h-32zM316 164l-33 169l-26 -169h59zM555 696h-555v60h555v-60zM555 -2h-555v60h555v-60z" />
    <glyph glyph-name="x" unicode="x" horiz-adv-x="366" 
d="M356 164q-22 -26 -28 -88h-101q-6 61 -27 88h26l-39 113l-39 -113h27q-21 -27 -27 -88h-101q-6 62 -28 88h44l81 234l-68 194h-57q22 26 28 90h101q6 -63 27 -90h-14l26 -74l26 74h-13q21 27 27 90h101q6 -64 28 -90h-58l-68 -194l81 -234h45zM372 696h-372v60h372v-60z
M372 -2h-372v60h372v-60z" />
    <glyph glyph-name="y" unicode="y" horiz-adv-x="367" 
d="M318 592l-81 -264v-164h28q-20 -26 -28 -88h-100q-8 62 -28 88h28v164l-80 264h-38q22 26 28 90h101q6 -63 27 -90h-31l43 -162l44 162h-31q21 27 27 90h101q6 -64 28 -90h-38zM372 696h-372v60h372v-60zM372 -2h-372v60h372v-60z" />
    <glyph glyph-name="z" unicode="z" horiz-adv-x="366" 
d="M355 164q-22 -28 -28 -88h-281q-6 59 -27 88h27q0 75 90 224q90 150 90 204h-79v-80q-25 19 -52 19q-29 0 -49 -19v80h-27q21 28 27 90h281q6 -62 28 -90h-28q0 -72 -90 -219t-90 -209h79v82q27 -15 50 -15q22 0 51 15v-82h28zM372 696h-372v60h372v-60zM372 -2h-372v60
h372v-60z" />
    <glyph glyph-name="bar" unicode="|" horiz-adv-x="161" 
d="M161 293q0 -21 -21 -21q-17 0 -38 43l-24 57q1 -11 5.5 -32t10 -46.5t11.5 -52.5t11 -50.5t8.5 -40.5t3.5 -21q0 -72 -53 -72q-54 0 -54 72q0 5 3 21.5t8 39.5t11 50t11.5 52t10 46t6.5 32l-24 -56q-21 -42 -38 -42q-21 0 -21 21q0 10 13.5 25t29 30.5t29 31t13.5 27.5
t-13.5 27.5t-29 31t-29 30.5t-13.5 26q0 20 21 20q17 0 38 -41l24 -57q-2 11 -6.5 32t-10 46.5t-11.5 52.5t-11 50.5t-8 40t-3 20.5q0 71 54 71q53 0 53 -71q0 -5 -3.5 -21.5t-8.5 -39.5t-11 -50t-11.5 -52.5t-10 -46.5t-5.5 -32q8 19 16 36.5t15.5 31t15 22t15.5 8.5
q21 0 21 -20q0 -11 -13 -25.5t-29 -30.5t-29 -31.5t-13 -27.5t13 -27.5t29 -31.5t29 -30.5t13 -24.5z" />
    <glyph glyph-name="asciitilde" unicode="~" horiz-adv-x="156" 
d="M144 794l-28 -28h-39l-14 16l-12 -16h-32l27 28h34l17 -16l15 16h32z" />
    <glyph glyph-name="exclamdown" unicode="&#xa1;" horiz-adv-x="269" 
d="M259 111q-26 -35 -34 -111h-182q-8 78 -35 111h35q0 55 5 111.5t14 106t21 88t26 58.5h50q14 -20 26 -58.5t21 -88t14 -106t5 -111.5h34zM238 651q0 -22 -8.5 -41.5t-23 -34t-34 -23t-41.5 -8.5t-41.5 8.5t-33.5 23t-22.5 34t-8.5 41.5t8.5 41t23 33.5t33.5 23t41 8.5
t41.5 -8.5t34 -22.5t23 -33.5t8.5 -41.5z" />
    <glyph glyph-name="yen" unicode="&#xa5;" horiz-adv-x="459" 
d="M297 162v-51h34q-26 -34 -34 -112h-125q-9 77 -36 112h36v51h-110q16 25 16 46q0 19 -16 47h110v39h-110q16 25 16 46q0 20 -16 48h88l-79 258h-46q27 34 34 111h126q7 -77 34 -111h-39l54 -203l55 203h-39q27 34 34 111h125q9 -78 36 -111h-46l-80 -258h78
q-11 -27 -11 -48q0 -19 11 -46h-100v-39h100q-11 -27 -11 -47q0 -19 11 -46h-100z" />
    <glyph glyph-name="dieresis" unicode="&#xa8;" horiz-adv-x="688" 
d="M505 826q0 -24 -19 -38t-42 -14q-25 0 -44 14t-19 38q0 23 19.5 37.5t43.5 14.5q23 0 42 -14.5t19 -37.5zM304 826q0 -24 -19 -38t-42 -14q-24 0 -43.5 14t-19.5 38t19 38t44 14q23 0 42 -14.5t19 -37.5z" />
    <glyph glyph-name="copyright" unicode="&#xa9;" horiz-adv-x="899" 
d="M49 383q0 82 31 154.5t84.5 126.5t125.5 85t155 31q82 0 154.5 -31t126 -85t84.5 -126.5t31 -154.5t-31 -154t-84.5 -126t-126 -85t-154.5 -31q-83 0 -155 31t-125.5 85t-84.5 126t-31 154zM96 382q0 -73 27.5 -137t75 -111.5t111 -75t136.5 -27.5t137 27.5t112 75
t76 111.5t28 137q0 72 -28 136.5t-76 113t-112 76.5t-137 28t-136.5 -28t-111 -76.5t-75 -113t-27.5 -136.5zM529 482q-37 52 -90 52q-51 0 -80.5 -41.5t-29.5 -114.5q0 -35 9 -63t24 -48.5t35 -31.5t43 -11q25 0 48.5 12.5t40.5 30.5l71 -48q-52 -88 -161 -88q-43 0 -79 19
t-62.5 52t-41.5 78t-15 98t14 98.5t39.5 78.5t62.5 52t82 19q111 0 165 -96z" />
    <glyph glyph-name="guillemotleft" unicode="&#xab;" horiz-adv-x="443" 
d="M112 357l121 -56v-71l-184 91v70l184 95v-73zM288 357l120 -56v-71l-184 91v70l184 95v-73z" />
    <glyph glyph-name="registered" unicode="&#xae;" horiz-adv-x="469" 
d="M241 753q-35 0 -63 -12.5t-47.5 -32.5t-29.5 -45.5t-10 -51.5q0 -27 10 -53.5t29.5 -46.5t47.5 -32.5t63 -12.5q34 0 63 11.5t51 31t34.5 46t12.5 56.5q0 26 -11.5 51.5t-33 45.5t-51 32.5t-65.5 12.5zM243 434q-41 0 -75.5 14.5t-59.5 39t-38.5 56.5t-13.5 67t13.5 67
t38.5 56t59.5 38.5t75.5 14.5t76 -13.5t60 -37.5t39 -56t14 -69q0 -35 -14 -67t-39.5 -56.5t-60 -39t-75.5 -14.5zM221 664v-43h32q20 0 20 20q0 23 -20 23h-32zM241 582h-20v-70h-38v191h69q27 0 43 -16t16 -46q0 -19 -7 -30.5t-24 -22.5l34 -76h-39z" />
    <glyph glyph-name="degree" unicode="&#xb0;" horiz-adv-x="323" 
d="M284 492q-16 -19 -21 -65h-202q-4 44 -22 65h22v200h-22q18 21 22 65h202q5 -46 21 -65h-21v-200h21zM191 492v200h-58v-200h58z" />
    <glyph glyph-name="acute" unicode="&#xb4;" horiz-adv-x="602" 
d="M463 886l-129 -130h-97l97 130h129z" />
    <glyph glyph-name="cedilla" unicode="&#xb8;" horiz-adv-x="608" 
d="M388 -91q0 -63 -26 -86.5t-90 -23.5v28q20 0 30.5 7.5t10.5 29.5q-37 0 -55.5 18.5t-18.5 44.5q0 25 19.5 43.5t54.5 18.5t55 -21t20 -59z" />
    <glyph glyph-name="guillemotright" unicode="&#xbb;" horiz-adv-x="457" 
d="M357 360l-120 55v71l184 -91v-70l-184 -95v73zM182 360l-120 55v71l184 -91v-70l-184 -95v73z" />
    <glyph glyph-name="questiondown" unicode="&#xbf;" horiz-adv-x="458" 
d="M63 111v191q0 64 40 98t109 34v100q28 -25 57 -25q28 0 68 25v-183q-149 0 -149 -82v-158h100v101q30 -24 65 -24q34 0 60 24v-101h34q-27 -34 -34 -111h-350q-9 78 -36 111h36zM167 651q0 22 8.5 41t23 33.5t33.5 23t41 8.5t41.5 -8.5t34 -22.5t23 -33.5t8.5 -41.5
t-8.5 -41.5t-23 -34t-34 -23t-41.5 -8.5t-41.5 8.5t-33.5 23t-22.5 34t-8.5 41.5z" />
    <glyph glyph-name="Agrave" unicode="&#xc0;" horiz-adv-x="457" 
d="M25 0zM445 111q-27 -35 -36 -112h-125q-7 76 -34 112h47l-14 77h-101l-12 -77h49q-27 -36 -34 -112h-126q-7 76 -34 112h39l84 535h-38q27 34 34 111h159q7 -76 35 -111h-39l105 -535h41zM264 282l-37 190l-31 -190h68zM345 832h-97l-128 130h129z" />
    <glyph glyph-name="Aacute" unicode="&#xc1;" horiz-adv-x="457" 
d="M25 0zM445 111q-27 -35 -36 -112h-125q-7 76 -34 112h47l-14 77h-101l-12 -77h49q-27 -36 -34 -112h-126q-7 76 -34 112h39l84 535h-38q27 34 34 111h159q7 -76 35 -111h-39l105 -535h41zM264 282l-37 190l-31 -190h68zM346 962l-129 -130h-97l97 130h129z" />
    <glyph glyph-name="Acircumflex" unicode="&#xc2;" horiz-adv-x="457" 
d="M25 0zM445 111q-27 -35 -36 -112h-125q-7 76 -34 112h47l-14 77h-101l-12 -77h49q-27 -36 -34 -112h-126q-7 76 -34 112h39l84 535h-38q27 34 34 111h159q7 -76 35 -111h-39l105 -535h41zM264 282l-37 190l-31 -190h68zM395 838h-100l-65 77l-61 -77h-100l86 121h153z
" />
    <glyph glyph-name="Atilde" unicode="&#xc3;" horiz-adv-x="457" 
d="M25 0zM445 111q-27 -35 -36 -112h-125q-7 76 -34 112h47l-14 77h-101l-12 -77h49q-27 -36 -34 -112h-126q-7 76 -34 112h39l84 535h-38q27 34 34 111h159q7 -76 35 -111h-39l105 -535h41zM264 282l-37 190l-31 -190h68zM413 962q0 -51 -29 -84.5t-79 -33.5q-17 0 -45 10
t-56 22t-51 22t-30 10q-12 0 -20 -2.5t-14 -9.5t-10.5 -19.5t-9.5 -31.5h-17q3 117 106 117q17 0 44.5 -9.5t55 -21.5t51.5 -21.5t33 -9.5q39 0 53 62h18z" />
    <glyph glyph-name="Adieresis" unicode="&#xc4;" horiz-adv-x="457" 
d="M25 0zM445 111q-27 -35 -36 -112h-125q-7 76 -34 112h47l-14 77h-101l-12 -77h49q-27 -36 -34 -112h-126q-7 76 -34 112h39l84 535h-38q27 34 34 111h159q7 -76 35 -111h-39l105 -535h41zM264 282l-37 190l-31 -190h68zM395 902q0 -24 -19 -38t-42 -14q-25 0 -44 14
t-19 38q0 23 19.5 37.5t43.5 14.5q23 0 42 -14.5t19 -37.5zM194 902q0 -24 -19 -38t-42 -14q-24 0 -43.5 14t-19.5 38t19 38t44 14q23 0 42 -14.5t19 -37.5z" />
    <glyph glyph-name="Aring" unicode="&#xc5;" horiz-adv-x="457" 
d="M25 0zM445 111q-27 -35 -36 -112h-125q-7 76 -34 112h47l-14 77h-101l-12 -77h49q-27 -36 -34 -112h-126q-7 76 -34 112h39l84 535h-38q27 34 34 111h159q7 -76 35 -111h-39l105 -535h41zM264 282l-37 190l-31 -190h68zM343 897q0 -23 -9 -41.5t-24 -32.5t-35 -21.5
t-42 -7.5t-42 8t-35.5 22t-24.5 32.5t-9 40.5t9 41t24 32.5t35 21t43 7.5q22 0 42 -7.5t35 -21t24 -32.5t9 -41zM303 897q0 28 -21.5 46.5t-48.5 18.5q-29 0 -50 -18t-21 -47q0 -28 21 -46.5t50 -18.5q27 0 48.5 18.5t21.5 46.5z" />
    <glyph glyph-name="AE" unicode="&#xc6;" horiz-adv-x="690" 
d="M670 111q-27 -35 -36 -112h-350q0 37 -11.5 63t-22.5 49h33v77h-101l-12 -77h49q-27 -36 -34 -112h-126q-7 76 -34 112h39l84 535h-38q27 34 34 111h490q9 -78 36 -111h-36v-103q-34 20 -61 20q-29 0 -64 -20v103h-100v-205h182q-18 -24 -18 -47q0 -24 18 -46h-182v-237
h100v102q35 -20 64 -20q27 0 61 20v-102h36zM196 282h88v362h-41z" />
    <glyph glyph-name="Ccedilla" unicode="&#xc7;" horiz-adv-x="450" 
d="M25 0zM445 111q-27 -35 -36 -112h-350q-7 76 -34 112h34v535h-34q27 34 34 111h350q9 -78 36 -111h-36v-103q-34 20 -61 20t-64 -20v103h-99v-535h99v102q37 -20 64 -20t61 20v-102h36zM309 -91q0 -63 -26 -86.5t-90 -23.5v28q20 0 30.5 7.5t10.5 29.5q-37 0 -55.5 18.5
t-18.5 44.5q0 25 19.5 43.5t54.5 18.5t55 -21t20 -59z" />
    <glyph glyph-name="Egrave" unicode="&#xc8;" horiz-adv-x="454" 
d="M25 0zM445 111q-27 -35 -36 -112h-350q-7 76 -34 112h34v535h-34q27 34 34 111h350q9 -78 36 -111h-36v-103q-34 20 -61 20t-64 -20v103h-99v-205h181q-18 -24 -18 -47q0 -24 18 -46h-181v-237h99v102q37 -20 64 -20t61 20v-102h36zM343 832h-97l-128 130h129z" />
    <glyph glyph-name="Eacute" unicode="&#xc9;" horiz-adv-x="454" 
d="M25 0zM445 111q-27 -35 -36 -112h-350q-7 76 -34 112h34v535h-34q27 34 34 111h350q9 -78 36 -111h-36v-103q-34 20 -61 20t-64 -20v103h-99v-205h181q-18 -24 -18 -47q0 -24 18 -46h-181v-237h99v102q37 -20 64 -20t61 20v-102h36zM344 962l-129 -130h-97l97 130h129z
" />
    <glyph glyph-name="Ecircumflex" unicode="&#xca;" horiz-adv-x="454" 
d="M25 0zM445 111q-27 -35 -36 -112h-350q-7 76 -34 112h34v535h-34q27 34 34 111h350q9 -78 36 -111h-36v-103q-34 20 -61 20t-64 -20v103h-99v-205h181q-18 -24 -18 -47q0 -24 18 -46h-181v-237h99v102q37 -20 64 -20t61 20v-102h36zM394 838h-100l-65 77l-61 -77h-100
l86 121h153z" />
    <glyph glyph-name="Edieresis" unicode="&#xcb;" horiz-adv-x="454" 
d="M25 0zM445 111q-27 -35 -36 -112h-350q-7 76 -34 112h34v535h-34q27 34 34 111h350q9 -78 36 -111h-36v-103q-34 20 -61 20t-64 -20v103h-99v-205h181q-18 -24 -18 -47q0 -24 18 -46h-181v-237h99v102q37 -20 64 -20t61 20v-102h36zM394 902q0 -24 -19 -38t-42 -14
q-25 0 -44 14t-19 38q0 23 19.5 37.5t43.5 14.5q23 0 42 -14.5t19 -37.5zM193 902q0 -24 -19 -38t-42 -14q-24 0 -43.5 14t-19.5 38t19 38t44 14q23 0 42 -14.5t19 -37.5z" />
    <glyph glyph-name="Igrave" unicode="&#xcc;" horiz-adv-x="243" 
d="M13 0zM219 111q-27 -36 -34 -112h-126q-7 76 -34 112h34v535h-34q27 34 34 111h126q7 -77 34 -111h-34v-535h34zM238 832h-97l-128 130h129z" />
    <glyph glyph-name="Iacute" unicode="&#xcd;" horiz-adv-x="243" 
d="M12 0zM219 111q-27 -36 -34 -112h-126q-7 76 -34 112h34v535h-34q27 34 34 111h126q7 -77 34 -111h-34v-535h34zM238 962l-129 -130h-97l97 130h129z" />
    <glyph glyph-name="Icircumflex" unicode="&#xce;" horiz-adv-x="243" 
d="M0 0zM219 111q-27 -36 -34 -112h-126q-7 76 -34 112h34v535h-34q27 34 34 111h126q7 -77 34 -111h-34v-535h34zM288 838h-100l-65 77l-61 -77h-100l86 121h153z" />
    <glyph glyph-name="Idieresis" unicode="&#xcf;" horiz-adv-x="243" 
d="M0 0zM219 111q-27 -36 -34 -112h-126q-7 76 -34 112h34v535h-34q27 34 34 111h126q7 -77 34 -111h-34v-535h34zM287 902q0 -24 -19 -38t-42 -14q-25 0 -44 14t-19 38q0 23 19.5 37.5t43.5 14.5q23 0 42 -14.5t19 -37.5zM86 902q0 -24 -19 -38t-42 -14q-24 0 -43.5 14
t-19.5 38t19 38t44 14q23 0 42 -14.5t19 -37.5z" />
    <glyph glyph-name="Eth" unicode="&#xd0;" horiz-adv-x="409" 
d="M409 140q-16 -1 -33.5 -16t-32 -36.5t-24 -45.5t-10.5 -43h-250q-7 76 -34 112h34v237h-44q16 25 16 46q0 19 -16 47h44v205h-34q27 36 34 111h250q0 -24 7.5 -49t21 -45t31.5 -32.5t40 -12.5v-478zM185 348v-237h48q0 9 4 22t11 25t16.5 20.5t19.5 8.5v383
q-10 0 -19.5 8.5t-16.5 20.5t-11 25t-4 22h-48v-205h57q-11 -27 -11 -47q0 -19 11 -46h-57z" />
    <glyph glyph-name="Ntilde" unicode="&#xd1;" 
d="M25 0zM445 111q-27 -35 -36 -112h-125q-7 76 -34 112h34v24l-99 260v-284h34q-27 -36 -34 -112h-126q-7 76 -34 112h34v535h-34q27 34 34 111h126q7 -77 34 -111h-30l95 -246v246h-34q27 34 34 111h125q9 -78 36 -111h-36v-535h36zM418 962q0 -51 -29 -84.5t-79 -33.5
q-17 0 -45 10t-56 22t-51 22t-30 10q-12 0 -20 -2.5t-14 -9.5t-10.5 -19.5t-9.5 -31.5h-17q3 117 106 117q17 0 44.5 -9.5t55 -21.5t51.5 -21.5t33 -9.5q39 0 53 62h18z" />
    <glyph glyph-name="Ograve" unicode="&#xd2;" 
d="M25 0zM445 111q-27 -35 -36 -112h-350q-7 76 -34 112h34v535h-34q27 34 34 111h350q9 -78 36 -111h-36v-535h36zM284 111v535h-99v-535h99zM351 832h-97l-128 130h129z" />
    <glyph glyph-name="Oacute" unicode="&#xd3;" 
d="M25 0zM445 111q-27 -35 -36 -112h-350q-7 76 -34 112h34v535h-34q27 34 34 111h350q9 -78 36 -111h-36v-535h36zM284 111v535h-99v-535h99zM350 962l-129 -130h-97l97 130h129z" />
    <glyph glyph-name="Ocircumflex" unicode="&#xd4;" 
d="M25 0zM445 111q-27 -35 -36 -112h-350q-7 76 -34 112h34v535h-34q27 34 34 111h350q9 -78 36 -111h-36v-535h36zM284 111v535h-99v-535h99zM400 838h-100l-65 77l-61 -77h-100l86 121h153z" />
    <glyph glyph-name="Otilde" unicode="&#xd5;" 
d="M25 0zM445 111q-27 -35 -36 -112h-350q-7 76 -34 112h34v535h-34q27 34 34 111h350q9 -78 36 -111h-36v-535h36zM284 111v535h-99v-535h99zM418 962q0 -51 -29 -84.5t-79 -33.5q-17 0 -45 10t-56 22t-51 22t-30 10q-12 0 -20 -2.5t-14 -9.5t-10.5 -19.5t-9.5 -31.5h-17
q3 117 106 117q17 0 44.5 -9.5t55 -21.5t51.5 -21.5t33 -9.5q39 0 53 62h18z" />
    <glyph glyph-name="Odieresis" unicode="&#xd6;" 
d="M25 0zM445 111q-27 -35 -36 -112h-350q-7 76 -34 112h34v535h-34q27 34 34 111h350q9 -78 36 -111h-36v-535h36zM284 111v535h-99v-535h99zM399 902q0 -24 -19 -38t-42 -14q-25 0 -44 14t-19 38q0 23 19.5 37.5t43.5 14.5q23 0 42 -14.5t19 -37.5zM198 902q0 -24 -19 -38
t-42 -14q-24 0 -43.5 14t-19.5 38t19 38t44 14q23 0 42 -14.5t19 -37.5z" />
    <glyph glyph-name="Oslash" unicode="&#xd8;" 
d="M445 111q-27 -35 -36 -112h-350q-7 76 -34 112h34v535h-34q27 34 34 111h350q9 -78 36 -111h-36v-535h36zM284 111v319l-99 -166v-153h99zM185 324l99 174v148h-99v-322z" />
    <glyph glyph-name="Ugrave" unicode="&#xd9;" 
d="M25 0zM445 111q-27 -35 -36 -112h-350q-7 76 -34 112h34v535h-34q27 34 34 111h126q7 -77 34 -111h-34v-535h99v535h-34q27 34 34 111h125q9 -78 36 -111h-36v-535h36zM351 832h-97l-128 130h129z" />
    <glyph glyph-name="Uacute" unicode="&#xda;" 
d="M25 0zM445 111q-27 -35 -36 -112h-350q-7 76 -34 112h34v535h-34q27 34 34 111h126q7 -77 34 -111h-34v-535h99v535h-34q27 34 34 111h125q9 -78 36 -111h-36v-535h36zM350 962l-129 -130h-97l97 130h129z" />
    <glyph glyph-name="Ucircumflex" unicode="&#xdb;" 
d="M25 0zM445 111q-27 -35 -36 -112h-350q-7 76 -34 112h34v535h-34q27 34 34 111h126q7 -77 34 -111h-34v-535h99v535h-34q27 34 34 111h125q9 -78 36 -111h-36v-535h36zM400 838h-100l-65 77l-61 -77h-100l86 121h153z" />
    <glyph glyph-name="Udieresis" unicode="&#xdc;" 
d="M25 0zM445 111q-27 -35 -36 -112h-350q-7 76 -34 112h34v535h-34q27 34 34 111h126q7 -77 34 -111h-34v-535h99v535h-34q27 34 34 111h125q9 -78 36 -111h-36v-535h36zM399 902q0 -24 -19 -38t-42 -14q-25 0 -44 14t-19 38q0 23 19.5 37.5t43.5 14.5q23 0 42 -14.5
t19 -37.5zM198 902q0 -24 -19 -38t-42 -14q-24 0 -43.5 14t-19.5 38t19 38t44 14q23 0 42 -14.5t19 -37.5z" />
    <glyph glyph-name="Yacute" unicode="&#xdd;" horiz-adv-x="459" 
d="M25 0zM399 646l-102 -330v-205h34q-26 -34 -34 -112h-125q-9 77 -36 112h36v205l-101 330h-46q27 34 34 111h126q7 -77 34 -111h-39l54 -203l55 203h-39q27 34 34 111h125q9 -78 36 -111h-46zM347 962l-129 -130h-97l97 130h129z" />
    <glyph glyph-name="Thorn" unicode="&#xde;" horiz-adv-x="449" 
d="M59 645h-34q27 36 34 112h126q7 -76 34 -112h-34v-28q15 -27 39.5 -49t54.5 -38.5t63.5 -25.5t66.5 -9v-234q-33 0 -66.5 -9t-63.5 -25.5t-54.5 -38.5t-39.5 -49v-28h34q-27 -36 -34 -112h-126q-7 76 -34 112h34v534zM284 424q-49 0 -99 62v-216q50 62 99 62v92z" />
    <glyph glyph-name="germandbls" unicode="&#xdf;" horiz-adv-x="738" 
d="M356 164q-22 -26 -28 -88h-281q-6 62 -28 88h28v82q28 -15 51 -15t50 15v-82h79v167h-5q-25 0 -50 10l-52 19q-32 9 -73 9v223h-28q22 28 28 90h281q6 -62 28 -90h-28v-80q-20 19 -49 19q-27 0 -52 -19v80h-79v-155q24 0 44 -6t40 -12.5t43 -12.5t53 -6v-236h28zM725 164
q-22 -26 -28 -88h-280q-6 60 -29 88h29v82q27 -15 50 -15t50 15v-82h79v167h-5q-25 0 -50 10l-52 19q-32 9 -72 9v223h-29q23 29 29 90h280q6 -62 28 -90h-28v-80q-20 19 -48 19t-53 -19v80h-79v-155q24 0 44 -6t40.5 -12.5t43.5 -12.5t52 -6v-236h28zM744 -2h-744v60h744
v-60zM744 696h-744v60h744v-60z" />
    <glyph glyph-name="agrave" unicode="&#xe0;" horiz-adv-x="366" 
d="M0 0zM356 164q-22 -26 -28 -88h-101q-6 61 -27 88h38l-12 62h-80l-10 -62h39q-21 -27 -27 -88h-101q-6 62 -28 88h32l67 428h-30q20 26 28 90h127q8 -62 28 -90h-32l84 -428h33zM212 301l-31 153l-24 -153h55zM368 696h-368v60h368v-60zM368 -2h-368v60h368v-60zM255 775
h-97l-128 130h129z" />
    <glyph glyph-name="aacute" unicode="&#xe1;" horiz-adv-x="366" 
d="M0 0zM356 164q-22 -26 -28 -88h-101q-6 61 -27 88h38l-12 62h-80l-10 -62h39q-21 -27 -27 -88h-101q-6 62 -28 88h32l67 428h-30q20 26 28 90h127q8 -62 28 -90h-32l84 -428h33zM212 301l-31 153l-24 -153h55zM368 696h-368v60h368v-60zM368 -2h-368v60h368v-60zM320 912
l-129 -130h-97l97 130h129z" />
    <glyph glyph-name="acircumflex" unicode="&#xe2;" horiz-adv-x="366" 
d="M0 0zM356 164q-22 -26 -28 -88h-101q-6 61 -27 88h38l-12 62h-80l-10 -62h39q-21 -27 -27 -88h-101q-6 62 -28 88h32l67 428h-30q20 26 28 90h127q8 -62 28 -90h-32l84 -428h33zM212 301l-31 153l-24 -153h55zM368 696h-368v60h368v-60zM368 -2h-368v60h368v-60zM353 786
h-100l-65 77l-61 -77h-100l86 121h153z" />
    <glyph glyph-name="atilde" unicode="&#xe3;" horiz-adv-x="366" 
d="M0 0zM356 164q-22 -26 -28 -88h-101q-6 61 -27 88h38l-12 62h-80l-10 -62h39q-21 -27 -27 -88h-101q-6 62 -28 88h32l67 428h-30q20 26 28 90h127q8 -62 28 -90h-32l84 -428h33zM212 301l-31 153l-24 -153h55zM368 696h-368v60h368v-60zM368 -2h-368v60h368v-60zM371 903
q0 -51 -29 -84.5t-79 -33.5q-17 0 -45 10t-56 22t-51 22t-30 10q-12 0 -20 -2.5t-14 -9.5t-10.5 -19.5t-9.5 -31.5h-17q3 117 106 117q17 0 44.5 -9.5t55 -21.5t51.5 -21.5t33 -9.5q39 0 53 62h18z" />
    <glyph glyph-name="adieresis" unicode="&#xe4;" horiz-adv-x="366" 
d="M0 0zM356 164q-22 -26 -28 -88h-101q-6 61 -27 88h38l-12 62h-80l-10 -62h39q-21 -27 -27 -88h-101q-6 62 -28 88h32l67 428h-30q20 26 28 90h127q8 -62 28 -90h-32l84 -428h33zM212 301l-31 153l-24 -153h55zM368 696h-368v60h368v-60zM368 -2h-368v60h368v-60zM349 840
q0 -24 -19 -38t-42 -14q-25 0 -44 14t-19 38q0 23 19.5 37.5t43.5 14.5q23 0 42 -14.5t19 -37.5zM148 840q0 -24 -19 -38t-42 -14q-24 0 -43.5 14t-19.5 38t19 38t44 14q23 0 42 -14.5t19 -37.5z" />
    <glyph glyph-name="aring" unicode="&#xe5;" horiz-adv-x="366" 
d="M356 164q-22 -26 -28 -88h-101q-6 61 -27 88h38l-12 62h-80l-10 -62h39q-21 -27 -27 -88h-101q-6 62 -28 88h32l67 428h-30q20 26 28 90h127q8 -62 28 -90h-32l84 -428h33zM296 821q0 -23 -9 -41.5t-24 -32.5t-35 -21.5t-42 -7.5t-42 8t-35.5 22t-24.5 32.5t-9 40.5t9 41
t24 32.5t35 21t43 7.5q22 0 42 -7.5t35 -21t24 -32.5t9 -41zM368 -2h-368v60h368v-60zM256 821q0 28 -21.5 46.5t-48.5 18.5q-29 0 -50 -18t-21 -47q0 -28 21 -46.5t50 -18.5q27 0 48.5 18.5t21.5 46.5zM368 696h-137q22 8 39 24t28 36h70v-60zM0 756h70q22 -43 66 -60h-136
v60zM212 301l-31 153l-24 -153h55z" />
    <glyph glyph-name="ae" unicode="&#xe6;" horiz-adv-x="548" 
d="M537 164q-22 -26 -28 -88h-282q-6 61 -27 88h28v62h-82l-10 -62h39q-21 -27 -27 -88h-101q-6 62 -28 88h32l67 428h-30q20 26 28 90h393q6 -64 28 -90h-28v-82q-26 17 -50 17q-22 0 -51 -17v82h-79v-164h146q-16 -19 -16 -37q0 -20 16 -37h-146v-190h79v82q28 -15 51 -15
q24 0 50 15v-82h28zM548 -2h-548v60h548v-60zM548 696h-548v60h548v-60zM157 301h71v291h-36z" />
    <glyph glyph-name="ccedilla" unicode="&#xe7;" horiz-adv-x="360" 
d="M0 0zM356 164q-22 -26 -28 -88h-281q-6 62 -28 88h28v428h-28q22 26 28 90h281q6 -64 28 -90h-28v-82q-26 17 -50 17q-22 0 -51 -17v82h-79v-428h79v82q28 -15 51 -15q24 0 50 15v-82h28zM367 696h-367v60h367v-60zM367 -2h-367v60h367v-60zM264 -91q0 -63 -26 -86.5
t-90 -23.5v28q20 0 30.5 7.5t10.5 29.5q-37 0 -55.5 18.5t-18.5 44.5q0 25 19.5 43.5t54.5 18.5t55 -21t20 -59z" />
    <glyph glyph-name="egrave" unicode="&#xe8;" horiz-adv-x="363" 
d="M0 0zM356 164q-22 -26 -28 -88h-281q-6 62 -28 88h28v428h-28q22 26 28 90h281q6 -64 28 -90h-28v-82q-26 17 -50 17q-22 0 -51 -17v82h-79v-164h145q-15 -20 -15 -37q0 -19 15 -37h-145v-190h79v82q28 -15 51 -15q24 0 50 15v-82h28zM367 696h-367v60h367v-60zM367 -2
h-367v60h367v-60zM288 783h-97l-128 130h129z" />
    <glyph glyph-name="eacute" unicode="&#xe9;" horiz-adv-x="363" 
d="M0 0zM356 164q-22 -26 -28 -88h-281q-6 62 -28 88h28v428h-28q22 26 28 90h281q6 -64 28 -90h-28v-82q-26 17 -50 17q-22 0 -51 -17v82h-79v-164h145q-15 -20 -15 -37q0 -19 15 -37h-145v-190h79v82q28 -15 51 -15q24 0 50 15v-82h28zM367 696h-367v60h367v-60zM367 -2
h-367v60h367v-60zM315 914l-129 -130h-97l97 130h129z" />
    <glyph glyph-name="ecircumflex" unicode="&#xea;" horiz-adv-x="363" 
d="M0 0zM356 164q-22 -26 -28 -88h-281q-6 62 -28 88h28v428h-28q22 26 28 90h281q6 -64 28 -90h-28v-82q-26 17 -50 17q-22 0 -51 -17v82h-79v-164h145q-15 -20 -15 -37q0 -19 15 -37h-145v-190h79v82q28 -15 51 -15q24 0 50 15v-82h28zM367 696h-367v60h367v-60zM367 -2
h-367v60h367v-60zM353 782h-100l-65 77l-61 -77h-100l86 121h153z" />
    <glyph glyph-name="edieresis" unicode="&#xeb;" horiz-adv-x="363" 
d="M0 0zM356 164q-22 -26 -28 -88h-281q-6 62 -28 88h28v428h-28q22 26 28 90h281q6 -64 28 -90h-28v-82q-26 17 -50 17q-22 0 -51 -17v82h-79v-164h145q-15 -20 -15 -37q0 -19 15 -37h-145v-190h79v82q28 -15 51 -15q24 0 50 15v-82h28zM367 696h-367v60h367v-60zM367 -2
h-367v60h367v-60zM347 826q0 -24 -19 -38t-42 -14q-25 0 -44 14t-19 38q0 23 19.5 37.5t43.5 14.5q23 0 42 -14.5t19 -37.5zM146 826q0 -24 -19 -38t-42 -14q-24 0 -43.5 14t-19.5 38t19 38t44 14q23 0 42 -14.5t19 -37.5z" />
    <glyph glyph-name="igrave" unicode="&#xec;" horiz-adv-x="194" 
d="M0 0zM175 164q-21 -27 -27 -88h-101q-6 62 -28 88h28v428h-28q22 26 28 90h101q6 -63 27 -90h-27v-428h27zM200 696h-200v60h200v-60zM200 -2h-200v60h200v-60zM199 787h-97l-128 130h129z" />
    <glyph glyph-name="iacute" unicode="&#xed;" horiz-adv-x="194" 
d="M0 0zM175 164q-21 -27 -27 -88h-101q-6 62 -28 88h28v428h-28q22 26 28 90h101q6 -63 27 -90h-27v-428h27zM200 696h-200v60h200v-60zM200 -2h-200v60h200v-60zM217 908l-129 -130h-97l97 130h129z" />
    <glyph glyph-name="icircumflex" unicode="&#xee;" horiz-adv-x="194" 
d="M0 0zM175 164q-21 -27 -27 -88h-101q-6 62 -28 88h28v428h-28q22 26 28 90h101q6 -63 27 -90h-27v-428h27zM200 696h-200v60h200v-60zM200 -2h-200v60h200v-60zM270 799h-100l-65 77l-61 -77h-100l86 121h153z" />
    <glyph glyph-name="idieresis" unicode="&#xef;" horiz-adv-x="194" 
d="M0 0zM175 164q-21 -27 -27 -88h-101q-6 62 -28 88h28v428h-28q22 26 28 90h101q6 -63 27 -90h-27v-428h27zM200 696h-200v60h200v-60zM200 -2h-200v60h200v-60zM269 846q0 -24 -19 -38t-42 -14q-25 0 -44 14t-19 38q0 23 19.5 37.5t43.5 14.5q23 0 42 -14.5t19 -37.5z
M68 846q0 -24 -19 -38t-42 -14q-24 0 -43.5 14t-19.5 38t19 38t44 14q23 0 42 -14.5t19 -37.5z" />
    <glyph glyph-name="eth" unicode="&#xf0;" horiz-adv-x="328" 
d="M328 187q-15 0 -29.5 -12.5t-26 -30t-18.5 -36.5t-7 -32h-200q-6 62 -28 88h28v182h-38q13 22 13 40q0 17 -13 42h38v164h-28q22 28 28 90h200q0 -21 6.5 -41.5t17.5 -36.5t25.5 -25.5t31.5 -9.5v-382zM148 346v-182h39q0 7 3.5 17.5t9.5 20.5t13 16.5t14 6.5v306
q-8 1 -15 7.5t-12.5 15.5t-9 19t-3.5 19h-39v-164h60q-9 -23 -9 -42q0 -18 9 -40h-60zM338 -2h-338v60h338v-60zM338 696h-338v60h338v-60z" />
    <glyph glyph-name="ntilde" unicode="&#xf1;" horiz-adv-x="374" 
d="M0 0zM356 164q-22 -26 -28 -88h-101q-6 61 -27 88h27v19l-79 209v-228h27q-21 -27 -27 -88h-101q-6 62 -28 88h28v428h-28q22 26 28 90h101q6 -63 27 -90h-24l76 -196v196h-27q21 27 27 90h101q6 -64 28 -90h-28v-428h28zM376 696h-376v60h376v-60zM376 -2h-376v60h376
v-60zM372 886q0 -51 -29 -84.5t-79 -33.5q-17 0 -45 10t-56 22t-51 22t-30 10q-12 0 -20 -2.5t-14 -9.5t-10.5 -19.5t-9.5 -31.5h-17q3 117 106 117q17 0 44.5 -9.5t55 -21.5t51.5 -21.5t33 -9.5q39 0 53 62h18z" />
    <glyph glyph-name="ograve" unicode="&#xf2;" horiz-adv-x="374" 
d="M0 0zM356 164q-22 -26 -28 -88h-281q-6 62 -28 88h28v428h-28q22 26 28 90h281q6 -64 28 -90h-28v-428h28zM227 164v428h-79v-428h79zM381 696h-381v60h381v-60zM381 -2h-381v60h381v-60zM287 784h-97l-128 130h129z" />
    <glyph glyph-name="oacute" unicode="&#xf3;" horiz-adv-x="374" 
d="M0 0zM356 164q-22 -26 -28 -88h-281q-6 62 -28 88h28v428h-28q22 26 28 90h281q6 -64 28 -90h-28v-428h28zM227 164v428h-79v-428h79zM381 696h-381v60h381v-60zM381 -2h-381v60h381v-60zM313 908l-129 -130h-97l97 130h129z" />
    <glyph glyph-name="ocircumflex" unicode="&#xf4;" horiz-adv-x="374" 
d="M0 0zM356 164q-22 -26 -28 -88h-281q-6 62 -28 88h28v428h-28q22 26 28 90h281q6 -64 28 -90h-28v-428h28zM227 164v428h-79v-428h79zM381 696h-381v60h381v-60zM381 -2h-381v60h381v-60zM356 782h-100l-65 77l-61 -77h-100l86 121h153z" />
    <glyph glyph-name="otilde" unicode="&#xf5;" horiz-adv-x="374" 
d="M0 0zM356 164q-22 -26 -28 -88h-281q-6 62 -28 88h28v428h-28q22 26 28 90h281q6 -64 28 -90h-28v-428h28zM227 164v428h-79v-428h79zM381 696h-381v60h381v-60zM381 -2h-381v60h381v-60zM372 886q0 -51 -29 -84.5t-79 -33.5q-17 0 -45 10t-56 22t-51 22t-30 10
q-12 0 -20 -2.5t-14 -9.5t-10.5 -19.5t-9.5 -31.5h-17q3 117 106 117q17 0 44.5 -9.5t55 -21.5t51.5 -21.5t33 -9.5q39 0 53 62h18z" />
    <glyph glyph-name="odieresis" unicode="&#xf6;" horiz-adv-x="374" 
d="M0 0zM356 164q-22 -26 -28 -88h-281q-6 62 -28 88h28v428h-28q22 26 28 90h281q6 -64 28 -90h-28v-428h28zM227 164v428h-79v-428h79zM381 696h-381v60h381v-60zM381 -2h-381v60h381v-60zM353 826q0 -24 -19 -38t-42 -14q-25 0 -44 14t-19 38q0 23 19.5 37.5t43.5 14.5
q23 0 42 -14.5t19 -37.5zM152 826q0 -24 -19 -38t-42 -14q-24 0 -43.5 14t-19.5 38t19 38t44 14q23 0 42 -14.5t19 -37.5z" />
    <glyph glyph-name="oslash" unicode="&#xf8;" horiz-adv-x="374" 
d="M356 164q-22 -26 -28 -88h-281q-6 62 -28 88h28v428h-28q22 26 28 90h281q6 -64 28 -90h-28v-428h28zM381 -2h-381v60h381v-60zM381 696h-381v60h381v-60zM148 341l79 150v101h-79v-251zM227 164v238l-79 -143v-95h79z" />
    <glyph glyph-name="ugrave" unicode="&#xf9;" horiz-adv-x="374" 
d="M0 0zM356 164q-22 -26 -28 -88h-281q-6 62 -28 88h28v428h-28q22 26 28 90h101q6 -63 27 -90h-27v-428h79v428h-27q21 27 27 90h101q6 -64 28 -90h-28v-428h28zM379 696h-379v60h379v-60zM379 -2h-379v60h379v-60zM287 784h-97l-128 130h129z" />
    <glyph glyph-name="uacute" unicode="&#xfa;" horiz-adv-x="374" 
d="M0 0zM356 164q-22 -26 -28 -88h-281q-6 62 -28 88h28v428h-28q22 26 28 90h101q6 -63 27 -90h-27v-428h79v428h-27q21 27 27 90h101q6 -64 28 -90h-28v-428h28zM379 696h-379v60h379v-60zM379 -2h-379v60h379v-60zM324 917l-129 -130h-97l97 130h129z" />
    <glyph glyph-name="ucircumflex" unicode="&#xfb;" horiz-adv-x="374" 
d="M0 0zM356 164q-22 -26 -28 -88h-281q-6 62 -28 88h28v428h-28q22 26 28 90h101q6 -63 27 -90h-27v-428h79v428h-27q21 27 27 90h101q6 -64 28 -90h-28v-428h28zM379 696h-379v60h379v-60zM379 -2h-379v60h379v-60zM359 790h-100l-65 77l-61 -77h-100l86 121h153z" />
    <glyph glyph-name="udieresis" unicode="&#xfc;" horiz-adv-x="374" 
d="M0 0zM356 164q-22 -26 -28 -88h-281q-6 62 -28 88h28v428h-28q22 26 28 90h101q6 -63 27 -90h-27v-428h79v428h-27q21 27 27 90h101q6 -64 28 -90h-28v-428h28zM379 696h-379v60h379v-60zM379 -2h-379v60h379v-60zM353 826q0 -24 -19 -38t-42 -14q-25 0 -44 14t-19 38
q0 23 19.5 37.5t43.5 14.5q23 0 42 -14.5t19 -37.5zM152 826q0 -24 -19 -38t-42 -14q-24 0 -43.5 14t-19.5 38t19 38t44 14q23 0 42 -14.5t19 -37.5z" />
    <glyph glyph-name="yacute" unicode="&#xfd;" horiz-adv-x="367" 
d="M0 0zM318 592l-81 -264v-164h28q-20 -26 -28 -88h-100q-8 62 -28 88h28v164l-80 264h-38q22 26 28 90h101q6 -63 27 -90h-31l43 -162l44 162h-31q21 27 27 90h101q6 -64 28 -90h-38zM372 696h-372v60h372v-60zM372 -2h-372v60h372v-60zM326 914l-129 -130h-97l97 130h129
z" />
    <glyph glyph-name="thorn" unicode="&#xfe;" horiz-adv-x="359" 
d="M47 594h-28q22 26 28 88h101q6 -61 27 -88h-27v-24q13 -23 33 -41t44 -31t50.5 -20t52.5 -7v-184q-26 0 -52.5 -7t-50.5 -20t-44 -31.5t-33 -40.5v-24h27q-21 -27 -27 -88h-101q-6 62 -28 88h28v430zM367 696h-367v60h367v-60zM367 -2h-367v60h367v-60zM227 415
q-40 0 -79 49v-170q39 49 79 49v72z" />
    <glyph glyph-name="ydieresis" unicode="&#xff;" horiz-adv-x="367" 
d="M0 0zM318 592l-81 -264v-164h28q-20 -26 -28 -88h-100q-8 62 -28 88h28v164l-80 264h-38q22 26 28 90h101q6 -63 27 -90h-31l43 -162l44 162h-31q21 27 27 90h101q6 -64 28 -90h-38zM372 696h-372v60h372v-60zM372 -2h-372v60h372v-60zM352 841q0 -24 -19 -38t-42 -14
q-25 0 -44 14t-19 38q0 23 19.5 37.5t43.5 14.5q23 0 42 -14.5t19 -37.5zM151 841q0 -24 -19 -38t-42 -14q-24 0 -43.5 14t-19.5 38t19 38t44 14q23 0 42 -14.5t19 -37.5z" />
    <glyph glyph-name="dotlessi" unicode="&#x131;" horiz-adv-x="194" 
d="M175 164q-21 -27 -27 -88h-101q-6 62 -28 88h28v428h-28q22 26 28 90h101q6 -63 27 -90h-27v-428h27zM200 696h-200v60h200v-60zM200 -2h-200v60h200v-60z" />
    <glyph glyph-name="Lslash" unicode="&#x141;" horiz-adv-x="445" 
d="M185 432v-321h99v102q37 -20 64 -20t61 20v-102h36q-27 -35 -36 -112h-350q-7 76 -34 112h34v535h-34q27 34 34 111h126q7 -77 34 -111h-34v-121h106q-11 -27 -11 -47q0 -19 11 -46h-106z" />
    <glyph glyph-name="lslash" unicode="&#x142;" horiz-adv-x="356" 
d="M148 425v-261h79v82q28 -15 51 -15q24 0 50 15v-82h28q-22 -26 -28 -88h-281q-6 62 -28 88h28v428h-28q22 26 28 90h101q6 -63 27 -90h-27v-90h107q-9 -21 -9 -39q0 -17 9 -38h-107zM367 696h-367v60h367v-60zM367 -2h-367v60h367v-60z" />
    <glyph glyph-name="OE" unicode="&#x152;" horiz-adv-x="685" 
d="M671 111q-28 -35 -35 -112h-577q-7 76 -34 112h34v535h-34q27 34 34 111h577q7 -77 35 -111h-35v-103q-35 20 -62 20t-64 -20v103h-99v-205h181q-18 -24 -18 -47q0 -24 18 -46h-181v-237h99v102q37 -20 64 -20t62 20v-102h35zM284 111v535h-99v-535h99z" />
    <glyph glyph-name="oe" unicode="&#x153;" horiz-adv-x="548" 
d="M537 164q-22 -26 -28 -88h-462q-6 62 -28 88h28v428h-28q22 26 28 90h462q6 -64 28 -90h-28v-82q-26 17 -50 17q-22 0 -51 -17v82h-79v-164h146q-16 -19 -16 -37q0 -20 16 -37h-146v-190h79v82q28 -15 51 -15q24 0 50 15v-82h28zM227 164v428h-79v-428h79zM548 696h-548
v60h548v-60zM548 -2h-548v60h548v-60z" />
    <glyph glyph-name="Scaron" unicode="&#x160;" horiz-adv-x="462" 
d="M25 0zM445 111q-27 -35 -36 -112h-350q-7 76 -34 112h34v102q35 -20 64 -20q27 0 62 20v-102h99v209q-30 0 -55 7.5t-50.5 16t-54 16t-65.5 7.5v279h-34q27 34 34 111h350q9 -78 36 -111h-36v-100q-26 23 -60 23q-33 0 -65 -23v100h-99v-195q28 0 52.5 -7t50 -15.5
t53 -15.5t60.5 -7h8v-295h36zM69 903h100l65 -77l61 77h100l-86 -121h-153z" />
    <glyph glyph-name="scaron" unicode="&#x161;" horiz-adv-x="369" 
d="M0 0zM356 164q-22 -26 -28 -88h-281q-6 62 -28 88h28v82q28 -15 51 -15t50 15v-82h79v167q-24 0 -43.5 6t-40 13t-43.5 13t-53 6v223h-28q22 28 28 90h281q6 -62 28 -90h-28v-80q-20 19 -49 19q-27 0 -52 -19v80h-79v-155q24 0 44 -6t40 -12.5t43 -12.5t53 -6v-236h28z
M375 696h-375v60h375v-60zM375 -2h-375v60h375v-60zM23 911h100l65 -77l61 77h100l-86 -121h-153z" />
    <glyph glyph-name="Ydieresis" unicode="&#x178;" horiz-adv-x="459" 
d="M25 0zM399 646l-102 -330v-205h34q-26 -34 -34 -112h-125q-9 77 -36 112h36v205l-101 330h-46q27 34 34 111h126q7 -77 34 -111h-39l54 -203l55 203h-39q27 34 34 111h125q9 -78 36 -111h-46zM396 902q0 -24 -19 -38t-42 -14q-25 0 -44 14t-19 38q0 23 19.5 37.5
t43.5 14.5q23 0 42 -14.5t19 -37.5zM195 902q0 -24 -19 -38t-42 -14q-24 0 -43.5 14t-19.5 38t19 38t44 14q23 0 42 -14.5t19 -37.5z" />
    <glyph glyph-name="Zcaron" unicode="&#x17d;" horiz-adv-x="458" 
d="M24 0zM444 111q-27 -34 -36 -112h-350q-7 76 -34 112h34q0 35 15 78.5t39 92t54 100t59 102.5q30 51 44 92t14 70h-100v-100q-31 23 -65 23t-60 -23v100h-34q27 38 34 111h350q9 -75 36 -111h-36q0 -75 -58 -182l-109 -184q-58 -103 -58 -169h100v102q34 -20 61 -20
q29 0 64 20v-102h36zM67 903h100l65 -77l61 77h100l-86 -121h-153z" />
    <glyph glyph-name="zcaron" unicode="&#x17e;" horiz-adv-x="366" 
d="M0 0zM355 164q-22 -28 -28 -88h-281q-6 59 -27 88h27q0 75 90 224q90 150 90 204h-79v-80q-25 19 -52 19q-29 0 -49 -19v80h-27q21 28 27 90h281q6 -62 28 -90h-28q0 -72 -90 -219t-90 -209h79v82q27 -15 50 -15q22 0 51 15v-82h28zM372 696h-372v60h372v-60zM372 -2
h-372v60h372v-60zM21 911h100l65 -77l61 77h100l-86 -121h-153z" />
    <glyph glyph-name="circumflex" unicode="&#x2c6;" horiz-adv-x="697" 
d="M502 762h-100l-65 77l-61 -77h-100l86 121h153z" />
    <glyph glyph-name="caron" unicode="&#x2c7;" horiz-adv-x="697" 
d="M176 883h100l65 -77l61 77h100l-86 -121h-153z" />
    <glyph glyph-name="ring" unicode="&#x2da;" horiz-adv-x="676" 
d="M453 821q0 -23 -9 -41.5t-24 -32.5t-35 -21.5t-42 -7.5t-42 8t-35.5 22t-24.5 32.5t-9 40.5t9 41t24 32.5t35 21t43 7.5q22 0 42 -7.5t35 -21t24 -32.5t9 -41zM413 821q0 28 -21.5 46.5t-48.5 18.5q-29 0 -50 -18t-21 -47q0 -28 21 -46.5t50 -18.5q27 0 48.5 18.5
t21.5 46.5z" />
    <glyph glyph-name="tilde" unicode="&#x2dc;" horiz-adv-x="659" 
d="M514 886q0 -51 -29 -84.5t-79 -33.5q-17 0 -45 10t-56 22t-51 22t-30 10q-12 0 -20 -2.5t-14 -9.5t-10.5 -19.5t-9.5 -31.5h-17q3 117 106 117q17 0 44.5 -9.5t55 -21.5t51.5 -21.5t33 -9.5q39 0 53 62h18z" />
    <glyph glyph-name="endash" unicode="&#x2013;" horiz-adv-x="463" 
d="M37 348q16 25 16 46q0 19 -16 47h415q-11 -27 -11 -47q0 -19 11 -46h-415z" />
    <glyph glyph-name="emdash" unicode="&#x2014;" horiz-adv-x="763" 
d="M37 348q16 25 16 46q0 19 -16 47h715q-11 -27 -11 -47q0 -19 11 -46h-715z" />
    <glyph glyph-name="quoteleft" unicode="&#x2018;" horiz-adv-x="285" 
d="M37 705q0 64 9 106t28.5 67t51 34.5t76.5 9.5v-37q-59 0 -59 -73q21 0 40.5 -8.5t34.5 -23.5t23.5 -34.5t8.5 -40.5q0 -22 -8.5 -41t-23.5 -33.5t-34.5 -23t-40.5 -8.5q-22 0 -41 8.5t-33.5 23t-23 33.5t-8.5 41z" />
    <glyph glyph-name="quoteright" unicode="&#x2019;" horiz-adv-x="247" 
d="M12 600zM225 817q0 -65 -9 -106.5t-28.5 -66.5t-51.5 -34.5t-77 -9.5v37q59 0 59 73q-22 0 -41.5 8.5t-33.5 23t-22.5 34t-8.5 41.5q0 21 8.5 40.5t23 34t34 23t40.5 8.5t40.5 -8.5t34 -23.5t23.5 -34t9 -40z" />
    <glyph glyph-name="quotesinglbase" unicode="&#x201a;" horiz-adv-x="247" 
d="M12 0zM225 108q0 -65 -9 -106.5t-28.5 -66.5t-51.5 -34.5t-77 -9.5v37q59 0 59 73q-22 0 -41.5 8.5t-33.5 23t-22.5 34t-8.5 41.5q0 21 8.5 40.5t23 34t34 23t40.5 8.5t40.5 -8.5t34 -23.5t23.5 -34t9 -40z" />
    <glyph glyph-name="quotedblleft" unicode="&#x201c;" horiz-adv-x="510" 
d="M262 705q0 64 8.5 105.5t28 66.5t51 35t77.5 10v-37q-59 0 -59 -73q21 0 40.5 -8.5t34.5 -23.5t23.5 -34.5t8.5 -40.5q0 -22 -8.5 -41t-23.5 -33.5t-34.5 -23t-40.5 -8.5q-22 0 -41 8.5t-33.5 23t-23 33.5t-8.5 41zM37 705q0 64 9 106t28.5 67t51 34.5t76.5 9.5v-37
q-59 0 -59 -73q21 0 40.5 -8.5t34.5 -23.5t23.5 -34.5t8.5 -40.5q0 -22 -8.5 -41t-23.5 -33.5t-34.5 -23t-40.5 -8.5q-22 0 -41 8.5t-33.5 23t-23 33.5t-8.5 41z" />
    <glyph glyph-name="quotedblright" unicode="&#x201d;" horiz-adv-x="507" 
d="M32 600zM245 817q0 -65 -9 -106.5t-28.5 -66.5t-51.5 -34.5t-77 -9.5v37q59 0 59 73q-22 0 -41.5 8.5t-33.5 23t-22.5 34t-8.5 41.5q0 21 8.5 40.5t23 34t34 23t40.5 8.5t40.5 -8.5t34 -23.5t23.5 -34t9 -40zM470 817q0 -65 -9 -106.5t-28.5 -66.5t-51.5 -34.5t-77 -9.5
v37q59 0 59 73q-22 0 -41.5 8.5t-33.5 23t-22.5 34t-8.5 41.5q0 21 8.5 40.5t23 34t34 23t40.5 8.5t40.5 -8.5t34 -23.5t23.5 -34t9 -40z" />
    <glyph glyph-name="quotedblbase" unicode="&#x201e;" horiz-adv-x="507" 
d="M32 0zM245 107q0 -65 -9 -106.5t-28.5 -66.5t-51.5 -34.5t-77 -9.5v37q59 0 59 73q-22 0 -41.5 8.5t-33.5 23t-22.5 34t-8.5 41.5q0 21 8.5 40.5t23 34t34 23t40.5 8.5t40.5 -8.5t34 -23.5t23.5 -34t9 -40zM470 107q0 -65 -9 -106.5t-28.5 -66.5t-51.5 -34.5t-77 -9.5v37
q59 0 59 73q-22 0 -41.5 8.5t-33.5 23t-22.5 34t-8.5 41.5q0 21 8.5 40.5t23 34t34 23t40.5 8.5t40.5 -8.5t34 -23.5t23.5 -34t9 -40z" />
    <glyph glyph-name="bullet" unicode="&#x2022;" horiz-adv-x="567" 
d="M540 528l-136 -121l45 -176l-158 92l-154 -97l39 178l-139 116l181 17l66 170l73 -167z" />
    <glyph glyph-name="ellipsis" unicode="&#x2026;" horiz-adv-x="1203" 
d="M92 0zM305 107q0 -22 -8.5 -41.5t-23 -34t-34 -23t-41.5 -8.5t-41.5 8.5t-33.5 23t-22.5 34t-8.5 41.5q0 21 8.5 40.5t23 34t34 23t40.5 8.5t40.5 -8.5t34 -23.5t23.5 -34t9 -40zM707 107q0 -22 -8.5 -41.5t-23 -34t-34 -23t-41.5 -8.5t-41.5 8.5t-33.5 23t-22.5 34
t-8.5 41.5q0 21 8.5 40.5t23 34t34 23t40.5 8.5t40.5 -8.5t34 -23.5t23.5 -34t9 -40zM1110 107q0 -22 -8.5 -41.5t-23 -34t-34 -23t-41.5 -8.5t-41.5 8.5t-33.5 23t-22.5 34t-8.5 41.5q0 21 8.5 40.5t23 34t34 23t40.5 8.5t40.5 -8.5t34 -23.5t23.5 -34t9 -40z" />
    <glyph glyph-name="guilsinglleft" unicode="&#x2039;" horiz-adv-x="272" 
d="M112 357l121 -56v-71l-184 91v70l184 95v-73z" />
    <glyph glyph-name="guilsinglright" unicode="&#x203a;" horiz-adv-x="272" 
d="M169 360l-120 55v71l184 -91v-70l-184 -95v73z" />
    <glyph glyph-name="Euro" unicode="&#x20ac;" horiz-adv-x="450" 
d="M185 404v-37h145q-15 -26 -15 -46q0 -19 15 -44h-145v-166h99v102q37 -20 64 -20t61 20v-102h36q-27 -35 -36 -112h-350q-7 76 -34 112h34v535h-34q27 34 34 111h350q9 -78 36 -111h-36v-103q-34 20 -61 20t-64 -20v103h-99v-153h207q-16 -23 -16 -44q0 -22 16 -45h-207z
" />
    <glyph glyph-name="trademark" unicode="&#x2122;" horiz-adv-x="664" 
d="M205 573v-264h-70v264h-84v64h235v-64h-81zM530 490l-71 -182l-78 189v-187h-65v328h79l63 -169l62 169h76v-328h-66v180z" />
    <glyph glyph-name=".ttfautohint" horiz-adv-x="459" 
d="M0 0z" />
    </font>
</defs>
</svg>
