<?xml version="1.0" standalone="no"?>
<!DOCTYPE svg PUBLIC "-//W3C//DTD SVG 1.1//EN" "http://www.w3.org/Graphics/SVG/1.1/DTD/svg11.dtd" >
<svg xmlns="http://www.w3.org/2000/svg" xmlns:xlink="http://www.w3.org/1999/xlink" version="1.1">
<metadata>
Created by FontForge 20161013 at Thu Nov  6 04:32:48 2003
 By ,,,
Copyright (c) Stahls Inc, 2003. All rights reserved.
</metadata>
<defs>
<font id="StahlsTiffany-2000" horiz-adv-x="478" >
  <font-face 
    font-family="Stahls Tiffany - 2000"
    font-weight="400"
    font-stretch="normal"
    units-per-em="1000"
    panose-1="2 0 0 0 0 0 0 0 0 0"
    ascent="800"
    descent="-200"
    x-height="800"
    cap-height="800"
    bbox="-1 -51 750 802"
    underline-thickness="20"
    underline-position="-163"
    unicode-range="U+0020-007A"
  />
<missing-glyph horiz-adv-x="800" 
d="M50 0v800h700v-800h-700zM700 50v700h-600v-700h600z" />
    <glyph glyph-name=".notdef" horiz-adv-x="800" 
d="M50 0v800h700v-800h-700zM700 50v700h-600v-700h600z" />
    <glyph glyph-name=".null" horiz-adv-x="0" 
 />
    <glyph glyph-name="nonmarkingreturn" horiz-adv-x="262" 
 />
    <glyph glyph-name="space" unicode=" " horiz-adv-x="262" 
 />
    <glyph glyph-name="space" unicode="&#xa0;" horiz-adv-x="262" 
 />
    <glyph glyph-name="exclam" unicode="!" horiz-adv-x="150" 
d="M149 491l-9 -6l-6 -5q-3 -2 -6.5 -10.5t-4.5 -16.5l-21 -319h-51l-28 326q0 13 -5.5 22t-17.5 12q10 3 18 16q3 3 4 10t1 14v155l2 39q0 39 -26 65q14 7 27 7q16 0 28 -10t20 -27q9 17 21 27t28 10q13 0 26 -7q-26 -28 -26 -65v-7v-191q0 -22 11 -28zM132 48
q0 -20 -17 -34t-41 -14q-25 0 -42.5 14t-17.5 34q0 19 17.5 33t42.5 14t41.5 -13.5t16.5 -33.5z" />
    <glyph glyph-name="quotedbl" unicode="&#x22;" horiz-adv-x="278" 
d="M264 751q1 -7 1 -12q0 -21 -7 -40q-10 -28 -35 -44q-11 -5 -21 -9q2 4 3 7q9 20 9 32t-6 21q-5 -2 -15 -2q-18 0 -30 14t-12 33t16.5 32t40.5 13q20 2 37 -13.5t19 -31.5zM132 751q1 -7 1 -12q0 -21 -7 -40q-10 -28 -35 -44q-11 -5 -21 -9q2 4 3 7q9 20 9 32t-6 21
q-5 -2 -15 -2q-18 0 -30 14t-12 33t16.5 32t40.5 13q20 2 37 -13.5t19 -31.5z" />
    <glyph glyph-name="dollar" unicode="$" horiz-adv-x="356" 
d="M339 222q0 -44 -19 -83q-18 -45 -55 -69q-34 -26 -70 -26v-44h-30v44q-23 0 -42 7t-37 21q-25 -24 -58 -31q7 25 7 59l-1 33l-6 27l-5 20q-7 18 -7 30t5 26q2 5 7 14.5t11.5 15t13.5 6.5l20 2q23 0 41 -9q-3 -11 -5 -21.5t-2 -22.5q0 -30 12 -53t36 -29l10 -1v218
q-20 11 -48 11l1 9q0 33 -25 58q-16 15 -28.5 32t-22.5 36q-13 28 -17 49q-6 23 -6 49l1 10l1 12q7 43 31 79q21 25 51 37t62 12v50h30v-50q41 -7 71 -28q17 29 55 29q-5 -12 -8 -25t-3 -27l1 -21l4 -18l7 -25q4 -14 4 -21q0 -30 -15 -54q-14 -19 -39 -22h-8q-22 0 -36 10
q12 21 12 45l-2 22q-8 30 -34 41l-9 2v-185l4 -2q29 -21 64 -21l-1 -12q0 -21 12 -38q42 -58 59 -130q6 -24 6 -48zM165 500v158l-19 -9q-24 -15 -27 -45l-1 -14q0 -11 2 -19t7 -19q15 -25 38 -52zM240 210v12q0 42 -21 78q-9 18 -24 33v-191q12 5 18 10q27 21 27 58z" />
    <glyph glyph-name="ampersand" unicode="&#x26;" horiz-adv-x="462" 
d="M441 272l-2 -15q-25 -4 -41.5 -24t-16.5 -45q0 -67 -35 -126q-24 -32 -55.5 -47t-68.5 -15l-14 1q-33 0 -63.5 11t-54.5 34q-11 13 -20.5 29.5t-17 34.5t-11 34.5t-3.5 36.5q0 34 -17 65q20 25 23 52l4 41l9 41q25 51 73 85q-42 33 -42 81l1 10l1 10q0 32 -24 50
q21 27 21 60q0 18 4.5 34t14.5 32q18 32 50 44q31 14 66 14q49 0 93 -28q35 26 78 26q-8 -9 -13 -19.5t-8.5 -21.5t-4.5 -21t-1 -23t1 -21t4 -22l1 -12q0 -33 -21 -56q-19 -24 -46 -27l-9 -1q-22 0 -42 14q18 21 23 54l3 19l-1 9l-3 12q-9 21 -30 29q-17 2 -29.5 -8
t-12.5 -27q-4 -17 -5 -32t-1 -34v-19t2 -24t9.5 -27t23.5 -22q39 -14 75 -14q3 -31 -19 -54q13 -12 13 -31l-1 -12l-55 -3l-48 -8q-36 -21 -44 -62q-3 -17 -5 -33.5t-2 -29.5l-1 -75v-9q0 -50 39 -80q12 -11 30 -11l8 1q24 5 35 23.5t14.5 38t4 28.5t0.5 15q0 27 -15 41
q-18 19 -40 19l-1 15q0 15 5 25q9 21 24.5 28t29.5 7l15 -2q23 -7 33 -24q21 24 50 24q18 -2 28 -6q35 -18 35 -57z" />
    <glyph glyph-name="quotesingle" unicode="'" horiz-adv-x="149" 
d="M132 751q1 -7 1 -12q0 -21 -7 -40q-10 -28 -35 -44q-11 -5 -21 -9q2 4 3 7q9 20 9 32t-6 21q-5 -2 -15 -2q-18 0 -30 14t-12 33t16.5 32t40.5 13q20 2 37 -13.5t19 -31.5z" />
    <glyph glyph-name="asterisk" unicode="*" horiz-adv-x="330" 
d="M321 35q-3 -25 -19 -35q-8 -5 -21 -5q-20 0 -32 11q-10 -10 -25 -10l-12 2q-22 6 -27 29q20 29 20 58l-1 11l-2 12l-6 20l-67 -1l-4 -28l-2 -8v-8q0 -32 23 -52q-1 -13 -5.5 -19.5t-13.5 -11t-20 -4.5q-18 0 -29 12q-10 -10 -26 -12l-6 -1q-13 2 -21 7q-11 8 -15 23
q22 18 32 44q2 5 3.5 9.5t1.5 7.5q4 8 4 22l9 57q2 7 2 15.5v13.5l1 11q0 16 -10 36q17 13 20 32l19 128l1 8q-2 15 -4.5 22.5t-14.5 18.5q7 16 17.5 24.5t23.5 10.5q12 0 22.5 -4t18.5 -11q14 14 35 14q11 0 12 -1q20 -3 38 -22l-13 -19q-9 -15 -9 -29l1 -7l21 -119
q2 -13 9.5 -23.5t21.5 -18.5q-15 -20 -15 -40l3 -20l22 -96q8 -36 39 -54zM183 201l-23 167l-21 -167h44z" />
    <glyph glyph-name="comma" unicode="," horiz-adv-x="149" 
d="M132 54q1 -8 1 -12q0 -22 -7 -41q-10 -28 -35 -43q-13 -4 -21 -9q2 4 3 7q9 20 9 32q0 11 -6 20q-10 -2 -14 -2q-19 0 -31 14t-12 34q0 18 17 31t40 13q20 3 37 -12.5t19 -31.5z" />
    <glyph glyph-name="hyphen" unicode="-" horiz-adv-x="618" 
d="M527 461l-64 -128l-381 -1l64 128z" />
    <glyph glyph-name="period" unicode="." horiz-adv-x="146" 
d="M17 50q0 -19 16.5 -32.5t39.5 -13.5q24 0 40 13t16 33q0 18 -16.5 31.5t-39.5 13.5q-24 0 -40 -13t-16 -32z" />
    <glyph glyph-name="zero" unicode="0" horiz-adv-x="636" 
d="M607 398q-19 -8 -26 -21t-7 -33q0 -21 -3 -43t-8 -44q-10 -43 -27 -87q-36 -88 -112 -137q-49 -33 -110 -33q-29 0 -58.5 8.5t-52.5 24.5q-72 55 -106 142q-16 51 -22.5 80.5t-9.5 52t-3 42.5q0 37 -33 52q29 24 29 60q0 37 9 78l9 30q7 25 17 50q31 91 110 147
q50 33 113 33q59 0 109 -30q40 -25 68.5 -60t45.5 -78q9 -20 18 -48t13 -47q10 -44 10 -93q0 -32 27 -46zM424 446l-2 31l-2 21l-4 40q-1 11 -4 22.5t-10 33.5q-12 38 -32.5 63.5t-53.5 25.5q-36 -4 -54 -36q-28 -48 -36 -98l-8 -50v-65q3 -25 25 -35q-26 -11 -26 -41
q0 -18 1 -35.5t4 -34.5l15 -78q6 -22 9 -30t12 -25q6 -16 21.5 -26t31.5 -10l10 1q32 4 51 31q35 51 42 108q4 14 6 33t2 38v14l-1 20q-4 22 -24 37q12 7 19.5 18.5t7.5 26.5z" />
    <glyph glyph-name="one" unicode="1" horiz-adv-x="390" 
d="M372 75q0 -19 -8 -33q-13 -27 -41 -36q-20 -6 -36 -6q-43 0 -75 30q-16 -13 -32 -17q-20 -10 -40 -10q-45 0 -75 35q-15 19 -15 42q0 12 3 21q6 -3 19 -3q17 0 31 8.5t21 22.5l6 19l3 18l3 228q0 34 -32 42q14 3 24.5 16t8.5 30l2 181q3 24 -19 32l-10 3l-11 -4
q-9 -5 -11 -18q0 -18 6 -30q-9 -4 -19 -4q-32 0 -47 27q-10 19 -10 38l3 23q8 32 36 48q31 22 67 22l21 -2q43 -4 82 -21q2 -1 5 -1.5t6 -1.5q7 0 12 4q20 13 46 13q15 0 32 -5q-38 -29 -38 -76v-8l-1 -224q0 -23 16 -34l23 -11l-14 -7l-11 -8q-16 -12 -16 -31l-3 -232
q-1 -13 5 -27q10 -22 33 -33q9 -4 24 -4l23 4z" />
    <glyph glyph-name="two" unicode="2" horiz-adv-x="547" 
d="M522 68q0 -25 -13 -45q-20 -23 -49 -23l-14 2q2 10 -3 16q-4 8 -14 8q-15 4 -26 4l-29 -4l-57 -12l-19 -2l-12 -1q-19 0 -42 5l-68 15q-15 4 -30 4q-28 0 -56 -13q-15 -8 -25.5 -9t-20.5 -2t-18 -1q0 135 67 247q23 40 53 81q27 37 60 74q11 12 11 27l-2 11q39 7 66 36
q38 41 54 89q4 15 4 29q0 33 -17 62q-26 33 -65 33l-11 -1q-44 -6 -68 -41q-8 -13 -8 -25t6 -23q14 -22 43 -22q-19 -45 -62 -66q-22 -13 -49 -13q-19 0 -34 6q-32 14 -44 42q-5 13 -5 29q0 40 30 69q-26 23 -29 56l-1 8q0 29 18 52q11 -14 23 -18l12 -2l18 4l89 31
q54 15 109 15l45 -3q10 -2 18 -3.5t23 -7.5q65 -21 93 -78q22 -44 22 -96q0 -27 -3 -42t-4.5 -22t-7.5 -24l-18 -42q-4 -6 -4 -16q0 -13 9 -24q-13 -4 -25 -9t-23.5 -10.5t-22 -13t-21.5 -16.5q-138 -107 -216 -261l54 26q25 13 53 13q22 0 44 -8l48 -11q4 -2 17 -2l27 4
q22 10 28 32l2 13q-2 18 -8 27q36 0 54 -27q12 -17 12 -35q0 -12 -5 -25q24 -19 33 -48l3 -7z" />
    <glyph glyph-name="three" unicode="3" horiz-adv-x="566" 
d="M540 204q-16 -8 -22 -18q-9 -10 -12 -26q-13 -47 -40 -80q-42 -52 -104 -70q-36 -10 -73 -10q-55 0 -103 19l-32 11l-31 12l-15 5l-10 1l-21 -3q-22 -11 -27 -31q-22 21 -22 48q2 18 6 25q9 20 27 36q-30 19 -34 53l-1 15q0 24 12 45q16 29 40.5 44.5t51.5 15.5
q22 0 43 -6.5t37 -19.5q24 -18 37 -40q-13 0 -26 -8q-30 -9 -33 -37l-1 -9q0 -36 32 -53q21 -11 40 -11q25 0 47 14q24 13 28 40l1 9q0 21 -13 37q21 9 30 30q5 13 5 24l-3 19q-6 29 -25.5 50t-46.5 27q-14 5 -24 5q-4 1 -8 1.5t-12 0.5l-36 93q53 0 99 31q31 21 37 57
q0 19 -10 25l-10 10q23 10 32 34l4 17q0 21 -14 35q-16 20 -40 20l-10 -1q-29 -4 -45.5 -23t-16.5 -40l2 -12q6 -29 36 -34q-18 -37 -54 -54q-20 -10 -44 -10q-16 0 -34 5q-26 8 -38 32t-12 48q0 37 25 68q-24 30 -24 68q3 27 25 40l4 -12q3 -7 7 -8q8 -8 21 -8q27 0 44 15
q41 22 88 31l23 3l21 1q37 0 74 -14q74 -27 101 -99l7 -25l4 -28q0 -18 9 -33.5t21 -26.5q-25 -12 -33.5 -32t-21.5 -40q-31 -50 -85 -71q36 -16 60 -42q28 -30 41 -61q9 -24 13 -44.5t4 -37.5q4 -29 28 -42z" />
    <glyph glyph-name="four" unicode="4" horiz-adv-x="562" 
d="M536 338l-1 -9q-4 -22 -21 -36q12 -11 14 -19q5 -12 5 -22q0 -26 -14 -43q-9 25 -36 25l-45 1l-2 -70q0 -20 11 -38t25 -25q11 -7 26 -7q16 2 24 7q4 -11 4 -26q0 -21 -11 -41q-15 -19 -36 -25q-19 -8 -45 -8q-40 6 -71 32l-26 -20q-25 -14 -51 -14q-33 0 -56 19
q-24 23 -24 54q0 12 5 27q7 -2 19 -2t24 4q15 8 24.5 21.5t9.5 30.5l-1 85l-216 1l-45 111q21 8 31 25l186 327q4 8 4 15q0 11 -4 15.5t-14 6.5q-16 -2 -23 -6q8 23 24 39q33 27 72 27l14 -1q16 0 33 -6l33 -16q18 16 39 19l19 3q19 0 34 -9q-12 -10 -19 -22
q-13 -20 -13 -39l-1 -234q0 -21 13 -39l9 -7l11 -8q-31 -17 -35 -48v-45q8 -2 14 -2h13h15q26 0 37 26q18 -14 18 -34zM290 347v23l-2 30q-3 14 -10 23q-6 11 -19 17q30 15 30 47v76l-125 -216h126z" />
    <glyph glyph-name="five" unicode="5" horiz-adv-x="550" 
d="M525 305l-12 -9q-23 -17 -23 -40l-16 -74q-23 -84 -94 -141q-52 -41 -117 -41l-32 2q-26 3 -48 9t-46 17l-31 10l-12 2q-13 0 -26 -8.5t-18 -28.5q-23 20 -23 50q0 16 8 32l22 30q-32 28 -32 67q0 55 41 86q31 22 65 22l15 -1q25 -8 44 -18l41 -26q-24 -11 -36.5 -29.5
t-12.5 -41.5q0 -35 29 -49q8 -7 15 -8q5 -3 15 -3q40 0 64 24q18 24 24 52l3 24l1 12l-3 31q-10 31 -33 42q14 11 24 24q9 17 9 31q0 28 -15 52q-14 26 -39 38q-14 7 -30 7q-11 0 -17 -1.5t-18 -8.5q-36 -17 -48 -55l-131 22q18 24 18 50l-2 14l2 279q0 17 -8.5 29.5
t-15.5 16.5l32 2l27 -1l25 -6q37 -11 56 -42q11 17 24 27q18 13 36 17q18 6 37 6q45 0 87 -12q19 -7 40 -10l43 -2q38 5 71 21l2 -17q0 -39 -24 -69q13 -9 18.5 -20t3.5 -26q-17 5 -27 5q-17 -2 -29 -6l-17 -7l-21 -6l-18 -1h-17q-9 0 -25 2l-40 9l-28 9l-20 4l-22 2
q-41 0 -80 -22l-1 -147q30 27 71 38l20 5q12 3 34 3l30 -3q43 -9 78 -36t56 -64q27 -47 36 -97l8 -22q13 -21 33 -26z" />
    <glyph glyph-name="six" unicode="6" horiz-adv-x="625" 
d="M588 319q-24 -14 -31 -43l-4 -16l-2 -19q-8 -59 -29 -104q-31 -66 -88 -103q-49 -34 -107 -34l-18 1q-35 0 -67.5 11.5t-60 34.5t-52 55.5t-39.5 68.5l-26 76q-8 23 -28 30l-16 6q10 7 13 14q12 19 12 38v17l1 18l-1 68l2 58l8 48q17 59 42 108q30 54 75 92q28 23 61 34
t74 11l41 -4l41 -10l41 -12l15 -2q27 0 41 21l9 18q14 -13 18 -33l3 -19q0 -7 -1.5 -14.5t-5.5 -15.5q-7 -15 -17 -25q12 -11 19.5 -23.5t14.5 -29t7 -36.5q0 -13 -5 -30q-15 -39 -51 -52q-10 -5 -20.5 -7t-19.5 -2q-17 0 -34 6l-40 16q-18 12 -32 26q20 0 34 17
q10 17 10 32l-1 9q0 34 -28 49q-17 10 -34 10q-16 0 -29 -7q-31 -15 -46 -39q-15 -27 -18 -57q-7 -34 -7 -75v-78l13 19l16 15q30 29 72 36q23 6 46 6q17 0 26 -1.5t29 -6.5q58 -15 87 -60q14 -16 21 -33q5 -8 8.5 -17t7.5 -17q9 -21 28 -33l11 -8zM405 226v10q0 18 -6 38
q-12 23 -33 27q15 15 15 33l-3 18q-1 15 -24 27q-11 8 -21 8q-7 2 -20 2q-38 -5 -62 -36t-24 -71l4 -58q5 -32 14 -54q4 -9 8.5 -17t11.5 -17q21 -25 50 -28q20 0 37.5 9.5t25.5 24.5q21 31 26 75z" />
    <glyph glyph-name="seven" unicode="7" horiz-adv-x="546" 
d="M521 786q0 -29 -13 -57q-8 -18 -14.5 -30t-18.5 -26l-50 -68l-45 -69q-16 -32 -24 -56t-8 -56q-1 -12 9 -21l9 -10q-46 -17 -55 -64q-3 -11 -6 -26t-3 -25l-3 -52q0 -22 4 -43t11 -41q19 -44 47 -68l-5 -16q-24 -43 -70 -56l-19 -2q-37 0 -61 29q-17 -23 -40 -27
q-16 33 -22.5 60t-8.5 46.5t-2 36.5v13l1 17q3 19 6 37.5t10 51.5t20 70l4 12l3 17q1 16 -10 27l-5 6q32 13 55 39q87 94 143 214l-56 9q-14 3 -24 6t-27 10l-21 5q-3 2 -14 2q-15 0 -27 -7l-14 -13q-6 -8 -7 -13q-4 -8 -4 -16q2 -17 12 -26q11 -12 25 -12q11 0 18 4
q-3 -27 -19.5 -47t-41.5 -28q-14 -3 -18.5 -4t-15.5 -1q-23 0 -48 10q-45 25 -53 76l1 40q1 6 2 14t6 20l20 57q4 13 5.5 22.5t1.5 20.5l-2 18q21 -20 48 -26q13 -4 29 -4q20 0 41 8l48 17q12 4 29 6t33 2l40 -3l103 -18l22 -2l26 3l28 12l14 9z" />
    <glyph glyph-name="eight" unicode="8" horiz-adv-x="592" 
d="M565 218l-11 -4q-11 -6 -17.5 -15t-8.5 -25q-6 -37 -27 -72q-33 -52 -85 -76q-33 -14 -71 -20q-18 -3 -47 -4t-35 -1q-17 0 -32 3t-35 10q-36 14 -64 35q-49 33 -66 92l-5 13l-5 23q-1 10 -10 16l-9 7l-10 6l11 4q18 7 23 26q20 57 56 98l61 68l-24 21q-64 62 -83 143
q-3 17 -18 25l-13 6l12 6q19 10 22 31q12 65 61 108q59 50 132 57l19 1q69 0 124 -38q50 -40 70 -99q8 -32 30 -49l12 -4l-14 -5q-23 -15 -31 -39q-24 -73 -77 -126q49 -29 84 -70q42 -54 48 -120q0 -19 20 -24zM356 600q0 13 -4 25.5t-11 25.5q-16 31 -49 31t-50 -33
q-15 -24 -12 -50q0 -35 23 -61q17 -26 46 -44q32 24 44 50l10 26zM371 212q-7 37 -29 66q-27 32 -63 52q-19 -14 -30.5 -25t-22.5 -27q-25 -31 -25 -66q0 -43 29 -72q23 -23 53 -23q7 1 11 1q18 0 33.5 9.5t24.5 22.5q19 26 19 62z" />
    <glyph glyph-name="nine" unicode="9" horiz-adv-x="625" 
d="M597 517l-15 -14q-9 -16 -12 -38v-35v-68v-24v-17q-2 -12 -2 -17l-8 -52q-4 -13 -6 -21t-11.5 -32.5t-24.5 -50.5q-4 -8 -12 -22t-18.5 -27t-19 -21.5t-23.5 -21.5q-28 -23 -62 -34t-74 -11l-41 4l-42 10l-40 12l-16 2q-26 0 -40 -21l-9 -18q-13 13 -19 33l-2 17
q0 19 8.5 34.5t16.5 22.5q-13 13 -20.5 24t-14.5 28.5t-7 34.5q0 14 5 32q16 39 51 52q19 9 40 9l19 -1l16 -5q42 -12 72 -42q-22 0 -34.5 -17.5t-9.5 -40.5q0 -34 28 -49q17 -10 34 -10q16 0 30 7q29 13 44 38.5t20 54.5l6 53l2 49v20v17q-2 12 -2 17q-14 -22 -29 -34
q-32 -29 -71 -36q-23 -6 -46 -6q-16 0 -25 1.5t-31 6.5q-58 15 -88 60l-20 32q-4 7 -8.5 17.5l-7.5 17.5q-9 23 -28 33q-2 2 -12 7l-9 4q11 7 19 19t10 24l8 35q4 32 9.5 55t20 53t35.5 55t51 44q49 34 107 34l17 -1q37 0 69 -11t59 -34q60 -51 92 -125l17 -48l10 -32
q6 -18 27 -26zM389 518l-4 58q-4 28 -6 35q-6 13 -8 19l-20 34q-19 25 -50 28q-21 0 -37.5 -9.5t-25.5 -24.5q-21 -34 -26 -75l-2 -16l2 -22l5 -19q11 -22 33 -27q-15 -14 -15 -33l2 -11q6 -25 23 -33q18 -11 42 -11q39 4 63 34.5t24 72.5z" />
    <glyph glyph-name="question" unicode="?" horiz-adv-x="342" 
d="M326 542q-12 -8 -18 -13q-11 -10 -14 -21q-25 -81 -102 -125l-13 -241l-51 -4l-32 276q42 0 76 29q38 33 38 81q0 19 -11 32l-9 12q21 13 32 42q0 4 2 11t2 9q0 12 -3.5 22.5t-10.5 20.5q-17 24 -40 24l-10 -1q-12 0 -23 -8.5t-21 -21.5q-15 -20 -15 -47l2 -14
q0 -35 32 -42l-12 -44t-22.5 -32t-29.5 -10q-4 0 -10.5 2t-12.5 4q-18 8 -26 35q-3 12 -6 28t-3 28q0 22 3.5 38t12.5 40q-6 15 -11 36.5t-5 41.5q0 13 5 25t13 20l4 -14l4 -9q5 -10 14 -10q7 0 13 3t19 16t28.5 22.5t30.5 11.5l16 4l15 1q25 0 52 -16q53 -30 70 -113l4 -29
q0 -3 1.5 -16t1.5 -16q0 -7 2.5 -19.5t3.5 -18t6 -15.5t8 -15zM206 48q0 -20 -17 -34t-43 -14q-23 0 -41 14t-18 34t17 34t42 14t42.5 -14t17.5 -34z" />
    <glyph glyph-name="at" unicode="@" horiz-adv-x="279" 
d="M270 484q-10 -24 -10 -36l1 -14l3 -50q0 -32 -22 -56q-11 -11 -30 -11q-15 2 -25 11q5 22 5 31q0 19 -6 31q-3 11 -15 19l-5 2h-7l-10 -1q-5 -2 -11 -4t-12 -9q-10 -12 -10 -24l-3 -51v-20v-18q5 -21 18 -40q-19 -25 -19 -50l1 -11q-2 -8 -2 -15.5v-11.5q0 -13 1.5 -26
t6.5 -36q10 -22 32 -25h6q11 0 20.5 6.5t12.5 19.5l1 8v13q0 12 -1 21t-5 22l25 4l9 -1l13 -2q11 -3 21 -14q8 -11 8 -28v-24l-2 -24l-1 -19l1 -24l7 -28q-32 0 -48 13q-27 -17 -61 -17q-37 0 -70 21q-11 7 -18.5 16t-14.5 22q-10 23 -10 50q0 44 -5 96q0 22 -20 45
q21 21 21 45v27l1 40l3 39q6 31 25.5 52.5t46.5 28.5q9 3 19.5 3.5t17.5 1.5q36 0 64 -16q9 11 16 13q8 6 25 6z" />
    <glyph glyph-name="A" unicode="A" horiz-adv-x="550" 
d="M525 54q0 -31 -25 -47q-14 -7 -31 -7q-32 0 -54 22q-16 -20 -42 -20l-18 3q-32 8 -39 39q34 44 34 98l-1 20l-4 20l-11 39l-126 -1l-8 -53l-3 -16v-12q0 -56 37 -93q-3 -28 -21.5 -36t-33.5 -8q-31 0 -49 24q-17 -20 -44 -25l-8 -1q-17 0 -32 10.5t-21 28.5q36 29 53 73
q8 15 9 23.5t4 20.5t3 22l15 95l3 49l2 20q0 33 -16 56q28 22 32 55l32 214l1 16q0 19 -8 38q-4 9 -9 16.5t-12 14.5q18 42 60 48q43 0 66 -28q25 26 59 26l18 -1q33 -4 53 -31l-16 -25q-17 -26 -17 -55l1 -11l35 -199q9 -46 47 -71q-20 -27 -20 -64q0 -16 5 -34l37 -161
q12 -61 63 -92zM315 327l-55 296l-39 -297z" />
    <glyph glyph-name="B" unicode="B" 
d="M456 230q-26 -16 -26 -44q0 -41 -15 -82q-19 -43 -53 -67q-35 -28 -79 -34l-13 -3h-21q-65 0 -115 38q-18 -32 -59 -32q-40 6 -52 42q27 24 39 54.5t12 64.5l1 159q0 22 -8 42.5t-22 33.5q32 30 32 76l-1 12l-2 96l-3 76q-7 53 -49 87q16 34 52 44l14 1q13 0 22 -4
q18 -11 24 -28q51 38 113 38q25 0 45 -6q74 -12 116 -73q11 -23 16 -44.5t5 -42.5q6 -28 27 -45q-14 -10 -20 -22.5t-6 -29.5l1 -15l-1 -17l-3 -17q-14 -52 -53 -84q36 -26 48 -67l4 -25l2 -30q6 -33 28 -52zM324 628l-4 21q-16 38 -54 47q-7 2 -19 2q-16 0 -29 -7
q-22 -12 -31 -35q-8 -29 -8 -56l-1 -145l37 -2h17l30 2q18 3 40 22q20 23 20 51l-1 13q-4 24 -21 42q24 18 24 45zM329 183q0 17 -7.5 29.5t-22.5 22.5q25 24 25 55v4l-1 7q-2 17 -11 28.5t-24 16.5q-37 11 -78 11l-33 -3l-2 -170l2 -29l5 -25q24 -21 54 -24q40 0 67 24
q26 19 26 53z" />
    <glyph glyph-name="C" unicode="C" horiz-adv-x="434" 
d="M415 799q-14 -26 -14 -53l2 -24l5 -82q0 -52 -35 -87q-17 -16 -42 -16q-19 0 -35 11q9 27 9 50q0 33 -10 56q-8 24 -29 35q-7 4 -13 4l-11 1q-11 0 -19 -3q-27 -6 -44.5 -26t-17.5 -44q-4 -42 -4.5 -58t-0.5 -26v-33l1 -32q6 -36 27 -66q-29 -37 -29 -84l1 -17
q-1 -9 -1.5 -19t-0.5 -15v-11q0 -55 12 -106q18 -42 63 -48h10q20 0 36 11q21 16 26 39l3 14v23q0 36 -9 65q14 5 32 5l15 -1l20 -4q18 -4 30 -20.5t12 -41.5l-1 -40l-3 -38q-2 -8 -2 -18v-15v-22t2 -20l9 -37q-39 0 -68 24q-48 -30 -103 -30q-60 0 -111 33q-34 24 -52 61
q-8 18 -12.5 38t-4.5 42q0 75 -8 160q0 40 -30 72q32 33 32 78v44l2 67l4 64q11 47 38 79q32 36 75 48q16 5 31 7t30 2q59 0 109 -28q12 17 28 24q14 9 36 9z" />
    <glyph glyph-name="D" unicode="D" horiz-adv-x="466" 
d="M446 389q-13 -9 -20.5 -24t-7.5 -35l-3 -158q0 -44 -21 -82q-41 -60 -105 -82q-23 -8 -54 -8q-59 0 -105 34q-17 -26 -48 -26l-12 1q-39 8 -48 42q22 15 35 38t13 49l5 116q1 16 1.5 31.5t0.5 38.5q0 21 -9 36q-5 10 -8.5 15t-14.5 17q15 15 22 29t7 32v95l-1 95
q0 64 -51 100q9 41 49 47l11 1q34 0 52 -28q39 32 90 36l18 1q45 0 81 -21q40 -21 60 -59q28 -49 28 -104l3 -82l4 -80q0 -37 28 -65zM312 502v18l-1 47v48q0 45 -41 63q-23 7 -40 7l-28 -3q-23 -12 -23 -35l-1 -102v-102q6 -28 24 -52q-13 -9 -17 -24q-6 -15 -6 -30l-1 -91
l-1 -92q2 -18 9 -29.5t20.5 -17.5t29.5 -6q27 0 44 17q27 23 27 60q2 6 2 16t1 16l1 32v8v11v12v31v42q-2 17 -9 29t-18 22q26 17 26 49z" />
    <glyph glyph-name="E" unicode="E" horiz-adv-x="421" 
d="M402 653l-1 -11q0 -23 -11.5 -42.5t-28 -29t-34.5 -9.5q-28 0 -44 16q15 33 15 68q0 29 -27 38q-14 7 -29 7h-12l-16 -4q-13 -5 -22.5 -16.5t-9.5 -24.5v-99v-98q3 -1 8 -1.5t11 -0.5h9l10 1q24 0 33 20q2 4 3 8.5t2.5 8.5t1.5 15l-1 9q34 3 55 -22q7 -10 10 -20l3 -23
q-1 -7 -1.5 -12t-4.5 -11q-8 -13 -16 -18q19 -16 23 -38l2 -11q-2 -18 -9 -31q-15 -29 -47 -29l-13 1l1 9q0 12 -5 25q-8 22 -18.5 23t-19 1.5t-14.5 1.5h-22q-6 -48 -6 -89l-1 -107q0 -34 32 -48l23 -3h9l10 2q16 1 28 12t17 26q2 4 2 15q0 34 -27 52q7 17 18 22.5t22 5.5
h11q33 0 52 -30q16 -36 16 -73q0 -20 -5 -43q-3 -9 -4.5 -20.5t-1.5 -15.5q0 -24 9 -47l-16 -3q-27 0 -44 23q-42 -33 -95 -33q-26 0 -52.5 9t-45.5 25q-16 -29 -51 -29q-11 0 -19.5 3t-19.5 10q-18 13 -25 34l17 17q9 7 13 16q29 41 29 91q4 45 4 100v14v38l1 10
q0 20 -9.5 38t-22.5 29q18 15 26 36t8 42v8v27l1 29v9l-4 73q0 37 -15 69t-38 48q2 17 13.5 28t22.5 12l17 1q31 0 51 -23q39 36 90 36l25 -2q50 -9 87 -40q24 27 65 27q-8 -20 -8 -45l4 -34q6 -20 6 -44v-9z" />
    <glyph glyph-name="F" unicode="F" horiz-adv-x="426" 
d="M406 799q-19 -25 -19 -56l1 -15l10 -42q4 -6 4 -16l2 -14q0 -37 -25 -64.5t-63 -27.5q-22 0 -45 13q14 15 20.5 33.5t6.5 39.5q0 24 -15 36q-14 14 -36 14l-8 1q-30 0 -50 -24v-228l41 1q16 0 24 15l7 17l2 17l-1 13l9 1q21 0 40 -12t26 -35l1 -12q0 -30 -23 -51
q28 -18 28 -49l-3 -19q-9 -22 -30 -34q-13 -7 -28 -7l-16 1l3 15l-4 19q-8 17 -25 23l-26 3l-25 1v-203q0 -67 53 -115q-15 -32 -50 -37l-8 -1q-31 0 -51 22q-19 -20 -47 -20l-15 1q-39 11 -46 46q22 15 39 41q14 22 14 53l4 123v73q0 42 -31 63q23 20 27 51v53l-2 85l-7 76
q-15 52 -50 82q3 13 5.5 18t9.5 12q13 13 30 16l10 1q34 0 49 -26q48 29 107 29q58 0 105 -29q23 30 59 30z" />
    <glyph glyph-name="G" unicode="G" horiz-adv-x="465" 
d="M444 408q-14 -16 -26 -39q-9 -23 -9 -44l2 -295q-31 0 -48 26q-56 -56 -141 -56q-42 0 -76 19.5t-53 49t-25.5 47.5t-8.5 30.5t-2 26.5v165q0 50 -36 74q39 32 39 78l-1 12v128q0 47 24 89.5t62 63.5q39 17 76 17l17 -1q56 0 93 -40q21 35 59 35l12 -1q-16 -26 -16 -56
q0 -18 6 -35q10 -26 10 -55v-21q-3 -11 -4 -15q-7 -36 -41 -57q-24 -15 -51 -15l-19 2q15 26 15 63q0 26 -9 52q-22 38 -67 38h-8l-13 -3q-24 -10 -36.5 -31t-12.5 -46l-1 -154q0 -40 32 -58q-29 -20 -29 -55l1 -167q0 -34 24 -55q21 -18 47 -18l11 1q27 4 45 24.5t18 48.5
l-3 157q0 22 -15 37q-7 8 -15 14t-19 8q0 19 16.5 34.5t37.5 15.5q29 0 44 -24q8 15 22 21.5t30 3.5q35 -6 42 -40z" />
    <glyph glyph-name="H" unicode="H" horiz-adv-x="514" 
d="M490 52q-6 -18 -16 -30q-18 -17 -43 -17t-41 19q-17 -20 -44 -20l-14 2q-18 4 -28.5 15.5t-13.5 28.5q12 13 23 34q18 22 18 52l1 220l-150 -2l-2 -190l-1 -9q0 -8 1.5 -17t5.5 -21q12 -43 48 -68q-6 -23 -23 -36q-14 -13 -32 -13q-6 0 -20 2t-27 21q-18 -22 -46 -22
l-9 1q-43 4 -52 45q27 24 41.5 52t14.5 59l1 180q0 23 -12 40q-9 17 -23 26q9 4 14 11q21 24 21 50l-2 196q0 27 -17 52q-14 23 -40 35q0 17 12.5 31.5t24.5 17.5l22 3q31 0 52 -21q17 17 39 17l10 -1q18 0 34 -13t19 -32q-16 -15 -31 -38q-10 -14 -15.5 -31t-5.5 -32
l-1 -191h149l-6 188v20l-4 18q-9 41 -37 68q0 10 5 18l5 8q21 19 43 19l23 -6q12 -6 19 -13q23 15 49 15l18 -2q11 -2 22 -11q13 -13 14 -26q-26 -17 -39 -43.5t-13 -58.5l-1 -180q2 -15 9 -36q11 -22 30 -34q-10 -6 -19 -16q-16 -22 -16 -54l2 -181l2 -22q2 -7 3.5 -11.5
t4.5 -10.5q12 -35 44 -55z" />
    <glyph glyph-name="I" unicode="I" horiz-adv-x="245" 
d="M234 754q-19 -12 -30 -32q-25 -37 -25 -77l1 -179q0 -45 32 -66q-18 -14 -28 -35.5t-10 -38.5l-2 -173q0 -40 23 -74q9 -16 30 -32q-4 -18 -19 -31q-11 -9 -20 -12.5t-24 -3.5q-27 3 -42 22q-23 -20 -49 -20q-18 0 -35 10.5t-25 28.5q26 16 42.5 45t16.5 60v176l1 9
q0 39 -29 65q27 20 32 55l3 187q0 47 -23 87q-13 21 -32 34q11 20 28 30.5t34 10.5l10 -1q25 -5 37 -21l25 15q13 5 22 5q12 0 28 -8q7 -7 14.5 -17t13.5 -19z" />
    <glyph glyph-name="J" unicode="J" horiz-adv-x="502" 
d="M480 748q-21 -16 -34 -40t-13 -50v-8v-32l1 -30v-10v-12v-12v-15v-17v-19v-21v-26q0 -17 6 -29q9 -14 20 -22q-26 -25 -26 -61v-9v-99v-98q-3 -21 -10 -39.5t-20 -35.5q-25 -33 -64.5 -48t-78.5 -15l-42 4q-8 1 -15.5 3t-22.5 7q-40 15 -66 45t-33 73l-12 76l-3 70
q-6 45 -44 64q0 16 11 32q11 13 29 20l9 1l10 2q25 0 44 -19q18 21 43 21l17 -2q17 -6 26.5 -20t9.5 -31q-33 -30 -42 -69l-4 -32v-16l1 -26l2 -22q0 -46 38 -67q19 -10 39 -10q17 0 36 8.5t29.5 25t10.5 36.5v64l-1 52l-2 53q0 33 -30 54q13 13 19.5 30t6.5 30v8v27l1 28
v10v10v12v14v15v17v20v24q-9 67 -59 107q11 38 47 48l16 2q29 0 47 -21q18 22 45 22l20 -4q14 -3 26 -17.5t12 -30.5z" />
    <glyph glyph-name="K" unicode="K" horiz-adv-x="523" 
d="M499 754q-63 -16 -93 -74l-136 -227q17 -39 60 -51q-7 -11 -7 -19v-13q0 -21 8 -39l95 -229q20 -43 63 -59q-12 -32 -44 -41l-15 -1q-27 0 -44 17q-18 -18 -45 -18q-7 0 -13 1t-14 5q16 20 16 49q0 14 -5 31q-39 109 -92 208q-12 25 -36 38q-23 -25 -23 -52v-8v-28l1 -27
v-10v-10v-12v-14v-15v-18q0 -25 13 -54q7 -12 16 -24.5t19 -21.5q-15 -29 -45 -34l-10 -1q-13 0 -24 4.5t-20 13.5q-18 -14 -41 -14l-15 2q-32 9 -44 37q22 18 35 42.5t13 54.5l3 69v10l-1 65v65q-4 32 -27 56q21 19 27 50v8v28l1 27v9v10v11v14l-1 52l-3 44q0 61 -45 97
q15 30 44 36l16 1q23 0 41 -12q20 17 45 17l11 -1q33 -8 48 -34q-25 -19 -37.5 -43.5t-12.5 -51.5q-7 -80 -7 -169q15 18 34 45q14 20 31 46t30 50q10 18 25 48q1 2 2.5 11.5t1.5 15.5q0 25 -12 45q8 14 22.5 23t28.5 9q34 3 56 -22q17 26 48 26l17 -1q13 -3 25.5 -15
t15.5 -28z" />
    <glyph glyph-name="L" unicode="L" horiz-adv-x="474" 
d="M453 178q0 -7 -2 -17t-5 -22q-14 -33 -14 -63q0 -17 4 -33.5t11 -31.5l-9 -1l-9 -2q-33 0 -54 26q-52 -34 -113 -34q-70 0 -126 42q-10 -18 -29 -24l-18 -3l-19 3q-35 15 -48 46q28 15 43.5 43t15.5 61l-1 82v83q0 47 -36 76q7 5 12 10q9 9 15 20q11 20 11 39v168
q0 30 -14.5 58.5t-37.5 41.5q9 43 48 52l15 2q32 0 52 -25q18 23 46 23l10 -1q34 -6 46 -38q-30 -20 -44.5 -52.5t-14.5 -67.5v-157q0 -22 9 -40q4 -8 10.5 -17t15.5 -18q-18 -13 -26 -29q-9 -14 -9 -34l-1 -83l-1 -83q0 -21 13.5 -37.5t34.5 -23t35 -6.5q36 0 65 27
q20 20 20 47l-2 15q-6 32 -22 55q20 15 44 15l22 -3q37 -10 49 -45q8 -26 8 -44z" />
    <glyph glyph-name="M" unicode="M" horiz-adv-x="574" 
d="M548 754q-28 -21 -45 -50q-15 -29 -15 -62l-1 -90v-88q3 -20 10 -34q10 -16 21 -26q-29 -26 -29 -63q0 -15 -1 -45t-1 -44l-1 -88q0 -32 15 -61.5t39 -52.5q-8 -38 -44 -48l-15 -1q-28 0 -48 21q-18 -22 -45 -22l-14 2q-17 4 -29 16t-15 28q26 29 37.5 67t11.5 77l-8 212
l-89 -293l-92 308l-1 -225q0 -21 2.5 -37t10.5 -40q15 -41 37 -70q-9 -35 -43 -43l-14 -1q-28 0 -44 19q-19 -18 -44 -18l-19 3q-35 12 -41 48q39 39 43 88l1 94l1 94q0 40 -32 66q19 20 28.5 40.5t9.5 45.5v46l-2 73l-5 67q-6 54 -52 84q12 39 50 46l13 1q32 0 52 -24
q29 24 65 24l12 -1l65 -260l68 261l16 2q36 0 63 -22q21 20 51 20l14 -1q38 -7 53 -43z" />
    <glyph glyph-name="N" unicode="N" horiz-adv-x="527" 
d="M503 57q-13 -40 -54 -51l-15 -1q-32 0 -55 25q-26 -25 -58 -28l-132 414l-11 -248q0 -38 12 -71q16 -36 38 -57q-13 -31 -46 -37l-12 -1q-25 0 -44 17q-18 -19 -44 -19l-19 3q-39 13 -39 51q25 18 37.5 44t12.5 56l3 186q0 37 -29 55q26 20 26 54l4 201q0 63 -43 102
q11 36 48 42h10q31 0 49 -24q5 16 21 24t31 5l140 -443l6 290q0 34 -14 65.5t-40 50.5q15 31 48 37l10 1q29 0 49 -21q20 19 47 19l11 -1q34 -7 49 -36q-55 -42 -55 -115l-6 -166l-1 -7q0 -21 11.5 -40.5t30.5 -30.5q-42 -20 -42 -70v-25l2 -91l6 -80q0 -27 17.5 -49
t39.5 -30z" />
    <glyph glyph-name="O" unicode="O" horiz-adv-x="455" 
d="M434 407q-29 -25 -29 -65l-3 -159q0 -52 -34.5 -99t-81.5 -70q-31 -14 -61 -14q-33 0 -61 14q-54 24 -84.5 69.5t-30.5 98.5l-6 163q0 15 -5 33q-6 16 -17 27q24 21 24 57q0 34 4 97t4 92q7 46 33 79q12 16 29.5 29.5t35.5 22.5q41 18 79 18q39 0 76 -17q39 -21 60 -57
q22 -32 28 -80l8 -90l2 -94q2 -19 10 -31.5t20 -23.5zM299 527l-1 34l-3 49q0 18 -5 28l-12 28q-21 27 -53 27l-17 -2q-25 -12 -39.5 -34t-14.5 -47l1 -70l1 -68q4 -37 27 -69q-28 -28 -28 -64l-1 -77v-77q0 -25 16 -45t40 -25l19 -2l19 2q37 15 43 54l3 107l1 63
q-6 35 -27 63q15 16 22 32q7 21 7 36z" />
    <glyph glyph-name="P" unicode="P" horiz-adv-x="469" 
d="M448 557l-6 -7l-7 -5l-5 -7l-5 -8l-3 -8l-4 -8l-2 -9l-2 -8v-43l1 -8l-1 -9v-10l-2 -9l-2 -8l-4 -8l-3 -8l-5 -8l-5 -12l-7 -11l-8 -10l-9 -9l-10 -8l-11 -8l-12 -6l-12 -5l-7 -3l-9 -3l-9 -2l-9 -2l-8 -1l-9 -1h-8l-10 1h-9l-8 1l-9 3l-8 2l-8 2l-9 4l-8 4l-8 4l-2 -161
v-15l1 -17l3 -12l4 -11l6 -11l7 -10l8 -10l8 -9l10 -8l11 -6l-2 -8l-3 -9l-5 -9l-5 -7l-7 -7l-6 -6l-8 -4l-10 -4l-8 -1l-10 -1l-9 1l-9 2l-8 3l-8 5l-8 7l-6 7l-6 -6l-7 -5l-7 -4l-8 -3l-8 -1l-9 -2l-8 1l-7 1l-9 2l-7 3l-8 4l-6 5l-7 6l-5 6l-4 7l-4 7l11 10l10 12l9 12
l8 13l7 13l5 14l4 15l3 15l3 63v29v27l-2 29l-3 27l-1 17l-2 16l-1 6l-2 6l-2 6l-3 6l-4 5l-4 5l-5 5l-5 3l6 5l5 5l4 7l4 6l3 7l3 7l2 7l1 6l2 25l1 25l2 31v31l-1 32l-3 32v10l-1 10l-1 8l-1 11l-2 9l-2 10l-3 10l-3 8l-3 7l-4 7l-4 6l-5 7l-5 5l-6 6l-6 5l-6 4l3 7l4 8
l6 7l6 6l6 5l8 4l8 4l8 1l9 1l8 -1l9 -1l8 -4l8 -4l6 -4l7 -6l5 -7l13 9l15 8l14 5l15 6l15 3l16 2l16 2l16 -1l16 -1l15 -4l15 -4l15 -6l14 -7l13 -8l13 -10l12 -9l8 -9l8 -10l7 -10l6 -11l6 -10l4 -11l4 -12l3 -12l7 -46l1 -9l1 -8l2 -8l3 -8l5 -8l5 -8l5 -7zM322 486v8v7
v8l-1 7l-3 8l-3 7l-4 7l-5 5l-5 6l4 5l3 6l3 6l3 7l2 6l2 7v8l1 6v6v8l-1 7l-1 6l-2 7l-2 7l-3 6l-4 6l-4 9l-5 8l-7 7l-7 6l-7 6l-8 4l-9 3l-9 2h-8h-6l-7 -1l-7 -2l-5 -2l-7 -3l-6 -3l-6 -4l-5 -4l-5 -5l-5 -24l-4 -24l-3 -24l-2 -24v-25v-24l2 -25l3 -24l2 -10l3 -10
l5 -10l5 -8l7 -8l8 -6l9 -6l8 -4l10 -3l10 -1h9l10 2l9 2l8 4l8 5l8 6l6 6l5 7l5 7l3 8l2 8l2 8z" />
    <glyph glyph-name="Q" unicode="Q" horiz-adv-x="476" 
d="M454 92q0 -44 -33 -68q-25 -17 -51 -17q-20 0 -42 11q-10 8 -11 12l-31 -16q-31 -14 -60 -14q-35 0 -61 14q-54 24 -84.5 69.5t-30.5 98.5l-5 163q0 37 -23 60q24 23 24 57l3 94l2 94q9 47 35 78q29 37 68 54.5t76 17.5q40 0 77 -17q39 -21 60 -57q23 -36 26 -65.5t6 -60
t3 -44.5l3 -94q4 -36 31 -55q-30 -24 -30 -65q0 -13 -1 -40t-1 -40l-1 -79q0 -38 -18 -70q12 -15 33 -15q11 0 19.5 3.5t14.5 9.5q2 -6 2 -19zM299 536v10l-2 64l-6 28l-13 28q-20 27 -52 27l-17 -2q-24 -12 -37.5 -33.5t-13.5 -47.5q-2 -12 -3 -26.5t-1 -42.5v-37l4 -42
q3 -27 26 -59q-28 -20 -28 -64v-154q0 -12 4 -23t11 -21q16 -22 39 -26l18 -3q18 0 31 10l-40 62q14 11 31 11q15 -2 16 -3l25 -14q6 60 6 124v17v20q-6 37 -28 63q29 32 29 68v8v29z" />
    <glyph glyph-name="R" unicode="R" horiz-adv-x="484" 
d="M462 39q-16 -39 -52 -39q-39 0 -59 29q-21 -25 -53 -25l-16 2q16 41 16 81q0 12 -2 25.5t-4 23.5l-37 123q-6 26 -27.5 43.5t-45.5 17.5l-6 -131l-2 -11v-11q0 -76 57 -131q-18 -25 -47 -30l-13 -2q-22 0 -42 14q-21 -15 -42 -15l-14 2q-30 8 -47 33q49 43 56 101l-2 198
l2 13q0 36 -26 60q22 30 22 67l-1 176l1 15q0 28 -16 50q-14 24 -40 35q7 17 21.5 28.5t31.5 11.5q44 0 64 -29q53 36 115 36q32 0 58.5 -9.5t43 -22t30.5 -34.5q28 -40 28 -88l-2 -16q0 -43 30 -73q-25 -29 -25 -66l-11 -57q-7 -32 -30.5 -57.5t-55.5 -35.5q43 -49 55 -114
l11 -67q4 -37 24.5 -69.5t51.5 -51.5zM315 618q0 29 -18 50q-21 25 -53 30h-9q-30 0 -50 -16l-10 -209q0 -29 16.5 -43.5t37.5 -14.5l10 1q29 0 48.5 16.5t19.5 43.5q4 13 4 23q0 34 -24 57q13 11 20 24.5t7 29.5z" />
    <glyph glyph-name="S" unicode="S" horiz-adv-x="397" 
d="M379 202q0 -49 -21.5 -96t-63 -76.5t-92.5 -29.5q-61 0 -106 37q-26 -28 -65 -37q4 14 6 31t2 35l-2 37l-6 31l-5 22q-8 16 -8 34q0 25 13 44q13 23 27 25l24 2q26 0 46 -10q-10 -27 -10 -50q0 -30 12 -59q18 -26 43 -34l15 -2q26 0 50 16q30 29 30 67l1 14q0 46 -23 87
q-11 24 -34 44q-31 32 -81 32l1 10q0 38 -28 66q-37 34 -58 77q-5 12 -10.5 27t-9 28t-4.5 25t-1 30v11l1 14q10 50 36 88q29 32 62 44.5t75 12.5q56 0 105 -32q19 33 61 33q-12 -29 -12 -58l1 -24l5 -21l8 -27l3 -25q0 -33 -16 -60q-17 -23 -44 -26l-9 -1q-24 0 -40 13
q12 24 12 51l-3 26q-11 35 -38 46q-12 4 -26 4q-22 0 -40 -12q-27 -18 -30 -51l-1 -15q0 -25 11 -45q33 -56 80 -91q32 -25 72 -25l-2 -13q0 -23 14 -43q48 -66 66 -147q7 -25 7 -54z" />
    <glyph glyph-name="T" unicode="T" horiz-adv-x="446" 
d="M426 634q0 -35 -14.5 -65t-41.5 -40q-17 -5 -27 -5q-17 0 -32 7q22 32 22 69q0 41 -24 74q-9 12 -23 8q-13 -4 -13 -18v-203q0 -39 26 -62q-15 -13 -23.5 -30.5t-8.5 -35.5l1 -184q7 -63 56 -100q-9 -39 -47 -47l-15 -2q-30 0 -49 22q-18 -19 -44 -19l-16 2
q-35 10 -43 45q27 27 40.5 58t13.5 62l-2 183q0 31 -25 47q29 25 29 61l4 208l-6 13q-6 8 -14 8q-16 -2 -24 -12q-10 -10 -10 -27q-1 -8 -1.5 -17t-0.5 -14q0 -39 12 -74q-15 -6 -28 -6q-26 0 -45.5 14.5t-26 30t-6.5 30.5q1 6 1 10q0 40 10 83q7 18 7 38q0 27 -11 51l8 1
q30 0 57 -22q29 24 64 24q32 0 58 -18q29 16 60 16q45 0 80 -30q23 24 52 24l13 -2l-7 -30l-1 -26q0 -32 11 -68q4 -15 4 -32z" />
    <glyph glyph-name="U" unicode="U" 
d="M457 754q-45 -32 -45 -88l4 -191q0 -44 30 -71q-11 -14 -18.5 -31.5t-7.5 -34.5l-1 -172q0 -45 -21 -83q-19 -38 -57 -61q-45 -22 -96 -22q-50 0 -95 21q-41 21 -62.5 62t-21.5 85l-1 86l-1 87q0 17 -9.5 33.5t-21.5 24.5q11 9 16.5 15.5t9.5 17.5q9 18 9 42v192
q0 57 -46 86q5 17 15 29q6 6 12 10t12 5l20 3q26 0 44 -18q16 16 40 16l17 -3q33 -12 38 -45q-36 -27 -45 -75q-4 -28 -6 -55.5t-2 -62.5l4 -88q0 -7 2 -15.5t5 -18.5q5 -10 9 -17t11 -15q-16 -10 -23 -25t-7 -35q0 -15 1 -44.5t1 -43.5v-88q0 -24 12.5 -40t34.5 -19l18 -2
l13 -1l27 2q21 6 32 23q6 8 8 17.5t2 20.5l-2 175q0 36 -30 59q26 23 26 54q-1 7 -1 11q0 20 -1 57t-1 54l-6 98q0 22 -12.5 42.5t-30.5 31.5q4 34 39 46l17 3q25 0 41 -16q21 18 42 18l17 -2q35 -11 42 -44z" />
    <glyph glyph-name="V" unicode="V" horiz-adv-x="554" 
d="M529 750q-48 -26 -59 -78l-44 -204v-14.5t4 -22.5t12 -29q-34 -18 -44 -52l-57 -271q-2 -6 -2 -23q0 -27 9 -50q-13 -5 -30 -5q-33 0 -56 23q-21 -24 -49 -24h-8l-15 4q7 20 7 37l-3 27l-51 277q-6 35 -37 53q18 23 18 48l-1 12q-6 56 -16 110.5t-23.5 105t-58.5 70.5
q8 42 47 54l14 1q33 0 52 -25q17 23 46 23l14 -2q39 -10 43 -47q-34 -25 -34 -67l1 -13l62 -396l73 408q0 18 -8 38t-23 32q9 37 46 48l17 2q27 0 47 -20q18 18 44 18l18 -3q20 -7 29 -17q11 -10 16 -28z" />
    <glyph glyph-name="W" unicode="W" horiz-adv-x="653" 
d="M609 762q-46 -40 -59 -98q-21 -81 -27 -120.5t-6 -72.5l-1 -8q0 -30 23 -55q-23 -12 -36 -30q-5 -9 -8 -20.5t-3 -22.5l-33 -217q-3 -17 -2 -29q0 -41 18 -79q-35 0 -64 20q-12 -12 -29 -17q-17 -7 -37 -7q4 14 5 25t1 26l-2 25l-3 17l-42 164l-38 -148q-4 -17 -4 -39
q0 -20 3.5 -32.5t12.5 -33.5l-22 -5q-31 0 -51 24q-24 -24 -55 -24l-14 1q16 39 16 86v21q0 29 -3 54.5t-9 63.5l-21 127q-6 36 -37 51q10 17 13.5 33.5t3.5 37.5q0 45 -11 100l-22 99q-9 48 -49 71q3 19 12 31q6 8 14 12t10 4l20 4q29 0 45 -20q20 17 43 17l17 -2
q16 -5 25.5 -12.5t12.5 -11t6 -11.5q-40 -31 -40 -83l1 -15l29 -233l94 293l89 -306l45 251l2 10v9q0 45 -32 77q11 31 42 37l11 1q26 0 43 -18q11 9 19.5 12.5t21.5 3.5l16 -2q33 -10 46 -36z" />
    <glyph glyph-name="X" unicode="X" horiz-adv-x="544" 
d="M519 55q0 -18 -12.5 -33t-28.5 -19l-19 -3q-27 0 -45 20q-18 -18 -44 -18l-16 3q-36 12 -43 45q24 18 24 48q-2 17 -6 27l-56 129l-51 -128l-4 -21q0 -35 24 -58q-4 -12 -7.5 -17.5t-8.5 -10.5q-11 -11 -28 -16l-14 -1q-28 0 -46 18q-19 -17 -42 -17l-19 3q-36 14 -42 49
q45 29 73 80l90 209v10q0 12 -5 22q-11 15 -26 21q14 7 19 24l3 13l-3 18l-104 237q-18 41 -57 55q8 42 45 53l17 2q29 0 48 -22q17 17 41 17l14 -2q31 -7 43 -38q-32 -20 -32 -59q0 -15 5 -25l64 -138l64 154q4 9 4 20l-4 20q-11 22 -26 30q10 36 44 42l12 2q27 0 46 -22
q18 18 44 18l20 -4q14 -4 26.5 -17t13.5 -28q-52 -33 -76 -86l-83 -209l-2 -16q0 -32 26 -46q-16 -9 -20 -20l-3 -17l4 -19l91 -207q22 -49 68 -72z" />
    <glyph glyph-name="Y" unicode="Y" horiz-adv-x="575" 
d="M549 742q-49 -26 -67 -75l-88 -202q-5 -10 -6.5 -16t-1.5 -15q0 -17 9 -33q-22 -7 -35.5 -24t-13.5 -39l-1 -99l-1 -97q0 -27 14 -52q14 -22 39 -38q-4 -17 -16.5 -31t-31.5 -19l-15 -2q-31 0 -51 23q-20 -20 -45 -20l-18 3q-38 12 -42 50q28 19 44 44.5t16 57.5v68v46
l-4 67q-6 48 -50 68q8 15 8 36q0 18 -8 36l-59 161q-13 33 -39 60q-14 14 -28.5 24.5t-31.5 17.5q3 19 14 33t29 19q3 2 9 2l9 2q28 0 47 -22q20 24 51 24l16 -2q40 -10 49 -50q-30 -21 -30 -58q2 -20 6 -28l62 -175l74 177l3 22q0 38 -27 62q10 37 48 46l12 2q29 0 49 -22
q16 16 42 16l19 -3q19 -6 27 -17q11 -11 14 -28z" />
    <glyph glyph-name="Z" unicode="Z" horiz-adv-x="446" 
d="M426 204l-2 -14q0 -20 -4 -37t-6 -23.5t-8 -20.5l-4 -19v-16q0 -37 12 -67l-9 -1q-38 0 -64 28q-53 -34 -115 -34q-65 0 -117 35q-21 -30 -59 -30q-19 2 -30 6l118 341l2 14q0 13 -5 24.5t-15 21.5q40 9 57 44l65 179q4 7 4 16v8l-3 8q-10 18 -21 19q-4 2 -11 3t-9 1
q-41 0 -62 -37q-12 -29 -12 -59q0 -17 2 -27t8 -28l-23 -3q-22 0 -40 10q-31 19 -38 51q-2 5 -2 24q0 35 14 65q5 15 5 38q0 34 -17 68q6 2 16 2q35 0 54 -28q31 20 48.5 25t33 7t31.5 2q60 0 109 -32q25 18 61 18h5h11l-114 -330q-4 -8 -4 -20q0 -21 12 -35
q-37 -21 -52 -59l-70 -188l-3 -14l3 -14q4 -10 12.5 -15t19.5 -7t20 -2q19 0 36 7q45 15 61 58q4 17 4 33q0 40 -19 71q16 10 36 10q11 0 22.5 -4t23.5 -11q32 -24 32 -62z" />
    <glyph glyph-name="asciicircum" unicode="^" horiz-adv-x="271" 
d="M258 476q-4 -8 -6.5 -16.5t-2.5 -14.5l3 -20l3 -28v-5v-7q-1 -11 -2.5 -16t-5.5 -12q-8 -12 -20 -20q-13 -5 -22 -5q-19 0 -32 13q10 21 10 42q0 14 -13 19l-16 3h-6l-11 -2l-9 -7q-5 -10 -5 -13v-59v-55h7h5h6q10 1 15 9l3 9l1 8l-1 11q30 0 42 -15q6 -9 7.5 -14
t1.5 -15q0 -11 -4 -16l-6 -9q8 -8 11 -21l1 -8q-2 -15 -6 -21q-9 -20 -33 -20h-12v11l-3 13q-3 10 -10 11l-16 1h-9l-3 -48v-64q0 -19 15 -24l13 -2h5l5 1q10 2 14 7q8 6 9 13l1 7q0 18 -17 30q7 16 13.5 19.5t16.5 3.5h7q23 0 35 -20q10 -27 10 -47l-3 -26q-3 -7 -3 -21
t8 -31l-17 -4q-14 0 -28 12q-24 -18 -56 -18q-16 0 -31 4.5t-27 13.5q-9 -15 -32 -15q-15 2 -26 9.5t-18 25.5l13 12l6 8q18 25 18 53q2 15 2 32.5v27.5v8v27q0 8 -2 13.5t-4 11.5t-14 17q14 12 18 23.5t4 23.5v5v17l1 16v6l-3 43q0 22 -7.5 38.5t-24.5 30.5q2 16 10 23
t16 8h11q17 0 31 -12q21 20 54 20l15 -1q29 -6 51 -22q15 14 49 14z" />
    <glyph glyph-name="a" unicode="a" horiz-adv-x="547" 
d="M525 54q0 -31 -25 -47q-14 -7 -31 -7q-32 0 -54 22q-16 -20 -42 -20l-18 3q-32 8 -39 39q34 44 34 98l-1 20l-4 20l-11 39l-126 -1l-8 -53l-3 -16v-12q0 -56 37 -93q-3 -28 -21.5 -36t-33.5 -8q-31 0 -49 24q-17 -20 -44 -25l-8 -1q-17 0 -32 10.5t-21 28.5q36 29 53 73
q8 15 9 23.5t4 20.5t3 22l15 95l3 49l2 20q0 33 -16 56q28 22 32 55l32 214l1 16q0 19 -8 38q-4 9 -9 16.5t-12 14.5q18 42 60 48q43 0 66 -28q25 26 59 26l18 -1q33 -4 53 -31l-16 -25q-17 -26 -17 -55l1 -11l35 -199q9 -46 47 -71q-20 -27 -20 -64q0 -16 5 -34l37 -161
q12 -61 63 -92zM315 327l-55 296l-39 -297z" />
    <glyph glyph-name="b" unicode="b" 
d="M456 230q-26 -16 -26 -44q0 -41 -15 -82q-19 -43 -53 -67q-35 -28 -79 -34l-13 -3h-21q-65 0 -115 38q-18 -32 -59 -32q-40 6 -52 42q27 24 39 54.5t12 64.5l1 159q0 22 -8 42.5t-22 33.5q32 30 32 76l-1 12l-2 96l-3 76q-7 53 -49 87q16 34 52 44l14 1q13 0 22 -4
q18 -11 24 -28q51 38 113 38q25 0 45 -6q74 -12 116 -73q11 -23 16 -44.5t5 -42.5q6 -28 27 -45q-14 -10 -20 -22.5t-6 -29.5l1 -15l-1 -17l-3 -17q-14 -52 -53 -84q36 -26 48 -67l4 -25l2 -30q6 -33 28 -52zM324 628l-4 21q-16 38 -54 47q-7 2 -19 2q-16 0 -29 -7
q-22 -12 -31 -35q-8 -29 -8 -56l-1 -145l37 -2h17l30 2q18 3 40 22q20 23 20 51l-1 13q-4 24 -21 42q24 18 24 45zM329 183q0 17 -7.5 29.5t-22.5 22.5q25 24 25 55v4l-1 7q-2 17 -11 28.5t-24 16.5q-37 11 -78 11l-33 -3l-2 -170l2 -29l5 -25q24 -21 54 -24q40 0 67 24
q26 19 26 53z" />
    <glyph glyph-name="c" unicode="c" horiz-adv-x="434" 
d="M415 799q-14 -26 -14 -53l2 -24l5 -82q0 -52 -35 -87q-17 -16 -42 -16q-19 0 -35 11q9 27 9 50q0 33 -10 56q-8 24 -29 35q-7 4 -13 4l-11 1q-11 0 -19 -3q-27 -6 -44.5 -26t-17.5 -44q-4 -42 -4.5 -58t-0.5 -26v-33l1 -32q6 -36 27 -66q-29 -37 -29 -84l1 -17
q-1 -9 -1.5 -19t-0.5 -15v-11q0 -55 12 -106q18 -42 63 -48h10q20 0 36 11q21 16 26 39l3 14v23q0 36 -9 65q14 5 32 5l15 -1l20 -4q18 -4 30 -20.5t12 -41.5l-1 -40l-3 -38q-2 -8 -2 -18v-15v-22t2 -20l9 -37q-39 0 -68 24q-48 -30 -103 -30q-60 0 -111 33q-34 24 -52 61
q-8 18 -12.5 38t-4.5 42q0 75 -8 160q0 40 -30 72q32 33 32 78v44l2 67l4 64q11 47 38 79q32 36 75 48q16 5 31 7t30 2q59 0 109 -28q12 17 28 24q14 9 36 9z" />
    <glyph glyph-name="d" unicode="d" horiz-adv-x="466" 
d="M446 389q-13 -9 -20.5 -24t-7.5 -35l-3 -158q0 -44 -21 -82q-41 -60 -105 -82q-23 -8 -54 -8q-59 0 -105 34q-17 -26 -48 -26l-12 1q-39 8 -48 42q22 15 35 38t13 49l5 116q1 16 1.5 31.5t0.5 38.5q0 21 -9 36q-5 10 -8.5 15t-14.5 17q15 15 22 29t7 32v95l-1 95
q0 64 -51 100q9 41 49 47l11 1q34 0 52 -28q39 32 90 36l18 1q45 0 81 -21q40 -21 60 -59q28 -49 28 -104l3 -82l4 -80q0 -37 28 -65zM312 502v18l-1 47v48q0 45 -41 63q-23 7 -40 7l-28 -3q-23 -12 -23 -35l-1 -102v-102q6 -28 24 -52q-13 -9 -17 -24q-6 -15 -6 -30l-1 -91
l-1 -92q2 -18 9 -29.5t20.5 -17.5t29.5 -6q27 0 44 17q27 23 27 60q2 6 2 16t1 16l1 32v8v11v12v31v42q-2 17 -9 29t-18 22q26 17 26 49z" />
    <glyph glyph-name="e" unicode="e" horiz-adv-x="421" 
d="M402 653l-1 -11q0 -23 -11.5 -42.5t-28 -29t-34.5 -9.5q-28 0 -44 16q15 33 15 68q0 29 -27 38q-14 7 -29 7h-12l-16 -4q-13 -5 -22.5 -16.5t-9.5 -24.5v-99v-98q3 -1 8 -1.5t11 -0.5h9l10 1q24 0 33 20q2 4 3 8.5t2.5 8.5t1.5 15l-1 9q34 3 55 -22q7 -10 10 -20l3 -23
q-1 -7 -1.5 -12t-4.5 -11q-8 -13 -16 -18q19 -16 23 -38l2 -11q-2 -18 -9 -31q-15 -29 -47 -29l-13 1l1 9q0 12 -5 25q-8 22 -18.5 23t-19 1.5t-14.5 1.5h-22q-6 -48 -6 -89l-1 -107q0 -34 32 -48l23 -3h9l10 2q16 1 28 12t17 26q2 4 2 15q0 34 -27 52q7 17 18 22.5t22 5.5
h11q33 0 52 -30q16 -36 16 -73q0 -20 -5 -43q-3 -9 -4.5 -20.5t-1.5 -15.5q0 -24 9 -47l-16 -3q-27 0 -44 23q-42 -33 -95 -33q-26 0 -52.5 9t-45.5 25q-16 -29 -51 -29q-11 0 -19.5 3t-19.5 10q-18 13 -25 34l17 17q9 7 13 16q29 41 29 91q4 45 4 100v14v38l1 10
q0 20 -9.5 38t-22.5 29q18 15 26 36t8 42v8v27l1 29v9l-4 73q0 37 -15 69t-38 48q2 17 13.5 28t22.5 12l17 1q31 0 51 -23q39 36 90 36l25 -2q50 -9 87 -40q24 27 65 27q-8 -20 -8 -45l4 -34q6 -20 6 -44v-9z" />
    <glyph glyph-name="f" unicode="f" horiz-adv-x="426" 
d="M406 799q-19 -25 -19 -56l1 -15l10 -42q4 -6 4 -16l2 -14q0 -37 -25 -64.5t-63 -27.5q-22 0 -45 13q14 15 20.5 33.5t6.5 39.5q0 24 -15 36q-14 14 -36 14l-8 1q-30 0 -50 -24v-228l41 1q16 0 24 15l7 17l2 17l-1 13l9 1q21 0 40 -12t26 -35l1 -12q0 -30 -23 -51
q28 -18 28 -49l-3 -19q-9 -22 -30 -34q-13 -7 -28 -7l-16 1l3 15l-4 19q-8 17 -25 23l-26 3l-25 1v-203q0 -67 53 -115q-15 -32 -50 -37l-8 -1q-31 0 -51 22q-19 -20 -47 -20l-15 1q-39 11 -46 46q22 15 39 41q14 22 14 53l4 123v73q0 42 -31 63q23 20 27 51v53l-2 85l-7 76
q-15 52 -50 82q3 13 5.5 18t9.5 12q13 13 30 16l10 1q34 0 49 -26q48 29 107 29q58 0 105 -29q23 30 59 30z" />
    <glyph glyph-name="g" unicode="g" horiz-adv-x="465" 
d="M444 408q-14 -16 -26 -39q-9 -23 -9 -44l2 -295q-31 0 -48 26q-56 -56 -141 -56q-42 0 -76 19.5t-53 49t-25.5 47.5t-8.5 30.5t-2 26.5v165q0 50 -36 74q39 32 39 78l-1 12v128q0 47 24 89.5t62 63.5q39 17 76 17l17 -1q56 0 93 -40q21 35 59 35l12 -1q-16 -26 -16 -56
q0 -18 6 -35q10 -26 10 -55v-21q-3 -11 -4 -15q-7 -36 -41 -57q-24 -15 -51 -15l-19 2q15 26 15 63q0 26 -9 52q-22 38 -67 38h-8l-13 -3q-24 -10 -36.5 -31t-12.5 -46l-1 -154q0 -40 32 -58q-29 -20 -29 -55l1 -167q0 -34 24 -55q21 -18 47 -18l11 1q27 4 45 24.5t18 48.5
l-3 157q0 22 -15 37q-7 8 -15 14t-19 8q0 19 16.5 34.5t37.5 15.5q29 0 44 -24q8 15 22 21.5t30 3.5q35 -6 42 -40z" />
    <glyph glyph-name="h" unicode="h" horiz-adv-x="514" 
d="M490 52q-6 -18 -16 -30q-18 -17 -43 -17t-41 19q-17 -20 -44 -20l-14 2q-18 4 -28.5 15.5t-13.5 28.5q12 13 23 34q18 22 18 52l1 220l-150 -2l-2 -190l-1 -9q0 -8 1.5 -17t5.5 -21q12 -43 48 -68q-6 -23 -23 -36q-14 -13 -32 -13q-6 0 -20 2t-27 21q-18 -22 -46 -22
l-9 1q-43 4 -52 45q27 24 41.5 52t14.5 59l1 180q0 23 -12 40q-9 17 -23 26q9 4 14 11q21 24 21 50l-2 196q0 27 -17 52q-14 23 -40 35q0 17 12.5 31.5t24.5 17.5l22 3q31 0 52 -21q17 17 39 17l10 -1q18 0 34 -13t19 -32q-16 -15 -31 -38q-10 -14 -15.5 -31t-5.5 -32
l-1 -191h149l-6 188v20l-4 18q-9 41 -37 68q0 10 5 18l5 8q21 19 43 19l23 -6q12 -6 19 -13q23 15 49 15l18 -2q11 -2 22 -11q13 -13 14 -26q-26 -17 -39 -43.5t-13 -58.5l-1 -180q2 -15 9 -36q11 -22 30 -34q-10 -6 -19 -16q-16 -22 -16 -54l2 -181l2 -22q2 -7 3.5 -11.5
t4.5 -10.5q12 -35 44 -55z" />
    <glyph glyph-name="i" unicode="i" horiz-adv-x="245" 
d="M234 754q-19 -12 -30 -32q-25 -37 -25 -77l1 -179q0 -45 32 -66q-18 -14 -28 -35.5t-10 -38.5l-2 -173q0 -40 23 -74q9 -16 30 -32q-4 -18 -19 -31q-11 -9 -20 -12.5t-24 -3.5q-27 3 -42 22q-23 -20 -49 -20q-18 0 -35 10.5t-25 28.5q26 16 42.5 45t16.5 60v176l1 9
q0 39 -29 65q27 20 32 55l3 187q0 47 -23 87q-13 21 -32 34q11 20 28 30.5t34 10.5l10 -1q25 -5 37 -21l25 15q13 5 22 5q12 0 28 -8q7 -7 14.5 -17t13.5 -19z" />
    <glyph glyph-name="j" unicode="j" horiz-adv-x="502" 
d="M480 748q-21 -16 -34 -40t-13 -50v-8v-32l1 -30v-10v-12v-12v-15v-17v-19v-21v-26q0 -17 6 -29q9 -14 20 -22q-26 -25 -26 -61v-9v-99v-98q-3 -21 -10 -39.5t-20 -35.5q-25 -33 -64.5 -48t-78.5 -15l-42 4q-8 1 -15.5 3t-22.5 7q-40 15 -66 45t-33 73l-12 76l-3 70
q-6 45 -44 64q0 16 11 32q11 13 29 20l9 1l10 2q25 0 44 -19q18 21 43 21l17 -2q17 -6 26.5 -20t9.5 -31q-33 -30 -42 -69l-4 -32v-16l1 -26l2 -22q0 -46 38 -67q19 -10 39 -10q17 0 36 8.5t29.5 25t10.5 36.5v64l-1 52l-2 53q0 33 -30 54q13 13 19.5 30t6.5 30v8v27l1 28
v10v10v12v14v15v17v20v24q-9 67 -59 107q11 38 47 48l16 2q29 0 47 -21q18 22 45 22l20 -4q14 -3 26 -17.5t12 -30.5z" />
    <glyph glyph-name="k" unicode="k" horiz-adv-x="523" 
d="M499 754q-63 -16 -93 -74l-136 -227q17 -39 60 -51q-7 -11 -7 -19v-13q0 -21 8 -39l95 -229q20 -43 63 -59q-12 -32 -44 -41l-15 -1q-27 0 -44 17q-18 -18 -45 -18q-7 0 -13 1t-14 5q16 20 16 49q0 14 -5 31q-39 109 -92 208q-12 25 -36 38q-23 -25 -23 -52v-8v-28l1 -27
v-10v-10v-12v-14v-15v-18q0 -25 13 -54q7 -12 16 -24.5t19 -21.5q-15 -29 -45 -34l-10 -1q-13 0 -24 4.5t-20 13.5q-18 -14 -41 -14l-15 2q-32 9 -44 37q22 18 35 42.5t13 54.5l3 69v10l-1 65v65q-4 32 -27 56q21 19 27 50v8v28l1 27v9v10v11v14l-1 52l-3 44q0 61 -45 97
q15 30 44 36l16 1q23 0 41 -12q20 17 45 17l11 -1q33 -8 48 -34q-25 -19 -37.5 -43.5t-12.5 -51.5q-7 -80 -7 -169q15 18 34 45q14 20 31 46t30 50q10 18 25 48q1 2 2.5 11.5t1.5 15.5q0 25 -12 45q8 14 22.5 23t28.5 9q34 3 56 -22q17 26 48 26l17 -1q13 -3 25.5 -15
t15.5 -28z" />
    <glyph glyph-name="l" unicode="l" horiz-adv-x="474" 
d="M453 178q0 -7 -2 -17t-5 -22q-14 -33 -14 -63q0 -17 4 -33.5t11 -31.5l-9 -1l-9 -2q-33 0 -54 26q-52 -34 -113 -34q-70 0 -126 42q-10 -18 -29 -24l-18 -3l-19 3q-35 15 -48 46q28 15 43.5 43t15.5 61l-1 82v83q0 47 -36 76q7 5 12 10q9 9 15 20q11 20 11 39v168
q0 30 -14.5 58.5t-37.5 41.5q9 43 48 52l15 2q32 0 52 -25q18 23 46 23l10 -1q34 -6 46 -38q-30 -20 -44.5 -52.5t-14.5 -67.5v-157q0 -22 9 -40q4 -8 10.5 -17t15.5 -18q-18 -13 -26 -29q-9 -14 -9 -34l-1 -83l-1 -83q0 -21 13.5 -37.5t34.5 -23t35 -6.5q36 0 65 27
q20 20 20 47l-2 15q-6 32 -22 55q20 15 44 15l22 -3q37 -10 49 -45q8 -26 8 -44z" />
    <glyph glyph-name="m" unicode="m" horiz-adv-x="574" 
d="M548 754q-28 -21 -45 -50q-15 -29 -15 -62l-1 -90v-88q3 -20 10 -34q10 -16 21 -26q-29 -26 -29 -63q0 -15 -1 -45t-1 -44l-1 -88q0 -32 15 -61.5t39 -52.5q-8 -38 -44 -48l-15 -1q-28 0 -48 21q-18 -22 -45 -22l-14 2q-17 4 -29 16t-15 28q26 29 37.5 67t11.5 77l-8 212
l-89 -293l-92 308l-1 -225q0 -21 2.5 -37t10.5 -40q15 -41 37 -70q-9 -35 -43 -43l-14 -1q-28 0 -44 19q-19 -18 -44 -18l-19 3q-35 12 -41 48q39 39 43 88l1 94l1 94q0 40 -32 66q19 20 28.5 40.5t9.5 45.5v46l-2 73l-5 67q-6 54 -52 84q12 39 50 46l13 1q32 0 52 -24
q29 24 65 24l12 -1l65 -260l68 261l16 2q36 0 63 -22q21 20 51 20l14 -1q38 -7 53 -43z" />
    <glyph glyph-name="n" unicode="n" horiz-adv-x="527" 
d="M503 57q-13 -40 -54 -51l-15 -1q-32 0 -55 25q-26 -25 -58 -28l-132 414l-11 -248q0 -38 12 -71q16 -36 38 -57q-13 -31 -46 -37l-12 -1q-25 0 -44 17q-18 -19 -44 -19l-19 3q-39 13 -39 51q25 18 37.5 44t12.5 56l3 186q0 37 -29 55q26 20 26 54l4 201q0 63 -43 102
q11 36 48 42h10q31 0 49 -24q5 16 21 24t31 5l140 -443l6 290q0 34 -14 65.5t-40 50.5q15 31 48 37l10 1q29 0 49 -21q20 19 47 19l11 -1q34 -7 49 -36q-55 -42 -55 -115l-6 -166l-1 -7q0 -21 11.5 -40.5t30.5 -30.5q-42 -20 -42 -70v-25l2 -91l6 -80q0 -27 17.5 -49
t39.5 -30z" />
    <glyph glyph-name="o" unicode="o" horiz-adv-x="455" 
d="M434 407q-29 -25 -29 -65l-3 -159q0 -52 -34.5 -99t-81.5 -70q-31 -14 -61 -14q-33 0 -61 14q-54 24 -84.5 69.5t-30.5 98.5l-6 163q0 15 -5 33q-6 16 -17 27q24 21 24 57q0 34 4 97t4 92q7 46 33 79q12 16 29.5 29.5t35.5 22.5q41 18 79 18q39 0 76 -17q39 -21 60 -57
q22 -32 28 -80l8 -90l2 -94q2 -19 10 -31.5t20 -23.5zM299 527l-1 34l-3 49q0 18 -5 28l-12 28q-21 27 -53 27l-17 -2q-25 -12 -39.5 -34t-14.5 -47l1 -70l1 -68q4 -37 27 -69q-28 -28 -28 -64l-1 -77v-77q0 -25 16 -45t40 -25l19 -2l19 2q37 15 43 54l3 107l1 63
q-6 35 -27 63q15 16 22 32q7 21 7 36z" />
    <glyph glyph-name="p" unicode="p" horiz-adv-x="469" 
d="M448 557l-6 -7l-7 -5l-5 -7l-5 -8l-3 -8l-4 -8l-2 -9l-2 -8v-43l1 -8l-1 -9v-10l-2 -9l-2 -8l-4 -8l-3 -8l-5 -8l-5 -12l-7 -11l-8 -10l-9 -9l-10 -8l-11 -8l-12 -6l-12 -5l-7 -3l-9 -3l-9 -2l-9 -2l-8 -1l-9 -1h-8l-10 1h-9l-8 1l-9 3l-8 2l-8 2l-9 4l-8 4l-8 4l-2 -161
v-15l1 -17l3 -12l4 -11l6 -11l7 -10l8 -10l8 -9l10 -8l11 -6l-2 -8l-3 -9l-5 -9l-5 -7l-7 -7l-6 -6l-8 -4l-10 -4l-8 -1l-10 -1l-9 1l-9 2l-8 3l-8 5l-8 7l-6 7l-6 -6l-7 -5l-7 -4l-8 -3l-8 -1l-9 -2l-8 1l-7 1l-9 2l-7 3l-8 4l-6 5l-7 6l-5 6l-4 7l-4 7l11 10l10 12l9 12
l8 13l7 13l5 14l4 15l3 15l3 63v29v27l-2 29l-3 27l-1 17l-2 16l-1 6l-2 6l-2 6l-3 6l-4 5l-4 5l-5 5l-5 3l6 5l5 5l4 7l4 6l3 7l3 7l2 7l1 6l2 25l1 25l2 31v31l-1 32l-3 32v10l-1 10l-1 8l-1 11l-2 9l-2 10l-3 10l-3 8l-3 7l-4 7l-4 6l-5 7l-5 5l-6 6l-6 5l-6 4l3 7l4 8
l6 7l6 6l6 5l8 4l8 4l8 1l9 1l8 -1l9 -1l8 -4l8 -4l6 -4l7 -6l5 -7l13 9l15 8l14 5l15 6l15 3l16 2l16 2l16 -1l16 -1l15 -4l15 -4l15 -6l14 -7l13 -8l13 -10l12 -9l8 -9l8 -10l7 -10l6 -11l6 -10l4 -11l4 -12l3 -12l7 -46l1 -9l1 -8l2 -8l3 -8l5 -8l5 -8l5 -7zM322 486v8v7
v8l-1 7l-3 8l-3 7l-4 7l-5 5l-5 6l4 5l3 6l3 6l3 7l2 6l2 7v8l1 6v6v8l-1 7l-1 6l-2 7l-2 7l-3 6l-4 6l-4 9l-5 8l-7 7l-7 6l-7 6l-8 4l-9 3l-9 2h-8h-6l-7 -1l-7 -2l-5 -2l-7 -3l-6 -3l-6 -4l-5 -4l-5 -5l-5 -24l-4 -24l-3 -24l-2 -24v-25v-24l2 -25l3 -24l2 -10l3 -10
l5 -10l5 -8l7 -8l8 -6l9 -6l8 -4l10 -3l10 -1h9l10 2l9 2l8 4l8 5l8 6l6 6l5 7l5 7l3 8l2 8l2 8z" />
    <glyph glyph-name="q" unicode="q" horiz-adv-x="476" 
d="M454 92q0 -44 -33 -68q-25 -17 -51 -17q-20 0 -42 11q-10 8 -11 12l-31 -16q-31 -14 -60 -14q-35 0 -61 14q-54 24 -84.5 69.5t-30.5 98.5l-5 163q0 37 -23 60q24 23 24 57l3 94l2 94q9 47 35 78q29 37 68 54.5t76 17.5q40 0 77 -17q39 -21 60 -57q23 -36 26 -65.5t6 -60
t3 -44.5l3 -94q4 -36 31 -55q-30 -24 -30 -65q0 -13 -1 -40t-1 -40l-1 -79q0 -38 -18 -70q12 -15 33 -15q11 0 19.5 3.5t14.5 9.5q2 -6 2 -19zM299 536v10l-2 64l-6 28l-13 28q-20 27 -52 27l-17 -2q-24 -12 -37.5 -33.5t-13.5 -47.5q-2 -12 -3 -26.5t-1 -42.5v-37l4 -42
q3 -27 26 -59q-28 -20 -28 -64v-154q0 -12 4 -23t11 -21q16 -22 39 -26l18 -3q18 0 31 10l-40 62q14 11 31 11q15 -2 16 -3l25 -14q6 60 6 124v17v20q-6 37 -28 63q29 32 29 68v8v29z" />
    <glyph glyph-name="r" unicode="r" horiz-adv-x="484" 
d="M462 39q-16 -39 -52 -39q-39 0 -59 29q-21 -25 -53 -25l-16 2q16 41 16 81q0 12 -2 25.5t-4 23.5l-37 123q-6 26 -27.5 43.5t-45.5 17.5l-6 -131l-2 -11v-11q0 -76 57 -131q-18 -25 -47 -30l-13 -2q-22 0 -42 14q-21 -15 -42 -15l-14 2q-30 8 -47 33q49 43 56 101l-2 198
l2 13q0 36 -26 60q22 30 22 67l-1 176l1 15q0 28 -16 50q-14 24 -40 35q7 17 21.5 28.5t31.5 11.5q44 0 64 -29q53 36 115 36q32 0 58.5 -9.5t43 -22t30.5 -34.5q28 -40 28 -88l-2 -16q0 -43 30 -73q-25 -29 -25 -66l-11 -57q-7 -32 -30.5 -57.5t-55.5 -35.5q43 -49 55 -114
l11 -67q4 -37 24.5 -69.5t51.5 -51.5zM315 618q0 29 -18 50q-21 25 -53 30h-9q-30 0 -50 -16l-10 -209q0 -29 16.5 -43.5t37.5 -14.5l10 1q29 0 48.5 16.5t19.5 43.5q4 13 4 23q0 34 -24 57q13 11 20 24.5t7 29.5z" />
    <glyph glyph-name="s" unicode="s" horiz-adv-x="397" 
d="M379 202q0 -49 -21.5 -96t-63 -76.5t-92.5 -29.5q-61 0 -106 37q-26 -28 -65 -37q4 14 6 31t2 35l-2 37l-6 31l-5 22q-8 16 -8 34q0 25 13 44q13 23 27 25l24 2q26 0 46 -10q-10 -27 -10 -50q0 -30 12 -59q18 -26 43 -34l15 -2q26 0 50 16q30 29 30 67l1 14q0 46 -23 87
q-11 24 -34 44q-31 32 -81 32l1 10q0 38 -28 66q-37 34 -58 77q-5 12 -10.5 27t-9 28t-4.5 25t-1 30v11l1 14q10 50 36 88q29 32 62 44.5t75 12.5q56 0 105 -32q19 33 61 33q-12 -29 -12 -58l1 -24l5 -21l8 -27l3 -25q0 -33 -16 -60q-17 -23 -44 -26l-9 -1q-24 0 -40 13
q12 24 12 51l-3 26q-11 35 -38 46q-12 4 -26 4q-22 0 -40 -12q-27 -18 -30 -51l-1 -15q0 -25 11 -45q33 -56 80 -91q32 -25 72 -25l-2 -13q0 -23 14 -43q48 -66 66 -147q7 -25 7 -54z" />
    <glyph glyph-name="t" unicode="t" horiz-adv-x="446" 
d="M426 634q0 -35 -14.5 -65t-41.5 -40q-17 -5 -27 -5q-17 0 -32 7q22 32 22 69q0 41 -24 74q-9 12 -23 8q-13 -4 -13 -18v-203q0 -39 26 -62q-15 -13 -23.5 -30.5t-8.5 -35.5l1 -184q7 -63 56 -100q-9 -39 -47 -47l-15 -2q-30 0 -49 22q-18 -19 -44 -19l-16 2
q-35 10 -43 45q27 27 40.5 58t13.5 62l-2 183q0 31 -25 47q29 25 29 61l4 208l-6 13q-6 8 -14 8q-16 -2 -24 -12q-10 -10 -10 -27q-1 -8 -1.5 -17t-0.5 -14q0 -39 12 -74q-15 -6 -28 -6q-26 0 -45.5 14.5t-26 30t-6.5 30.5q1 6 1 10q0 40 10 83q7 18 7 38q0 27 -11 51l8 1
q30 0 57 -22q29 24 64 24q32 0 58 -18q29 16 60 16q45 0 80 -30q23 24 52 24l13 -2l-7 -30l-1 -26q0 -32 11 -68q4 -15 4 -32z" />
    <glyph glyph-name="u" unicode="u" 
d="M457 754q-45 -32 -45 -88l4 -191q0 -44 30 -71q-11 -14 -18.5 -31.5t-7.5 -34.5l-1 -172q0 -45 -21 -83q-19 -38 -57 -61q-45 -22 -96 -22q-50 0 -95 21q-41 21 -62.5 62t-21.5 85l-1 86l-1 87q0 17 -9.5 33.5t-21.5 24.5q11 9 16.5 15.5t9.5 17.5q9 18 9 42v192
q0 57 -46 86q5 17 15 29q6 6 12 10t12 5l20 3q26 0 44 -18q16 16 40 16l17 -3q33 -12 38 -45q-36 -27 -45 -75q-4 -28 -6 -55.5t-2 -62.5l4 -88q0 -7 2 -15.5t5 -18.5q5 -10 9 -17t11 -15q-16 -10 -23 -25t-7 -35q0 -15 1 -44.5t1 -43.5v-88q0 -24 12.5 -40t34.5 -19l18 -2
l13 -1l27 2q21 6 32 23q6 8 8 17.5t2 20.5l-2 175q0 36 -30 59q26 23 26 54q-1 7 -1 11q0 20 -1 57t-1 54l-6 98q0 22 -12.5 42.5t-30.5 31.5q4 34 39 46l17 3q25 0 41 -16q21 18 42 18l17 -2q35 -11 42 -44z" />
    <glyph glyph-name="v" unicode="v" horiz-adv-x="554" 
d="M529 750q-48 -26 -59 -78l-44 -204v-14.5t4 -22.5t12 -29q-34 -18 -44 -52l-57 -271q-2 -6 -2 -23q0 -27 9 -50q-13 -5 -30 -5q-33 0 -56 23q-21 -24 -49 -24h-8l-15 4q7 20 7 37l-3 27l-51 277q-6 35 -37 53q18 23 18 48l-1 12q-6 56 -16 110.5t-23.5 105t-58.5 70.5
q8 42 47 54l14 1q33 0 52 -25q17 23 46 23l14 -2q39 -10 43 -47q-34 -25 -34 -67l1 -13l62 -396l73 408q0 18 -8 38t-23 32q9 37 46 48l17 2q27 0 47 -20q18 18 44 18l18 -3q20 -7 29 -17q11 -10 16 -28z" />
    <glyph glyph-name="w" unicode="w" horiz-adv-x="648" 
d="M622 751q-47 -39 -60 -97q-28 -96 -37 -192l-1 -8q0 -32 22 -55q-23 -12 -36 -30q-12 -21 -12 -43l-37 -216l-3 -29q0 -40 17 -79q-35 0 -64 21q-12 -12 -29.5 -17.5t-36.5 -5.5q7 25 7 51l-2 25l-2 17l-39 165l-41 -148q-5 -22 -5 -39q0 -19 4 -34t11 -32
q-5 -2 -11.5 -3t-10.5 -1q-31 0 -51 24q-25 -23 -55 -23l-14 2q10 21 14 41.5t4 43.5v21q0 47 -10 119l-19 127q-4 35 -36 52q11 18 14.5 33.5t3.5 36.5q0 47 -9 100l-20 100q-9 48 -48 72q3 19 11 28.5t16 13.5t10 4l20 4q28 0 45 -21q19 16 43 16l17 -2q14 -5 26.5 -14.5
t16.5 -21.5q-41 -32 -41 -82l1 -15l24 -234l100 292l83 -308l50 250l2 10v9q0 45 -31 78q12 30 43 36l11 1q26 0 43 -19q20 15 41 15l16 -2q33 -10 45 -37z" />
    <glyph glyph-name="x" unicode="x" horiz-adv-x="544" 
d="M519 55q0 -18 -12.5 -33t-28.5 -19l-19 -3q-27 0 -45 20q-18 -18 -44 -18l-16 3q-36 12 -43 45q24 18 24 48q-2 17 -6 27l-56 129l-51 -128l-4 -21q0 -35 24 -58q-4 -12 -7.5 -17.5t-8.5 -10.5q-11 -11 -28 -16l-14 -1q-28 0 -46 18q-19 -17 -42 -17l-19 3q-36 14 -42 49
q45 29 73 80l90 209v10q0 12 -5 22q-11 15 -26 21q14 7 19 24l3 13l-3 18l-104 237q-18 41 -57 55q8 42 45 53l17 2q29 0 48 -22q17 17 41 17l14 -2q31 -7 43 -38q-32 -20 -32 -59q0 -15 5 -25l64 -138l64 154q4 9 4 20l-4 20q-11 22 -26 30q10 36 44 42l12 2q27 0 46 -22
q18 18 44 18l20 -4q14 -4 26.5 -17t13.5 -28q-52 -33 -76 -86l-83 -209l-2 -16q0 -32 26 -46q-16 -9 -20 -20l-3 -17l4 -19l91 -207q22 -49 68 -72z" />
    <glyph glyph-name="y" unicode="y" horiz-adv-x="575" 
d="M549 742q-49 -26 -67 -75l-88 -202q-5 -10 -6.5 -16t-1.5 -15q0 -17 9 -33q-22 -7 -35.5 -24t-13.5 -39l-1 -99l-1 -97q0 -27 14 -52q14 -22 39 -38q-4 -17 -16.5 -31t-31.5 -19l-15 -2q-31 0 -51 23q-20 -20 -45 -20l-18 3q-38 12 -42 50q28 19 44 44.5t16 57.5v68v46
l-4 67q-6 48 -50 68q8 15 8 36q0 18 -8 36l-59 161q-13 33 -39 60q-14 14 -28.5 24.5t-31.5 17.5q3 19 14 33t29 19q3 2 9 2l9 2q28 0 47 -22q20 24 51 24l16 -2q40 -10 49 -50q-30 -21 -30 -58q2 -20 6 -28l62 -175l74 177l3 22q0 38 -27 62q10 37 48 46l12 2q29 0 49 -22
q16 16 42 16l19 -3q19 -6 27 -17q11 -11 14 -28z" />
    <glyph glyph-name="z" unicode="z" horiz-adv-x="446" 
d="M426 204l-2 -14q0 -20 -4 -37t-6 -23.5t-8 -20.5l-4 -19v-16q0 -37 12 -67l-9 -1q-38 0 -64 28q-53 -34 -115 -34q-65 0 -117 35q-21 -30 -59 -30q-19 2 -30 6l118 341l2 14q0 13 -5 24.5t-15 21.5q40 9 57 44l65 179q4 7 4 16v8l-3 8q-10 18 -21 19q-4 2 -11 3t-9 1
q-41 0 -62 -37q-12 -29 -12 -59q0 -17 2 -27t8 -28l-23 -3q-22 0 -40 10q-31 19 -38 51q-2 5 -2 24q0 35 14 65q5 15 5 38q0 34 -17 68q6 2 16 2q35 0 54 -28q31 20 48.5 25t33 7t31.5 2q60 0 109 -32q25 18 61 18h5h11l-114 -330q-4 -8 -4 -20q0 -21 12 -35
q-37 -21 -52 -59l-70 -188l-3 -14l3 -14q4 -10 12.5 -15t19.5 -7t20 -2q19 0 36 7q45 15 61 58q4 17 4 33q0 40 -19 71q16 10 36 10q11 0 22.5 -4t23.5 -11q32 -24 32 -62z" />
    <glyph glyph-name="glyph78" horiz-adv-x="0" 
 />
    </font>
</defs>
</svg>
