<?xml version="1.0" standalone="no"?>
<!DOCTYPE svg PUBLIC "-//W3C//DTD SVG 1.1//EN" "http://www.w3.org/Graphics/SVG/1.1/DTD/svg11.dtd" >
<svg xmlns="http://www.w3.org/2000/svg" xmlns:xlink="http://www.w3.org/1999/xlink" version="1.1">
<metadata>
Created by FontForge 20161013 at Thu Feb 21 18:20:38 2008
 By ,,,
 James L. DeVries 1989, 1990, All Rights Reserved.
</metadata>
<defs>
<font id="Varsity" horiz-adv-x="2416" >
  <font-face 
    font-family="Varsity"
    font-weight="400"
    font-stretch="normal"
    units-per-em="4096"
    panose-1="0 0 0 0 0 0 0 0 0 0"
    ascent="3276"
    descent="-820"
    x-height="2564"
    cap-height="3207"
    bbox="0 -246 3436 3383"
    underline-thickness="82"
    underline-position="-307"
    unicode-range="U+0008-F8FF"
  />
<missing-glyph horiz-adv-x="2048" 
d="M164 2728h1720v-2728h-1720v2728zM246 2646v-2564h1556v2564h-1556z" />
    <glyph glyph-name=".notdef" horiz-adv-x="2048" 
d="M164 2728h1720v-2728h-1720v2728zM246 2646v-2564h1556v2564h-1556z" />
    <glyph glyph-name=".null" horiz-adv-x="0" 
 />
    <glyph glyph-name=".null" horiz-adv-x="0" 
 />
    <glyph glyph-name=".null" horiz-adv-x="0" 
 />
    <glyph glyph-name="nonmarkingreturn" horiz-adv-x="1365" 
 />
    <glyph glyph-name=".space" unicode="&#x9;" horiz-adv-x="2048" 
 />
    <glyph glyph-name=".space" unicode="&#xd;" horiz-adv-x="2048" 
 />
    <glyph glyph-name="space" unicode=" " horiz-adv-x="2048" 
 />
    <glyph glyph-name="exclam" unicode="!" horiz-adv-x="1433" 
d="M0 0v3207h1286v-3207h-1286zM164 156h958v2891h-958v-2891zM319 315v643h643v-643h-643zM319 1122v1765h648l-5 -1765h-643z" />
    <glyph glyph-name="quotedbl" unicode="&#x22;" horiz-adv-x="1945" 
d="M1765 3371v-1180q0 -149 -90 -285t-223 -220.5t-248 -84.5q-166 0 -319 148q-144 -134 -324 -144q-160 0 -289 82t-200.5 217t-71.5 287v1180h1765zM160 3207v-1016q0 -113 53 -212.5t144.5 -158.5t203.5 -59q209 0 324 164q115 -164 319 -164q108 0 200 59.5t144.5 160
t52.5 210.5v1016h-1441zM320 3047h483v-856q0 -108 -69.5 -189t-172.5 -81q-102 0 -171.5 82t-69.5 188v856zM963 3047h483v-856q0 -108 -69.5 -189t-172.5 -81q-102 0 -171.5 82t-69.5 188v856z" />
    <glyph glyph-name="numbersign" unicode="#" horiz-adv-x="2580" 
d="M0 1122v1765h319v320h1770v-320h319v-1765h-319v-323h-1770v323h-319zM160 1282h323v-323h1442v323h319v1446h-319v319h-1442v-319h-323v-1446zM323 1442v483h316v160h-320v483h320v319h487v-319h156v319h487v-319h320v-483h-320v-160h320v-483h-320v-320h-487v320h-156
v-320h-487v320h-316zM1126 1925h156v160h-156v-160z" />
    <glyph glyph-name="dollar" unicode="$" horiz-adv-x="2396" 
d="M479 -164v320h-323v1175l-156 143v1131l479 479v283h1290v-320h320v-1167l155 -164l5 -1122l-480 -471v-287h-1290zM643 -4h958v319h136l348 356v971l-275 283h115v962h-324v320h-958v-320h-127l-356 -360l-4 -967l286 -278h-118v-967h319v-319zM799 479h-320v643h803
v160h-606l-356 360v795l282 291h197v319h647v-319h323v-643h-802v-160h589l373 -365v-798l-287 -283h-196v-323h-647v323z" />
    <glyph glyph-name="percent" unicode="%" horiz-adv-x="3256" 
d="M319 0v562l402 777v102h-209l-512 529v712l524 525h712l255 -242l111 127v115h1130v-574l-402 -777v-95h193l528 -520v-720l-524 -521h-724l-238 238l-119 -131v-107h-1127zM483 156h844l156 324h77l324 -324h565l438 434v577l-438 434h-364v86l483 942v418h-880v-106
l-82 -107v-107h-115l-337 320h-548l-446 -438v-565l434 -443h368v-102l-479 -929v-414zM639 316v74l1254 2497h519v-90l-1258 -2481h-515zM676 1782l-357 348v389l373 368h393l348 -348v-388l-348 -369h-409zM1602 684v385l372 372h389l369 -360v-405l-369 -360h-393z
M803 2245h159v159h-159v-159zM2089 799h155v159h-155v-159z" />
    <glyph glyph-name="ampersand" unicode="&#x26;" horiz-adv-x="2560" 
d="M517 0l-517 520v2158l525 529h1040l524 -525v-757h319v-1127h-319v-278l-529 -520h-1043zM160 593l447 -437h884l434 442v360h319v803h-319v852l-438 434h-893l-434 -447v-2007zM320 2518l364 369h713l372 -365v-761h-446l-201 205v278h-155v-286l237 -234v-73l-237 -247
v-446h159v446l201 197h762v-479h-320v-442l-376 -365h-700l-373 373v786l160 164v90l-160 164v626z" />
    <glyph glyph-name="quotesingle" unicode="'" horiz-adv-x="1311" 
d="M1126 3371v-1180q0 -153 -75.5 -289t-206 -216.5t-283.5 -80.5q-154 0 -283 80.5t-203.5 215.5t-74.5 290v1180h1126zM160 3207v-1016q0 -113 53 -212.5t144.5 -158.5t203.5 -59q109 0 201.5 59t146 157t53.5 210v1020h-802zM320 3047h483v-856q0 -108 -69.5 -189
t-172.5 -81q-102 0 -171.5 82t-69.5 188v856z" />
    <glyph glyph-name="parenleft" unicode="(" horiz-adv-x="1741" 
d="M520 -164l-520 524v2478l524 545h1082v-770l-320 -328v-1363l320 -320v-766h-1086zM160 438l446 -438h836v516l-316 324v1536l316 311v524h-844l-438 -442v-2331zM319 524v2150l361 373h606v-282l-319 -308l-5 -1691l324 -332v-278h-606z" />
    <glyph glyph-name="parenright" unicode=")" horiz-adv-x="1741" 
d="M1089 -164h-1089v758l323 319v1364l-323 328v770h1085l521 -545v-2478zM1446 430v2331l-434 442h-852v-524l323 -312v-1536l-323 -323v-508h843zM1286 516l-356 -360h-607v270l320 332v1691l-320 316v282h607l356 -381v-2150z" />
    <glyph glyph-name="asterisk" unicode="*" horiz-adv-x="2887" 
d="M0 1122v1127h221l-139 159l725 721l557 -565l565 565l807 -721l-168 -163h164v-1123h-230l156 -164l-725 -720l-565 565l-561 -561l-729 720l168 160h-246zM643 1282l-324 -320l480 -491l569 561l565 -557l479 479l-319 328h475v803h-475l315 319l-475 488l-569 -574
l-561 569l-488 -479l328 -323h-483v-803h483zM319 1442v483h721l-479 479l242 246l561 -565l561 557l246 -246l-484 -471h725v-483h-729l488 -480l-242 -245l-565 561l-553 -574l-250 258l488 480h-730z" />
    <glyph glyph-name="plus" unicode="+" horiz-adv-x="2560" 
d="M639 479v643h-639v1123h639v643h1130v-643h639v-1123h-639v-643h-1130zM803 639h798v643h643v803h-643v643h-798v-643h-643v-803h643v-643zM963 799v643h-644v483h644v643h483v-643h643v-483h-643v-643h-483z" />
    <glyph glyph-name="comma" unicode="," horiz-adv-x="1311" 
d="M0 1008h1126v-807l-532 -406h-594v1213zM160 -41h434l368 283v606h-802v-889zM320 684h487v-397l-213 -164h-274v561z" />
    <glyph glyph-name="hyphen" unicode="-" horiz-adv-x="2437" 
d="M0 958v1287h2249v-1287h-2249zM160 1122h1929v963h-1929v-963zM319 1282v643h1565v-635z" />
    <glyph glyph-name="period" unicode="." horiz-adv-x="1474" 
d="M0 0v1282h1286v-1282h-1286zM164 156h958v966h-958v-966zM320 315v643h647v-643h-647z" />
    <glyph glyph-name="slash" unicode="/" horiz-adv-x="2519" 
d="M0 0v573l1331 2634h1000v-573l-1328 -2634h-1003zM160 156h770l1237 2478v413h-766l-1241 -2470v-421zM319 315v86l1250 2486h442v-77l-1249 -2495h-443z" />
    <glyph glyph-name="zero" unicode="0" horiz-adv-x="2437" 
d="M0 520v2162l524 525h1196l524 -521l5 -2170l-521 -516h-1212zM160 593l438 -437h1053l434 437v2011l-439 443h-1048l-438 -447v-2007zM319 675l5 1843l368 369h868l369 -369v-1843l-369 -360h-876zM967 1704l233 438v102h-233v-540zM1044 958h238v549l-238 -454v-95z" />
    <glyph glyph-name="one" unicode="1" horiz-adv-x="1638" 
d="M156 0v1761h-156v918l520 528h926v-3207h-1290zM324 156h958v2891h-684l-438 -446v-676h164v-1769zM479 315v1770h-159v430l364 372h442v-2572h-647z" />
    <glyph glyph-name="two" unicode="2" horiz-adv-x="2580" 
d="M0 0v1077l524 524h-524v1082l520 524h1360l528 -524v-959l-446 -442h446v-1282h-2408zM160 156h2084v966h-667l667 668v824l-442 433h-1200l-442 -438v-848h762l-762 -758v-847zM319 315v594l1127 1135l-33 209h-451l5 -328h-648v594l377 369h1024l369 -369v-631
l-926 -930h926v-643h-1770z" />
    <glyph glyph-name="three" unicode="3" 
d="M0 1442h639v319h-639v917l524 529h1196l529 -525v-958l-119 -127l119 -102v-975l-525 -520h-1208l-516 524v918zM160 1925h643v-643h-643v-689l438 -437h1057l430 442v795l-189 213l189 188v815l-443 438h-1040l-442 -443v-679zM319 2085v433l369 369h868l373 -365v-630
l-274 -291l274 -290v-631l-373 -365h-864l-373 373v434h648v-164h315v324h-320v643h320v319h-315v-159h-648z" />
    <glyph glyph-name="four" unicode="4" horiz-adv-x="2580" 
d="M0 799v1228l1167 1180h1082v-1122h155l4 -1286h-159v-799h-1287v799h-962zM160 959h966v-803h959v803h160v966h-160v1122h-848l-1077 -1077v-1011zM319 1122v746l1008 1019h602v-1126h160v-639h-160v-807h-647v807h-963zM991 1761h291v287z" />
    <glyph glyph-name="five" unicode="5" horiz-adv-x="2355" 
d="M0 0v3207h2171v-1282h-115l193 -209v-1032l-676 -684h-1573zM160 156h1331l594 601v882l-435 446h353v962h-1843v-1765h884v-160h-884v-966zM320 315v643h765l164 168v152l-164 164h-765v1445h1527v-643h-880v-159h429l533 -524v-718l-533 -528h-1076z" />
    <glyph glyph-name="six" unicode="6" 
d="M0 516v2162l529 529h1191l529 -525v-2158l-512 -524h-1225zM160 593l443 -437h1048l434 433v1049l-283 287h283v675l-439 447h-1039l-447 -447v-2007zM320 680v1847l369 360h867l373 -365v-437h-647v159h-315v-319h593l369 -365v-880l-364 -365h-876zM967 958h315v324
h-315v-324z" />
    <glyph glyph-name="seven" unicode="7" horiz-adv-x="2580" 
d="M156 0v553l688 1372h-844v1282h2408v-1057l-1085 -2150h-1167zM324 156h921l999 1994v897h-2084l-4 -962h925l-757 -1516v-413zM455 315l958 1929h-1093v643h1769v-565l-1004 -2007h-630z" />
    <glyph glyph-name="eight" unicode="8" 
d="M525 0l-525 520v1036l115 123l-115 123v880l525 525h1195l529 -525v-880l-123 -123l123 -123v-1040l-525 -516h-1199zM603 156h1048l434 433v967l-119 123l119 123v802l-443 443h-1052l-430 -451v-794l123 -123l-123 -123v-958zM320 680v786l197 217l-197 209v630
l364 365h881l364 -373v-626l-201 -209l201 -205v-794l-369 -365h-876zM967 958h315v324h-315v-324zM963 1925h319v319h-319v-319z" />
    <glyph glyph-name="nine" unicode="9" 
d="M0 524v889l82 74l-82 73v1126l529 521h1195l525 -525v-2162l-521 -520h-1203zM607 156h1035l443 442v2015l-439 434h-1043l-443 -434v-1048l271 -283h-271v-689zM320 1122h647v-164h315v324h-589l-373 360v876l377 369h859l373 -360v-1852l-364 -360h-872l-373 360v447z
M967 1925h315v319h-315v-319z" />
    <glyph glyph-name="colon" unicode=":" horiz-adv-x="1454" 
d="M0 1401l205 201h868l213 -201v-873l-192 -213h-889l-205 205v881zM0 2847l205 200h868l213 -200v-873l-192 -213h-889l-205 205v881zM160 594l114 -115h734l114 115v721l-110 127h-742l-110 -115v-733zM160 2040l114 -115h734l114 115v721l-110 126h-742l-110 -114v-733z
M320 639v643h647v-643h-647zM320 2085v643h647v-643h-647z" />
    <glyph glyph-name="semicolon" unicode=";" horiz-adv-x="1454" 
d="M0 1401l205 201h868l213 -201v-873l-683 -692h-603v1565zM0 2847l205 200h868l213 -200v-873l-192 -213h-889l-205 205v881zM160 -4h373l589 598v721l-110 127h-742l-110 -115v-1331zM160 2040l114 -115h734l114 115v721l-110 126h-742l-110 -114v-733zM320 156v1126h647
v-598l-528 -528h-119zM320 2085v643h647v-643h-647z" />
    <glyph glyph-name="less" unicode="&#x3c;" horiz-adv-x="2273" 
d="M2089 156h-914l-1175 1167v717l1163 1167h926v-1008l-520 -520l520 -516v-1007zM1925 316v765l-598 598l598 598v770h-680l-1085 -1085v-561l1093 -1085h672zM1769 479h-442l-1008 1004v393l1012 1011h438v-520l-684 -688l684 -692v-508z" />
    <glyph glyph-name="equal" unicode="=" 
d="M0 479v2409h2249v-2409h-2249zM160 639h1925v962h-1925v-962zM160 1761h1925v967h-1925v-967zM319 799v643h1610v-643h-1610zM319 1925v643h1610v-643h-1610z" />
    <glyph glyph-name="greater" unicode="&#x3e;" horiz-adv-x="2273" 
d="M0 160v1007l520 516l-520 520v1008h926l1163 -1167v-717l-1176 -1167h-913zM164 320h672l1093 1085v561l-1085 1085h-680v-770l598 -598l-598 -598v-765zM319 483v508l684 692l-684 688v521h439l1011 -1012v-393l-1007 -1004h-443z" />
    <glyph glyph-name="question" unicode="?" 
d="M479 0v1601h-479v1077l524 529h1200l525 -521v-1126l-480 -483v-1077h-1290zM643 156h958v991l484 491v966l-443 443h-1044l-438 -443v-843h676l-193 -205v-1400zM799 315v643h647v-643h-647zM799 1118v356l483 484v286h-315v-319h-648v593l377 369h844l385 -356l4 -803
l-483 -491v-115z" />
    <glyph glyph-name="at" unicode="@" horiz-adv-x="1945" 
d="M1086 479h-557l-529 525v1195l521 529h1240l4 -1565l-364 -364h-241l-78 111l-66 -111h-332l-364 364v873l360 368h766v-1318l155 147v1335h-1003l-438 -446v-1049l447 -434h630zM803 1282h156v643h-156v-643z" />
    <glyph glyph-name="A" unicode="A" horiz-adv-x="2457" 
d="M0 0v2686l524 521h1204l517 -521v-2686h-2245zM156 156l1929 4v2453l-438 434h-1050l-441 -438v-2453zM319 315v2212l369 360h864l373 -360v-2212h-643v807h-320v-807h-643zM962 1761h320v483h-320v-483z" />
    <glyph glyph-name="B" unicode="B" 
d="M0 0v3207h1724l525 -525v-880l-119 -123l119 -114v-1049l-521 -516h-1728zM160 156h1491l434 437v963l-107 123l107 123v811l-443 434h-1482v-2891zM320 315v2572h1236l373 -360v-561l-278 -287l278 -282v-717l-373 -365h-1236zM967 958h315v324h-315v-324zM967 1925h315
v319h-315v-319z" />
    <glyph glyph-name="C" unicode="C" 
d="M525 0l-525 524v2154l529 529h1195l525 -525v-2162l-521 -520h-1203zM607 156h1044l434 437v2016l-439 438h-1056l-430 -443v-2011zM320 680v1842l369 365h871l369 -365v-761h-647v483h-315v-1286h315v643h647v-926l-369 -360h-880z" />
    <glyph glyph-name="D" unicode="D" 
d="M0 0v3207h1716l533 -529v-2158l-521 -520h-1728zM160 156h1486l439 437v2016l-443 438h-1482v-2891zM320 315v2572h1236l373 -369v-1838l-373 -365h-1236zM967 958h315v1286h-315v-1286z" />
    <glyph glyph-name="E" unicode="E" horiz-adv-x="2273" 
d="M0 0v3207h2089v-1446h-160v-319h160v-1442h-2089zM160 156h1765v1126h-160v643h160v1122h-1765v-2891zM320 315v2573h1449v-803h-802v-160h643v-643h-643v-160h802v-807h-1449z" />
    <glyph glyph-name="F" unicode="F" horiz-adv-x="2109" 
d="M0 0v3207h1925l4 -1446h-164l4 -803h-483v-958h-1286zM164 156h958v966h484v803h159v1122h-1601v-2891zM320 315v2573h1290v-803h-643v-160h483v-643h-483v-967h-647z" />
    <glyph glyph-name="G" unicode="G" 
d="M512 0l-512 524v2158l525 525h1199l525 -525v-2162l-525 -520h-1212zM598 156h1053l434 433v2028l-443 430h-1039l-443 -447v-2002zM320 684v1834l364 369h876l369 -365v-437h-647v159h-315v-1286h315v324h-160v643h807v-1250l-373 -360h-872z" />
    <glyph glyph-name="H" unicode="H" horiz-adv-x="2539" 
d="M0 0v3207h2408v-3207h-2408zM160 156h962v966h164v-966h958v2891h-958v-962h-164v962h-962v-2891zM320 315v2572h647v-962h475v962h647v-2572h-647v967h-475v-967h-647z" />
    <glyph glyph-name="I" unicode="I" horiz-adv-x="1454" 
d="M0 0v3207h1286v-3207h-1286zM164 156h958v2891h-958v-2891zM320 315v2572h647v-2572h-647z" />
    <glyph glyph-name="J" unicode="J" horiz-adv-x="2273" 
d="M0 1761h799v1446h1290v-2695l-521 -512h-1044l-524 520v1241zM160 1601v-1003l446 -442h885l434 437v2454h-958v-1446h-807zM319 1442h648v-484h155v1929h647v-2203l-364 -369h-717l-369 365v762z" />
    <glyph glyph-name="K" unicode="K" 
d="M0 0v3207h2249v-1413l-119 -115l119 -106v-1573h-2249zM160 156h1925v1327l-185 196l185 201v1167h-1925v-2891zM320 315v2572h647v-1003l315 315v688h647v-917l-283 -291l283 -278v-1086h-647v848l-315 320v-1168h-647z" />
    <glyph glyph-name="L" unicode="L" horiz-adv-x="2109" 
d="M0 0v3207h1286v-1925h643v-1282h-1929zM164 156h1601v966h-643v1925h-958v-2891zM320 315v2572h647v-1929h643v-643h-1290z" />
    <glyph glyph-name="M" unicode="M" horiz-adv-x="2580" 
d="M0 0v3207h1085l123 -115l119 115h1081v-3207h-2408zM160 156h962v1527h164v-1527h958v2891h-835l-201 -192l-205 192h-843v-2891zM320 315v2572h602l286 -282l287 282h594v-2572h-647v1729l-234 -242l-241 242v-1729h-647z" />
    <glyph glyph-name="N" unicode="N" 
d="M0 0v3207h844l119 -242v242h1286v-3207h-934l-111 250v-250h-1204zM160 156h962v557l283 -557h680v2891h-959v-717l-356 717h-610v-2891zM320 315v2572h364l598 -1212v1212h647v-2572h-438l-524 1037v-1037h-647z" />
    <glyph glyph-name="O" unicode="O" 
d="M0 520v2162l525 525h1203l521 -525v-2170l-521 -512h-1203zM160 593l443 -437h1043l439 429v2015l-439 447h-1043l-443 -443v-2011zM320 680v1838l369 369h867l373 -369v-1843l-373 -360h-863zM967 958h315v1286h-315v-1286z" />
    <glyph glyph-name="P" unicode="P" 
d="M0 0v3207h1724l525 -525v-1199l-529 -525h-434v-958h-1286zM160 156h962v966h533l430 434v1048l-439 443h-1486v-2891zM320 315v2572h1240l369 -369v-871l-393 -365h-569v-967h-647zM967 1925h315v319h-315v-319z" />
    <glyph glyph-name="Q" unicode="Q" horiz-adv-x="2662" 
d="M0 520v2162l533 525h1191l529 -529v-1752l237 -250v-234l-680 -688h-237l-254 246h-790zM160 594l443 -438h798l290 -283l635 639v86l-241 246v1748l-434 455h-1048l-443 -443v-2010zM320 680v1842l364 365h872l373 -369v-1752l160 -172v-70l-402 -401l-204 192h-807z
M967 909l315 328v1007h-315v-1335z" />
    <glyph glyph-name="R" unicode="R" 
d="M0 0v3207h1728l521 -529v-1027l-127 -136l127 -102v-1413h-2249zM160 156h1925v1171l-201 188l201 197v897l-434 438h-1491v-2891zM320 315v2572h1240l369 -360v-729l-291 -283l291 -278v-922h-647v602l-315 328v-930h-647zM967 2244v-319h315v319h-315z" />
    <glyph glyph-name="S" unicode="S" 
d="M0 524v836h127l-127 123v1195l529 529h1195l525 -517v-847h-139l139 -110v-1213l-525 -520h-1203zM607 156h1044l434 433v1049l-279 287h279v688l-439 434h-1048l-438 -443v-1052l283 -270h-283v-684zM320 1122h643v-164h319v324h-593l-369 356v884l373 365h863l373 -360
v-442h-647v159h-315v-319h593l369 -369v-876l-369 -365h-871l-369 365v442z" />
    <glyph glyph-name="T" unicode="T" 
d="M479 0v1925h-479v1282h2249v-1282h-480v-1925h-1290zM643 156h958v1929h484v962h-1925v-962h483v-1929zM799 315v1929h-480v643h1610v-643h-483v-1929h-647z" />
    <glyph glyph-name="U" unicode="U" horiz-adv-x="2437" 
d="M0 3207h2249v-2691l-529 -516h-1199l-521 524v2683zM160 3047v-2449l443 -442h1043l439 429v2462h-1925zM320 2887h647v-1765h315v1765h647v-2212l-373 -360h-867l-369 369v2203z" />
    <glyph glyph-name="V" unicode="V" horiz-adv-x="2580" 
d="M0 3207h2408v-2208l-1003 -999h-397l-1008 1003v2204zM160 3047v-1966l925 -925h242l917 921v1970h-958v-1605h-164v1605h-962zM319 2887h648l-5 -1482l242 -250l238 242v1490h647v-1724l-885 -884l-885 888v1720z" />
    <glyph glyph-name="W" unicode="W" horiz-adv-x="2908" 
d="M0 0v3207h1286v-1122h156v1122h1290v-3207h-1081l-287 279l-283 -279h-1081zM160 156h848l356 348l360 -348h844v2891h-958v-1396l-250 221l-238 -226v1401h-962v-2891zM320 315v2572h647v-1654l401 405l397 -397v1646h647v-2572h-602l-446 447l-434 -447h-610z" />
    <glyph glyph-name="X" unicode="X" horiz-adv-x="2580" 
d="M0 0v1388l270 291l-270 291v1237h2408v-1241l-278 -287l278 -278v-1401h-2408zM160 156h962v802h164v-802h958v1159l-343 364l343 361v1007h-958v-643h-164v643h-962v-1007l348 -361l-348 -368v-1155zM324 315l-5 918l443 446l-443 447v761h648v-532l241 -225l234 225
v532h647v-757l-450 -451l450 -446v-918h-647v693l-234 225l-241 -221v-697h-643z" />
    <glyph glyph-name="Y" unicode="Y" 
d="M0 3207h2249v-1565l-480 -487v-1155h-1290v1163l-479 488v1556zM160 3047v-1327l483 -483v-1081h958v1085l488 479v1327h-1929zM319 2887h648l-4 -757l155 -185l164 185v757h647v-1089l-483 -479v-1004h-647v1016l-480 475v1081z" />
    <glyph glyph-name="Z" unicode="Z" horiz-adv-x="2273" 
d="M0 0v897l524 1028h-524v1282h2089v-893l-529 -1032h529v-1282h-2089zM160 156h1765v966h-594l594 1192v733h-1765v-962h598l-598 -1197v-732zM319 315v573l684 1356h-684v643h1450v-573l-688 -1356h684l4 -643h-1450z" />
    <glyph glyph-name="bracketleft" unicode="[" horiz-adv-x="1782" 
d="M0 -164v3543h1606v-1294h-320v-963h320v-1290zM160 -4h1282v962h-320v1287h320v970h-1282v-3219zM320 156v2891h966v-643h-319v-1605h319v-643h-966z" />
    <glyph glyph-name="backslash" unicode="\" horiz-adv-x="2519" 
d="M2331 0h-1004l-1327 2634v573h999l1332 -2634v-573zM2171 156v421l-1241 2470h-766v-413l1237 -2478h770zM2011 315h-442l-1250 2495v77h443l1249 -2486v-86z" />
    <glyph glyph-name="bracketright" unicode="]" horiz-adv-x="1782" 
d="M1606 -164l-1606 -4v1290h319v963h-319v1294h1606v-3543zM1446 -4v3219h-1282v-970h319v-1287h-319v-962h1282zM1286 156h-967v643h320v1605h-320v643h967v-2891z" />
    <glyph glyph-name="asciicircum" unicode="^" horiz-adv-x="2887" 
d="M0 1122v594l1364 1364l1368 -1356v-602h-1081l-291 283l-271 -283h-1089zM160 1282h848l356 356l360 -356h844v373l-1204 1192l-1204 -1201v-364zM319 1442v114l1045 1045l1048 -1041v-118h-598l-450 442l-442 -442h-603z" />
    <glyph glyph-name="underscore" unicode="_" horiz-adv-x="3195" 
d="M0 -164v1123h3211v-1123h-3211zM160 0h2887v799h-2887v-799zM319 156v479h2573v-479h-2573z" />
    <glyph glyph-name="a" unicode="a" horiz-adv-x="1945" 
d="M0 0v2150l422 418h962l414 -418v-2150h-1798zM123 127h1544v1966l-348 348h-840l-356 -352v-1962zM254 254v1769l299 287h688l299 -287v-1769h-512v643h-258v-643h-516zM770 1409h258v389h-258v-389z" />
    <glyph glyph-name="b" unicode="b" horiz-adv-x="1945" 
d="M0 0v2564h1380l418 -418v-704l-94 -99l94 -94v-839l-414 -410h-1384zM127 123h1196l344 352v770l-82 98l82 99v647l-352 348h-1188v-2314zM254 250v2060h991l299 -291v-446l-221 -230l221 -225v-577l-299 -291h-991zM774 766h254v258h-254v-258zM774 1540h254v254h-254
v-254z" />
    <glyph glyph-name="c" unicode="c" horiz-adv-x="1966" 
d="M422 0l-422 422v1720l422 426h958l422 -422v-1728l-418 -418h-962zM487 123h836l348 352v1614l-352 348h-848l-344 -352v-1610zM258 545v1474l295 291h696l295 -291v-610h-516v389h-254v-1032h254v516h516v-741l-295 -287h-704z" />
    <glyph glyph-name="d" unicode="d" horiz-adv-x="1945" 
d="M0 0v2564h1372l426 -422v-1728l-414 -414h-1384zM127 123h1192l348 352v1610l-352 352h-1188v-2314zM254 250v2060h991l299 -295v-1474l-299 -291h-991zM774 766h250v1028h-250v-1028z" />
    <glyph glyph-name="e" unicode="e" horiz-adv-x="1823" 
d="M0 0v2564h1671v-1155h-127v-258h127v-1151h-1671zM127 123h1413v901h-127v516h127v897h-1413v-2314zM254 250v2060h1159v-643h-643v-127h516v-516h-516v-127h643v-647h-1159z" />
    <glyph glyph-name="f" unicode="f" horiz-adv-x="1700" 
d="M0 0v2568h1544v-1159h-131l4 -643h-385v-766h-1032zM131 123h770v774h385v643h127v897h-1282v-2314zM258 254v2056h1032v-643h-516v-127h389v-512h-389v-774h-516z" />
    <glyph glyph-name="g" unicode="g" horiz-adv-x="1945" 
d="M410 0l-410 422v1724l422 422h958l418 -422v-1728l-418 -418h-970zM479 123h844l344 348v1622l-352 344h-832l-356 -356v-1602zM254 549v1466l295 295h700l295 -291v-352h-516v131h-254v-1032h254v262h-131v512h647v-999l-299 -287h-696z" />
    <glyph glyph-name="h" unicode="h" horiz-adv-x="2089" 
d="M0 0v2564h1929v-2564h-1929zM127 123h770v774h131v-774h770v2314h-770v-770h-131v770h-770v-2314zM254 250v2060h520v-770h381v770h516v-2060h-516v774h-381v-774h-520z" />
    <glyph glyph-name="i" unicode="i" horiz-adv-x="1188" 
d="M0 0v2564h1028v-2564h-1028zM131 123h766v2314h-766v-2314zM254 250v2060h520v-2060h-520z" />
    <glyph glyph-name="j" unicode="j" horiz-adv-x="1823" 
d="M0 1409h639v1155h1032v-2154l-414 -410h-835l-422 414v995zM127 1282v-803l360 -356h705l348 352v1962h-766v-1155h-647zM258 1151h516v-385h123v1544h520v-1765l-291 -295h-573l-295 295v606z" />
    <glyph glyph-name="k" unicode="k" horiz-adv-x="1945" 
d="M0 0v2568h1798v-1130l-94 -95l94 -82v-1261h-1798zM127 127h1540v1061l-148 155l148 164v934h-1540v-2314zM254 254v2056h520v-803l250 254v549h520v-733l-229 -234l229 -221v-868h-520v676l-250 258v-934h-520z" />
    <glyph glyph-name="l" unicode="l" horiz-adv-x="1700" 
d="M0 0v2564h1028v-1540h516v-1024h-1544zM131 123h1282v774h-516v1540h-766v-2314zM254 250v2060h520v-1544h516v-516h-1036z" />
    <glyph glyph-name="m" unicode="m" horiz-adv-x="2089" 
d="M0 0v2564h868l99 -90l94 90h868v-2564h-1929zM127 123h770v1224h131v-1224h770v2314h-672l-159 -152l-164 152h-676v-2314zM258 250v2060h479l230 -225l229 225h475v-2060h-516v1384l-188 -192l-193 192v-1384h-516z" />
    <glyph glyph-name="n" unicode="n" horiz-adv-x="1945" 
d="M0 0v2568h672l98 -197v197h1028v-2568h-745l-91 201v-201h-962zM127 123h770v446l225 -446h545v2314h-766v-573l-287 573h-487v-2314zM254 254v2056h291l479 -971v971h520v-2056h-352l-422 827v-827h-516z" />
    <glyph glyph-name="o" unicode="o" horiz-adv-x="1966" 
d="M0 418v1732l422 418h962l418 -418v-1740l-418 -410h-962zM127 475l356 -348h836l352 344v1610l-352 360h-836l-356 -356v-1610zM258 545v1470l295 299h692l299 -299v-1474l-299 -287h-692zM774 770h254v1028h-254v-1028z" />
    <glyph glyph-name="p" unicode="p" horiz-adv-x="1945" 
d="M0 0v2564h1380l418 -418v-962l-422 -418h-348v-766h-1028zM127 123h770v774h426l344 348v840l-352 352h-1188v-2314zM254 250v2060h995l295 -295v-700l-315 -291h-459v-774h-516zM770 1540h254v254h-254v-254z" />
    <glyph glyph-name="q" unicode="q" horiz-adv-x="2150" 
d="M0 414v1732l426 418h954l422 -422v-1401l193 -200v-189l-545 -549h-189l-204 197h-635zM127 475l356 -352h639l234 -225l508 512v69l-193 197v1396l-348 365h-840l-356 -352v-1610zM258 545v1474l291 291h696l299 -295v-1405l127 -135v-57l-319 -320l-164 152h-647z
M774 729l254 262v803h-254v-1065z" />
    <glyph glyph-name="r" unicode="r" horiz-adv-x="1945" 
d="M0 0v2568h1380l418 -422v-823l-102 -111l102 -82v-1130h-1798zM127 127h1540v938l-160 147l160 160v717l-348 352h-1192v-2314zM254 254v2060h995l295 -291v-581l-233 -230l233 -221v-737h-520v483l-250 262v-745h-520zM774 1798v-258h250v258h-250z" />
    <glyph glyph-name="s" unicode="s" horiz-adv-x="1966" 
d="M0 418v667h102l-102 99v958l422 422h958l422 -414v-676h-115l115 -90v-970l-422 -414h-962zM487 123h836l348 348v840l-225 229h225v549l-352 348h-840l-352 -352v-844l229 -217h-229v-549zM258 897h512v-131h258v258h-475l-295 287v708l295 291h692l299 -291v-352h-516
v127h-254v-254h475l295 -295v-704l-295 -291h-696l-295 291v356z" />
    <glyph glyph-name="t" unicode="t" horiz-adv-x="1966" 
d="M385 0v1540h-385v1028h1802v-1028h-385v-1540h-1032zM516 127h766v1544h389v770h-1544v-770h389v-1544zM639 254v1544h-381v516h1286v-516h-385v-1544h-520z" />
    <glyph glyph-name="u" unicode="u" horiz-adv-x="1966" 
d="M0 2564h1802v-2150l-426 -414h-958l-418 418v2146zM127 2437v-1958l356 -356h836l352 344v1970h-1544zM258 2310h516v-1413h254v1413h516v-1769l-299 -291h-692l-295 295v1765z" />
    <glyph glyph-name="v" unicode="v" horiz-adv-x="2089" 
d="M0 2568h1929v-1769l-807 -799h-315l-807 803v1765zM127 2437v-1573l741 -741h193l737 741v1573h-770v-1282h-131v1282h-770zM254 2310h516v-1184l192 -200l193 192v1192h516v-1380l-709 -709l-708 713v1376z" />
    <glyph glyph-name="w" unicode="w" horiz-adv-x="2335" 
d="M0 0v2564h1028v-897h127v897h1032v-2564h-864l-229 221l-230 -221h-864zM127 123h680l287 278l286 -278h676v2314h-766v-1118l-201 176l-192 -180v1122h-770v-2314zM254 250v2060h520v-1323l320 324l319 -320v1319h516v-2060h-479l-356 360l-349 -360h-491z" />
    <glyph glyph-name="x" unicode="x" horiz-adv-x="2089" 
d="M0 0v1110l217 233l-217 234v987h1929v-991l-225 -230l225 -225v-1118h-1929zM127 123h770v643h131v-643h770v930l-279 290l279 287v807h-770v-512h-131v512h-770v-807l278 -287l-278 -294v-926zM254 250v737l356 356l-356 357v610h520v-426l193 -180l188 180v426h516
v-606l-360 -361l360 -356v-737h-516v557l-188 180l-193 -180v-557h-520z" />
    <glyph glyph-name="y" unicode="y" horiz-adv-x="1966" 
d="M0 2564h1802v-1249l-385 -393v-922h-1032v930l-385 389v1245zM127 2437v-1061l389 -389v-864h766v868l389 385v1061h-1544zM258 2310h516l-4 -606l127 -148l131 148v606h516v-872l-385 -385v-803h-520v815l-381 381v864z" />
    <glyph glyph-name="z" unicode="z" horiz-adv-x="1823" 
d="M0 0v717l422 823h-422v1024h1671v-713l-422 -827h422v-1024h-1671zM127 123h1413v774h-475l475 954v586h-1413v-770h479l-479 -958v-586zM258 250v459l545 1085h-545v516h1159v-459l-553 -1085h549l4 -516h-1159z" />
    <glyph glyph-name="nonbreakingspace" unicode="&#xa0;" horiz-adv-x="1638" 
 />
    <glyph glyph-name="cent" unicode="&#xa2;" horiz-adv-x="2437" 
d="M639 156v323h-114l-525 529v1327l639 671v201h1290v-320h320v-2408h-320v-323h-1290zM803 316h962v323h320v962h-320v160h320v967h-320v319h-962v-319h-201l-442 -447v-1208l442 -434h201v-323zM963 479v320h-275l-368 360v1049l368 360h275v319h643v-319h323v-643h-323
v-483h323v-643h-323v-320h-643zM963 1434v491q-160 -66 -160 -242q0 -187 160 -249z" />
    <glyph glyph-name="copyright" unicode="&#xa9;" horiz-adv-x="2253" 
d="M0 1000v1519l525 528h1039l525 -524v-1519l-525 -525h-1039zM160 1081l443 -442h892l430 434v1385l-434 429h-888l-443 -450v-1356zM320 1159v1197l369 372h716l364 -364v-439h-647v320h-155v-963h155v479h647v-598l-364 -364h-712z" />
    <glyph glyph-name="registered" unicode="&#xae;" horiz-adv-x="2253" 
d="M525 479l-525 520v1520l525 528h1043l521 -528v-1520l-521 -520h-1043zM603 639h888l434 430v1381l-434 437h-897l-434 -446v-1364zM967 799h-287l-360 364v1201l364 364h712l373 -360v-484l-164 -164l164 -155v-402l-364 -364h-283v643h-155v-643zM967 1925h155v320
h-155v-320z" />
    <glyph glyph-name="divide" unicode="&#xf7;" horiz-adv-x="2908" 
d="M0 958v1287h639v585l372 377h709l369 -365v-597h643v-1287h-643v-598l-369 -360h-713l-368 365v593h-639zM160 1122h766q-123 -164 -123 -405q0 -151 79.5 -281t212 -205t285.5 -75q137 0 263.5 77t206 207t79.5 277q0 130 -26 222t-93 183h758v963l-745 4
q61 92 81.5 181t20.5 228q-1 148 -78 274.5t-206.5 200.5t-277.5 74q-149 0 -277 -73.5t-205 -200.5t-78 -275q0 -256 110 -413h-753v-963zM319 1282v643h2057l36 -643h-2093zM1368 2085q-167 0 -286.5 120.5t-119.5 292.5q3 163 121.5 274.5t288.5 114.5
q164 0 280.5 -113.5t116.5 -275.5q-3 -168 -120.5 -290.5t-280.5 -122.5zM1384 315q-112 0 -208.5 53t-155 146t-58.5 203q0 109 56 203t151.5 148t206.5 54q100 0 190 -55.5t144.5 -149t54.5 -200.5q0 -162 -114.5 -282t-266.5 -120z" />
    <glyph glyph-name="quoteleft" unicode="&#x2018;" horiz-adv-x="2212" 
d="M463 1601l-4 1246l520 524h606v-516l164 -172v-1082h-1286zM627 1761h958l-4 856l-160 152v442h-368l-430 -442zM782 1925l-4 758l369 364h119v-446l159 -156l4 -520h-647z" />
    <glyph glyph-name="quoteright" unicode="&#x2019;" horiz-adv-x="2212" 
d="M1765 3371v-1245l-520 -525h-606v516l-164 172l4 1082h1286zM1601 3211h-958v-856l160 -152v-442h369l429 442v1008zM1446 3047v-758l-369 -364h-118v446l-160 156v520h647z" />
    <glyph glyph-name="quotedblleft" unicode="&#x201c;" horiz-adv-x="2539" 
d="M2412 1605h-1294v1250l524 524h606v-516l164 -172v-1086zM0 1605v1246l512 524h610v-520l164 -168v-1082h-1286zM1286 2777v-1012h958v860l-159 152v442h-369zM160 1765h958v856l-164 152v442h-368l-426 -442v-1008zM2089 1933h-643l-4 758l368 364h119v-446l160 -156
v-520zM316 1929v758l364 364h119v-446l159 -156l4 -520h-646z" />
    <glyph glyph-name="quotedblright" unicode="&#x201d;" horiz-adv-x="2539" 
d="M1294 3375v-1249l-520 -525h-606v516l-164 172v1086h1290zM2425 3375v-1245l-520 -525h-611v517l-164 172v1081h1295zM1130 3211h-958v-856l160 -152v-442h369l429 442v1008zM2261 3215h-967v-856l168 -151v-443h369l430 443v1007zM975 3047v-758l-369 -364h-118v446
l-160 156v520h647zM2105 3051v-757l-368 -365h-119v447l-160 155v520h647z" />
    <glyph glyph-name="bullet" unicode="&#x2022;" horiz-adv-x="2089" 
d="M0 1003v1033l524 532h885l520 -524v-1041l-512 -524h-893zM164 1081l430 -442h741l430 426v901l-430 438h-733l-438 -434v-889zM319 1163v717l369 364h561l361 -368v-705l-353 -372h-577z" />
    <glyph glyph-name="trademark" unicode="&#x2122;" horiz-adv-x="3215" 
d="M0 1761v1127h2048l119 -123l127 123h757v-1606h-2732v479h-319zM160 1925h323v-483h799v483h164v-483h639v82h164v-82h638v1286h-519l-201 -193l-201 193h-1806v-803zM319 2085v483h1127v-483h-320v-484h-487v484h-320zM1602 1601v967h282l283 -278l291 278h274v-967
h-405v291l-160 -180l-160 180v-291h-405z" />
    <glyph glyph-name="apple" unicode="&#xf8ff;" horiz-adv-x="3604" 
d="M2056 2392l66 16q75 18 169.5 47t158.5 42.5t155 13.5q173 0 312.5 -84t227.5 -229t115 -322q-178 -6 -298 -146t-120 -354q12 -107 78 -192t167 -133t206 -48q73 0 143 25q0 -194 -93 -375.5t-241 -326t-306.5 -227t-276.5 -82.5q-89 3 -157.5 29t-166.5 78.5t-173.5 79
t-166.5 26.5q-101 -4 -194.5 -54.5t-188.5 -102t-194 -56.5q-152 0 -337 134.5t-353 357t-275.5 477.5t-119.5 484q0 219 85.5 418t230 348.5t325.5 234t366 85.5q139 0 224.5 -27t295.5 -113l82 -32q31 0 41 82q0 25 -8.5 56.5t-8.5 49.5q-8 90 -8 123q0 180 111 344
q189 283 516 283q60 0 127 -12q0 -190 -37 -312.5t-131 -249.5q-44 -61 -90 -100t-124 -90.5t-109 -75.5q-11 -7 -30 -14t-27.5 -14.5t-8.5 -20.5q0 -41 41 -41zM2343 2789q79 112 116 211.5t43 231.5q-352 0 -511 -234q-95 -144 -95 -291q0 -98 45 -217q136 45 227 113
t175 186zM2756 1376q0 220 112.5 370t293.5 183q-90 239 -226.5 373.5t-363.5 134.5q-81 -1 -157 -18t-169.5 -45.5t-156 -42t-148.5 -13.5q-93 0 -169 19.5t-186 60t-189 60.5t-176 20q-225 -1 -442.5 -141t-354.5 -374t-137 -505q10 -206 115.5 -441t267.5 -441
t335 -331.5t314 -125.5q94 5 183.5 56.5t173 100t179.5 52.5q90 0 162 -27.5t163.5 -81t160 -81.5t153.5 -31q148 0 339.5 114t332 302t156.5 398q-236 0 -391 126.5t-175 328.5zM1974 2576q-8 37 -8 103q0 182 127 327q136 161 344 172q-27 -177 -143 -340
q-122 -171 -320 -262zM3117 795q-79 -231 -289 -381.5t-416 -150.5q-73 3 -124 23t-138 66t-149 68t-138 22q-85 -4 -161 -46.5t-153 -85.5t-161 -47q-169 0 -377 192t-358.5 478t-161.5 533q0 237 120 444t314 329.5t394 123.5q81 0 147.5 -18t162.5 -55t155.5 -53.5
t136.5 -16.5q111 0 281 52t280 54q196 0 279 -64t212 -239q-348 -176 -348 -647q19 -220 149 -372.5t343 -208.5z" />
  </font>
</defs>
</svg>
