<?xml version="1.0" standalone="no"?>
<!DOCTYPE svg PUBLIC "-//W3C//DTD SVG 1.1//EN" "http://www.w3.org/Graphics/SVG/1.1/DTD/svg11.dtd" >
<svg xmlns="http://www.w3.org/2000/svg" xmlns:xlink="http://www.w3.org/1999/xlink" version="1.1">
<metadata>
Created by FontForge 20161013 at Wed Jan  2 12:22:50 2013
 By ,,,
Copyright (c) 2013 by Style-7. All rights reserved. http://www.styleseven.com
</metadata>
<defs>
<font id="NarrowRectangle-7" horiz-adv-x="400" >
  <font-face 
    font-family="Narrow Rectangle-7"
    font-weight="400"
    font-stretch="normal"
    units-per-em="1000"
    panose-1="2 0 0 0 0 0 0 0 0 0"
    ascent="750"
    descent="-250"
    x-height="500"
    cap-height="600"
    bbox="0 -200 500 850"
    underline-thickness="100"
    underline-position="-300"
    unicode-range="U+0020-2212"
  />
<missing-glyph horiz-adv-x="500" 
 />
    <glyph glyph-name=".notdef" horiz-adv-x="500" 
 />
    <glyph glyph-name=".null" horiz-adv-x="0" 
 />
    <glyph glyph-name="nonmarkingreturn" horiz-adv-x="500" 
 />
    <glyph glyph-name="space" unicode=" " 
 />
    <glyph glyph-name="space" unicode="&#xa0;" 
 />
    <glyph glyph-name="exclam" unicode="!" horiz-adv-x="200" 
d="M0 100h100v-100h-100v100zM0 600h100v-400h-100v400z" />
    <glyph glyph-name="quotedbl" unicode="&#x22;" 
d="M0 600h100v-200h-100v200zM200 600h100v-200h-100v200z" />
    <glyph glyph-name="numbersign" unicode="#" horiz-adv-x="600" 
d="M200 600v-100h100v100h100v-100h100v-100h-100v-200h100v-100h-100v-100h-100v100h-100v-100h-100v100h-100v100h100v200h-100v100h100v100h100zM200 200h100v200h-100v-200z" />
    <glyph glyph-name="dollar" unicode="$" 
d="M100 496v-146h100l100 -100v-150l-100 -100h-200v100h200v149l-100 1l-100 100v150l100 100h200v-100zM100 700h100v-100h-100v100zM100 0h100v-100h-100v100z" />
    <glyph glyph-name="percent" unicode="%" 
d="M100 0h-100l200 600h100zM0 400h100v200h-100v-200zM200 0h100v200h-100v-200z" />
    <glyph glyph-name="ampersand" unicode="&#x26;" horiz-adv-x="600" 
d="M100 0l-100 100v100l100 100l-100 100v100l100 100h104l96 -100v-100l-100 -100l100 -100v-100l-100 -100h-100zM100 100h100v100l-50 50l-50 -50v-100zM100 400l50 -50l50 50v100h-100v-100zM400 0h100v100h-200zM400 200h100v100h-200z" />
    <glyph glyph-name="quotesingle" unicode="'" horiz-adv-x="200" 
d="M0 600h100v-200h-100v200z" />
    <glyph glyph-name="parenleft" unicode="(" horiz-adv-x="300" 
d="M200 500h-100v-400h100v-100h-100l-100 100v400l100 100h100v-100z" />
    <glyph glyph-name="parenright" unicode=")" horiz-adv-x="300" 
d="M0 600h100l100 -100v-400l-100 -100h-100v100h100v400h-100v100z" />
    <glyph glyph-name="asterisk" unicode="*" horiz-adv-x="600" 
d="M400 400h100v-100h-100v-100h100v-100h-100l-100 100v100zM200 450h100v-400h-100v400zM200 300v-100l-100 -100h-100v100h100v100h-100v100h100z" />
    <glyph glyph-name="plus" unicode="+" 
d="M100 200h-100v100h100v100h100v-100h100v-100h-100v-100h-100v100z" />
    <glyph glyph-name="comma" unicode="," horiz-adv-x="200" 
d="M0 100h100v-200l-100 100v100z" />
    <glyph glyph-name="hyphen" unicode="-" 
d="M0 300h300v-100h-300v100z" />
    <glyph glyph-name="period" unicode="." horiz-adv-x="200" 
d="M0 100h100v-100h-100v100z" />
    <glyph glyph-name="slash" unicode="/" 
d="M100 0h-100l200 600h100z" />
    <glyph glyph-name="zero" unicode="0" 
d="M200 600l100 -100v-400l-100 -100h-100l-100 100v400l100 100h100zM100 300l100 100v100h-100v-200zM100 100h100v200l-100 -100v-100z" />
    <glyph glyph-name="one" unicode="1" 
d="M200 600v-500h100v-100h-300v100h100v400h-100v100h200z" />
    <glyph glyph-name="two" unicode="2" 
d="M100 100h200v-100h-300v200l100 100h100v200h-100v-100h-100v100l100 100h100l100 -100v-200l-100 -100h-100v-100z" />
    <glyph glyph-name="three" unicode="3" 
d="M100 500v-100h-100v100l100 100h100l100 -100v-100l-100 -100l100 -100v-100l-100 -100h-100l-100 100v100h100v-100h100v100l-100 100l100 100v100h-100z" />
    <glyph glyph-name="four" unicode="4" 
d="M100 600v-300h100v200h100v-500h-100v200h-200v400h100z" />
    <glyph glyph-name="five" unicode="5" 
d="M100 400h100l100 -100v-200l-100 -100h-100l-100 100v100h100v-100h100v200h-200v300h300v-100h-200v-100z" />
    <glyph glyph-name="six" unicode="6" 
d="M200 600l100 -100v0h-200v-100h100l100 -100v-200l-100 -100h-100l-100 100v400l100 100h100zM100 100h100v200h-100v-200z" />
    <glyph glyph-name="seven" unicode="7" 
d="M0 500v100h300l-100 -600h-100l100 500h-200z" />
    <glyph glyph-name="eight" unicode="8" 
d="M100 0l-100 100v100l100 100l-100 100v100l100 100h104l96 -100v-100l-100 -100l100 -100v-100l-100 -100h-100zM100 100h100v100l-50 50l-50 -50v-100zM100 400l50 -50l50 50v100h-100v-100z" />
    <glyph glyph-name="nine" unicode="9" 
d="M200 600l100 -100v-400l-100 -100h-100l-100 100h200v100h-100l-100 100v200l100 100h100zM100 300h100v200h-100v-200z" />
    <glyph glyph-name="colon" unicode=":" horiz-adv-x="200" 
d="M0 200h100v-100h-100v100zM0 500h100v-100h-100v100z" />
    <glyph glyph-name="semicolon" unicode=";" horiz-adv-x="200" 
d="M0 100h100v-200l-100 100v100zM0 500h100v-100h-100v100z" />
    <glyph glyph-name="less" unicode="&#x3c;" horiz-adv-x="300" 
d="M0 300l200 200v-100l-100 -100l100 -100v-100z" />
    <glyph glyph-name="equal" unicode="=" 
d="M0 200h300v-100h-300v100zM0 400h300v-100h-300v100z" />
    <glyph glyph-name="greater" unicode="&#x3e;" horiz-adv-x="300" 
d="M0 100v100l100 100l-100 100v100l200 -200z" />
    <glyph glyph-name="question" unicode="?" 
d="M100 300h100v200h-100v-100h-100v100l100 100h100l100 -100v-200l-100 -100h-100v100zM100 0h100v100h-100v-100z" />
    <glyph glyph-name="at" unicode="@" 
d="M100 100h200v-100h-200l-100 100v400l100 100h100l100 -100v-300h-150v100h50v200h-100v-400z" />
    <glyph glyph-name="A" unicode="A" 
d="M200 600l100 -100v-500h-100v200h-100v-200h-100v500l100 100h100zM100 300h100v200h-100v-200z" />
    <glyph glyph-name="B" unicode="B" 
d="M200 600l100 -100v-100l-100 -100l100 -100v-100l-100 -100h-200v600h200zM100 100h100v100l-50 50h-50v-150zM100 350h50l50 50v100h-100v-150z" />
    <glyph glyph-name="C" unicode="C" 
d="M200 600l100 -100v-100h-100v100h-100v-400h100v100h100v-100l-100 -100h-100l-100 100v400l100 100h100z" />
    <glyph glyph-name="D" unicode="D" 
d="M300 500v-400l-100 -100h-200v600h200zM100 100h100v400h-100v-400z" />
    <glyph glyph-name="E" unicode="E" 
d="M300 500h-200v-150h150v-100h-150v-150h200v-100h-300v600h300v-100z" />
    <glyph glyph-name="F" unicode="F" 
d="M300 500h-200v-150h150v-100h-150v-250h-100v600h300v-100z" />
    <glyph glyph-name="G" unicode="G" 
d="M300 400h-100v100h-100v-400h100v100h-50v100h150v-200l-100 -100h-100l-100 100v400l100 100h100l100 -100v-100z" />
    <glyph glyph-name="H" unicode="H" 
d="M200 350v250h100v-600h-100v250h-100v-250h-100v600h100v-250h100z" />
    <glyph glyph-name="I" unicode="I" 
d="M300 600v-100h-96l-4 -400h100v-100h-300v100h100v400h-100v100h300z" />
    <glyph glyph-name="J" unicode="J" 
d="M200 500h-100v-100h-100v200h300v-500l-100 -100h-100l-100 100v100h100v-100h100v400z" />
    <glyph glyph-name="K" unicode="K" 
d="M200 400v200h100v-200l-100 -100l100 -100v-200h-100v200l-50 50h-50v-250h-100v600h100v-250h50z" />
    <glyph glyph-name="L" unicode="L" 
d="M100 600v-500h200v-100h-300v600h100z" />
    <glyph glyph-name="M" unicode="M" horiz-adv-x="500" 
d="M100 0h-100v600h100v-150l100 -100l100 100v150h100v-600h-100v350l-100 -100l-100 100v-350z" />
    <glyph glyph-name="N" unicode="N" 
d="M200 350v250h100v-600h-100v250l-100 100v-350h-100v600h100v-150z" />
    <glyph glyph-name="O" unicode="O" 
d="M200 600l100 -100v-400l-100 -100h-100l-100 100v400l100 100h100zM100 100h100v400h-100v-400z" />
    <glyph glyph-name="P" unicode="P" 
d="M100 0h-100v600h200l100 -100v-200l-100 -100h-100v-200zM100 300h100v200h-100v-200z" />
    <glyph glyph-name="Q" unicode="Q" 
d="M200 600l100 -100v-500h-100h-100l-100 100v400l100 100h100zM100 100h100v400h-100v-400z" />
    <glyph glyph-name="R" unicode="R" 
d="M200 600l100 -100v-200l-100 -100l100 -100v-100h-100v100l-100 100v-200h-100v600h200zM100 300h100v200h-100v-200z" />
    <glyph glyph-name="S" unicode="S" 
d="M100 496v-146h100l100 -100v-150l-100 -100h-200v100h200v149l-100 1l-100 100v150l100 100h200v-100z" />
    <glyph glyph-name="T" unicode="T" 
d="M300 500h-100v-500h-100v500h-100v100h300v-100z" />
    <glyph glyph-name="U" unicode="U" 
d="M100 100h100v500h100v-500l-100 -100h-100l-100 100v500h100v-500z" />
    <glyph glyph-name="V" unicode="V" 
d="M100 200l50 -50l50 50v400h100v-400l-150 -200l-150 200v400h100v-400z" />
    <glyph glyph-name="W" unicode="W" horiz-adv-x="500" 
d="M100 100h50v200h100v-200h50v500h100v-500l-100 -100v0l-100 50l-100 -50l-100 100v500h100v-500z" />
    <glyph glyph-name="X" unicode="X" 
d="M200 400v200h100v-200l-100 -100l100 -100v-200h-100v200h-100v-200h-100v200l100 100l-100 100v200h100v-200h100z" />
    <glyph glyph-name="Y" unicode="Y" 
d="M200 300v300h100v-300l-100 -100v-200h-100v200l-100 100v300h100v-300h100z" />
    <glyph glyph-name="Z" unicode="Z" 
d="M0 600h300v-200l-200 -200v-100h200v-100h-300v200l200 200v100h-200v100z" />
    <glyph glyph-name="bracketleft" unicode="[" horiz-adv-x="300" 
d="M200 500h-100v-400h100v-100h-200v600h200v-100z" />
    <glyph glyph-name="backslash" unicode="\" 
d="M0 600h100l200 -600h-100z" />
    <glyph glyph-name="bracketright" unicode="]" horiz-adv-x="300" 
d="M0 600h200v-600h-200v100h100v400h-100v100z" />
    <glyph glyph-name="asciicircum" unicode="^" horiz-adv-x="500" 
d="M200 600l200 -200h-100l-100 100l-100 -100h-100z" />
    <glyph glyph-name="underscore" unicode="_" 
d="M0 100h300v-100h-300v100z" />
    <glyph glyph-name="grave" unicode="`" horiz-adv-x="300" 
d="M0 600h100l100 -200h-100z" />
    <glyph glyph-name="a" unicode="a" 
d="M200 400h-200l100 100h100l100 -100v-400h-100h-100l-100 100v100l100 100h100v100zM100 100h100v100h-100v-100z" />
    <glyph glyph-name="b" unicode="b" 
d="M200 500l100 -100v-300l-100 -100h-200v600h100v-100h100zM100 100h100v300h-100v-300z" />
    <glyph glyph-name="c" unicode="c" 
d="M200 500l100 -100v-100h-100v100h-100v-300h100v100h100v-100l-100 -100h-100l-100 100v300l100 100h100z" />
    <glyph glyph-name="d" unicode="d" 
d="M200 400h-100v-300h100v300zM200 500v100h100v-600h-200l-100 100v300l100 100h100z" />
    <glyph glyph-name="e" unicode="e" 
d="M300 0h-200l-100 100v300l100 100h100l100 -100v-200h-200v-100h200v-100zM100 300h100v100h-100v-100z" />
    <glyph glyph-name="f" unicode="f" 
d="M300 500h-100v-100h100v-100h-100v-300h-100v300h-100v100h100v100l100 100h100v-100z" />
    <glyph glyph-name="g" unicode="g" 
d="M200 400h-100v-300h100v300zM200 0h-100l-100 100v300l100 100h100l100 -100v-500l-100 -100h-150v100h150v100z" />
    <glyph glyph-name="h" unicode="h" 
d="M100 0h-100v600h100v-100h100l100 -100v-400h-100v400h-100v-400z" />
    <glyph glyph-name="i" unicode="i" horiz-adv-x="300" 
d="M200 500v-500h-100v400h-100v100h200zM100 650h100v-100h-100v100z" />
    <glyph glyph-name="j" unicode="j" horiz-adv-x="300" 
d="M200 500v-600l-100 -100h-100v100h100v500h-100v100h200zM100 650h100v-100h-100v100z" />
    <glyph glyph-name="k" unicode="k" 
d="M200 400v100h100v-100l-100 -100l100 -100v-200h-100v200l-50 50h-50v-250h-100v600h100v-250h50z" />
    <glyph glyph-name="l" unicode="l" 
d="M0 600h200v-100h-200v100zM100 600h100v-600h-100v600zM100 100h200v-100h-200v100z" />
    <glyph glyph-name="m" unicode="m" horiz-adv-x="500" 
d="M100 0h-100v500h150h105h45l100 -100v-400h-100v400h-50v-400h-100v400h-50v-400z" />
    <glyph glyph-name="n" unicode="n" 
d="M100 0h-100v500h200l100 -100v-400h-100v400h-100v-400z" />
    <glyph glyph-name="o" unicode="o" 
d="M200 500l100 -100v-300l-100 -100h-100l-100 100v300l100 100h100zM100 100h100v300h-100v-300z" />
    <glyph glyph-name="p" unicode="p" 
d="M100 -200h-100v700h200l100 -100v-300l-100 -100h-100v-200zM100 100h100v300h-100v-300z" />
    <glyph glyph-name="q" unicode="q" 
d="M200 400h-100v-300h100v300zM200 0h-100l-100 100v300l100 100h200v-700h-100v200z" />
    <glyph glyph-name="r" unicode="r" 
d="M100 0h-100v500h200l100 -100v-100h-100v100h-100v-400z" />
    <glyph glyph-name="s" unicode="s" 
d="M100 396v-96h100l100 -100v-100l-100 -100h-200v100h200v99l-100 1l-100 100v100l100 100h200v-100z" />
    <glyph glyph-name="t" unicode="t" 
d="M300 0h-100l-100 100v200h-100v100h100v200h100v-200h100v-100h-100v-200h100v-100z" />
    <glyph glyph-name="u" unicode="u" 
d="M100 100h100v400h100v-400l-100 -100h-100l-100 100v400h100v-400z" />
    <glyph glyph-name="v" unicode="v" 
d="M100 200l50 -50l50 50v300h100v-300l-150 -200l-150 200v300h100v-300z" />
    <glyph glyph-name="w" unicode="w" horiz-adv-x="500" 
d="M100 100h50v200h100v-200h50v400h100v-400l-100 -100v0l-100 50l-100 -50l-100 100v400h100v-400z" />
    <glyph glyph-name="x" unicode="x" 
d="M200 350v150h100v-150l-100 -100l100 -100v-150h-100v150h-100v-150h-100v150l100 100l-100 100v150h100v-150h100z" />
    <glyph glyph-name="y" unicode="y" 
d="M100 500v-400h100v400h100v-600l-100 -100h-150v100h150v100h-100l-100 100v400h100z" />
    <glyph glyph-name="z" unicode="z" 
d="M0 500h300v-150l-200 -200v-50h200v-100h-300v150l200 200v50h-200v100z" />
    <glyph glyph-name="braceleft" unicode="{" 
d="M300 500h-100v-100l-100 -100l100 -100v-100h100v-100h-200v200l-100 100l100 100v200h200v-100z" />
    <glyph glyph-name="bar" unicode="|" horiz-adv-x="200" 
d="M0 600h100v-600h-100v600z" />
    <glyph glyph-name="braceright" unicode="}" 
d="M0 600h200v-200l100 -100l-100 -100v-200h-200v100h100v100l100 100l-100 100v100h-100v100z" />
    <glyph glyph-name="asciitilde" unicode="~" horiz-adv-x="600" 
d="M100 200h-100v100l100 100h100l100 -100h100v100h100v-100l-100 -100h-100l-100 100h-100v-100z" />
    <glyph glyph-name="exclamdown" unicode="&#xa1;" horiz-adv-x="200" 
d="M0 400h100v-400h-100v400zM0 600h100v-100h-100v100z" />
    <glyph glyph-name="cent" unicode="&#xa2;" 
d="M300 500v-100h-200v-300h200v-100h-200l-100 100v300l100 100h200zM150 600h50v-700h-50v700z" />
    <glyph glyph-name="sterling" unicode="&#xa3;" 
d="M300 500h-100v-100h100v-100h-100v-200h100v-100h-300v100h100v200h-100v100h100v100l100 100h100v-100z" />
    <glyph glyph-name="currency" unicode="&#xa4;" horiz-adv-x="500" 
d="M250 300l71 71l71 -71l-71 -71zM250 600l71 71l71 -71l-71 -71zM0 600l71 71l71 -71l-71 -71zM275 600l50 -50v-200l-50 -50h-150l-50 50v200l50 50h150zM125 350h150v200h-150v-200zM4 304l71 71l71 -71l-71 -71z" />
    <glyph glyph-name="yen" unicode="&#xa5;" 
d="M0 150h300v-50l-300 50h300v-50h-300v50zM0 250h300v-50h-300v50zM200 400v200h100v-200l-100 -100v-300h-100v300l-100 100v200h100v-200h100zM0 250h300v-50h-300v50z" />
    <glyph glyph-name="brokenbar" unicode="&#xa6;" horiz-adv-x="200" 
d="M0 600h100v-250h-100v250zM0 250h100v-250h-100v250z" />
    <glyph glyph-name="section" unicode="&#xa7;" 
d="M100 496v-96h200v-100v-200l-100 -100h-200v100h200v100h-200v100v200l100 100h200v-100zM100 250h100v100h-100v-100z" />
    <glyph glyph-name="dieresis" unicode="&#xa8;" 
d="M0 600h100v-100h-100v100zM200 600h100v-100h-100v100z" />
    <glyph glyph-name="copyright" unicode="&#xa9;" horiz-adv-x="600" 
d="M400 600l100 -100v-400l-100 -100h-300l-100 100v400l100 100h300zM100 100h300v400h-300v-400zM275 450l50 -50v-50h-50v50h-50v-200h50v50h50v-50l-50 -50h-50l-50 50v200l50 50h50z" />
    <glyph glyph-name="ordfeminine" unicode="&#xaa;" horiz-adv-x="250" 
d="M100 550h-100l50 50h50l50 -50v-200h-50h-50l-50 50v50l50 50h50v50zM50 400h50v50h-50v-50z" />
    <glyph glyph-name="guillemotleft" unicode="&#xab;" horiz-adv-x="500" 
d="M400 0l-200 200v100l200 200v-100l-100 -100v-100l100 -100v-100zM200 0l-200 200v100l200 200v-100l-100 -100v-100l100 -100v-100z" />
    <glyph glyph-name="logicalnot" unicode="&#xac;" 
d="M0 500h300v-200h-100v100h-200v100z" />
    <glyph glyph-name="registered" unicode="&#xae;" horiz-adv-x="600" 
d="M400 600l100 -100v-400l-100 -100h-300l-100 100v400l100 100h300zM100 100h300v400h-300v-400zM275 450l50 -50v-100l-50 -50l50 -50v-50h-50v50l-50 50v-100h-50v300h100zM225 300h50v100h-50v-100z" />
    <glyph glyph-name="degree" unicode="&#xb0;" horiz-adv-x="350" 
d="M200 600l50 -50v-200l-50 -50h-150l-50 50v200l50 50h150zM50 350h150v200h-150v-200z" />
    <glyph glyph-name="plusminus" unicode="&#xb1;" 
d="M100 300h-100v100h100v100h100v-100h100v-100h-100v-100h-100v100zM0 0h300v100h-300v-100z" />
    <glyph glyph-name="twosuperior" unicode="&#xb2;" horiz-adv-x="250" 
d="M50 350h100v-50h-150v100l50 50h50v100h-50v-50h-50v50l50 50h50l50 -50v-100l-50 -50h-50v-50z" />
    <glyph glyph-name="threesuperior" unicode="&#xb3;" horiz-adv-x="250" 
d="M50 550v-50h-50v50l50 50h50l50 -50v-50l-50 -50l50 -50v-50l-50 -50h-50l-50 50v50h50v-50h50v50l-50 50l50 50v50h-50z" />
    <glyph glyph-name="acute" unicode="&#xb4;" horiz-adv-x="300" 
d="M100 400h-100l100 200h100z" />
    <glyph glyph-name="mu" unicode="&#xb5;" horiz-adv-x="500" 
d="M100 -100h-100v600h100v-300l100 -100l100 100v300h100v-500h-100v100l-100 -100l-100 100v-200z" />
    <glyph glyph-name="mu" unicode="&#x3bc;" horiz-adv-x="500" 
d="M100 -100h-100v600h100v-300l100 -100l100 100v300h100v-500h-100v100l-100 -100l-100 100v-200z" />
    <glyph glyph-name="paragraph" unicode="&#xb6;" horiz-adv-x="552" 
d="M200 0h-100v350l-100 100v50l100 100h350v-100h-50v-500h-100v500h-100v-500z" />
    <glyph glyph-name="periodcentered" unicode="&#xb7;" horiz-adv-x="200" 
d="M0 400h100v-100h-100v100z" />
    <glyph glyph-name="cedilla" unicode="&#xb8;" horiz-adv-x="300" 
d="M175 0v-50l-50 -50h-50v50h50l50 50v-50l-50 -50h-50v50h50l50 50v-50l-50 -50h-50v50h50l50 50v-50l-50 -50h-50v50h50l50 50v-50l-50 -50h-50v50h50l50 50v-50l-50 -50h-50v50h50l50 50v-50l-50 -50h-50v50h50l50 50v-50l-50 -50h-50v50h50l50 50v-50l-50 -50h-50v50
h50l50 50v-50l-50 -50h-50v50h50v50h50z" />
    <glyph glyph-name="onesuperior" unicode="&#xb9;" horiz-adv-x="250" 
d="M100 600v-250h50v-50h-150v50h50v200h-50v50h100z" />
    <glyph glyph-name="ordmasculine" unicode="&#xba;" horiz-adv-x="250" 
d="M100 600l50 -50v-200l-50 -50h-50l-50 50v200l50 50h50zM50 350h50v200h-50v-200z" />
    <glyph glyph-name="guillemotright" unicode="&#xbb;" horiz-adv-x="500" 
d="M200 100l100 100v100l-100 100v100l200 -200v-100l-200 -200v100zM0 100l100 100v100l-100 100v100l200 -200v-100l-200 -200v100z" />
    <glyph glyph-name="onequarter" unicode="&#xbc;" horiz-adv-x="600" 
d="M200 0h-100l200 600h100zM350 300v-200h100v-100h50v250h-50v-100h-50v150h-50zM0 600v-50h50v-200h-50v-50h150v50h-50v250h-100z" />
    <glyph glyph-name="onehalf" unicode="&#xbd;" horiz-adv-x="600" 
d="M200 0h-100l200 600h100zM0 600v-50h50v-200h-50v-50h150v50h-50v250h-100zM400 50h100v-50h-150v100l50 50h50v100h-50v-50h-50v50l50 50h50l50 -50v-100l-50 -50h-50v-50z" />
    <glyph glyph-name="threequarters" unicode="&#xbe;" horiz-adv-x="600" 
d="M200 0h-100l200 600h100zM50 550v-50h-50v50l50 50h50l50 -50v-50l-50 -50l50 -50v-50l-50 -50h-50l-50 50v50h50v-50h50v50l-50 50l50 50v50h-50zM350 300v-200h100v-100h50v250h-50v-100h-50v150h-50z" />
    <glyph glyph-name="questiondown" unicode="&#xbf;" 
d="M200 300h-100v-200h100v100h100v-100l-100 -100h-100l-100 100v200l100 100h100v-100zM200 500h-100v100h100v-100z" />
    <glyph glyph-name="Agrave" unicode="&#xc0;" 
d="M200 600l100 -100v-500h-100v200h-100v-200h-100v500l100 100h100zM100 300h100v200h-100v-200zM0 750h100l100 -100h-100z" />
    <glyph glyph-name="Aacute" unicode="&#xc1;" 
d="M200 600l100 -100v-500h-100v200h-100v-200h-100v500l100 100h100zM100 300h100v200h-100v-200zM200 750h100l-100 -100h-100z" />
    <glyph glyph-name="Acircumflex" unicode="&#xc2;" 
d="M200 600l100 -100v-500h-100v200h-100v-200h-100v500l100 100h100zM100 300h100v200h-100v-200zM100 750h100l-100 -100h-100zM100 750h100l100 -100h-100z" />
    <glyph glyph-name="Atilde" unicode="&#xc3;" 
d="M200 600l100 -100v-500h-100v200h-100v-200h-100v500l100 100h100zM100 300h100v200h-100v-200zM100 750h100l-100 -100h-100zM100 750h100l100 -100h-100zM300 750h100l-100 -100h-100z" />
    <glyph glyph-name="Adieresis" unicode="&#xc4;" 
d="M200 600l100 -100v-500h-100v200h-100v-200h-100v500l100 100h100zM100 300h100v200h-100v-200zM0 750h100v-100h-100v100zM200 750h100v-100h-100v100z" />
    <glyph glyph-name="Aring" unicode="&#xc5;" 
d="M200 600l100 -100v-500h-100v200h-100v-200h-100v500l100 100h100zM100 300h100v200h-100v-200zM50 750h200v-200h-200v200zM100 600h100v100h-100v-100z" />
    <glyph glyph-name="AE" unicode="&#xc6;" horiz-adv-x="600" 
d="M200 600l100 -100v-500h-100v200h-100v-200h-100v500l100 100h100zM100 300h100v200h-100v-200zM500 500h-200v-150h150v-100h-150v-150h200v-100h-300v600h300v-100z" />
    <glyph glyph-name="Ccedilla" unicode="&#xc7;" 
d="M200 600l100 -100v-100h-100v100h-100v-400h100v100h100v-100l-100 -100h-100l-100 100v400l100 100h100zM175 0v-50l-50 -50h-50v50h50l50 50v-50l-50 -50h-50v50h50l50 50v-50l-50 -50h-50v50h50l50 50v-50l-50 -50h-50v50h50l50 50v-50l-50 -50h-50v50h50l50 50v-50
l-50 -50h-50v50h50l50 50v-50l-50 -50h-50v50h50l50 50v-50l-50 -50h-50v50h50l50 50v-50l-50 -50h-50v50h50l50 50v-50l-50 -50h-50v50h50v50h50z" />
    <glyph glyph-name="Egrave" unicode="&#xc8;" 
d="M300 500h-200v-150h150v-100h-150v-150h200v-100h-300v600h300v-100zM0 750h100l100 -100h-100z" />
    <glyph glyph-name="Eacute" unicode="&#xc9;" 
d="M300 500h-200v-150h150v-100h-150v-150h200v-100h-300v600h300v-100zM200 750h100l-100 -100h-100z" />
    <glyph glyph-name="Ecircumflex" unicode="&#xca;" 
d="M300 500h-200v-150h150v-100h-150v-150h200v-100h-300v600h300v-100zM100 750h100l-100 -100h-100zM100 750h100l100 -100h-100z" />
    <glyph glyph-name="Edieresis" unicode="&#xcb;" 
d="M300 500h-200v-150h150v-100h-150v-150h200v-100h-300v600h300v-100zM0 750h100v-100h-100v100zM200 750h100v-100h-100v100z" />
    <glyph glyph-name="Igrave" unicode="&#xcc;" 
d="M300 600v-100h-96l-4 -400h100v-100h-300v100h100v400h-100v100h300zM0 750h100l100 -100h-100z" />
    <glyph glyph-name="Iacute" unicode="&#xcd;" 
d="M300 600v-100h-96l-4 -400h100v-100h-300v100h100v400h-100v100h300zM200 750h100l-100 -100h-100z" />
    <glyph glyph-name="Icircumflex" unicode="&#xce;" 
d="M300 600v-100h-96l-4 -400h100v-100h-300v100h100v400h-100v100h300zM100 750h100l-100 -100h-100zM100 750h100l100 -100h-100z" />
    <glyph glyph-name="Idieresis" unicode="&#xcf;" 
d="M300 600v-100h-96l-4 -400h100v-100h-300v100h100v400h-100v100h300zM0 750h100v-100h-100v100zM200 750h100v-100h-100v100z" />
    <glyph glyph-name="Eth" unicode="&#xd0;" horiz-adv-x="450" 
d="M350 500v-400l-100 -100h-200v300h-50v100h50v200h200zM150 300v-200h100v400h-100v-97l50 -3v-100h-50z" />
    <glyph glyph-name="Ntilde" unicode="&#xd1;" 
d="M200 300v300h100v-600h-100v200l-100 100v-300h-100v600h100v-200zM100 750h100l-100 -100h-100zM100 750h100l100 -100h-100zM300 750h100l-100 -100h-100z" />
    <glyph glyph-name="Ograve" unicode="&#xd2;" 
d="M200 600l100 -100v-400l-100 -100h-100l-100 100v400l100 100h100zM100 100h100v400h-100v-400zM0 750h100l100 -100h-100z" />
    <glyph glyph-name="Oacute" unicode="&#xd3;" 
d="M200 600l100 -100v-400l-100 -100h-100l-100 100v400l100 100h100zM100 100h100v400h-100v-400zM200 750h100l-100 -100h-100z" />
    <glyph glyph-name="Ocircumflex" unicode="&#xd4;" 
d="M200 600l100 -100v-400l-100 -100h-100l-100 100v400l100 100h100zM100 100h100v400h-100v-400zM100 750h100l-100 -100h-100zM100 750h100l100 -100h-100z" />
    <glyph glyph-name="Otilde" unicode="&#xd5;" 
d="M200 600l100 -100v-400l-100 -100h-100l-100 100v400l100 100h100zM100 100h100v400h-100v-400zM100 750h100l-100 -100h-100zM100 750h100l100 -100h-100zM300 750h100l-100 -100h-100z" />
    <glyph glyph-name="Odieresis" unicode="&#xd6;" 
d="M200 600l100 -100v-400l-100 -100h-100l-100 100v400l100 100h100zM100 100h100v400h-100v-400zM0 750h100v-100h-100v100zM200 750h100v-100h-100v100z" />
    <glyph glyph-name="multiply" unicode="&#xd7;" 
d="M141 201l-71 -70l-70 70l70 71l-70 71l70 70l71 -70l71 70l70 -70l-70 -71l70 -71l-70 -70z" />
    <glyph glyph-name="Oslash" unicode="&#xd8;" 
d="M200 600l100 -100v-400l-100 -100h-100l-100 100v400l100 100h100zM100 300l100 100v100h-100v-200zM100 100h100v200l-100 -100v-100z" />
    <glyph glyph-name="Ugrave" unicode="&#xd9;" 
d="M100 100h100v500h100v-500l-100 -100h-100l-100 100v500h100v-500zM0 750h100l100 -100h-100z" />
    <glyph glyph-name="Uacute" unicode="&#xda;" 
d="M100 100h100v500h100v-500l-100 -100h-100l-100 100v500h100v-500zM200 750h100l-100 -100h-100z" />
    <glyph glyph-name="Ucircumflex" unicode="&#xdb;" 
d="M100 100h100v500h100v-500l-100 -100h-100l-100 100v500h100v-500zM100 750h100l-100 -100h-100zM100 750h100l100 -100h-100z" />
    <glyph glyph-name="Udieresis" unicode="&#xdc;" 
d="M100 100h100v500h100v-500l-100 -100h-100l-100 100v500h100v-500zM0 750h100v-100h-100v100zM200 750h100v-100h-100v100z" />
    <glyph glyph-name="Yacute" unicode="&#xdd;" 
d="M200 300v300h100v-300l-100 -100v-200h-100v200l-100 100v300h100v-300h100zM200 750h100l-100 -100h-100z" />
    <glyph glyph-name="Thorn" unicode="&#xde;" 
d="M100 500h100l100 -100v-200l-100 -100h-100v-100h-100v600h100v-100zM100 200h100v200h-100v-200z" />
    <glyph glyph-name="germandbls" unicode="&#xdf;" 
d="M200 599l100 -100v-100l-100 -100l100 -100v-99l-100 -101h-50v100l50 4v96l-100 101v-300h-100v500l100 100zM100 300l100 99v100l-100 1v-200z" />
    <glyph glyph-name="agrave" unicode="&#xe0;" 
d="M200 400h-200l100 100h100l100 -100v-400h-100h-100l-100 100v100l100 100h100v100zM100 100h100v100h-100v-100zM0 650h100l100 -100h-100z" />
    <glyph glyph-name="aacute" unicode="&#xe1;" 
d="M200 400h-200l100 100h100l100 -100v-400h-100h-100l-100 100v100l100 100h100v100zM100 100h100v100h-100v-100zM200 650h100l-100 -100h-100z" />
    <glyph glyph-name="acircumflex" unicode="&#xe2;" 
d="M200 400h-200l100 100h100l100 -100v-400h-100h-100l-100 100v100l100 100h100v100zM100 100h100v100h-100v-100zM100 650h100l-100 -100h-100zM100 650h100l100 -100h-100z" />
    <glyph glyph-name="atilde" unicode="&#xe3;" 
d="M200 400h-200l100 100h100l100 -100v-400h-100h-100l-100 100v100l100 100h100v100zM100 100h100v100h-100v-100zM100 650h100l-100 -100h-100zM100 650h100l100 -100h-100zM300 650h100l-100 -100h-100z" />
    <glyph glyph-name="adieresis" unicode="&#xe4;" 
d="M200 400h-200l100 100h100l100 -100v-400h-100h-100l-100 100v100l100 100h100v100zM100 100h100v100h-100v-100zM0 650h100v-100h-100v100zM200 650h100v-100h-100v100z" />
    <glyph glyph-name="aring" unicode="&#xe5;" 
d="M200 400h-200l100 100h100l100 -100v-400h-100h-100l-100 100v100l100 100h100v100zM100 100h100v100h-100v-100zM50 750h200v-200h-200v200zM100 600h100v100h-100v-100z" />
    <glyph glyph-name="ae" unicode="&#xe6;" horiz-adv-x="600" 
d="M200 400h-200l100 100h100l100 -100v-400h-100h-100l-100 100v100l100 100h100v100zM100 100h100v100h-100v-100zM500 0h-200l-100 100v300l100 100h100l100 -100v-200h-200v-100h200v-100zM300 300h100v100h-100v-100z" />
    <glyph glyph-name="ccedilla" unicode="&#xe7;" 
d="M200 500l100 -100v-100h-100v100h-100v-300h100v100h100v-100l-100 -100h-100l-100 100v300l100 100h100zM175 0v-50l-50 -50h-50v50h50l50 50v-50l-50 -50h-50v50h50l50 50v-50l-50 -50h-50v50h50l50 50v-50l-50 -50h-50v50h50l50 50v-50l-50 -50h-50v50h50l50 50v-50
l-50 -50h-50v50h50l50 50v-50l-50 -50h-50v50h50l50 50v-50l-50 -50h-50v50h50l50 50v-50l-50 -50h-50v50h50l50 50v-50l-50 -50h-50v50h50v50h50z" />
    <glyph glyph-name="egrave" unicode="&#xe8;" 
d="M300 0h-200l-100 100v300l100 100h100l100 -100v-200h-200v-100h200v-100zM100 300h100v100h-100v-100zM0 650h100l100 -100h-100z" />
    <glyph glyph-name="eacute" unicode="&#xe9;" 
d="M300 0h-200l-100 100v300l100 100h100l100 -100v-200h-200v-100h200v-100zM100 300h100v100h-100v-100zM200 650h100l-100 -100h-100z" />
    <glyph glyph-name="ecircumflex" unicode="&#xea;" 
d="M300 0h-200l-100 100v300l100 100h100l100 -100v-200h-200v-100h200v-100zM100 300h100v100h-100v-100zM100 650h100l-100 -100h-100zM100 650h100l100 -100h-100z" />
    <glyph glyph-name="edieresis" unicode="&#xeb;" 
d="M300 0h-200l-100 100v300l100 100h100l100 -100v-200h-200v-100h200v-100zM100 300h100v100h-100v-100zM0 650h100v-100h-100v100zM200 650h100v-100h-100v100z" />
    <glyph glyph-name="igrave" unicode="&#xec;" horiz-adv-x="300" 
d="M200 500v-500h-100v400h-100v100h200zM0 650h100l100 -100h-100z" />
    <glyph glyph-name="iacute" unicode="&#xed;" horiz-adv-x="300" 
d="M200 500v-500h-100v400h-100v100h200zM200 650h100l-100 -100h-100z" />
    <glyph glyph-name="icircumflex" unicode="&#xee;" horiz-adv-x="300" 
d="M200 500v-500h-100v400h-100v100h200zM100 650h100l-100 -100h-100zM100 650h100l100 -100h-100z" />
    <glyph glyph-name="idieresis" unicode="&#xef;" 
d="M200 500v-500h-100v400h-100v100h200zM0 650h100v-100h-100v100zM200 650h100v-100h-100v100z" />
    <glyph glyph-name="eth" unicode="&#xf0;" 
d="M200 400h-100v-300h100v300zM200 500v100h100v-500l-100 -100h-100l-100 100v300l100 100h100z" />
    <glyph glyph-name="ntilde" unicode="&#xf1;" 
d="M100 0h-100v500h200l100 -100v-400h-100v400h-100v-400zM100 650h100l-100 -100h-100zM100 650h100l100 -100h-100zM300 650h100l-100 -100h-100z" />
    <glyph glyph-name="ograve" unicode="&#xf2;" 
d="M200 500l100 -100v-300l-100 -100h-100l-100 100v300l100 100h100zM100 100h100v300h-100v-300zM0 650h100l100 -100h-100z" />
    <glyph glyph-name="oacute" unicode="&#xf3;" 
d="M200 500l100 -100v-300l-100 -100h-100l-100 100v300l100 100h100zM100 100h100v300h-100v-300zM200 650h100l-100 -100h-100z" />
    <glyph glyph-name="ocircumflex" unicode="&#xf4;" 
d="M200 500l100 -100v-300l-100 -100h-100l-100 100v300l100 100h100zM100 100h100v300h-100v-300zM100 650h100l-100 -100h-100zM100 650h100l100 -100h-100z" />
    <glyph glyph-name="otilde" unicode="&#xf5;" 
d="M200 500l100 -100v-300l-100 -100h-100l-100 100v300l100 100h100zM100 100h100v300h-100v-300zM100 650h100l-100 -100h-100zM100 650h100l100 -100h-100zM300 650h100l-100 -100h-100z" />
    <glyph glyph-name="odieresis" unicode="&#xf6;" 
d="M200 500l100 -100v-300l-100 -100h-100l-100 100v300l100 100h100zM100 100h100v300h-100v-300zM0 650h100v-100h-100v100zM200 650h100v-100h-100v100z" />
    <glyph glyph-name="divide" unicode="&#xf7;" 
d="M0 300h300v-100h-300v100zM100 500h100v-100h-100v100zM100 100h100v-100h-100v100z" />
    <glyph glyph-name="oslash" unicode="&#xf8;" 
d="M200 500l100 -100v-300l-100 -100h-100l-100 100v300l100 100h100zM100 250l100 100v50h-100v-150zM100 100h100v150l-100 -100v-50z" />
    <glyph glyph-name="ugrave" unicode="&#xf9;" 
d="M100 100h100v400h100v-400l-100 -100h-100l-100 100v400h100v-400zM0 650h100l100 -100h-100z" />
    <glyph glyph-name="uacute" unicode="&#xfa;" 
d="M100 100h100v400h100v-400l-100 -100h-100l-100 100v400h100v-400zM200 650h100l-100 -100h-100z" />
    <glyph glyph-name="ucircumflex" unicode="&#xfb;" 
d="M100 100h100v400h100v-400l-100 -100h-100l-100 100v400h100v-400zM100 650h100l-100 -100h-100zM100 650h100l100 -100h-100z" />
    <glyph glyph-name="udieresis" unicode="&#xfc;" 
d="M100 100h100v400h100v-400l-100 -100h-100l-100 100v400h100v-400zM0 650h100v-100h-100v100zM200 650h100v-100h-100v100z" />
    <glyph glyph-name="yacute" unicode="&#xfd;" 
d="M100 500v-400h100v400h100v-600l-100 -100h-150v100h150v100h-100l-100 100v400h100zM200 650h100l-100 -100h-100z" />
    <glyph glyph-name="thorn" unicode="&#xfe;" 
d="M100 500h100l100 -100v-300l-100 -100h-100v-100h-100v700h100v-100zM100 100h100v300h-100v-300z" />
    <glyph glyph-name="ydieresis" unicode="&#xff;" 
d="M100 500v-400h100v400h100v-600l-100 -100h-150v100h150v100h-100l-100 100v400h100zM0 650h100v-100h-100v100zM200 650h100v-100h-100v100z" />
    <glyph glyph-name="dotlessi" unicode="&#x131;" horiz-adv-x="300" 
d="M200 500v-500h-100v400h-100v100h200z" />
    <glyph glyph-name="OE" unicode="&#x152;" horiz-adv-x="600" 
d="M200 600l100 -100v-400l-100 -100h-100l-100 100v400l100 100h100zM100 100h100v400h-100v-400zM500 500h-200v-150h150v-100h-150v-150h200v-100h-300v600h300v-100z" />
    <glyph glyph-name="oe" unicode="&#x153;" horiz-adv-x="600" 
d="M200 500l100 -100v-300l-100 -100h-100l-100 100v300l100 100h100zM100 100h100v300h-100v-300zM500 0h-200l-100 100v300l100 100h100l100 -100v-200h-200v-100h200v-100zM300 300h100v100h-100v-100z" />
    <glyph glyph-name="Scaron" unicode="&#x160;" 
d="M300 500v100h-200l-100 -100v-150l100 -100l100 -1v-149h-200v-100h200l100 100v150l-100 100h-100v146zM50 750v100l100 -100l100 100v-100l-100 -100z" />
    <glyph glyph-name="scaron" unicode="&#x161;" 
d="M300 400v100h-200l-100 -100v-100l100 -100l100 -1v-99h-200v-100h200l100 100v100l-100 100h-100v96zM50 650v100l100 -100l100 100v-100l-100 -100z" />
    <glyph glyph-name="Ydieresis" unicode="&#x178;" 
d="M200 300v300h100v-300l-100 -100v-200h-100v200l-100 100v300h100v-300h100zM0 750h100v-100h-100v100zM200 750h100v-100h-100v100z" />
    <glyph glyph-name="Zcaron" unicode="&#x17d;" 
d="M0 500h200v-100l-200 -200v-200h300v100h-200v100l200 200v200h-300v-100zM50 750v100l100 -100l100 100v-100l-100 -100z" />
    <glyph glyph-name="zcaron" unicode="&#x17e;" 
d="M0 400h200v-50l-200 -200v-150h300v100h-200v50l200 200v150h-300v-100zM50 650v100l100 -100l100 100v-100l-100 -100z" />
    <glyph glyph-name="florin" unicode="&#x192;" 
d="M300 500h-100v-100h100v-100h-100v-403l-100 -97h-100v100h100v400h-100v100h100v100l100 100h100v-100z" />
    <glyph glyph-name="circumflex" unicode="&#x2c6;" horiz-adv-x="300" 
d="M100 600l100 -100v-100l-100 100l-100 -100v100z" />
    <glyph glyph-name="caron" unicode="&#x2c7;" horiz-adv-x="300" 
d="M0 500v100l100 -100l100 100v-100l-100 -100z" />
    <glyph glyph-name="tilde" unicode="&#x2dc;" horiz-adv-x="600" 
d="M100 400h-100v100l100 100h100l100 -100h100v100h100v-100l-100 -100h-100l-100 100h-100v-100z" />
    <glyph glyph-name="hungarumlaut" unicode="&#x2dd;" horiz-adv-x="500" 
d="M300 400h-100l100 200h100zM100 400h-100l100 200h100z" />
    <glyph glyph-name="endash" unicode="&#x2013;" 
d="M0 300h300v-100h-300v100z" />
    <glyph glyph-name="emdash" unicode="&#x2014;" horiz-adv-x="500" 
d="M0 300h400v-100h-400v100z" />
    <glyph glyph-name="quoteleft" unicode="&#x2018;" horiz-adv-x="200" 
d="M100 500h-100v200l100 -100v-100z" />
    <glyph glyph-name="quoteright" unicode="&#x2019;" horiz-adv-x="200" 
d="M0 600h100v-200l-100 100v100z" />
    <glyph glyph-name="quotesinglbase" unicode="&#x201a;" horiz-adv-x="200" 
d="M0 100h100v-200l-100 100v100z" />
    <glyph glyph-name="quotedblleft" unicode="&#x201c;" 
d="M300 500h-100v200l100 -100v-100zM100 500h-100v200l100 -100v-100z" />
    <glyph glyph-name="quotedblright" unicode="&#x201d;" 
d="M200 600h100v-200l-100 100v100zM0 600h100v-200l-100 100v100z" />
    <glyph glyph-name="quotedblbase" unicode="&#x201e;" 
d="M200 100h100v-200l-100 100v100zM0 100h100v-200l-100 100v100z" />
    <glyph glyph-name="dagger" unicode="&#x2020;" 
d="M100 400h-100v100h100v100h100v-100h100v-100h-100v-400h-100v400z" />
    <glyph glyph-name="daggerdbl" unicode="&#x2021;" 
d="M100 400h-100v100h100v100h100v-100h100v-100h-100v-200h100v-100h-100v-100h-100v100h-100v100h100v200z" />
    <glyph glyph-name="bullet" unicode="&#x2022;" 
d="M0 300v100l100 100h100l100 -100v-100l-100 -100h-100z" />
    <glyph glyph-name="ellipsis" unicode="&#x2026;" horiz-adv-x="500" 
d="M0 100h100v-100h-100v100zM150 100h100v-100h-100v100zM300 100h100v-100h-100v100z" />
    <glyph glyph-name="perthousand" unicode="&#x2030;" horiz-adv-x="550" 
d="M350 0h100v200h-100v-200zM100 0h-100l200 600h100zM0 400h100v200h-100v-200zM200 0h100v200h-100v-200z" />
    <glyph glyph-name="guilsinglleft" unicode="&#x2039;" horiz-adv-x="300" 
d="M200 0l-200 200v100l200 200v-100l-100 -100v-100l100 -100v-100z" />
    <glyph glyph-name="guilsinglright" unicode="&#x203a;" horiz-adv-x="300" 
d="M0 100l100 100v100l-100 100v100l200 -200v-100l-200 -200v100z" />
    <glyph glyph-name="fraction" unicode="&#x2044;" 
d="M100 0h-100l200 600h100z" />
    <glyph glyph-name="Euro" unicode="&#x20ac;" horiz-adv-x="500" 
d="M0 250h400v-50h-400v50zM400 600v-100h-200v-400h200v-100h-200l-100 100v400l100 100h200zM0 400h400v-50h-400v50z" />
    <glyph glyph-name="trademark" unicode="&#x2122;" horiz-adv-x="450" 
d="M150 400h-50v-250h-50v250h-50v50h150v-50zM200 150h-50v300h50v-100l50 -50l50 50v100h50v-300h-50v150l-50 -50l-50 50v-150z" />
    <glyph glyph-name="minus" unicode="&#x2212;" 
d="M0 300h300v-100h-300v100z" />
  </font>
</defs>
</svg>
