<?xml version="1.0" standalone="no"?>
<!DOCTYPE svg PUBLIC "-//W3C//DTD SVG 1.1//EN" "http://www.w3.org/Graphics/SVG/1.1/DTD/svg11.dtd" >
<svg xmlns="http://www.w3.org/2000/svg" xmlns:xlink="http://www.w3.org/1999/xlink" version="1.1">
<metadata>
Created by FontForge 20161013 at Wed Mar  3 01:34:16 2004
 By ,,,
Copyright (c) Stahls' Incorporated, 2004. All rights reserved.
</metadata>
<defs>
<font id="Stahls'ProNarrow_2000-Medium" horiz-adv-x="600" >
  <font-face 
    font-family="Stahls' Pro Narrow_2000"
    font-weight="500"
    font-stretch="normal"
    units-per-em="1000"
    panose-1="2 0 6 0 0 0 0 0 0 0"
    ascent="800"
    descent="-200"
    x-height="800"
    cap-height="800"
    bbox="-1 -88 528 800"
    underline-thickness="20"
    underline-position="-162"
    unicode-range="U+0020-2122"
  />
<missing-glyph horiz-adv-x="502" 
d="M-1 0h500v500h-500v-500zM9 10v480h480v-480h-480z" />
    <glyph glyph-name=".notdef" horiz-adv-x="502" 
d="M-1 0h500v500h-500v-500zM9 10v480h480v-480h-480z" />
    <glyph glyph-name=".null" horiz-adv-x="0" 
 />
    <glyph glyph-name="nonmarkingreturn" 
 />
    <glyph glyph-name="space" unicode=" " horiz-adv-x="416" 
 />
    <glyph glyph-name="space" unicode="&#xa0;" horiz-adv-x="416" 
 />
    <glyph glyph-name="exclam" unicode="!" horiz-adv-x="152" 
d="M160 0v128h-160v-128h160zM152 800h-152l32 -600h96z" />
    <glyph glyph-name="quotedbl" unicode="&#x22;" horiz-adv-x="466" 
d="M192 800h-128l22 -160h80zM352 800h-128l22 -160h80z" />
    <glyph glyph-name="numbersign" unicode="#" horiz-adv-x="550" 
d="M309 641l-22 -96h-94l22 96h94zM479 705h-90l19 95h-63l-19 -96h-95l19 96h-64l-22 -95h-85l-14 -65l84 1l-22 -96h-84l-14 -65h83l-15 -64h66l15 64h93l-15 -64h66l15 64h92l14 65h-91l22 96l91 -1z" />
    <glyph glyph-name="dollar" unicode="$" horiz-adv-x="443" 
d="M288 192h-32v128h32v-128zM192 448h-32v160h32v-160zM416 359l-90 89h-70v160h32v-68h128v106l-90 90h-70v64h-64v-64l-71 -1l-89 -89v-238l89 -88h71v-128h-32v68h-128v-107l89 -89h71v-64h64v64h70l90 89v206z" />
    <glyph glyph-name="percent" unicode="%" 
 />
    <glyph glyph-name="ampersand" unicode="&#x26;" horiz-adv-x="496" 
d="M248 163l-27 -35h-61v162l16 16zM464 0v128h-34l-41 53l30 43h45v128h-80l-52 -72l-108 214v178h64v-64h128v107l-84 85h-151l-85 -85v-249l23 -45l-87 -87v-253l82 -81h138l66 96l56 -96h90z" />
    <glyph glyph-name="quotesingle" unicode="'" horiz-adv-x="194" 
d="M160 800h-128v-128h64v-104l64 64v168z" />
    <glyph glyph-name="parenleft" unicode="(" 
 />
    <glyph glyph-name="parenright" unicode=")" 
 />
    <glyph glyph-name="asterisk" unicode="*" horiz-adv-x="461" 
d="M208 161h-42l21 92zM351 1l-114 510h-96l-121 -510h107l20 80h79l18 -80h107z" />
    <glyph glyph-name="plus" unicode="+" 
 />
    <glyph glyph-name="comma" unicode="," horiz-adv-x="394" 
d="M148 128h-128v-128h64v-88l64 61v155z" />
    <glyph glyph-name="hyphen" unicode="-" horiz-adv-x="641" 
d="M495 352v96h-351v-96h351z" />
    <glyph glyph-name="period" unicode="." horiz-adv-x="394" 
d="M148 0v128h-128v-128h128z" />
    <glyph glyph-name="slash" unicode="/" 
 />
    <glyph glyph-name="zero" unicode="0" horiz-adv-x="480" 
d="M320 128h-160v544h160v-544zM448 90v619l-90 91h-235l-91 -91v-619l91 -90h235z" />
    <glyph glyph-name="one" unicode="1" horiz-adv-x="220" 
d="M192 0v800h-70q-33 -80 -122 -98v-67h64v-635h128z" />
    <glyph glyph-name="two" unicode="2" horiz-adv-x="480" 
d="M448 0v128h-280l-1 66l281 340v175l-90 91h-235l-91 -91v-101h128v64h160v-95l-288 -344v-233h416z" />
    <glyph glyph-name="three" unicode="3" horiz-adv-x="480" 
d="M448 90v260l-49 50l49 50v259l-90 91h-235l-91 -91v-101h128v64h160v-224h-137v-128h137v-192h-160v64h-128v-102l91 -90h235z" />
    <glyph glyph-name="four" unicode="4" horiz-adv-x="513" 
d="M320 320h-136l136 230v-230zM480 192v128h-32v480h-127l-289 -499l43 -109h245v-192h128v192h32z" />
    <glyph glyph-name="five" unicode="5" horiz-adv-x="480" 
d="M448 90v273l-86 85h-202v224h288v128h-416v-388l92 -92h196v-192h-160v64h-128v-102l91 -90h235z" />
    <glyph glyph-name="six" unicode="6" horiz-adv-x="480" 
d="M320 128h-160v224h160v-224zM448 90v299l-90 91h-198v192h160v-64h128v101l-90 91h-235l-91 -91v-619l91 -90h235z" />
    <glyph glyph-name="seven" unicode="7" horiz-adv-x="491" 
d="M448 680l-37 120h-379v-192h128v64h150l-249 -672h135z" />
    <glyph glyph-name="eight" unicode="8" horiz-adv-x="480" 
d="M320 128h-160v224h160v-224zM320 480h-160v192h160v-192zM448 90v259l-61 49l61 50v261l-90 91h-235l-91 -91v-258l52 -50l-52 -49v-262l91 -90h235z" />
    <glyph glyph-name="nine" unicode="9" horiz-adv-x="480" 
d="M320 448h-160v224h160v-224zM448 90v619l-90 91h-235l-91 -91v-297l91 -92h197v-192h-160v64h-128v-102l91 -90h235z" />
    <glyph glyph-name="colon" unicode=":" 
 />
    <glyph glyph-name="semicolon" unicode=";" 
 />
    <glyph glyph-name="less" unicode="&#x3c;" 
 />
    <glyph glyph-name="equal" unicode="=" 
 />
    <glyph glyph-name="greater" unicode="&#x3e;" 
 />
    <glyph glyph-name="question" unicode="?" horiz-adv-x="466" 
d="M288 0v128h-128v-128h128zM416 475v234l-91 91h-202l-91 -91v-101h128v64h128v-159l-128 -152v-161h128v120z" />
    <glyph glyph-name="at" unicode="@" horiz-adv-x="400" 
d="M300 53v119h-108v-64h-52v296h52v-64h108v120l-54 52h-162l-52 -52v-407l52 -53h162z" />
    <glyph glyph-name="A" unicode="A" horiz-adv-x="430" 
d="M248 251h-51l26 143zM421 0l-139 800h-115l-147 -800h130l23 125h96l22 -125h130z" />
    <glyph glyph-name="B" unicode="B" horiz-adv-x="480" 
d="M320 128h-160v224h160v-224zM320 480h-160v192h160v-192zM448 90v260l-48 48l48 52v259l-90 91h-326v-800h326z" />
    <glyph glyph-name="C" unicode="C" horiz-adv-x="480" 
d="M448 90v154h-128v-116h-160v544h160v-116h128v153l-90 91h-235l-91 -91v-619l91 -90h235z" />
    <glyph glyph-name="D" unicode="D" horiz-adv-x="480" 
d="M320 128h-160v544h160v-544zM448 90v619l-90 91h-326v-800h326z" />
    <glyph glyph-name="E" unicode="E" horiz-adv-x="460" 
d="M430 0v128h-270v224h100v128h-100v192h270v128h-398v-800h398z" />
    <glyph glyph-name="F" unicode="F" horiz-adv-x="460" 
d="M430 672v128h-398v-800h128v352h100v128h-100v192h270z" />
    <glyph glyph-name="G" unicode="G" horiz-adv-x="478" 
d="M448 90v262h-188v-128h60v-96h-160v544h160v-116h128v153l-90 91h-235l-91 -91v-619l91 -90h235z" />
    <glyph glyph-name="H" unicode="H" horiz-adv-x="480" 
d="M448 0v800h-128v-320h-160v320h-128v-800h128v352h160v-352h128z" />
    <glyph glyph-name="I" unicode="I" horiz-adv-x="190" 
d="M160 0v800h-128v-800h128z" />
    <glyph glyph-name="J" unicode="J" horiz-adv-x="480" 
d="M448 90v710h-128v-672h-160v116h-128v-154l91 -90h235z" />
    <glyph glyph-name="K" unicode="K" horiz-adv-x="445" 
d="M160 0v349l136 -349h134l-184 481l159 319h-135l-110 -222v222h-128v-800h128z" />
    <glyph glyph-name="L" unicode="L" horiz-adv-x="460" 
d="M430 0v128h-270v672h-128v-800h398z" />
    <glyph glyph-name="M" unicode="M" horiz-adv-x="480" 
d="M448 0v800h-128l-80 -205l-80 205h-128v-800h128v502l80 -205l80 205v-502h128z" />
    <glyph glyph-name="N" unicode="N" horiz-adv-x="480" 
d="M448 0v800h-128v-462l-170 462h-118v-800h128v450l170 -450h118z" />
    <glyph glyph-name="O" unicode="O" horiz-adv-x="480" 
d="M320 128h-160v544h160v-544zM448 90v619l-90 91h-235l-91 -91v-619l91 -90h235z" />
    <glyph glyph-name="P" unicode="P" horiz-adv-x="480" 
d="M320 480h-160v192h160v-192zM448 443v266l-90 91h-326v-800h128v352h198z" />
    <glyph glyph-name="Q" unicode="Q" horiz-adv-x="480" 
d="M320 128h-160v544h160v-544zM448 90v619l-90 91h-235l-91 -91v-619l91 -90h138l32 -64h96l-31 64z" />
    <glyph glyph-name="R" unicode="R" horiz-adv-x="480" 
d="M320 480h-160v192h160v-192zM448 443v266l-90 91h-326v-800h128v352h61l95 -352h132l-90 352z" />
    <glyph glyph-name="S" unicode="S" horiz-adv-x="480" 
d="M448 576v133l-90 91h-235l-91 -91v-266l91 -91h197v-224h-160v96h-128v-134l91 -90h235l90 90v299l-90 91h-198v192h160v-96h128z" />
    <glyph glyph-name="T" unicode="T" horiz-adv-x="460" 
d="M428 672v128h-396v-128h128v-672h140v672h128z" />
    <glyph glyph-name="U" unicode="U" horiz-adv-x="480" 
d="M448 90v710h-128v-672h-160v672h-128v-710l91 -90h235z" />
    <glyph glyph-name="V" unicode="V" horiz-adv-x="450" 
d="M418 800h-117l-70 -402l-71 402h-130l140 -800h121z" />
    <glyph glyph-name="W" unicode="W" horiz-adv-x="562" 
d="M528 800h-120l-36 -331l-70 331h-41l-70 -331l-37 331h-119l72 -800h122l52 262l53 -262h122z" />
    <glyph glyph-name="X" unicode="X" horiz-adv-x="490" 
d="M464 0l-147 418l147 382h-133l-83 -229l-82 229h-134l148 -382l-148 -418h134l82 229l83 -229h133z" />
    <glyph glyph-name="Y" unicode="Y" horiz-adv-x="480" 
d="M462 800h-133l-83 -230l-83 230h-133l152 -400v-400h128v400z" />
    <glyph glyph-name="Z" unicode="Z" horiz-adv-x="490" 
d="M463 690l-55 110h-285l-56 -128h244l-279 -552l56 -120h299l59 128h-267z" />
    <glyph glyph-name="bracketleft" unicode="[" 
 />
    <glyph glyph-name="backslash" unicode="\" 
 />
    <glyph glyph-name="bracketright" unicode="]" 
 />
    <glyph glyph-name="asciicircum" unicode="^" horiz-adv-x="400" 
d="M282 0v108h-142v94h82v108h-82v94h142v108h-250v-512h250z" />
    <glyph glyph-name="underscore" unicode="_" 
 />
    <glyph glyph-name="grave" unicode="`" 
 />
    <glyph glyph-name="a" unicode="a" horiz-adv-x="461" 
d="M431 0l-139 800h-115l-147 -800h130l23 125h96l22 -125h130zM258 251h-51l26 143z" />
    <glyph glyph-name="b" unicode="b" horiz-adv-x="480" 
d="M448 90v260l-48 48l48 52v259l-90 91h-326v-800h326zM320 480h-160v192h160v-192zM320 128h-160v224h160v-224z" />
    <glyph glyph-name="c" unicode="c" horiz-adv-x="480" 
d="M448 90v154h-128v-116h-160v544h160v-116h128v153l-90 91h-235l-91 -91v-619l91 -90h235z" />
    <glyph glyph-name="d" unicode="d" horiz-adv-x="480" 
d="M448 90v619l-90 91h-326v-800h326zM320 128h-160v544h160v-544z" />
    <glyph glyph-name="e" unicode="e" horiz-adv-x="460" 
d="M430 0v128h-270v224h100v128h-100v192h270v128h-398v-800h398z" />
    <glyph glyph-name="f" unicode="f" horiz-adv-x="460" 
d="M430 672v128h-398v-800h128v352h100v128h-100v192h270z" />
    <glyph glyph-name="g" unicode="g" horiz-adv-x="478" 
d="M448 90v262h-188v-128h60v-96h-160v544h160v-116h128v153l-90 91h-235l-91 -91v-619l91 -90h235z" />
    <glyph glyph-name="h" unicode="h" horiz-adv-x="480" 
d="M448 0v800h-128v-320h-160v320h-128v-800h128v352h160v-352h128z" />
    <glyph glyph-name="i" unicode="i" horiz-adv-x="191" 
d="M160 0v800h-128v-800h128z" />
    <glyph glyph-name="j" unicode="j" horiz-adv-x="480" 
d="M448 90v710h-128v-672h-160v116h-128v-154l91 -90h235z" />
    <glyph glyph-name="k" unicode="k" horiz-adv-x="460" 
d="M160 0v349l136 -349h134l-184 481l159 319h-135l-110 -222v222h-128v-800h128z" />
    <glyph glyph-name="l" unicode="l" horiz-adv-x="460" 
d="M430 0v128h-270v672h-128v-800h398z" />
    <glyph glyph-name="m" unicode="m" horiz-adv-x="480" 
d="M448 0v800h-128l-80 -205l-80 205h-128v-800h128v502l80 -205l80 205v-502h128z" />
    <glyph glyph-name="n" unicode="n" horiz-adv-x="480" 
d="M448 0v800h-128v-462l-170 462h-118v-800h128v450l170 -450h118z" />
    <glyph glyph-name="o" unicode="o" horiz-adv-x="480" 
d="M448 90v619l-90 91h-235l-91 -91v-619l91 -90h235zM320 128h-160v544h160v-544z" />
    <glyph glyph-name="p" unicode="p" horiz-adv-x="480" 
d="M448 443v266l-90 91h-326v-800h128v352h198zM320 480h-160v192h160v-192z" />
    <glyph glyph-name="q" unicode="q" horiz-adv-x="480" 
d="M448 90v619l-90 91h-235l-91 -91v-619l91 -90h138l32 -64h96l-31 64zM320 128h-160v544h160v-544z" />
    <glyph glyph-name="r" unicode="r" horiz-adv-x="480" 
d="M448 443v266l-90 91h-326v-800h128v352h61l95 -352h132l-90 352zM320 480h-160v192h160v-192z" />
    <glyph glyph-name="s" unicode="s" horiz-adv-x="480" 
d="M448 576v133l-90 91h-235l-91 -91v-266l91 -91h197v-224h-160v96h-128v-134l91 -90h235l90 90v299l-90 91h-198v192h160v-96h128z" />
    <glyph glyph-name="t" unicode="t" horiz-adv-x="460" 
d="M428 672v128h-396v-128h128v-672h140v672h128z" />
    <glyph glyph-name="u" unicode="u" horiz-adv-x="480" 
d="M448 90v710h-128v-672h-160v672h-128v-710l91 -90h235z" />
    <glyph glyph-name="v" unicode="v" horiz-adv-x="450" 
d="M418 800h-117l-70 -402l-71 402h-130l140 -800h121z" />
    <glyph glyph-name="w" unicode="w" horiz-adv-x="562" 
d="M528 800h-120l-36 -331l-70 331h-41l-70 -331l-37 331h-119l72 -800h122l52 262l53 -262h122z" />
    <glyph glyph-name="x" unicode="x" horiz-adv-x="490" 
d="M464 0l-147 418l147 382h-133l-83 -229l-82 229h-134l148 -382l-148 -418h134l82 229l83 -229h133z" />
    <glyph glyph-name="y" unicode="y" horiz-adv-x="490" 
d="M462 800h-133l-83 -230l-83 230h-133l152 -400v-400h128v400z" />
    <glyph glyph-name="z" unicode="z" horiz-adv-x="490" 
d="M463 690l-55 110h-285l-56 -128h244l-279 -552l56 -120h299l59 128h-267z" />
    <glyph glyph-name="braceleft" unicode="{" 
 />
    <glyph glyph-name="bar" unicode="|" 
 />
    <glyph glyph-name="braceright" unicode="}" 
 />
    <glyph glyph-name="asciitilde" unicode="~" 
 />
    <glyph glyph-name="exclamdown" unicode="&#xa1;" 
 />
    <glyph glyph-name="cent" unicode="&#xa2;" 
 />
    <glyph glyph-name="sterling" unicode="&#xa3;" 
 />
    <glyph glyph-name="currency" unicode="&#xa4;" 
 />
    <glyph glyph-name="yen" unicode="&#xa5;" 
 />
    <glyph glyph-name="brokenbar" unicode="&#xa6;" 
 />
    <glyph glyph-name="section" unicode="&#xa7;" 
 />
    <glyph glyph-name="dieresis" unicode="&#xa8;" 
 />
    <glyph glyph-name="copyright" unicode="&#xa9;" 
 />
    <glyph glyph-name="ordfeminine" unicode="&#xaa;" 
 />
    <glyph glyph-name="guillemotleft" unicode="&#xab;" 
 />
    <glyph glyph-name="logicalnot" unicode="&#xac;" 
 />
    <glyph glyph-name="minus" unicode="&#xad;" 
 />
    <glyph glyph-name="minus" unicode="&#x2212;" 
 />
    <glyph glyph-name="registered" unicode="&#xae;" 
 />
    <glyph glyph-name="macron" unicode="&#xaf;" 
 />
    <glyph glyph-name="degree" unicode="&#xb0;" 
 />
    <glyph glyph-name="plusminus" unicode="&#xb1;" 
 />
    <glyph glyph-name="twosuperior" unicode="&#xb2;" 
 />
    <glyph glyph-name="threesuperior" unicode="&#xb3;" 
 />
    <glyph glyph-name="acute" unicode="&#xb4;" 
 />
    <glyph glyph-name="mu" unicode="&#xb5;" 
 />
    <glyph glyph-name="paragraph" unicode="&#xb6;" 
 />
    <glyph glyph-name="periodcentered" unicode="&#xb7;" 
 />
    <glyph glyph-name="periodcentered" unicode="&#x2219;" 
 />
    <glyph glyph-name="cedilla" unicode="&#xb8;" 
 />
    <glyph glyph-name="onesuperior" unicode="&#xb9;" 
 />
    <glyph glyph-name="ordmasculine" unicode="&#xba;" 
 />
    <glyph glyph-name="guillemotright" unicode="&#xbb;" 
 />
    <glyph glyph-name="onequarter" unicode="&#xbc;" 
 />
    <glyph glyph-name="onehalf" unicode="&#xbd;" 
 />
    <glyph glyph-name="threequarters" unicode="&#xbe;" 
 />
    <glyph glyph-name="questiondown" unicode="&#xbf;" 
 />
    <glyph glyph-name="Agrave" unicode="&#xc0;" 
 />
    <glyph glyph-name="Aacute" unicode="&#xc1;" 
 />
    <glyph glyph-name="Acircumflex" unicode="&#xc2;" 
 />
    <glyph glyph-name="Atilde" unicode="&#xc3;" 
 />
    <glyph glyph-name="Adieresis" unicode="&#xc4;" 
 />
    <glyph glyph-name="Aring" unicode="&#xc5;" 
 />
    <glyph glyph-name="AE" unicode="&#xc6;" 
 />
    <glyph glyph-name="Ccedilla" unicode="&#xc7;" 
 />
    <glyph glyph-name="Egrave" unicode="&#xc8;" 
 />
    <glyph glyph-name="Eacute" unicode="&#xc9;" 
 />
    <glyph glyph-name="Ecircumflex" unicode="&#xca;" 
 />
    <glyph glyph-name="Edieresis" unicode="&#xcb;" 
 />
    <glyph glyph-name="Igrave" unicode="&#xcc;" 
 />
    <glyph glyph-name="Iacute" unicode="&#xcd;" 
 />
    <glyph glyph-name="Icircumflex" unicode="&#xce;" 
 />
    <glyph glyph-name="Idieresis" unicode="&#xcf;" 
 />
    <glyph glyph-name="Eth" unicode="&#xd0;" 
 />
    <glyph glyph-name="Ntilde" unicode="&#xd1;" 
 />
    <glyph glyph-name="Ograve" unicode="&#xd2;" 
 />
    <glyph glyph-name="Oacute" unicode="&#xd3;" 
 />
    <glyph glyph-name="Ocircumflex" unicode="&#xd4;" 
 />
    <glyph glyph-name="Otilde" unicode="&#xd5;" 
 />
    <glyph glyph-name="Odieresis" unicode="&#xd6;" 
 />
    <glyph glyph-name="multiply" unicode="&#xd7;" 
 />
    <glyph glyph-name="Oslash" unicode="&#xd8;" 
 />
    <glyph glyph-name="Ugrave" unicode="&#xd9;" 
 />
    <glyph glyph-name="Uacute" unicode="&#xda;" 
 />
    <glyph glyph-name="Ucircumflex" unicode="&#xdb;" 
 />
    <glyph glyph-name="Udieresis" unicode="&#xdc;" 
 />
    <glyph glyph-name="Yacute" unicode="&#xdd;" 
 />
    <glyph glyph-name="Thorn" unicode="&#xde;" 
 />
    <glyph glyph-name="germandbls" unicode="&#xdf;" 
 />
    <glyph glyph-name="agrave" unicode="&#xe0;" 
 />
    <glyph glyph-name="aacute" unicode="&#xe1;" 
 />
    <glyph glyph-name="acircumflex" unicode="&#xe2;" 
 />
    <glyph glyph-name="atilde" unicode="&#xe3;" 
 />
    <glyph glyph-name="adieresis" unicode="&#xe4;" 
 />
    <glyph glyph-name="aring" unicode="&#xe5;" 
 />
    <glyph glyph-name="ae" unicode="&#xe6;" 
 />
    <glyph glyph-name="ccedilla" unicode="&#xe7;" 
 />
    <glyph glyph-name="egrave" unicode="&#xe8;" 
 />
    <glyph glyph-name="eacute" unicode="&#xe9;" 
 />
    <glyph glyph-name="ecircumflex" unicode="&#xea;" 
 />
    <glyph glyph-name="edieresis" unicode="&#xeb;" 
 />
    <glyph glyph-name="igrave" unicode="&#xec;" 
 />
    <glyph glyph-name="iacute" unicode="&#xed;" 
 />
    <glyph glyph-name="icircumflex" unicode="&#xee;" 
 />
    <glyph glyph-name="idieresis" unicode="&#xef;" 
 />
    <glyph glyph-name="eth" unicode="&#xf0;" 
 />
    <glyph glyph-name="ntilde" unicode="&#xf1;" 
 />
    <glyph glyph-name="ograve" unicode="&#xf2;" 
 />
    <glyph glyph-name="oacute" unicode="&#xf3;" 
 />
    <glyph glyph-name="ocircumflex" unicode="&#xf4;" 
 />
    <glyph glyph-name="otilde" unicode="&#xf5;" 
 />
    <glyph glyph-name="odieresis" unicode="&#xf6;" 
 />
    <glyph glyph-name="divide" unicode="&#xf7;" 
 />
    <glyph glyph-name="oslash" unicode="&#xf8;" 
 />
    <glyph glyph-name="ugrave" unicode="&#xf9;" 
 />
    <glyph glyph-name="uacute" unicode="&#xfa;" 
 />
    <glyph glyph-name="ucircumflex" unicode="&#xfb;" 
 />
    <glyph glyph-name="udieresis" unicode="&#xfc;" 
 />
    <glyph glyph-name="yacute" unicode="&#xfd;" 
 />
    <glyph glyph-name="thorn" unicode="&#xfe;" 
 />
    <glyph glyph-name="ydieresis" unicode="&#xff;" 
 />
    <glyph glyph-name="OE" unicode="&#x152;" 
 />
    <glyph glyph-name="oe" unicode="&#x153;" 
 />
    <glyph glyph-name="Scaron" unicode="&#x160;" 
 />
    <glyph glyph-name="scaron" unicode="&#x161;" 
 />
    <glyph glyph-name="Ydieresis" unicode="&#x178;" 
 />
    <glyph glyph-name="florin" unicode="&#x192;" 
 />
    <glyph glyph-name="circumflex" unicode="&#x2c6;" 
 />
    <glyph glyph-name="tilde" unicode="&#x2dc;" 
 />
    <glyph glyph-name="endash" unicode="&#x2013;" 
 />
    <glyph glyph-name="emdash" unicode="&#x2014;" 
 />
    <glyph glyph-name="quoteleft" unicode="&#x2018;" 
 />
    <glyph glyph-name="quoteright" unicode="&#x2019;" 
 />
    <glyph glyph-name="quotesinglbase" unicode="&#x201a;" 
 />
    <glyph glyph-name="quotedblleft" unicode="&#x201c;" 
 />
    <glyph glyph-name="quotedblright" unicode="&#x201d;" 
 />
    <glyph glyph-name="quotedblbase" unicode="&#x201e;" 
 />
    <glyph glyph-name="dagger" unicode="&#x2020;" 
 />
    <glyph glyph-name="daggerdbl" unicode="&#x2021;" 
 />
    <glyph glyph-name="bullet" unicode="&#x2022;" 
 />
    <glyph glyph-name="ellipsis" unicode="&#x2026;" 
 />
    <glyph glyph-name="perthousand" unicode="&#x2030;" 
 />
    <glyph glyph-name="guilsinglleft" unicode="&#x2039;" 
 />
    <glyph glyph-name="guilsinglright" unicode="&#x203a;" 
 />
    <glyph glyph-name="trademark" unicode="&#x2122;" 
 />
    </font>
</defs>
</svg>
